  0
SECTION
  2
HEADER
  9
$ACADVER
  1
AC1014
  9
$HANDSEED
  5
FFFF
  9
$MEASUREMENT
 70
     1
  0
ENDSEC
  0
SECTION
  2
TABLES
  0
TABLE
  2
VPORT
  5
8
330
0
100
AcDbSymbolTable
 70
     4
  0
VPORT
  5
2E
330
8
100
AcDbSymbolTableRecord
100
AcDbViewportTableRecord
  2
*ACTIVE
 70
     0
 10
0.0
 20
0.0
 11
1.0
 21
1.0
 12
210.0
 22
148.5
 13
0.0
 23
0.0
 14
10.0
 24
10.0
 15
10.0
 25
10.0
 16
0.0
 26
0.0
 36
1.0
 17
0.0
 27
0.0
 37
0.0
 40
341.0
 41
1.24
 42
50.0
 43
0.0
 44
0.0
 50
0.0
 51
0.0
 71
     0
 72
   100
 73
     1
 74
     3
 75
     0
 76
     0
 77
     0
 78
     0
  0
ENDTAB
  0
TABLE
  2
LTYPE
  5
5
330
0
100
AcDbSymbolTable
 70
     1
  0
LTYPE
  5
14
330
5
100
AcDbSymbolTableRecord
100
AcDbLinetypeTableRecord
  2
BYBLOCK
 70
     0
  3

 72
    65
 73
     0
 40
0.0
  0
LTYPE
  5
15
330
5
100
AcDbSymbolTableRecord
100
AcDbLinetypeTableRecord
  2
BYLAYER
 70
     0
  3

 72
    65
 73
     0
 40
0.0
  0
LTYPE
  5
16
330
5
100
AcDbSymbolTableRecord
100
AcDbLinetypeTableRecord
  2
CONTINUOUS
 70
     0
  3
Solid line
 72
    65
 73
     0
 40
0.0
  0
ENDTAB
  0
TABLE
  2
LAYER
  5
2
100
AcDbSymbolTable
 70
2
  0
LAYER
  5
50
100
AcDbSymbolTableRecord
100
AcDbLayerTableRecord
  2
0
 70
0
  6
CONTINUOUS
  0
LAYER
  5
51
100
AcDbSymbolTableRecord
100
AcDbLayerTableRecord
  2
Default
 70
0
  6
CONTINUOUS
  0
ENDTAB
  0
TABLE
  2
STYLE
  5
3
330
0
100
AcDbSymbolTable
 70
     1
  0
STYLE
  5
11
330
3
100
AcDbSymbolTableRecord
100
AcDbTextStyleTableRecord
  2
STANDARD
 70
     0
 40
0.0
 41
1.0
 50
0.0
 71
     0
 42
2.5
  3
txt
  4

  0
ENDTAB
  0
TABLE
  2
VIEW
  5
6
330
0
100
AcDbSymbolTable
 70
     0
  0
ENDTAB
  0
TABLE
  2
UCS
  5
7
330
0
100
AcDbSymbolTable
 70
     0
  0
ENDTAB
  0
TABLE
  2
APPID
  5
9
330
0
100
AcDbSymbolTable
 70
     2
  0
APPID
  5
12
330
9
100
AcDbSymbolTableRecord
100
AcDbRegAppTableRecord
  2
ACAD
 70
     0
  0
ENDTAB
  0
TABLE
  2
DIMSTYLE
  5
A
330
0
100
AcDbSymbolTable
 70
     1
  0
DIMSTYLE
105
27
330
A
100
AcDbSymbolTableRecord
100
AcDbDimStyleTableRecord
  2
ISO-25
 70
     0
  3

  4

  5

  6

  7

 40
1.0
 41
2.5
 42
0.625
 43
3.75
 44
1.25
 45
0.0
 46
0.0
 47
0.0
 48
0.0
140
2.5
141
2.5
142
0.0
143
0.03937007874016
144
1.0
145
0.0
146
1.0
147
0.625
 71
     0
 72
     0
 73
     0
 74
     0
 75
     0
 76
     0
 77
     1
 78
     8
170
     0
171
     3
172
     1
173
     0
174
     0
175
     0
176
     0
177
     0
178
     0
270
     2
271
     2
272
     2
273
     2
274
     3
340
11
275
     0
280
     0
281
     0
282
     0
283
     0
284
     8
285
     0
286
     0
287
     3
288
     0
  0
ENDTAB
  0
TABLE
  2
BLOCK_RECORD
  5
1
330
0
100
AcDbSymbolTable
 70
     1
  0
BLOCK_RECORD
  5
1F
330
1
100
AcDbSymbolTableRecord
100
AcDbBlockTableRecord
  2
*MODEL_SPACE
  0
BLOCK_RECORD
  5
1B
330
1
100
AcDbSymbolTableRecord
100
AcDbBlockTableRecord
  2
*PAPER_SPACE
  0
ENDTAB
  0
ENDSEC
  0
SECTION
  2
BLOCKS
  0
BLOCK
  5
20
330
1F
100
AcDbEntity
  8
0
100
AcDbBlockBegin
  2
*MODEL_SPACE
 70
     0
 10
0.0
 20
0.0
 30
0.0
  3
*MODEL_SPACE
  1

  0
ENDBLK
  5
21
330
1F
100
AcDbEntity
  8
0
100
AcDbBlockEnd
  0
BLOCK
  5
1C
330
1B
100
AcDbEntity
 67
     1
  8
0
100
AcDbBlockBegin
  2
*PAPER_SPACE
  1

  0
ENDBLK
  5
1D
330
1B
100
AcDbEntity
 67
     1
  8
0
100
AcDbBlockEnd
  0
ENDSEC
  0
SECTION
  2
ENTITIES
  0
LWPOLYLINE
  5
100
100
AcDbEntity
  8
Default
 62
4
100
AcDbPolyline
 90
2
 70
0
 10
0.846667
 20
297.846667
 30
0.0
 10
-0.846667
 20
296.153333
 30
0.0
  0
LWPOLYLINE
  5
101
100
AcDbEntity
  8
Default
 62
4
100
AcDbPolyline
 90
2
 70
0
 10
0.000000
 20
298.411111
 30
0.0
 10
0.000000
 20
295.588889
 30
0.0
  0
LWPOLYLINE
  5
102
100
AcDbEntity
  8
Default
 62
4
100
AcDbPolyline
 90
2
 70
0
 10
2.257778
 20
295.871111
 30
0.0
 10
1.128889
 20
294.742222
 30
0.0
  0
LWPOLYLINE
  5
103
100
AcDbEntity
  8
Default
 62
4
100
AcDbPolyline
 90
2
 70
0
 10
1.693333
 20
296.435556
 30
0.0
 10
0.564444
 20
295.306667
 30
0.0
  0
LWPOLYLINE
  5
104
100
AcDbEntity
  8
Default
 62
4
100
AcDbPolyline
 90
2
 70
0
 10
1.128889
 20
297.000000
 30
0.0
 10
0.000000
 20
295.871111
 30
0.0
  0
LWPOLYLINE
  5
105
100
AcDbEntity
  8
0
 62
4
100
AcDbPolyline
 90
3
 70
0
 10
17.282222
 20
34.852589
 30
0.0
 10
17.635775
 20
34.999034
 30
0.0
 10
17.782222
 20
35.352588
 30
0.0
  0
LWPOLYLINE
  5
106
100
AcDbEntity
  8
0
 62
4
100
AcDbPolyline
 90
5
 70
0
 10
17.782222
 20
47.852588
 30
0.0
 10
17.629981
 20
48.617955
 30
0.0
 10
17.196436
 20
49.266804
 30
0.0
 10
16.547589
 20
49.700348
 30
0.0
 10
15.782222
 20
49.852590
 30
0.0
  0
LWPOLYLINE
  5
107
100
AcDbEntity
  8
0
 62
4
100
AcDbPolyline
 90
2
 70
0
 10
17.782222
 20
47.852588
 30
0.0
 10
17.782222
 20
35.352588
 30
0.0
  0
LWPOLYLINE
  5
108
100
AcDbEntity
  8
0
 62
4
100
AcDbPolyline
 90
2
 70
0
 10
13.782222
 20
37.602590
 30
0.0
 10
14.782222
 20
37.602590
 30
0.0
  0
LWPOLYLINE
  5
109
100
AcDbEntity
  8
0
 62
4
100
AcDbPolyline
 90
2
 70
0
 10
15.032222
 20
2.102585
 30
0.0
 10
15.032222
 20
4.032421
 30
0.0
  0
LWPOLYLINE
  5
10a
100
AcDbEntity
  8
0
 62
4
100
AcDbPolyline
 90
3
 70
0
 10
15.438396
 20
4.227634
 30
0.0
 10
15.173927
 20
4.257747
 30
0.0
 10
15.032222
 20
4.032421
 30
0.0
  0
LWPOLYLINE
  5
10b
100
AcDbEntity
  8
0
 62
4
100
AcDbPolyline
 90
2
 70
0
 10
13.782222
 20
4.102581
 30
0.0
 10
13.782222
 20
37.602590
 30
0.0
  0
LWPOLYLINE
  5
10c
100
AcDbEntity
  8
0
 62
4
100
AcDbPolyline
 90
5
 70
0
 10
12.782222
 20
3.102583
 30
0.0
 10
13.171467
 20
3.181154
 30
0.0
 10
13.489328
 20
3.395473
 30
0.0
 10
13.703637
 20
3.713340
 30
0.0
 10
13.782222
 20
4.102581
 30
0.0
  0
LWPOLYLINE
  5
10d
100
AcDbEntity
  8
0
 62
4
100
AcDbPolyline
 90
7
 70
0
 10
15.032222
 20
2.102585
 30
0.0
 10
4.500000
 20
2.102585
 30
0.0
 10
4.143057
 20
2.258823
 30
0.0
 10
4.019578
 20
2.602570
 30
0.0
 10
4.136311
 20
2.946345
 30
0.0
 10
4.500000
 20
3.102583
 30
0.0
 10
12.782222
 20
3.102583
 30
0.0
  0
LWPOLYLINE
  5
10e
100
AcDbEntity
  8
0
 62
4
100
AcDbPolyline
 90
12
 70
0
 10
19.121157
 20
0.141112
 30
0.0
 10
17.704393
 20
-1.800210
 30
0.0
 10
16.144287
 20
-2.692794
 30
0.0
 10
13.462943
 20
-2.436169
 30
0.0
 10
12.935742
 20
-2.044981
 30
0.0
 10
12.938085
 20
-1.504525
 30
0.0
 10
13.880304
 20
-1.120223
 30
0.0
 10
15.081071
 20
-0.726834
 30
0.0
 10
15.071898
 20
0.141112
 30
0.0
 10
0.141100
 20
0.141112
 30
0.0
 10
0.141111
 20
49.852590
 30
0.0
 10
15.782222
 20
49.852590
 30
0.0
  0
LWPOLYLINE
  5
10f
100
AcDbEntity
  8
0
 62
4
100
AcDbPolyline
 90
2
 70
0
 10
19.433505
 20
1.031552
 30
0.0
 10
15.438396
 20
4.227634
 30
0.0
  0
LWPOLYLINE
  5
110
100
AcDbEntity
  8
0
 62
4
100
AcDbPolyline
 90
5
 70
0
 10
19.121157
 20
0.141112
 30
0.0
 10
19.410339
 20
0.233230
 30
0.0
 10
19.592978
 20
0.475602
 30
0.0
 10
19.601781
 20
0.778991
 30
0.0
 10
19.433505
 20
1.031552
 30
0.0
  0
LWPOLYLINE
  5
111
100
AcDbEntity
  8
0
 62
4
100
AcDbPolyline
 90
2
 70
0
 10
14.782222
 20
37.602590
 30
0.0
 10
15.823208
 20
35.421806
 30
0.0
  0
LWPOLYLINE
  5
112
100
AcDbEntity
  8
0
 62
4
100
AcDbPolyline
 90
2
 70
0
 10
16.725664
 20
34.852589
 30
0.0
 10
17.282222
 20
34.852589
 30
0.0
  0
LWPOLYLINE
  5
113
100
AcDbEntity
  8
0
 62
4
100
AcDbPolyline
 90
3
 70
0
 10
15.823208
 20
35.421806
 30
0.0
 10
16.192177
 20
35.006781
 30
0.0
 10
16.725664
 20
34.852589
 30
0.0
  0
ENDSEC
  0
SECTION
  2
OBJECTS
  0
DICTIONARY
  5
C
330
0
100
AcDbDictionary
  3
ACAD_GROUP
350
D
  3
ACAD_MLINESTYLE
350
17
  0
DICTIONARY
  5
D
330
C
100
AcDbDictionary
  0
DICTIONARY
  5
1A
330
C
100
AcDbDictionary
  0
DICTIONARY
  5
17
330
C
100
AcDbDictionary
  3
STANDARD
350
18
  0
DICTIONARY
  5
19
330
C
100
AcDbDictionary
  0
ENDSEC
  0
EOF
