<?xml version="1.0" encoding="UTF-8" standalone="no"?>
<!-- Created with Inkscape (http://www.inkscape.org/) -->

<svg
   width="100mm"
   height="100mm"
   viewBox="0 0 100 100"
   version="1.1"
   id="svg1"
   inkscape:version="1.4.1-rc (06eac75fbf, 2025-03-29)"
   sodipodi:docname="box-sign.svg"
   xmlns:inkscape="http://www.inkscape.org/namespaces/inkscape"
   xmlns:sodipodi="http://sodipodi.sourceforge.net/DTD/sodipodi-0.dtd"
   xmlns="http://www.w3.org/2000/svg"
   xmlns:svg="http://www.w3.org/2000/svg">
  <sodipodi:namedview
     id="namedview1"
     pagecolor="#ffffff"
     bordercolor="#000000"
     borderopacity="0.25"
     inkscape:showpageshadow="2"
     inkscape:pageopacity="0.0"
     inkscape:pagecheckerboard="0"
     inkscape:deskcolor="#d1d1d1"
     inkscape:document-units="mm"
     showguides="true"
     inkscape:zoom="1.0116647"
     inkscape:cx="479.40787"
     inkscape:cy="180.39575"
     inkscape:window-width="1854"
     inkscape:window-height="1011"
     inkscape:window-x="0"
     inkscape:window-y="0"
     inkscape:window-maximized="1"
     inkscape:current-layer="layer1">
    <sodipodi:guide
       position="107.26027,62.273972"
       orientation="0,-1"
       id="guide3"
       inkscape:locked="false" />
  </sodipodi:namedview>
  <defs
     id="defs1" />
  <g
     inkscape:label="Layer 1"
     inkscape:groupmode="layer"
     id="layer1">
    <text
       xml:space="preserve"
       style="font-size:25.4px;text-align:start;writing-mode:lr-tb;direction:ltr;text-anchor:start;fill:#000000;stroke-width:0.264583"
       x="12.575342"
       y="11.835617"
       id="text1"><tspan
         sodipodi:role="line"
         id="tspan1"
         style="stroke-width:0.264583"></tspan></text>
    <text
       xml:space="preserve"
       style="font-size:11.2889px;text-align:start;writing-mode:lr-tb;direction:ltr;text-anchor:start;fill:#000000;stroke-width:0.264583"
       x="50.916847"
       y="14.800053"
       id="text2"><tspan
         sodipodi:role="line"
         id="tspan2"
         style="font-size:11.2889px;text-align:center;text-anchor:middle;stroke-width:0.264583"
         x="50.916847"
         y="14.800053">PRESS BUTTON</tspan><tspan
         sodipodi:role="line"
         style="font-size:11.2889px;text-align:center;text-anchor:middle;stroke-width:0.264583"
         x="50.916847"
         y="28.911179"
         id="tspan3">↑TO TURN OFF↑</tspan></text>
    <text
       xml:space="preserve"
       style="font-size:11.2889px;text-align:start;writing-mode:lr-tb;direction:ltr;text-anchor:start;fill:#000000;stroke-width:0.264583"
       x="50.916851"
       y="47.353939"
       id="text2-3"><tspan
         sodipodi:role="line"
         id="tspan2-5"
         style="font-size:11.2889px;text-align:center;text-anchor:middle;stroke-width:0.264583"
         x="50.916851"
         y="47.353939">TAP CARD/FOB</tspan><tspan
         sodipodi:role="line"
         style="font-size:11.2889px;text-align:center;text-anchor:middle;stroke-width:0.264583"
         x="50.916851"
         y="61.465065"
         id="tspan3-6">↓TO TURN ON↓</tspan></text>
    <g
       id="g1"
       transform="matrix(0.05786243,0,0,0.05786243,36.057504,66.012118)">
      <path
         d="m 213.73814,482.36812 q 1.94307,3.88615 0.97154,7.7723 -0.97154,4.85768 -4.85769,6.80076 -3.88615,2.91461 -7.77229,1.94307 Q 109.78368,476.5389 54.406072,400.75901 0,323.03605 9.71537,228.79696 20.402277,134.55787 90.352941,70.436433 162.24668,8.2580645 256.48577,7.2865275 q 0.97154,0 2.91461,0.971537 0.97154,0 0.97154,0 0.97153,0 1.94307,0.971537 0.97154,0.9715375 1.94307,0.9715375 1.94308,1.943074 2.91462,3.886148 0,1.943074 0,3.886148 v 98.125235 0 L 291.4611,90.83871 v 0 q 0.97154,-0.971537 2.91461,-1.943074 1.94308,-0.971537 4.85769,-0.971537 1.94307,0 3.88614,0.971537 1.94308,0 3.88615,1.943074 0.97154,0.971537 1.94308,3.886148 0.97153,1.943074 0.97153,3.886148 0,1.943074 0,3.886144 -0.97153,1.94308 -2.91461,3.88615 l -42.74763,45.66224 v 0 q -0.97153,0.97154 -2.91461,1.94307 -2.91461,0.97154 -5.82922,0.97154 -0.97154,0 -2.91461,-0.97154 -2.91461,-0.97153 -3.88615,-1.94307 L 205.96584,106.3833 v 0 q -2.91461,-3.88615 -2.91461,-7.772294 0,-4.857685 2.91461,-7.772296 3.88615,-2.914611 7.7723,-2.914611 4.85769,0 7.7723,2.914611 l 24.28842,25.25996 v 0 -86.466791 0 Q 161.27514,34.489564 99.096774,92.781784 38.86148,152.04554 31.089184,236.56926 q -6.800759,84.52372 42.747628,153.50285 23.316888,33.03225 58.292218,55.37761 34.0038,22.34535 74.80835,32.06072 3.88615,0.97153 6.80076,4.85768 z M 173.90512,129.70019 q -0.97153,1.94307 -2.91461,2.91461 -30.11764,21.37381 -46.63377,53.43454 -17.48767,32.06072 -17.48767,68.97912 0,36.91841 17.48767,68.00759 16.51613,33.03226 46.63377,54.40608 3.88615,1.94307 4.85769,6.80075 0,2.91462 -0.97154,6.80076 0,0.97154 -0.97154,0.97154 -2.91461,3.88615 -6.80076,3.88615 -4.85768,1.94307 -7.77229,-0.97154 -34.97533,-23.31689 -55.37761,-60.23529 -19.430741,-37.88995 -19.430741,-79.66604 0,-41.77609 19.430741,-79.66603 20.40228,-36.91841 55.37761,-60.2353 0.97154,-1.94307 3.88615,-1.94307 0.97153,0 1.94307,0 0.97154,0 1.94307,0 1.94308,0 3.88615,0.97154 1.94308,1.94307 2.91461,3.88615 1.94308,0.97153 1.94308,3.88614 0.97153,1.94308 0,3.88615 0,1.94308 -1.94308,3.88615 z m 165.16129,250.65655 q 0,-0.97154 0.97154,-1.94308 v 0 0 q 0.97154,-0.97153 0.97154,-1.94307 v 0 0 q 31.08918,-20.40228 48.57685,-52.463 16.51613,-33.03226 16.51613,-68.97913 0,-36.9184 -16.51613,-68.97912 -17.48767,-33.03226 -48.57685,-53.43454 0,0 -0.97154,-0.97154 -0.97154,-0.97153 -0.97154,-1.94307 -0.97153,-1.94307 -1.94307,-3.88615 -0.97154,-1.94307 0,-2.91461 0,-0.97154 0,-0.97154 0.97154,-2.91461 1.94307,-3.88614 0,-0.97154 0.97154,-0.97154 0,-1.94308 1.94307,-1.94308 1.94308,-1.94307 3.88615,-1.94307 2.91461,-0.97154 4.85769,0 1.94307,0 3.88615,1.94307 34.00379,23.31689 54.40607,60.2353 18.4592,37.88994 18.4592,79.66603 0,41.77609 -18.4592,78.6945 -20.40228,37.88994 -54.40607,61.20683 -1.94308,0.97154 -3.88615,1.94308 -2.91461,0 -4.85769,0 -0.97153,0 -1.94307,-0.97154 -0.97154,-0.97154 -1.94308,-0.97154 -1.94307,-0.97154 -1.94307,-1.94307 -0.97154,0 -0.97154,-0.97154 -0.97153,-1.94307 -1.94307,-3.88615 0,0 0,-0.97153 -0.97154,-1.94308 0,-2.91462 0.97154,-2.91461 1.94307,-3.88614 z M 310.89184,13.11575 q 84.52372,20.402277 138.92979,86.466793 44.6907,56.349147 53.43454,127.271347 8.74383,70.9222 -22.34535,136.01518 -31.08919,65.09298 -91.32448,103.95446 -61.20683,37.88994 -133.10057,37.88994 -1.94308,0 -3.88615,-0.97153 -1.94307,-0.97154 -3.88615,-1.94308 -1.94307,-1.94307 -1.94307,-2.91461 0,-0.97154 0,-0.97154 -0.97154,-1.94307 -0.97154,-3.88614 v -96.18217 0 l -24.28842,25.25996 v 0 q -1.94308,1.94308 -5.82923,2.91462 -0.97153,0 -1.94307,0 -3.88615,0 -7.7723,-3.88615 -2.91461,-1.94308 -2.91461,-6.80076 0,-4.85769 2.91461,-7.7723 l 42.74763,-45.66224 v 0 q 2.91461,-2.91461 6.80076,-2.91461 5.82922,0 8.74383,2.91461 l 42.74763,45.66224 v 0 q 2.91461,2.91461 2.91461,7.7723 0,4.85768 -2.91461,6.80076 -3.88615,3.88615 -7.77229,3.88615 -0.97154,0 -1.94308,0 -3.88615,-0.97154 -5.82922,-2.91462 L 267.17268,397.8444 v 0 84.52372 0 q 84.52371,-4.85768 146.70208,-63.1499 60.2353,-60.2353 68.97913,-143.78748 5.82922,-84.52372 -43.71917,-153.50285 -50.51992,-68.007586 -133.10056,-87.438326 -1.94308,0 -3.88615,-0.971537 -0.97154,-1.943074 -2.91461,-3.886148 0,0 0,0 -1.94308,-1.943074 -0.97154,-3.886148 -0.97154,-1.943074 0,-3.886148 0,-1.943074 1.94307,-3.886148 0.97154,-1.943074 2.91461,-2.914611 1.94308,-0.971537 3.88615,-1.943074 1.94308,0 3.88615,0 z M 350.72486,256 q -0.97154,47.60531 -47.60532,81.60911 -3.88614,1.94307 -7.77229,1.94307 -3.88615,-0.97153 -6.80076,-3.88615 L 220.5389,268.62998 v 0 q -3.88615,-3.88615 -2.91461,-7.77229 0,-4.85769 2.91461,-7.7723 3.88615,-3.88615 7.7723,-3.88615 4.85768,0 7.77229,3.88615 l 61.20683,60.23529 v 0 Q 328.37951,288.06072 329.35104,256 q -0.97153,-35.94687 -38.86148,-63.14991 -3.88614,-2.91461 -4.85768,-6.80075 -0.97154,-4.85769 1.94307,-8.74384 2.91461,-2.91461 6.80076,-3.88615 4.85769,-0.97153 8.74383,1.94308 46.63378,34.00379 47.60532,80.63757 z m -132.12903,83.55218 q -4.85769,0 -8.74384,-1.94307 Q 162.24668,303.60531 161.27514,256 q 0.97154,-46.63378 48.57685,-80.63757 3.88615,-2.91461 7.7723,-1.94308 3.88615,0 6.80076,2.91462 l 68.00759,68.00759 v 0 q 2.91461,2.91461 2.91461,7.77229 0,3.88615 -2.91461,6.80076 0,0 0,0.97154 -3.88615,2.91461 -7.7723,2.91461 -4.85768,0 -7.77229,-2.91461 l -61.20684,-61.20683 v 0 Q 184.59203,223.93928 184.59203,256 q 0,34.97533 37.88994,63.14991 3.88615,2.91461 4.85769,7.77229 0.97154,3.88615 -1.94308,7.7723 -2.91461,3.88615 -6.80075,4.85768 z"
         id="path1" />
    </g>
  </g>
</svg>
