<?xml version="1.0" encoding="UTF-8" standalone="no"?>
<svg
   width="131.0627mm"
   height="131.32187mm"
   viewBox="0 -131.32187 131.0627 131.32187"
   id="svg11216"
   version="1.1"
   sodipodi:docname="hackspace_logo_difference.svg"
   inkscape:version="1.1.2 (0a00cf5339, 2022-02-04)"
   xmlns:inkscape="http://www.inkscape.org/namespaces/inkscape"
   xmlns:sodipodi="http://sodipodi.sourceforge.net/DTD/sodipodi-0.dtd"
   xmlns="http://www.w3.org/2000/svg"
   xmlns:svg="http://www.w3.org/2000/svg"
   xmlns:rdf="http://www.w3.org/1999/02/22-rdf-syntax-ns#"
   xmlns:cc="http://creativecommons.org/ns#"
   xmlns:dc="http://purl.org/dc/elements/1.1/">
  <sodipodi:namedview
     id="namedview10"
     pagecolor="#ffffff"
     bordercolor="#666666"
     borderopacity="1.0"
     inkscape:pageshadow="2"
     inkscape:pageopacity="0.0"
     inkscape:pagecheckerboard="0"
     inkscape:document-units="mm"
     showgrid="false"
     inkscape:zoom="0.55704103"
     inkscape:cx="490.98717"
     inkscape:cy="1300.6223"
     inkscape:window-width="1850"
     inkscape:window-height="1016"
     inkscape:window-x="0"
     inkscape:window-y="0"
     inkscape:window-maximized="1"
     inkscape:current-layer="g3121" />
  <title
     id="title3012">Bristol Hackspace Logo v1.1</title>
  <defs
     id="defs3" />
  <metadata
     id="metadata4">
    <rdf:RDF>
      <cc:Work
         rdf:about="">
        <dc:format>image/svg+xml</dc:format>
        <dc:type
           rdf:resource="http://purl.org/dc/dcmitype/StillImage" />
        <dc:title>Bristol Hackspace Logo v1.1</dc:title>
        <cc:license
           rdf:resource="http://creativecommons.org/licenses/by/4.0/" />
        <dc:date>2012-03-22</dc:date>
        <dc:creator>
          <cc:Agent>
            <dc:title>Barney Livingston</dc:title>
          </cc:Agent>
        </dc:creator>
        <dc:description />
      </cc:Work>
      <cc:License
         rdf:about="http://creativecommons.org/licenses/by/4.0/">
        <cc:permits
           rdf:resource="http://creativecommons.org/ns#Reproduction" />
        <cc:permits
           rdf:resource="http://creativecommons.org/ns#Distribution" />
        <cc:requires
           rdf:resource="http://creativecommons.org/ns#Notice" />
        <cc:requires
           rdf:resource="http://creativecommons.org/ns#Attribution" />
        <cc:permits
           rdf:resource="http://creativecommons.org/ns#DerivativeWorks" />
      </cc:License>
    </rdf:RDF>
  </metadata>
  <g
     id="layer1"
     transform="translate(-125.53331,-274.74036)">
    <g
       id="g3121">
      <path
         id="path7569"
         style="fill:#f08818;fill-opacity:1;stroke:none;stroke-width:3.77953"
         d="M 971.4668 496.33398 L 933.73633 565.10938 L 915.29688 634.41797 L 915.30469 634.85938 L 851.82422 638.85352 L 851.77734 638.41602 L 824.79883 571.96484 L 778.74414 508.45898 L 737.01953 516.41992 L 717.57812 592.41797 L 716.95312 664.13477 L 717.07422 664.55859 L 656.58008 684.21289 L 656.42578 683.80078 L 613.76758 626.14844 L 553.37109 576.0918 L 514.93359 594.17773 L 515.00391 672.62305 L 532.23633 742.24219 L 532.45508 742.62109 L 478.75195 776.70508 L 478.5 776.3418 L 422.84375 731.10938 L 351.89453 697.64453 L 319.16406 724.72266 L 338.74023 800.6875 L 372.74414 863.83203 L 373.05078 864.14648 L 329.50977 910.51172 L 329.17773 910.22461 L 264.02148 880.25586 L 186.97852 865.48828 L 162.01172 899.85352 L 199.86328 968.56055 L 248.50195 1021.2676 L 248.87695 1021.4941 L 218.23438 1077.2344 L 217.8418 1077.0391 L 147.27734 1064.2109 L 68.982422 1069.0664 L 53.347656 1108.5625 L 107.09766 1165.6973 L 167.31641 1204.6523 L 167.73438 1204.7793 L 151.91602 1266.3887 L 151.48828 1266.2949 L 79.951172 1271.4238 L 5.3242188 1295.5957 L 0 1337.7383 L 66.271484 1379.7148 L 134.28516 1402.4668 L 134.72266 1402.4863 L 134.72266 1466.0938 L 134.28516 1466.1133 L 66.271484 1488.8652 L 0 1530.8418 L 5.3242188 1572.9844 L 79.951172 1597.1562 L 151.48828 1602.2852 L 151.91602 1602.1914 L 167.73438 1663.8008 L 167.31641 1663.9277 L 107.09766 1702.8828 L 53.347656 1760.0176 L 68.982422 1799.5137 L 147.27734 1804.3691 L 217.8418 1791.541 L 218.23438 1791.3457 L 248.87695 1847.0859 L 248.50195 1847.3125 L 199.86328 1900.0176 L 162.01172 1968.7266 L 186.97852 2003.0918 L 264.02148 1988.3242 L 329.17773 1958.3555 L 329.50977 1958.0664 L 373.05078 2004.4336 L 372.74414 2004.7461 L 338.74023 2067.8926 L 319.16406 2143.8555 L 351.89453 2170.9355 L 422.84375 2137.4707 L 478.5 2092.2383 L 478.75195 2091.875 L 532.45508 2125.959 L 532.23633 2126.3379 L 515.00391 2195.9551 L 514.93359 2274.4023 L 553.37109 2292.4883 L 613.76758 2242.4316 L 656.42578 2184.7793 L 656.58008 2184.3672 L 717.07422 2204.0215 L 716.95312 2204.4453 L 717.57812 2276.1621 L 737.01953 2352.1602 L 778.74414 2360.1211 L 824.79883 2296.6152 L 851.77734 2230.1641 L 851.82422 2229.7266 L 915.30469 2233.7207 L 915.29688 2234.1602 L 933.73633 2303.4688 L 971.4668 2372.2441 L 1013.8613 2369.5762 L 1042.6719 2296.6152 L 1052.2812 2225.541 L 1052.2148 2225.1074 L 1114.6953 2213.1895 L 1114.793 2213.6172 L 1149.8906 2276.1621 L 1203.5391 2333.3926 L 1243.9395 2320.2676 L 1253.7012 2242.4316 L 1245.332 2171.2012 L 1245.1621 2170.7988 L 1302.7148 2143.7168 L 1302.916 2144.1035 L 1352.4648 2195.9551 L 1418.6602 2238.0488 L 1454.5254 2215.2871 L 1444.625 2137.4707 L 1418.8047 2070.5605 L 1418.5391 2070.2109 L 1467.5488 2029.666 L 1467.8438 2029.9941 L 1528.7305 2067.8926 L 1603.3125 2092.2012 L 1632.3926 2061.2363 L 1603.4492 1988.3242 L 1561.8008 1929.9375 L 1561.457 1929.666 L 1598.8438 1878.209 L 1599.207 1878.4492 L 1667.6074 1900.0195 L 1745.8926 1905.0137 L 1766.3574 1867.791 L 1720.1934 1804.3691 L 1665.3301 1758.1738 L 1664.9297 1757.9961 L 1688.3457 1698.8535 L 1688.7578 1699 L 1760.3711 1702.8828 L 1837.4414 1688.25 L 1848.0059 1647.1055 L 1787.5176 1597.1562 L 1722.8926 1566.0586 L 1722.4609 1565.9844 L 1730.4336 1502.8789 L 1730.8711 1502.918 L 1801.1992 1488.8652 L 1872.209 1455.5312 L 1872.209 1413.0508 L 1801.1992 1379.7148 L 1730.8711 1365.6641 L 1730.4336 1365.7012 L 1722.4609 1302.5938 L 1722.8926 1302.5195 L 1787.5176 1271.4219 L 1848.0059 1221.4746 L 1837.4414 1180.3281 L 1760.3711 1165.6973 L 1688.7578 1169.5801 L 1688.3457 1169.7246 L 1664.9297 1110.582 L 1665.3301 1110.4062 L 1720.1934 1064.209 L 1766.3574 1000.7891 L 1745.8926 963.56641 L 1667.6074 968.56055 L 1599.207 990.12891 L 1598.8438 990.37109 L 1561.457 938.91406 L 1561.8008 938.64062 L 1603.4492 880.25586 L 1632.3926 807.34375 L 1603.3125 776.37891 L 1528.7305 800.6875 L 1467.8438 838.58594 L 1467.5488 838.91406 L 1418.5391 798.36914 L 1418.8047 798.01953 L 1444.625 731.10938 L 1454.5254 653.29297 L 1418.6602 630.5293 L 1352.4648 672.62305 L 1302.916 724.47461 L 1302.7148 724.86328 L 1245.1621 697.78125 L 1245.332 697.37891 L 1253.7012 626.14844 L 1243.9395 548.3125 L 1203.5391 535.1875 L 1149.8906 592.41797 L 1114.793 654.96289 L 1114.6953 655.39062 L 1052.2148 643.47266 L 1052.2812 643.03906 L 1042.6719 571.96484 L 1013.8613 499.00195 L 971.4668 496.33398 z M 936.0957 711.20117 L 1162.6133 937.71875 L 1123.9863 976.36133 L 1394.0078 1246.418 L 1432.6699 1207.7754 L 1659.2031 1434.3086 L 1322.1719 1771.3223 L 1095.6387 1544.8047 L 1166.8809 1473.5625 L 1129.1953 1435.877 L 937.68164 1627.4082 L 975.34961 1665.0762 L 1049.1191 1591.3066 L 1275.6699 1817.8594 L 936.0957 2157.3809 L 709.58008 1930.8652 L 748.22266 1892.2207 L 478.16602 1622.1465 L 439.52344 1660.8086 L 213.00586 1434.3086 L 552.5625 1094.7344 L 779.09766 1321.2324 L 705.32812 1395.0195 L 751.67383 1441.3828 L 943.1875 1249.8516 L 896.8418 1203.5059 L 825.59961 1274.748 L 599.06445 1048.2324 L 936.0957 711.20117 z "
         transform="matrix(0.26458333,0,0,0.26458333,125.53331,143.41849)" />
    </g>
  </g>
</svg>
