<?xml version="1.0" standalone="no"?>
<!DOCTYPE svg PUBLIC "-//W3C//DTD SVG 1.1//EN" "http://www.w3.org/Graphics/SVG/1.1/DTD/svg11.dtd">
<svg width="583mm" height="486mm" viewBox="-522 -243 583 486" xmlns="http://www.w3.org/2000/svg" version="1.1">
<title>OpenSCAD Model</title>
<path d="
M -522,235 L -521.984,235.502 L -521.937,236.003 L -521.858,236.499 L -521.749,236.99 L -521.608,237.472
 L -521.438,237.945 L -521.239,238.406 L -521.01,238.854 L -520.755,239.287 L -520.472,239.702 L -520.164,240.099
 L -519.832,240.476 L -519.476,240.832 L -519.099,241.164 L -518.702,241.472 L -518.287,241.755 L -517.854,242.01
 L -517.406,242.239 L -516.945,242.438 L -516.472,242.608 L -515.99,242.749 L -515.499,242.858 L -515.003,242.937
 L -514.502,242.984 L -514,243 L 53,243 L 53.5023,242.984 L 54.0027,242.937 L 54.4991,242.858
 L 54.9895,242.749 L 55.4721,242.608 L 55.945,242.438 L 56.4062,242.239 L 56.854,242.01 L 57.2866,241.755
 L 57.7023,241.472 L 58.0994,241.164 L 58.4764,240.832 L 58.8317,240.476 L 59.1641,240.099 L 59.4721,239.702
 L 59.7546,239.287 L 60.0105,238.854 L 60.2386,238.406 L 60.4382,237.945 L 60.6085,237.472 L 60.7487,236.99
 L 60.8583,236.499 L 60.9369,236.003 L 60.9842,235.502 L 61,235 L 61,55 L 60.9842,54.4977
 L 60.9369,53.9973 L 60.8583,53.5009 L 60.7487,53.0105 L 60.6085,52.5279 L 60.4382,52.055 L 60.2386,51.5938
 L 60.0105,51.146 L 59.7546,50.7134 L 59.4721,50.2977 L 59.1641,49.9006 L 58.8317,49.5236 L 58.4764,49.1683
 L 58.0994,48.8359 L 57.7023,48.5279 L 57.2866,48.2454 L 56.854,47.9895 L 56.4062,47.7614 L 55.945,47.5618
 L 55.4721,47.3915 L 54.9895,47.2513 L 54.4991,47.1417 L 54.0027,47.0631 L 53.5023,47.0158 L 53,47
 L -104.067,47 L -104.534,46.8955 L -105.023,46.7536 L -105.502,46.5812 L -105.969,46.3791 L -106.422,46.1481
 L -106.86,45.8891 L -107.281,45.603 L -107.683,45.2912 L -108.065,44.9546 L -108.425,44.5948 L -108.761,44.2131
 L -109.073,43.8111 L -109.359,43.3902 L -109.618,42.9522 L -109.849,42.4988 L -110.051,42.0318 L -110.224,41.553
 L -110.366,41.0644 L -110.477,40.5678 L -110.52,40.2933 L -110.52,-40.3564 L -110.487,-40.5678 L -110.376,-41.0644
 L -110.234,-41.553 L -110.061,-42.0318 L -109.859,-42.4988 L -109.628,-42.9522 L -109.369,-43.3902 L -109.083,-43.8111
 L -108.771,-44.2131 L -108.435,-44.5948 L -108.075,-44.9546 L -107.693,-45.2912 L -107.291,-45.603 L -106.87,-45.8891
 L -106.432,-46.1481 L -105.979,-46.3791 L -105.512,-46.5812 L -105.033,-46.7536 L -104.544,-46.8955 L -104.077,-47
 L 53,-47 L 53.5023,-47.0158 L 54.0027,-47.0631 L 54.4991,-47.1417 L 54.9895,-47.2513 L 55.4721,-47.3915
 L 55.945,-47.5618 L 56.4062,-47.7614 L 56.854,-47.9895 L 57.2866,-48.2454 L 57.7023,-48.5279 L 58.0994,-48.8359
 L 58.4764,-49.1683 L 58.8317,-49.5236 L 59.1641,-49.9006 L 59.4721,-50.2977 L 59.7546,-50.7134 L 60.0105,-51.146
 L 60.2386,-51.5938 L 60.4382,-52.055 L 60.6085,-52.5279 L 60.7487,-53.0105 L 60.8583,-53.5009 L 60.9369,-53.9973
 L 60.9842,-54.4977 L 61,-55 L 61,-235 L 60.9842,-235.502 L 60.9369,-236.003 L 60.8583,-236.499
 L 60.7487,-236.99 L 60.6085,-237.472 L 60.4382,-237.945 L 60.2386,-238.406 L 60.0105,-238.854 L 59.7546,-239.287
 L 59.4721,-239.702 L 59.1641,-240.099 L 58.8317,-240.476 L 58.4764,-240.832 L 58.0994,-241.164 L 57.7023,-241.472
 L 57.2866,-241.755 L 56.854,-242.01 L 56.4062,-242.239 L 55.945,-242.438 L 55.4721,-242.608 L 54.9895,-242.749
 L 54.4991,-242.858 L 54.0027,-242.937 L 53.5023,-242.984 L 53,-243 L -514,-243 L -514.502,-242.984
 L -515.003,-242.937 L -515.499,-242.858 L -515.99,-242.749 L -516.472,-242.608 L -516.945,-242.438 L -517.406,-242.239
 L -517.854,-242.01 L -518.287,-241.755 L -518.702,-241.472 L -519.099,-241.164 L -519.476,-240.832 L -519.832,-240.476
 L -520.164,-240.099 L -520.472,-239.702 L -520.755,-239.287 L -521.01,-238.854 L -521.239,-238.406 L -521.438,-237.945
 L -521.608,-237.472 L -521.749,-236.99 L -521.858,-236.499 L -521.937,-236.003 L -521.984,-235.502 L -522,-235
 z
M -519.5,159.333 L -519.497,159.239 L -519.488,159.145 L -519.473,159.052 L -519.453,158.96 L -519.427,158.87
 L -519.395,158.781 L -519.357,158.695 L -519.314,158.611 L -519.266,158.53 L -519.214,158.452 L -519.156,158.377
 L -519.093,158.307 L -519.027,158.24 L -518.956,158.178 L -518.882,158.12 L -518.804,158.067 L -518.723,158.019
 L -518.639,157.976 L -518.552,157.939 L -518.464,157.907 L -518.373,157.88 L -518.281,157.86 L -518.188,157.845
 L -518.094,157.836 L -518,157.833 L -517.906,157.836 L -517.812,157.845 L -517.719,157.86 L -517.627,157.88
 L -517.536,157.907 L -517.448,157.939 L -517.361,157.976 L -517.277,158.019 L -517.196,158.067 L -517.118,158.12
 L -517.044,158.178 L -516.973,158.24 L -516.907,158.307 L -516.844,158.377 L -516.786,158.452 L -516.734,158.53
 L -516.686,158.611 L -516.643,158.695 L -516.605,158.781 L -516.573,158.87 L -516.547,158.96 L -516.527,159.052
 L -516.512,159.145 L -516.503,159.239 L -516.5,159.333 L -516.503,159.428 L -516.512,159.521 L -516.527,159.614
 L -516.547,159.706 L -516.573,159.797 L -516.605,159.886 L -516.643,159.972 L -516.686,160.056 L -516.734,160.137
 L -516.786,160.215 L -516.844,160.289 L -516.907,160.36 L -516.973,160.427 L -517.044,160.489 L -517.118,160.547
 L -517.196,160.6 L -517.277,160.648 L -517.361,160.691 L -517.448,160.728 L -517.536,160.76 L -517.627,160.786
 L -517.719,160.807 L -517.812,160.822 L -517.906,160.83 L -518,160.833 L -518.094,160.83 L -518.188,160.822
 L -518.281,160.807 L -518.373,160.786 L -518.464,160.76 L -518.552,160.728 L -518.639,160.691 L -518.723,160.648
 L -518.804,160.6 L -518.882,160.547 L -518.956,160.489 L -519.027,160.427 L -519.093,160.36 L -519.156,160.289
 L -519.214,160.215 L -519.266,160.137 L -519.314,160.056 L -519.357,159.972 L -519.395,159.886 L -519.427,159.797
 L -519.453,159.706 L -519.473,159.614 L -519.488,159.521 L -519.497,159.428 z
M -519.5,79.6667 L -519.497,79.5725 L -519.488,79.4787 L -519.473,79.3856 L -519.453,79.2936 L -519.427,79.2031
 L -519.395,79.1145 L -519.357,79.028 L -519.314,78.944 L -519.266,78.8629 L -519.214,78.785 L -519.156,78.7105
 L -519.093,78.6398 L -519.027,78.5732 L -518.956,78.5109 L -518.882,78.4531 L -518.804,78.4002 L -518.723,78.3522
 L -518.639,78.3094 L -518.552,78.272 L -518.464,78.2401 L -518.373,78.2138 L -518.281,78.1932 L -518.188,78.1785
 L -518.094,78.1696 L -518,78.1667 L -517.906,78.1696 L -517.812,78.1785 L -517.719,78.1932 L -517.627,78.2138
 L -517.536,78.2401 L -517.448,78.272 L -517.361,78.3094 L -517.277,78.3522 L -517.196,78.4002 L -517.118,78.4531
 L -517.044,78.5109 L -516.973,78.5732 L -516.907,78.6398 L -516.844,78.7105 L -516.786,78.785 L -516.734,78.8629
 L -516.686,78.944 L -516.643,79.028 L -516.605,79.1145 L -516.573,79.2031 L -516.547,79.2936 L -516.527,79.3856
 L -516.512,79.4787 L -516.503,79.5725 L -516.5,79.6667 L -516.503,79.7609 L -516.512,79.8547 L -516.527,79.9477
 L -516.547,80.0397 L -516.573,80.1302 L -516.605,80.2189 L -516.643,80.3053 L -516.686,80.3893 L -516.734,80.4704
 L -516.786,80.5483 L -516.844,80.6228 L -516.907,80.6935 L -516.973,80.7601 L -517.044,80.8224 L -517.118,80.8802
 L -517.196,80.9332 L -517.277,80.9811 L -517.361,81.0239 L -517.448,81.0613 L -517.536,81.0933 L -517.627,81.1195
 L -517.719,81.1401 L -517.812,81.1548 L -517.906,81.1637 L -518,81.1667 L -518.094,81.1637 L -518.188,81.1548
 L -518.281,81.1401 L -518.373,81.1195 L -518.464,81.0933 L -518.552,81.0613 L -518.639,81.0239 L -518.723,80.9811
 L -518.804,80.9332 L -518.882,80.8802 L -518.956,80.8224 L -519.027,80.7601 L -519.093,80.6935 L -519.156,80.6228
 L -519.214,80.5483 L -519.266,80.4704 L -519.314,80.3893 L -519.357,80.3053 L -519.395,80.2189 L -519.427,80.1302
 L -519.453,80.0397 L -519.473,79.9477 L -519.488,79.8547 L -519.497,79.7609 z
M -519.5,-79.6667 L -519.497,-79.7609 L -519.488,-79.8547 L -519.473,-79.9477 L -519.453,-80.0397 L -519.427,-80.1302
 L -519.395,-80.2189 L -519.357,-80.3053 L -519.314,-80.3893 L -519.266,-80.4704 L -519.214,-80.5483 L -519.156,-80.6228
 L -519.093,-80.6935 L -519.027,-80.7601 L -518.956,-80.8224 L -518.882,-80.8802 L -518.804,-80.9332 L -518.723,-80.9811
 L -518.639,-81.0239 L -518.552,-81.0613 L -518.464,-81.0933 L -518.373,-81.1195 L -518.281,-81.1401 L -518.188,-81.1548
 L -518.094,-81.1637 L -518,-81.1667 L -517.906,-81.1637 L -517.812,-81.1548 L -517.719,-81.1401 L -517.627,-81.1195
 L -517.536,-81.0933 L -517.448,-81.0613 L -517.361,-81.0239 L -517.277,-80.9811 L -517.196,-80.9332 L -517.118,-80.8802
 L -517.044,-80.8224 L -516.973,-80.7601 L -516.907,-80.6935 L -516.844,-80.6228 L -516.786,-80.5483 L -516.734,-80.4704
 L -516.686,-80.3893 L -516.643,-80.3053 L -516.605,-80.2189 L -516.573,-80.1302 L -516.547,-80.0397 L -516.527,-79.9477
 L -516.512,-79.8547 L -516.503,-79.7609 L -516.5,-79.6667 L -516.503,-79.5725 L -516.512,-79.4787 L -516.527,-79.3856
 L -516.547,-79.2936 L -516.573,-79.2031 L -516.605,-79.1145 L -516.643,-79.028 L -516.686,-78.944 L -516.734,-78.8629
 L -516.786,-78.785 L -516.844,-78.7105 L -516.907,-78.6398 L -516.973,-78.5732 L -517.044,-78.5109 L -517.118,-78.4531
 L -517.196,-78.4002 L -517.277,-78.3522 L -517.361,-78.3094 L -517.448,-78.272 L -517.536,-78.2401 L -517.627,-78.2138
 L -517.719,-78.1932 L -517.812,-78.1785 L -517.906,-78.1696 L -518,-78.1667 L -518.094,-78.1696 L -518.188,-78.1785
 L -518.281,-78.1932 L -518.373,-78.2138 L -518.464,-78.2401 L -518.552,-78.272 L -518.639,-78.3094 L -518.723,-78.3522
 L -518.804,-78.4002 L -518.882,-78.4531 L -518.956,-78.5109 L -519.027,-78.5732 L -519.093,-78.6398 L -519.156,-78.7105
 L -519.214,-78.785 L -519.266,-78.8629 L -519.314,-78.944 L -519.357,-79.028 L -519.395,-79.1145 L -519.427,-79.2031
 L -519.453,-79.2936 L -519.473,-79.3856 L -519.488,-79.4787 L -519.497,-79.5725 z
M -519.5,-159.333 L -519.497,-159.428 L -519.488,-159.521 L -519.473,-159.614 L -519.453,-159.706 L -519.427,-159.797
 L -519.395,-159.886 L -519.357,-159.972 L -519.314,-160.056 L -519.266,-160.137 L -519.214,-160.215 L -519.156,-160.289
 L -519.093,-160.36 L -519.027,-160.427 L -518.956,-160.489 L -518.882,-160.547 L -518.804,-160.6 L -518.723,-160.648
 L -518.639,-160.691 L -518.552,-160.728 L -518.464,-160.76 L -518.373,-160.786 L -518.281,-160.807 L -518.188,-160.822
 L -518.094,-160.83 L -518,-160.833 L -517.906,-160.83 L -517.812,-160.822 L -517.719,-160.807 L -517.627,-160.786
 L -517.536,-160.76 L -517.448,-160.728 L -517.361,-160.691 L -517.277,-160.648 L -517.196,-160.6 L -517.118,-160.547
 L -517.044,-160.489 L -516.973,-160.427 L -516.907,-160.36 L -516.844,-160.289 L -516.786,-160.215 L -516.734,-160.137
 L -516.686,-160.056 L -516.643,-159.972 L -516.605,-159.886 L -516.573,-159.797 L -516.547,-159.706 L -516.527,-159.614
 L -516.512,-159.521 L -516.503,-159.428 L -516.5,-159.333 L -516.503,-159.239 L -516.512,-159.145 L -516.527,-159.052
 L -516.547,-158.96 L -516.573,-158.87 L -516.605,-158.781 L -516.643,-158.695 L -516.686,-158.611 L -516.734,-158.53
 L -516.786,-158.452 L -516.844,-158.377 L -516.907,-158.307 L -516.973,-158.24 L -517.044,-158.178 L -517.118,-158.12
 L -517.196,-158.067 L -517.277,-158.019 L -517.361,-157.976 L -517.448,-157.939 L -517.536,-157.907 L -517.627,-157.88
 L -517.719,-157.86 L -517.812,-157.845 L -517.906,-157.836 L -518,-157.833 L -518.094,-157.836 L -518.188,-157.845
 L -518.281,-157.86 L -518.373,-157.88 L -518.464,-157.907 L -518.552,-157.939 L -518.639,-157.976 L -518.723,-158.019
 L -518.804,-158.067 L -518.882,-158.12 L -518.956,-158.178 L -519.027,-158.24 L -519.093,-158.307 L -519.156,-158.377
 L -519.214,-158.452 L -519.266,-158.53 L -519.314,-158.611 L -519.357,-158.695 L -519.395,-158.781 L -519.427,-158.87
 L -519.453,-158.96 L -519.473,-159.052 L -519.488,-159.145 L -519.497,-159.239 z
M -517.5,237 L -517.497,236.906 L -517.488,236.812 L -517.473,236.719 L -517.453,236.627 L -517.427,236.536
 L -517.395,236.448 L -517.357,236.361 L -517.314,236.277 L -517.266,236.196 L -517.214,236.118 L -517.156,236.044
 L -517.093,235.973 L -517.027,235.907 L -516.956,235.844 L -516.882,235.786 L -516.804,235.734 L -516.723,235.686
 L -516.639,235.643 L -516.552,235.605 L -516.464,235.573 L -516.373,235.547 L -516.281,235.527 L -516.188,235.512
 L -516.094,235.503 L -516,235.5 L -515.906,235.503 L -515.812,235.512 L -515.719,235.527 L -515.627,235.547
 L -515.536,235.573 L -515.448,235.605 L -515.361,235.643 L -515.277,235.686 L -515.196,235.734 L -515.118,235.786
 L -515.044,235.844 L -514.973,235.907 L -514.907,235.973 L -514.844,236.044 L -514.786,236.118 L -514.734,236.196
 L -514.686,236.277 L -514.643,236.361 L -514.605,236.448 L -514.573,236.536 L -514.547,236.627 L -514.527,236.719
 L -514.512,236.812 L -514.503,236.906 L -514.5,237 L -514.503,237.094 L -514.512,237.188 L -514.527,237.281
 L -514.547,237.373 L -514.573,237.464 L -514.605,237.552 L -514.643,237.639 L -514.686,237.723 L -514.734,237.804
 L -514.786,237.882 L -514.844,237.956 L -514.907,238.027 L -514.973,238.093 L -515.044,238.156 L -515.118,238.214
 L -515.196,238.266 L -515.277,238.314 L -515.361,238.357 L -515.448,238.395 L -515.536,238.427 L -515.627,238.453
 L -515.719,238.473 L -515.812,238.488 L -515.906,238.497 L -516,238.5 L -516.094,238.497 L -516.188,238.488
 L -516.281,238.473 L -516.373,238.453 L -516.464,238.427 L -516.552,238.395 L -516.639,238.357 L -516.723,238.314
 L -516.804,238.266 L -516.882,238.214 L -516.956,238.156 L -517.027,238.093 L -517.093,238.027 L -517.156,237.956
 L -517.214,237.882 L -517.266,237.804 L -517.314,237.723 L -517.357,237.639 L -517.395,237.552 L -517.427,237.464
 L -517.453,237.373 L -517.473,237.281 L -517.488,237.188 L -517.497,237.094 z
M -517.5,-237 L -517.497,-237.094 L -517.488,-237.188 L -517.473,-237.281 L -517.453,-237.373 L -517.427,-237.464
 L -517.395,-237.552 L -517.357,-237.639 L -517.314,-237.723 L -517.266,-237.804 L -517.214,-237.882 L -517.156,-237.956
 L -517.093,-238.027 L -517.027,-238.093 L -516.956,-238.156 L -516.882,-238.214 L -516.804,-238.266 L -516.723,-238.314
 L -516.639,-238.357 L -516.552,-238.395 L -516.464,-238.427 L -516.373,-238.453 L -516.281,-238.473 L -516.188,-238.488
 L -516.094,-238.497 L -516,-238.5 L -515.906,-238.497 L -515.812,-238.488 L -515.719,-238.473 L -515.627,-238.453
 L -515.536,-238.427 L -515.448,-238.395 L -515.361,-238.357 L -515.277,-238.314 L -515.196,-238.266 L -515.118,-238.214
 L -515.044,-238.156 L -514.973,-238.093 L -514.907,-238.027 L -514.844,-237.956 L -514.786,-237.882 L -514.734,-237.804
 L -514.686,-237.723 L -514.643,-237.639 L -514.605,-237.552 L -514.573,-237.464 L -514.547,-237.373 L -514.527,-237.281
 L -514.512,-237.188 L -514.503,-237.094 L -514.5,-237 L -514.503,-236.906 L -514.512,-236.812 L -514.527,-236.719
 L -514.547,-236.627 L -514.573,-236.536 L -514.605,-236.448 L -514.643,-236.361 L -514.686,-236.277 L -514.734,-236.196
 L -514.786,-236.118 L -514.844,-236.044 L -514.907,-235.973 L -514.973,-235.907 L -515.044,-235.844 L -515.118,-235.786
 L -515.196,-235.734 L -515.277,-235.686 L -515.361,-235.643 L -515.448,-235.605 L -515.536,-235.573 L -515.627,-235.547
 L -515.719,-235.527 L -515.812,-235.512 L -515.906,-235.503 L -516,-235.5 L -516.094,-235.503 L -516.188,-235.512
 L -516.281,-235.527 L -516.373,-235.547 L -516.464,-235.573 L -516.552,-235.605 L -516.639,-235.643 L -516.723,-235.686
 L -516.804,-235.734 L -516.882,-235.786 L -516.956,-235.844 L -517.027,-235.907 L -517.093,-235.973 L -517.156,-236.044
 L -517.214,-236.118 L -517.266,-236.196 L -517.314,-236.277 L -517.357,-236.361 L -517.395,-236.448 L -517.427,-236.536
 L -517.453,-236.627 L -517.473,-236.719 L -517.488,-236.812 L -517.497,-236.906 z
M -375.75,239 L -375.747,238.906 L -375.738,238.812 L -375.723,238.719 L -375.703,238.627 L -375.677,238.536
 L -375.645,238.448 L -375.607,238.361 L -375.564,238.277 L -375.516,238.196 L -375.464,238.118 L -375.406,238.044
 L -375.343,237.973 L -375.277,237.907 L -375.206,237.844 L -375.132,237.786 L -375.054,237.734 L -374.973,237.686
 L -374.889,237.643 L -374.802,237.605 L -374.714,237.573 L -374.623,237.547 L -374.531,237.527 L -374.438,237.512
 L -374.344,237.503 L -374.25,237.5 L -374.156,237.503 L -374.062,237.512 L -373.969,237.527 L -373.877,237.547
 L -373.786,237.573 L -373.698,237.605 L -373.611,237.643 L -373.527,237.686 L -373.446,237.734 L -373.368,237.786
 L -373.294,237.844 L -373.223,237.907 L -373.157,237.973 L -373.094,238.044 L -373.036,238.118 L -372.984,238.196
 L -372.936,238.277 L -372.893,238.361 L -372.855,238.448 L -372.823,238.536 L -372.797,238.627 L -372.777,238.719
 L -372.762,238.812 L -372.753,238.906 L -372.75,239 L -372.753,239.094 L -372.762,239.188 L -372.777,239.281
 L -372.797,239.373 L -372.823,239.464 L -372.855,239.552 L -372.893,239.639 L -372.936,239.723 L -372.984,239.804
 L -373.036,239.882 L -373.094,239.956 L -373.157,240.027 L -373.223,240.093 L -373.294,240.156 L -373.368,240.214
 L -373.446,240.266 L -373.527,240.314 L -373.611,240.357 L -373.698,240.395 L -373.786,240.427 L -373.877,240.453
 L -373.969,240.473 L -374.062,240.488 L -374.156,240.497 L -374.25,240.5 L -374.344,240.497 L -374.438,240.488
 L -374.531,240.473 L -374.623,240.453 L -374.714,240.427 L -374.802,240.395 L -374.889,240.357 L -374.973,240.314
 L -375.054,240.266 L -375.132,240.214 L -375.206,240.156 L -375.277,240.093 L -375.343,240.027 L -375.406,239.956
 L -375.464,239.882 L -375.516,239.804 L -375.564,239.723 L -375.607,239.639 L -375.645,239.552 L -375.677,239.464
 L -375.703,239.373 L -375.723,239.281 L -375.738,239.188 L -375.747,239.094 z
M -375.75,-239 L -375.747,-239.094 L -375.738,-239.188 L -375.723,-239.281 L -375.703,-239.373 L -375.677,-239.464
 L -375.645,-239.552 L -375.607,-239.639 L -375.564,-239.723 L -375.516,-239.804 L -375.464,-239.882 L -375.406,-239.956
 L -375.343,-240.027 L -375.277,-240.093 L -375.206,-240.156 L -375.132,-240.214 L -375.054,-240.266 L -374.973,-240.314
 L -374.889,-240.357 L -374.802,-240.395 L -374.714,-240.427 L -374.623,-240.453 L -374.531,-240.473 L -374.438,-240.488
 L -374.344,-240.497 L -374.25,-240.5 L -374.156,-240.497 L -374.062,-240.488 L -373.969,-240.473 L -373.877,-240.453
 L -373.786,-240.427 L -373.698,-240.395 L -373.611,-240.357 L -373.527,-240.314 L -373.446,-240.266 L -373.368,-240.214
 L -373.294,-240.156 L -373.223,-240.093 L -373.157,-240.027 L -373.094,-239.956 L -373.036,-239.882 L -372.984,-239.804
 L -372.936,-239.723 L -372.893,-239.639 L -372.855,-239.552 L -372.823,-239.464 L -372.797,-239.373 L -372.777,-239.281
 L -372.762,-239.188 L -372.753,-239.094 L -372.75,-239 L -372.753,-238.906 L -372.762,-238.812 L -372.777,-238.719
 L -372.797,-238.627 L -372.823,-238.536 L -372.855,-238.448 L -372.893,-238.361 L -372.936,-238.277 L -372.984,-238.196
 L -373.036,-238.118 L -373.094,-238.044 L -373.157,-237.973 L -373.223,-237.907 L -373.294,-237.844 L -373.368,-237.786
 L -373.446,-237.734 L -373.527,-237.686 L -373.611,-237.643 L -373.698,-237.605 L -373.786,-237.573 L -373.877,-237.547
 L -373.969,-237.527 L -374.062,-237.512 L -374.156,-237.503 L -374.25,-237.5 L -374.344,-237.503 L -374.438,-237.512
 L -374.531,-237.527 L -374.623,-237.547 L -374.714,-237.573 L -374.802,-237.605 L -374.889,-237.643 L -374.973,-237.686
 L -375.054,-237.734 L -375.132,-237.786 L -375.206,-237.844 L -375.277,-237.907 L -375.343,-237.973 L -375.406,-238.044
 L -375.464,-238.118 L -375.516,-238.196 L -375.564,-238.277 L -375.607,-238.361 L -375.645,-238.448 L -375.677,-238.536
 L -375.703,-238.627 L -375.723,-238.719 L -375.738,-238.812 L -375.747,-238.906 z
M -232,239 L -231.997,238.906 L -231.988,238.812 L -231.973,238.719 L -231.953,238.627 L -231.927,238.536
 L -231.895,238.448 L -231.857,238.361 L -231.814,238.277 L -231.766,238.196 L -231.714,238.118 L -231.656,238.044
 L -231.593,237.973 L -231.527,237.907 L -231.456,237.844 L -231.382,237.786 L -231.304,237.734 L -231.223,237.686
 L -231.139,237.643 L -231.052,237.605 L -230.964,237.573 L -230.873,237.547 L -230.781,237.527 L -230.688,237.512
 L -230.594,237.503 L -230.5,237.5 L -230.406,237.503 L -230.312,237.512 L -230.219,237.527 L -230.127,237.547
 L -230.036,237.573 L -229.948,237.605 L -229.861,237.643 L -229.777,237.686 L -229.696,237.734 L -229.618,237.786
 L -229.544,237.844 L -229.473,237.907 L -229.407,237.973 L -229.344,238.044 L -229.286,238.118 L -229.234,238.196
 L -229.186,238.277 L -229.143,238.361 L -229.105,238.448 L -229.073,238.536 L -229.047,238.627 L -229.027,238.719
 L -229.012,238.812 L -229.003,238.906 L -229,239 L -229.003,239.094 L -229.012,239.188 L -229.027,239.281
 L -229.047,239.373 L -229.073,239.464 L -229.105,239.552 L -229.143,239.639 L -229.186,239.723 L -229.234,239.804
 L -229.286,239.882 L -229.344,239.956 L -229.407,240.027 L -229.473,240.093 L -229.544,240.156 L -229.618,240.214
 L -229.696,240.266 L -229.777,240.314 L -229.861,240.357 L -229.948,240.395 L -230.036,240.427 L -230.127,240.453
 L -230.219,240.473 L -230.312,240.488 L -230.406,240.497 L -230.5,240.5 L -230.594,240.497 L -230.688,240.488
 L -230.781,240.473 L -230.873,240.453 L -230.964,240.427 L -231.052,240.395 L -231.139,240.357 L -231.223,240.314
 L -231.304,240.266 L -231.382,240.214 L -231.456,240.156 L -231.527,240.093 L -231.593,240.027 L -231.656,239.956
 L -231.714,239.882 L -231.766,239.804 L -231.814,239.723 L -231.857,239.639 L -231.895,239.552 L -231.927,239.464
 L -231.953,239.373 L -231.973,239.281 L -231.988,239.188 L -231.997,239.094 z
M -232,-239 L -231.997,-239.094 L -231.988,-239.188 L -231.973,-239.281 L -231.953,-239.373 L -231.927,-239.464
 L -231.895,-239.552 L -231.857,-239.639 L -231.814,-239.723 L -231.766,-239.804 L -231.714,-239.882 L -231.656,-239.956
 L -231.593,-240.027 L -231.527,-240.093 L -231.456,-240.156 L -231.382,-240.214 L -231.304,-240.266 L -231.223,-240.314
 L -231.139,-240.357 L -231.052,-240.395 L -230.964,-240.427 L -230.873,-240.453 L -230.781,-240.473 L -230.688,-240.488
 L -230.594,-240.497 L -230.5,-240.5 L -230.406,-240.497 L -230.312,-240.488 L -230.219,-240.473 L -230.127,-240.453
 L -230.036,-240.427 L -229.948,-240.395 L -229.861,-240.357 L -229.777,-240.314 L -229.696,-240.266 L -229.618,-240.214
 L -229.544,-240.156 L -229.473,-240.093 L -229.407,-240.027 L -229.344,-239.956 L -229.286,-239.882 L -229.234,-239.804
 L -229.186,-239.723 L -229.143,-239.639 L -229.105,-239.552 L -229.073,-239.464 L -229.047,-239.373 L -229.027,-239.281
 L -229.012,-239.188 L -229.003,-239.094 L -229,-239 L -229.003,-238.906 L -229.012,-238.812 L -229.027,-238.719
 L -229.047,-238.627 L -229.073,-238.536 L -229.105,-238.448 L -229.143,-238.361 L -229.186,-238.277 L -229.234,-238.196
 L -229.286,-238.118 L -229.344,-238.044 L -229.407,-237.973 L -229.473,-237.907 L -229.544,-237.844 L -229.618,-237.786
 L -229.696,-237.734 L -229.777,-237.686 L -229.861,-237.643 L -229.948,-237.605 L -230.036,-237.573 L -230.127,-237.547
 L -230.219,-237.527 L -230.312,-237.512 L -230.406,-237.503 L -230.5,-237.5 L -230.594,-237.503 L -230.688,-237.512
 L -230.781,-237.527 L -230.873,-237.547 L -230.964,-237.573 L -231.052,-237.605 L -231.139,-237.643 L -231.223,-237.686
 L -231.304,-237.734 L -231.382,-237.786 L -231.456,-237.844 L -231.527,-237.907 L -231.593,-237.973 L -231.656,-238.044
 L -231.714,-238.118 L -231.766,-238.196 L -231.814,-238.277 L -231.857,-238.361 L -231.895,-238.448 L -231.927,-238.536
 L -231.953,-238.627 L -231.973,-238.719 L -231.988,-238.812 L -231.997,-238.906 z
M -116.02,-0 L -116.017,-0.0941849 L -116.008,-0.188 L -115.993,-0.281072 L -115.973,-0.373034 L -115.947,-0.463525
 L -115.915,-0.552186 L -115.877,-0.638668 L -115.834,-0.722631 L -115.786,-0.80374 L -115.734,-0.881678 L -115.676,-0.956136
 L -115.613,-1.02682 L -115.547,-1.09345 L -115.476,-1.15577 L -115.402,-1.21352 L -115.324,-1.26649 L -115.243,-1.31446
 L -115.159,-1.35724 L -115.072,-1.39466 L -114.984,-1.42658 L -114.893,-1.45287 L -114.801,-1.47343 L -114.708,-1.48817
 L -114.614,-1.49704 L -114.52,-1.5 L -114.426,-1.49704 L -114.332,-1.48817 L -114.239,-1.47343 L -114.147,-1.45287
 L -114.056,-1.42658 L -113.968,-1.39466 L -113.881,-1.35724 L -113.797,-1.31446 L -113.716,-1.26649 L -113.638,-1.21352
 L -113.564,-1.15577 L -113.493,-1.09345 L -113.427,-1.02682 L -113.364,-0.956136 L -113.306,-0.881678 L -113.254,-0.80374
 L -113.206,-0.722631 L -113.163,-0.638668 L -113.125,-0.552186 L -113.093,-0.463525 L -113.067,-0.373034 L -113.047,-0.281072
 L -113.032,-0.188 L -113.023,-0.0941849 L -113.02,-0 L -113.023,0.0941849 L -113.032,0.188 L -113.047,0.281072
 L -113.067,0.373034 L -113.093,0.463525 L -113.125,0.552186 L -113.163,0.638668 L -113.206,0.722631 L -113.254,0.80374
 L -113.306,0.881678 L -113.364,0.956136 L -113.427,1.02682 L -113.493,1.09345 L -113.564,1.15577 L -113.638,1.21352
 L -113.716,1.26649 L -113.797,1.31446 L -113.881,1.35724 L -113.968,1.39466 L -114.056,1.42658 L -114.147,1.45287
 L -114.239,1.47343 L -114.332,1.48817 L -114.426,1.49704 L -114.52,1.5 L -114.614,1.49704 L -114.708,1.48817
 L -114.801,1.47343 L -114.893,1.45287 L -114.984,1.42658 L -115.072,1.39466 L -115.159,1.35724 L -115.243,1.31446
 L -115.324,1.26649 L -115.402,1.21352 L -115.476,1.15577 L -115.547,1.09345 L -115.613,1.02682 L -115.676,0.956136
 L -115.734,0.881678 L -115.786,0.80374 L -115.834,0.722631 L -115.877,0.638668 L -115.915,0.552186 L -115.947,0.463525
 L -115.973,0.373034 L -115.993,0.281072 L -116.008,0.188 L -116.017,0.0941849 z
M -88.25,239 L -88.247,238.906 L -88.2382,238.812 L -88.2234,238.719 L -88.2029,238.627 L -88.1766,238.536
 L -88.1447,238.448 L -88.1072,238.361 L -88.0645,238.277 L -88.0165,238.196 L -87.9635,238.118 L -87.9058,238.044
 L -87.8435,237.973 L -87.7768,237.907 L -87.7061,237.844 L -87.6317,237.786 L -87.5537,237.734 L -87.4726,237.686
 L -87.3887,237.643 L -87.3022,237.605 L -87.2135,237.573 L -87.123,237.547 L -87.0311,237.527 L -86.938,237.512
 L -86.8442,237.503 L -86.75,237.5 L -86.6558,237.503 L -86.562,237.512 L -86.4689,237.527 L -86.377,237.547
 L -86.2865,237.573 L -86.1978,237.605 L -86.1113,237.643 L -86.0274,237.686 L -85.9463,237.734 L -85.8683,237.786
 L -85.7939,237.844 L -85.7232,237.907 L -85.6565,237.973 L -85.5942,238.044 L -85.5365,238.118 L -85.4835,238.196
 L -85.4355,238.277 L -85.3928,238.361 L -85.3553,238.448 L -85.3234,238.536 L -85.2971,238.627 L -85.2766,238.719
 L -85.2618,238.812 L -85.253,238.906 L -85.25,239 L -85.253,239.094 L -85.2618,239.188 L -85.2766,239.281
 L -85.2971,239.373 L -85.3234,239.464 L -85.3553,239.552 L -85.3928,239.639 L -85.4355,239.723 L -85.4835,239.804
 L -85.5365,239.882 L -85.5942,239.956 L -85.6565,240.027 L -85.7232,240.093 L -85.7939,240.156 L -85.8683,240.214
 L -85.9463,240.266 L -86.0274,240.314 L -86.1113,240.357 L -86.1978,240.395 L -86.2865,240.427 L -86.377,240.453
 L -86.4689,240.473 L -86.562,240.488 L -86.6558,240.497 L -86.75,240.5 L -86.8442,240.497 L -86.938,240.488
 L -87.0311,240.473 L -87.123,240.453 L -87.2135,240.427 L -87.3022,240.395 L -87.3887,240.357 L -87.4726,240.314
 L -87.5537,240.266 L -87.6317,240.214 L -87.7061,240.156 L -87.7768,240.093 L -87.8435,240.027 L -87.9058,239.956
 L -87.9635,239.882 L -88.0165,239.804 L -88.0645,239.723 L -88.1072,239.639 L -88.1447,239.552 L -88.1766,239.464
 L -88.2029,239.373 L -88.2234,239.281 L -88.2382,239.188 L -88.247,239.094 z
M -88.25,-239 L -88.247,-239.094 L -88.2382,-239.188 L -88.2234,-239.281 L -88.2029,-239.373 L -88.1766,-239.464
 L -88.1447,-239.552 L -88.1072,-239.639 L -88.0645,-239.723 L -88.0165,-239.804 L -87.9635,-239.882 L -87.9058,-239.956
 L -87.8435,-240.027 L -87.7768,-240.093 L -87.7061,-240.156 L -87.6317,-240.214 L -87.5537,-240.266 L -87.4726,-240.314
 L -87.3887,-240.357 L -87.3022,-240.395 L -87.2135,-240.427 L -87.123,-240.453 L -87.0311,-240.473 L -86.938,-240.488
 L -86.8442,-240.497 L -86.75,-240.5 L -86.6558,-240.497 L -86.562,-240.488 L -86.4689,-240.473 L -86.377,-240.453
 L -86.2865,-240.427 L -86.1978,-240.395 L -86.1113,-240.357 L -86.0274,-240.314 L -85.9463,-240.266 L -85.8683,-240.214
 L -85.7939,-240.156 L -85.7232,-240.093 L -85.6565,-240.027 L -85.5942,-239.956 L -85.5365,-239.882 L -85.4835,-239.804
 L -85.4355,-239.723 L -85.3928,-239.639 L -85.3553,-239.552 L -85.3234,-239.464 L -85.2971,-239.373 L -85.2766,-239.281
 L -85.2618,-239.188 L -85.253,-239.094 L -85.25,-239 L -85.253,-238.906 L -85.2618,-238.812 L -85.2766,-238.719
 L -85.2971,-238.627 L -85.3234,-238.536 L -85.3553,-238.448 L -85.3928,-238.361 L -85.4355,-238.277 L -85.4835,-238.196
 L -85.5365,-238.118 L -85.5942,-238.044 L -85.6565,-237.973 L -85.7232,-237.907 L -85.7939,-237.844 L -85.8683,-237.786
 L -85.9463,-237.734 L -86.0274,-237.686 L -86.1113,-237.643 L -86.1978,-237.605 L -86.2865,-237.573 L -86.377,-237.547
 L -86.4689,-237.527 L -86.562,-237.512 L -86.6558,-237.503 L -86.75,-237.5 L -86.8442,-237.503 L -86.938,-237.512
 L -87.0311,-237.527 L -87.123,-237.547 L -87.2135,-237.573 L -87.3022,-237.605 L -87.3887,-237.643 L -87.4726,-237.686
 L -87.5537,-237.734 L -87.6317,-237.786 L -87.7061,-237.844 L -87.7768,-237.907 L -87.8435,-237.973 L -87.9058,-238.044
 L -87.9635,-238.118 L -88.0165,-238.196 L -88.0645,-238.277 L -88.1072,-238.361 L -88.1447,-238.448 L -88.1766,-238.536
 L -88.2029,-238.627 L -88.2234,-238.719 L -88.2382,-238.812 L -88.247,-238.906 z
M -34.26,51 L -34.257,50.9058 L -34.2482,50.812 L -34.2334,50.7189 L -34.2129,50.627 L -34.1866,50.5365
 L -34.1547,50.4478 L -34.1172,50.3613 L -34.0745,50.2774 L -34.0265,50.1963 L -33.9735,50.1183 L -33.9158,50.0439
 L -33.8535,49.9732 L -33.7868,49.9065 L -33.7161,49.8442 L -33.6417,49.7865 L -33.5637,49.7335 L -33.4826,49.6855
 L -33.3987,49.6428 L -33.3122,49.6053 L -33.2235,49.5734 L -33.133,49.5471 L -33.0411,49.5266 L -32.948,49.5118
 L -32.8542,49.503 L -32.76,49.5 L -32.6658,49.503 L -32.572,49.5118 L -32.4789,49.5266 L -32.387,49.5471
 L -32.2965,49.5734 L -32.2078,49.6053 L -32.1213,49.6428 L -32.0374,49.6855 L -31.9563,49.7335 L -31.8783,49.7865
 L -31.8039,49.8442 L -31.7332,49.9065 L -31.6665,49.9732 L -31.6042,50.0439 L -31.5465,50.1183 L -31.4935,50.1963
 L -31.4455,50.2774 L -31.4028,50.3613 L -31.3653,50.4478 L -31.3334,50.5365 L -31.3071,50.627 L -31.2866,50.7189
 L -31.2718,50.812 L -31.263,50.9058 L -31.26,51 L -31.263,51.0942 L -31.2718,51.188 L -31.2866,51.2811
 L -31.3071,51.373 L -31.3334,51.4635 L -31.3653,51.5522 L -31.4028,51.6387 L -31.4455,51.7226 L -31.4935,51.8037
 L -31.5465,51.8817 L -31.6042,51.9561 L -31.6665,52.0268 L -31.7332,52.0935 L -31.8039,52.1558 L -31.8783,52.2135
 L -31.9563,52.2665 L -32.0374,52.3145 L -32.1213,52.3572 L -32.2078,52.3947 L -32.2965,52.4266 L -32.387,52.4529
 L -32.4789,52.4734 L -32.572,52.4882 L -32.6658,52.497 L -32.76,52.5 L -32.8542,52.497 L -32.948,52.4882
 L -33.0411,52.4734 L -33.133,52.4529 L -33.2235,52.4266 L -33.3122,52.3947 L -33.3987,52.3572 L -33.4826,52.3145
 L -33.5637,52.2665 L -33.6417,52.2135 L -33.7161,52.1558 L -33.7868,52.0935 L -33.8535,52.0268 L -33.9158,51.9561
 L -33.9735,51.8817 L -34.0265,51.8037 L -34.0745,51.7226 L -34.1172,51.6387 L -34.1547,51.5522 L -34.1866,51.4635
 L -34.2129,51.373 L -34.2334,51.2811 L -34.2482,51.188 L -34.257,51.0942 z
M -34.26,-51 L -34.257,-51.0942 L -34.2482,-51.188 L -34.2334,-51.2811 L -34.2129,-51.373 L -34.1866,-51.4635
 L -34.1547,-51.5522 L -34.1172,-51.6387 L -34.0745,-51.7226 L -34.0265,-51.8037 L -33.9735,-51.8817 L -33.9158,-51.9561
 L -33.8535,-52.0268 L -33.7868,-52.0935 L -33.7161,-52.1558 L -33.6417,-52.2135 L -33.5637,-52.2665 L -33.4826,-52.3145
 L -33.3987,-52.3572 L -33.3122,-52.3947 L -33.2235,-52.4266 L -33.133,-52.4529 L -33.0411,-52.4734 L -32.948,-52.4882
 L -32.8542,-52.497 L -32.76,-52.5 L -32.6658,-52.497 L -32.572,-52.4882 L -32.4789,-52.4734 L -32.387,-52.4529
 L -32.2965,-52.4266 L -32.2078,-52.3947 L -32.1213,-52.3572 L -32.0374,-52.3145 L -31.9563,-52.2665 L -31.8783,-52.2135
 L -31.8039,-52.1558 L -31.7332,-52.0935 L -31.6665,-52.0268 L -31.6042,-51.9561 L -31.5465,-51.8817 L -31.4935,-51.8037
 L -31.4455,-51.7226 L -31.4028,-51.6387 L -31.3653,-51.5522 L -31.3334,-51.4635 L -31.3071,-51.373 L -31.2866,-51.2811
 L -31.2718,-51.188 L -31.263,-51.0942 L -31.26,-51 L -31.263,-50.9058 L -31.2718,-50.812 L -31.2866,-50.7189
 L -31.3071,-50.627 L -31.3334,-50.5365 L -31.3653,-50.4478 L -31.4028,-50.3613 L -31.4455,-50.2774 L -31.4935,-50.1963
 L -31.5465,-50.1183 L -31.6042,-50.0439 L -31.6665,-49.9732 L -31.7332,-49.9065 L -31.8039,-49.8442 L -31.8783,-49.7865
 L -31.9563,-49.7335 L -32.0374,-49.6855 L -32.1213,-49.6428 L -32.2078,-49.6053 L -32.2965,-49.5734 L -32.387,-49.5471
 L -32.4789,-49.5266 L -32.572,-49.5118 L -32.6658,-49.503 L -32.76,-49.5 L -32.8542,-49.503 L -32.948,-49.5118
 L -33.0411,-49.5266 L -33.133,-49.5471 L -33.2235,-49.5734 L -33.3122,-49.6053 L -33.3987,-49.6428 L -33.4826,-49.6855
 L -33.5637,-49.7335 L -33.6417,-49.7865 L -33.7161,-49.8442 L -33.7868,-49.9065 L -33.8535,-49.9732 L -33.9158,-50.0439
 L -33.9735,-50.1183 L -34.0265,-50.1963 L -34.0745,-50.2774 L -34.1172,-50.3613 L -34.1547,-50.4478 L -34.1866,-50.5365
 L -34.2129,-50.627 L -34.2334,-50.7189 L -34.2482,-50.812 L -34.257,-50.9058 z
M 53.5,237 L 53.503,236.906 L 53.5118,236.812 L 53.5266,236.719 L 53.5471,236.627 L 53.5734,236.536
 L 53.6053,236.448 L 53.6428,236.361 L 53.6855,236.277 L 53.7335,236.196 L 53.7865,236.118 L 53.8442,236.044
 L 53.9065,235.973 L 53.9732,235.907 L 54.0439,235.844 L 54.1183,235.786 L 54.1963,235.734 L 54.2774,235.686
 L 54.3613,235.643 L 54.4478,235.605 L 54.5365,235.573 L 54.627,235.547 L 54.7189,235.527 L 54.812,235.512
 L 54.9058,235.503 L 55,235.5 L 55.0942,235.503 L 55.188,235.512 L 55.2811,235.527 L 55.373,235.547
 L 55.4635,235.573 L 55.5522,235.605 L 55.6387,235.643 L 55.7226,235.686 L 55.8037,235.734 L 55.8817,235.786
 L 55.9561,235.844 L 56.0268,235.907 L 56.0935,235.973 L 56.1558,236.044 L 56.2135,236.118 L 56.2665,236.196
 L 56.3145,236.277 L 56.3572,236.361 L 56.3947,236.448 L 56.4266,236.536 L 56.4529,236.627 L 56.4734,236.719
 L 56.4882,236.812 L 56.497,236.906 L 56.5,237 L 56.497,237.094 L 56.4882,237.188 L 56.4734,237.281
 L 56.4529,237.373 L 56.4266,237.464 L 56.3947,237.552 L 56.3572,237.639 L 56.3145,237.723 L 56.2665,237.804
 L 56.2135,237.882 L 56.1558,237.956 L 56.0935,238.027 L 56.0268,238.093 L 55.9561,238.156 L 55.8817,238.214
 L 55.8037,238.266 L 55.7226,238.314 L 55.6387,238.357 L 55.5522,238.395 L 55.4635,238.427 L 55.373,238.453
 L 55.2811,238.473 L 55.188,238.488 L 55.0942,238.497 L 55,238.5 L 54.9058,238.497 L 54.812,238.488
 L 54.7189,238.473 L 54.627,238.453 L 54.5365,238.427 L 54.4478,238.395 L 54.3613,238.357 L 54.2774,238.314
 L 54.1963,238.266 L 54.1183,238.214 L 54.0439,238.156 L 53.9732,238.093 L 53.9065,238.027 L 53.8442,237.956
 L 53.7865,237.882 L 53.7335,237.804 L 53.6855,237.723 L 53.6428,237.639 L 53.6053,237.552 L 53.5734,237.464
 L 53.5471,237.373 L 53.5266,237.281 L 53.5118,237.188 L 53.503,237.094 z
M 53.5,53 L 53.503,52.9058 L 53.5118,52.812 L 53.5266,52.7189 L 53.5471,52.627 L 53.5734,52.5365
 L 53.6053,52.4478 L 53.6428,52.3613 L 53.6855,52.2774 L 53.7335,52.1963 L 53.7865,52.1183 L 53.8442,52.0439
 L 53.9065,51.9732 L 53.9732,51.9065 L 54.0439,51.8442 L 54.1183,51.7865 L 54.1963,51.7335 L 54.2774,51.6855
 L 54.3613,51.6428 L 54.4478,51.6053 L 54.5365,51.5734 L 54.627,51.5471 L 54.7189,51.5266 L 54.812,51.5118
 L 54.9058,51.503 L 55,51.5 L 55.0942,51.503 L 55.188,51.5118 L 55.2811,51.5266 L 55.373,51.5471
 L 55.4635,51.5734 L 55.5522,51.6053 L 55.6387,51.6428 L 55.7226,51.6855 L 55.8037,51.7335 L 55.8817,51.7865
 L 55.9561,51.8442 L 56.0268,51.9065 L 56.0935,51.9732 L 56.1558,52.0439 L 56.2135,52.1183 L 56.2665,52.1963
 L 56.3145,52.2774 L 56.3572,52.3613 L 56.3947,52.4478 L 56.4266,52.5365 L 56.4529,52.627 L 56.4734,52.7189
 L 56.4882,52.812 L 56.497,52.9058 L 56.5,53 L 56.497,53.0942 L 56.4882,53.188 L 56.4734,53.2811
 L 56.4529,53.373 L 56.4266,53.4635 L 56.3947,53.5522 L 56.3572,53.6387 L 56.3145,53.7226 L 56.2665,53.8037
 L 56.2135,53.8817 L 56.1558,53.9561 L 56.0935,54.0268 L 56.0268,54.0935 L 55.9561,54.1558 L 55.8817,54.2135
 L 55.8037,54.2665 L 55.7226,54.3145 L 55.6387,54.3572 L 55.5522,54.3947 L 55.4635,54.4266 L 55.373,54.4529
 L 55.2811,54.4734 L 55.188,54.4882 L 55.0942,54.497 L 55,54.5 L 54.9058,54.497 L 54.812,54.4882
 L 54.7189,54.4734 L 54.627,54.4529 L 54.5365,54.4266 L 54.4478,54.3947 L 54.3613,54.3572 L 54.2774,54.3145
 L 54.1963,54.2665 L 54.1183,54.2135 L 54.0439,54.1558 L 53.9732,54.0935 L 53.9065,54.0268 L 53.8442,53.9561
 L 53.7865,53.8817 L 53.7335,53.8037 L 53.6855,53.7226 L 53.6428,53.6387 L 53.6053,53.5522 L 53.5734,53.4635
 L 53.5471,53.373 L 53.5266,53.2811 L 53.5118,53.188 L 53.503,53.0942 z
M 53.5,-53 L 53.503,-53.0942 L 53.5118,-53.188 L 53.5266,-53.2811 L 53.5471,-53.373 L 53.5734,-53.4635
 L 53.6053,-53.5522 L 53.6428,-53.6387 L 53.6855,-53.7226 L 53.7335,-53.8037 L 53.7865,-53.8817 L 53.8442,-53.9561
 L 53.9065,-54.0268 L 53.9732,-54.0935 L 54.0439,-54.1558 L 54.1183,-54.2135 L 54.1963,-54.2665 L 54.2774,-54.3145
 L 54.3613,-54.3572 L 54.4478,-54.3947 L 54.5365,-54.4266 L 54.627,-54.4529 L 54.7189,-54.4734 L 54.812,-54.4882
 L 54.9058,-54.497 L 55,-54.5 L 55.0942,-54.497 L 55.188,-54.4882 L 55.2811,-54.4734 L 55.373,-54.4529
 L 55.4635,-54.4266 L 55.5522,-54.3947 L 55.6387,-54.3572 L 55.7226,-54.3145 L 55.8037,-54.2665 L 55.8817,-54.2135
 L 55.9561,-54.1558 L 56.0268,-54.0935 L 56.0935,-54.0268 L 56.1558,-53.9561 L 56.2135,-53.8817 L 56.2665,-53.8037
 L 56.3145,-53.7226 L 56.3572,-53.6387 L 56.3947,-53.5522 L 56.4266,-53.4635 L 56.4529,-53.373 L 56.4734,-53.2811
 L 56.4882,-53.188 L 56.497,-53.0942 L 56.5,-53 L 56.497,-52.9058 L 56.4882,-52.812 L 56.4734,-52.7189
 L 56.4529,-52.627 L 56.4266,-52.5365 L 56.3947,-52.4478 L 56.3572,-52.3613 L 56.3145,-52.2774 L 56.2665,-52.1963
 L 56.2135,-52.1183 L 56.1558,-52.0439 L 56.0935,-51.9732 L 56.0268,-51.9065 L 55.9561,-51.8442 L 55.8817,-51.7865
 L 55.8037,-51.7335 L 55.7226,-51.6855 L 55.6387,-51.6428 L 55.5522,-51.6053 L 55.4635,-51.5734 L 55.373,-51.5471
 L 55.2811,-51.5266 L 55.188,-51.5118 L 55.0942,-51.503 L 55,-51.5 L 54.9058,-51.503 L 54.812,-51.5118
 L 54.7189,-51.5266 L 54.627,-51.5471 L 54.5365,-51.5734 L 54.4478,-51.6053 L 54.3613,-51.6428 L 54.2774,-51.6855
 L 54.1963,-51.7335 L 54.1183,-51.7865 L 54.0439,-51.8442 L 53.9732,-51.9065 L 53.9065,-51.9732 L 53.8442,-52.0439
 L 53.7865,-52.1183 L 53.7335,-52.1963 L 53.6855,-52.2774 L 53.6428,-52.3613 L 53.6053,-52.4478 L 53.5734,-52.5365
 L 53.5471,-52.627 L 53.5266,-52.7189 L 53.5118,-52.812 L 53.503,-52.9058 z
M 53.5,-237 L 53.503,-237.094 L 53.5118,-237.188 L 53.5266,-237.281 L 53.5471,-237.373 L 53.5734,-237.464
 L 53.6053,-237.552 L 53.6428,-237.639 L 53.6855,-237.723 L 53.7335,-237.804 L 53.7865,-237.882 L 53.8442,-237.956
 L 53.9065,-238.027 L 53.9732,-238.093 L 54.0439,-238.156 L 54.1183,-238.214 L 54.1963,-238.266 L 54.2774,-238.314
 L 54.3613,-238.357 L 54.4478,-238.395 L 54.5365,-238.427 L 54.627,-238.453 L 54.7189,-238.473 L 54.812,-238.488
 L 54.9058,-238.497 L 55,-238.5 L 55.0942,-238.497 L 55.188,-238.488 L 55.2811,-238.473 L 55.373,-238.453
 L 55.4635,-238.427 L 55.5522,-238.395 L 55.6387,-238.357 L 55.7226,-238.314 L 55.8037,-238.266 L 55.8817,-238.214
 L 55.9561,-238.156 L 56.0268,-238.093 L 56.0935,-238.027 L 56.1558,-237.956 L 56.2135,-237.882 L 56.2665,-237.804
 L 56.3145,-237.723 L 56.3572,-237.639 L 56.3947,-237.552 L 56.4266,-237.464 L 56.4529,-237.373 L 56.4734,-237.281
 L 56.4882,-237.188 L 56.497,-237.094 L 56.5,-237 L 56.497,-236.906 L 56.4882,-236.812 L 56.4734,-236.719
 L 56.4529,-236.627 L 56.4266,-236.536 L 56.3947,-236.448 L 56.3572,-236.361 L 56.3145,-236.277 L 56.2665,-236.196
 L 56.2135,-236.118 L 56.1558,-236.044 L 56.0935,-235.973 L 56.0268,-235.907 L 55.9561,-235.844 L 55.8817,-235.786
 L 55.8037,-235.734 L 55.7226,-235.686 L 55.6387,-235.643 L 55.5522,-235.605 L 55.4635,-235.573 L 55.373,-235.547
 L 55.2811,-235.527 L 55.188,-235.512 L 55.0942,-235.503 L 55,-235.5 L 54.9058,-235.503 L 54.812,-235.512
 L 54.7189,-235.527 L 54.627,-235.547 L 54.5365,-235.573 L 54.4478,-235.605 L 54.3613,-235.643 L 54.2774,-235.686
 L 54.1963,-235.734 L 54.1183,-235.786 L 54.0439,-235.844 L 53.9732,-235.907 L 53.9065,-235.973 L 53.8442,-236.044
 L 53.7865,-236.118 L 53.7335,-236.196 L 53.6855,-236.277 L 53.6428,-236.361 L 53.6053,-236.448 L 53.5734,-236.536
 L 53.5471,-236.627 L 53.5266,-236.719 L 53.5118,-236.812 L 53.503,-236.906 z
" stroke="black" fill="lightgray" stroke-width="0.5"/>
</svg>
