  0
SECTION
  2
BLOCKS
  0
ENDSEC
  0
SECTION
  2
ENTITIES
  0
LINE
  8
0
 10
68
 20
250
 11
-572
 21
250
  0
LINE
  8
0
 10
-572
 20
250
 11
-572
 21
-250
  0
LINE
  8
0
 10
-572
 20
-250
 11
68
 21
-250
  0
LINE
  8
0
 10
68
 20
-250
 11
68
 21
250
  0
LINE
  8
0
 10
-541.594
 20
105.836
 11
-541.688
 21
105.845
  0
LINE
  8
0
 10
-541.688
 20
105.845
 11
-541.781
 21
105.86
  0
LINE
  8
0
 10
-541.781
 20
105.86
 11
-541.873
 21
105.88
  0
LINE
  8
0
 10
-541.873
 20
105.88
 11
-541.964
 21
105.907
  0
LINE
  8
0
 10
-541.964
 20
105.907
 11
-542.052
 21
105.939
  0
LINE
  8
0
 10
-542.052
 20
105.939
 11
-542.139
 21
105.976
  0
LINE
  8
0
 10
-542.139
 20
105.976
 11
-542.223
 21
106.019
  0
LINE
  8
0
 10
-542.223
 20
106.019
 11
-542.304
 21
106.067
  0
LINE
  8
0
 10
-542.304
 20
106.067
 11
-542.382
 21
106.12
  0
LINE
  8
0
 10
-542.382
 20
106.12
 11
-542.456
 21
106.178
  0
LINE
  8
0
 10
-542.456
 20
106.178
 11
-542.527
 21
106.24
  0
LINE
  8
0
 10
-542.527
 20
106.24
 11
-542.593
 21
106.307
  0
LINE
  8
0
 10
-542.593
 20
106.307
 11
-542.656
 21
106.377
  0
LINE
  8
0
 10
-542.656
 20
106.377
 11
-542.714
 21
106.452
  0
LINE
  8
0
 10
-542.714
 20
106.452
 11
-542.766
 21
106.53
  0
LINE
  8
0
 10
-542.766
 20
106.53
 11
-542.814
 21
106.611
  0
LINE
  8
0
 10
-542.814
 20
106.611
 11
-542.857
 21
106.695
  0
LINE
  8
0
 10
-542.857
 20
106.695
 11
-542.895
 21
106.781
  0
LINE
  8
0
 10
-542.895
 20
106.781
 11
-542.927
 21
106.87
  0
LINE
  8
0
 10
-542.927
 20
106.87
 11
-542.953
 21
106.96
  0
LINE
  8
0
 10
-542.953
 20
106.96
 11
-542.973
 21
107.052
  0
LINE
  8
0
 10
-542.973
 20
107.052
 11
-542.988
 21
107.145
  0
LINE
  8
0
 10
-542.988
 20
107.145
 11
-542.997
 21
107.239
  0
LINE
  8
0
 10
-542.997
 20
107.239
 11
-543
 21
107.333
  0
LINE
  8
0
 10
-543
 20
107.333
 11
-542.997
 21
107.428
  0
LINE
  8
0
 10
-542.997
 20
107.428
 11
-542.988
 21
107.521
  0
LINE
  8
0
 10
-542.988
 20
107.521
 11
-542.973
 21
107.614
  0
LINE
  8
0
 10
-542.973
 20
107.614
 11
-542.953
 21
107.706
  0
LINE
  8
0
 10
-542.953
 20
107.706
 11
-542.927
 21
107.797
  0
LINE
  8
0
 10
-542.927
 20
107.797
 11
-542.895
 21
107.886
  0
LINE
  8
0
 10
-542.895
 20
107.886
 11
-542.857
 21
107.972
  0
LINE
  8
0
 10
-542.857
 20
107.972
 11
-542.814
 21
108.056
  0
LINE
  8
0
 10
-542.814
 20
108.056
 11
-542.766
 21
108.137
  0
LINE
  8
0
 10
-542.766
 20
108.137
 11
-542.714
 21
108.215
  0
LINE
  8
0
 10
-542.714
 20
108.215
 11
-542.656
 21
108.289
  0
LINE
  8
0
 10
-542.656
 20
108.289
 11
-542.593
 21
108.36
  0
LINE
  8
0
 10
-542.593
 20
108.36
 11
-542.527
 21
108.427
  0
LINE
  8
0
 10
-542.527
 20
108.427
 11
-542.456
 21
108.489
  0
LINE
  8
0
 10
-542.456
 20
108.489
 11
-542.382
 21
108.547
  0
LINE
  8
0
 10
-542.382
 20
108.547
 11
-542.304
 21
108.6
  0
LINE
  8
0
 10
-542.304
 20
108.6
 11
-542.223
 21
108.648
  0
LINE
  8
0
 10
-542.223
 20
108.648
 11
-542.139
 21
108.691
  0
LINE
  8
0
 10
-542.139
 20
108.691
 11
-542.052
 21
108.728
  0
LINE
  8
0
 10
-542.052
 20
108.728
 11
-541.964
 21
108.76
  0
LINE
  8
0
 10
-541.964
 20
108.76
 11
-541.873
 21
108.786
  0
LINE
  8
0
 10
-541.873
 20
108.786
 11
-541.781
 21
108.807
  0
LINE
  8
0
 10
-541.781
 20
108.807
 11
-541.688
 21
108.822
  0
LINE
  8
0
 10
-541.688
 20
108.822
 11
-541.594
 21
108.83
  0
LINE
  8
0
 10
-541.594
 20
108.83
 11
-541.5
 21
108.833
  0
LINE
  8
0
 10
-541.5
 20
108.833
 11
-541.406
 21
108.83
  0
LINE
  8
0
 10
-541.406
 20
108.83
 11
-541.312
 21
108.822
  0
LINE
  8
0
 10
-541.312
 20
108.822
 11
-541.219
 21
108.807
  0
LINE
  8
0
 10
-541.219
 20
108.807
 11
-541.127
 21
108.786
  0
LINE
  8
0
 10
-541.127
 20
108.786
 11
-541.036
 21
108.76
  0
LINE
  8
0
 10
-541.036
 20
108.76
 11
-540.948
 21
108.728
  0
LINE
  8
0
 10
-540.948
 20
108.728
 11
-540.861
 21
108.691
  0
LINE
  8
0
 10
-540.861
 20
108.691
 11
-540.777
 21
108.648
  0
LINE
  8
0
 10
-540.777
 20
108.648
 11
-540.696
 21
108.6
  0
LINE
  8
0
 10
-540.696
 20
108.6
 11
-540.618
 21
108.547
  0
LINE
  8
0
 10
-540.618
 20
108.547
 11
-540.544
 21
108.489
  0
LINE
  8
0
 10
-540.544
 20
108.489
 11
-540.473
 21
108.427
  0
LINE
  8
0
 10
-540.473
 20
108.427
 11
-540.407
 21
108.36
  0
LINE
  8
0
 10
-540.407
 20
108.36
 11
-540.344
 21
108.289
  0
LINE
  8
0
 10
-540.344
 20
108.289
 11
-540.286
 21
108.215
  0
LINE
  8
0
 10
-540.286
 20
108.215
 11
-540.234
 21
108.137
  0
LINE
  8
0
 10
-540.234
 20
108.137
 11
-540.186
 21
108.056
  0
LINE
  8
0
 10
-540.186
 20
108.056
 11
-540.143
 21
107.972
  0
LINE
  8
0
 10
-540.143
 20
107.972
 11
-540.105
 21
107.886
  0
LINE
  8
0
 10
-540.105
 20
107.886
 11
-540.073
 21
107.797
  0
LINE
  8
0
 10
-540.073
 20
107.797
 11
-540.047
 21
107.706
  0
LINE
  8
0
 10
-540.047
 20
107.706
 11
-540.027
 21
107.614
  0
LINE
  8
0
 10
-540.027
 20
107.614
 11
-540.012
 21
107.521
  0
LINE
  8
0
 10
-540.012
 20
107.521
 11
-540.003
 21
107.428
  0
LINE
  8
0
 10
-540.003
 20
107.428
 11
-540
 21
107.333
  0
LINE
  8
0
 10
-540
 20
107.333
 11
-540.003
 21
107.239
  0
LINE
  8
0
 10
-540.003
 20
107.239
 11
-540.012
 21
107.145
  0
LINE
  8
0
 10
-540.012
 20
107.145
 11
-540.027
 21
107.052
  0
LINE
  8
0
 10
-540.027
 20
107.052
 11
-540.047
 21
106.96
  0
LINE
  8
0
 10
-540.047
 20
106.96
 11
-540.073
 21
106.87
  0
LINE
  8
0
 10
-540.073
 20
106.87
 11
-540.105
 21
106.781
  0
LINE
  8
0
 10
-540.105
 20
106.781
 11
-540.143
 21
106.695
  0
LINE
  8
0
 10
-540.143
 20
106.695
 11
-540.186
 21
106.611
  0
LINE
  8
0
 10
-540.186
 20
106.611
 11
-540.234
 21
106.53
  0
LINE
  8
0
 10
-540.234
 20
106.53
 11
-540.286
 21
106.452
  0
LINE
  8
0
 10
-540.286
 20
106.452
 11
-540.344
 21
106.377
  0
LINE
  8
0
 10
-540.344
 20
106.377
 11
-540.407
 21
106.307
  0
LINE
  8
0
 10
-540.407
 20
106.307
 11
-540.473
 21
106.24
  0
LINE
  8
0
 10
-540.473
 20
106.24
 11
-540.544
 21
106.178
  0
LINE
  8
0
 10
-540.544
 20
106.178
 11
-540.618
 21
106.12
  0
LINE
  8
0
 10
-540.618
 20
106.12
 11
-540.696
 21
106.067
  0
LINE
  8
0
 10
-540.696
 20
106.067
 11
-540.777
 21
106.019
  0
LINE
  8
0
 10
-540.777
 20
106.019
 11
-540.861
 21
105.976
  0
LINE
  8
0
 10
-540.861
 20
105.976
 11
-540.948
 21
105.939
  0
LINE
  8
0
 10
-540.948
 20
105.939
 11
-541.036
 21
105.907
  0
LINE
  8
0
 10
-541.036
 20
105.907
 11
-541.127
 21
105.88
  0
LINE
  8
0
 10
-541.127
 20
105.88
 11
-541.219
 21
105.86
  0
LINE
  8
0
 10
-541.219
 20
105.86
 11
-541.312
 21
105.845
  0
LINE
  8
0
 10
-541.312
 20
105.845
 11
-541.406
 21
105.836
  0
LINE
  8
0
 10
-541.406
 20
105.836
 11
-541.5
 21
105.833
  0
LINE
  8
0
 10
-541.5
 20
105.833
 11
-541.594
 21
105.836
  0
LINE
  8
0
 10
-549.599
 20
65.8679
 11
-550.693
 21
65.9713
  0
LINE
  8
0
 10
-550.693
 20
65.9713
 11
-551.779
 21
66.1433
  0
LINE
  8
0
 10
-551.779
 20
66.1433
 11
-552.852
 21
66.3831
  0
LINE
  8
0
 10
-552.852
 20
66.3831
 11
-553.908
 21
66.6898
  0
LINE
  8
0
 10
-553.908
 20
66.6898
 11
-554.942
 21
67.0622
  0
LINE
  8
0
 10
-554.942
 20
67.0622
 11
-555.951
 21
67.4989
  0
LINE
  8
0
 10
-555.951
 20
67.4989
 11
-556.931
 21
67.998
  0
LINE
  8
0
 10
-556.931
 20
67.998
 11
-557.877
 21
68.5576
  0
LINE
  8
0
 10
-557.877
 20
68.5576
 11
-558.786
 21
69.1755
  0
LINE
  8
0
 10
-558.786
 20
69.1755
 11
-559.655
 21
69.8493
  0
LINE
  8
0
 10
-559.655
 20
69.8493
 11
-560.48
 21
70.5764
  0
LINE
  8
0
 10
-560.48
 20
70.5764
 11
-561.257
 21
71.3538
  0
LINE
  8
0
 10
-561.257
 20
71.3538
 11
-561.984
 21
72.1784
  0
LINE
  8
0
 10
-561.984
 20
72.1784
 11
-562.658
 21
73.0471
  0
LINE
  8
0
 10
-562.658
 20
73.0471
 11
-563.276
 21
73.9564
  0
LINE
  8
0
 10
-563.276
 20
73.9564
 11
-563.835
 21
74.9026
  0
LINE
  8
0
 10
-563.835
 20
74.9026
 11
-564.334
 21
75.8822
  0
LINE
  8
0
 10
-564.334
 20
75.8822
 11
-564.771
 21
76.8911
  0
LINE
  8
0
 10
-564.771
 20
76.8911
 11
-565.143
 21
77.9255
  0
LINE
  8
0
 10
-565.143
 20
77.9255
 11
-565.45
 21
78.9813
  0
LINE
  8
0
 10
-565.45
 20
78.9813
 11
-565.69
 21
80.0542
  0
LINE
  8
0
 10
-565.69
 20
80.0542
 11
-565.862
 21
81.14
  0
LINE
  8
0
 10
-565.862
 20
81.14
 11
-565.965
 21
82.2345
  0
LINE
  8
0
 10
-565.965
 20
82.2345
 11
-566
 21
83.3333
  0
LINE
  8
0
 10
-566
 20
83.3333
 11
-565.965
 21
84.4322
  0
LINE
  8
0
 10
-565.965
 20
84.4322
 11
-565.862
 21
85.5267
  0
LINE
  8
0
 10
-565.862
 20
85.5267
 11
-565.69
 21
86.6125
  0
LINE
  8
0
 10
-565.69
 20
86.6125
 11
-565.45
 21
87.6854
  0
LINE
  8
0
 10
-565.45
 20
87.6854
 11
-565.143
 21
88.7411
  0
LINE
  8
0
 10
-565.143
 20
88.7411
 11
-564.771
 21
89.7755
  0
LINE
  8
0
 10
-564.771
 20
89.7755
 11
-564.334
 21
90.7845
  0
LINE
  8
0
 10
-564.334
 20
90.7845
 11
-563.835
 21
91.764
  0
LINE
  8
0
 10
-563.835
 20
91.764
 11
-563.276
 21
92.7103
  0
LINE
  8
0
 10
-563.276
 20
92.7103
 11
-562.658
 21
93.6196
  0
LINE
  8
0
 10
-562.658
 20
93.6196
 11
-561.984
 21
94.4883
  0
LINE
  8
0
 10
-561.984
 20
94.4883
 11
-561.257
 21
95.3129
  0
LINE
  8
0
 10
-561.257
 20
95.3129
 11
-560.48
 21
96.0903
  0
LINE
  8
0
 10
-560.48
 20
96.0903
 11
-559.655
 21
96.8173
  0
LINE
  8
0
 10
-559.655
 20
96.8173
 11
-558.786
 21
97.4911
  0
LINE
  8
0
 10
-558.786
 20
97.4911
 11
-557.877
 21
98.1091
  0
LINE
  8
0
 10
-557.877
 20
98.1091
 11
-556.931
 21
98.6687
  0
LINE
  8
0
 10
-556.931
 20
98.6687
 11
-555.951
 21
99.1678
  0
LINE
  8
0
 10
-555.951
 20
99.1678
 11
-554.942
 21
99.6044
  0
LINE
  8
0
 10
-554.942
 20
99.6044
 11
-553.908
 21
99.9768
  0
LINE
  8
0
 10
-553.908
 20
99.9768
 11
-552.852
 21
100.284
  0
LINE
  8
0
 10
-552.852
 20
100.284
 11
-551.779
 21
100.523
  0
LINE
  8
0
 10
-551.779
 20
100.523
 11
-550.693
 21
100.695
  0
LINE
  8
0
 10
-550.693
 20
100.695
 11
-549.599
 21
100.799
  0
LINE
  8
0
 10
-549.599
 20
100.799
 11
-548.5
 21
100.833
  0
LINE
  8
0
 10
-548.5
 20
100.833
 11
-547.401
 21
100.799
  0
LINE
  8
0
 10
-547.401
 20
100.799
 11
-546.307
 21
100.695
  0
LINE
  8
0
 10
-546.307
 20
100.695
 11
-545.221
 21
100.523
  0
LINE
  8
0
 10
-545.221
 20
100.523
 11
-544.148
 21
100.284
  0
LINE
  8
0
 10
-544.148
 20
100.284
 11
-543.092
 21
99.9768
  0
LINE
  8
0
 10
-543.092
 20
99.9768
 11
-542.058
 21
99.6044
  0
LINE
  8
0
 10
-542.058
 20
99.6044
 11
-541.049
 21
99.1678
  0
LINE
  8
0
 10
-541.049
 20
99.1678
 11
-540.069
 21
98.6687
  0
LINE
  8
0
 10
-540.069
 20
98.6687
 11
-539.123
 21
98.1091
  0
LINE
  8
0
 10
-539.123
 20
98.1091
 11
-538.214
 21
97.4911
  0
LINE
  8
0
 10
-538.214
 20
97.4911
 11
-537.345
 21
96.8173
  0
LINE
  8
0
 10
-537.345
 20
96.8173
 11
-536.52
 21
96.0903
  0
LINE
  8
0
 10
-536.52
 20
96.0903
 11
-535.743
 21
95.3129
  0
LINE
  8
0
 10
-535.743
 20
95.3129
 11
-535.016
 21
94.4883
  0
LINE
  8
0
 10
-535.016
 20
94.4883
 11
-534.342
 21
93.6196
  0
LINE
  8
0
 10
-534.342
 20
93.6196
 11
-533.724
 21
92.7103
  0
LINE
  8
0
 10
-533.724
 20
92.7103
 11
-533.165
 21
91.764
  0
LINE
  8
0
 10
-533.165
 20
91.764
 11
-532.666
 21
90.7845
  0
LINE
  8
0
 10
-532.666
 20
90.7845
 11
-532.229
 21
89.7755
  0
LINE
  8
0
 10
-532.229
 20
89.7755
 11
-531.857
 21
88.7411
  0
LINE
  8
0
 10
-531.857
 20
88.7411
 11
-531.55
 21
87.6854
  0
LINE
  8
0
 10
-531.55
 20
87.6854
 11
-531.31
 21
86.6125
  0
LINE
  8
0
 10
-531.31
 20
86.6125
 11
-531.138
 21
85.5267
  0
LINE
  8
0
 10
-531.138
 20
85.5267
 11
-531.035
 21
84.4322
  0
LINE
  8
0
 10
-531.035
 20
84.4322
 11
-531
 21
83.3333
  0
LINE
  8
0
 10
-531
 20
83.3333
 11
-531.035
 21
82.2345
  0
LINE
  8
0
 10
-531.035
 20
82.2345
 11
-531.138
 21
81.14
  0
LINE
  8
0
 10
-531.138
 20
81.14
 11
-531.31
 21
80.0542
  0
LINE
  8
0
 10
-531.31
 20
80.0542
 11
-531.55
 21
78.9813
  0
LINE
  8
0
 10
-531.55
 20
78.9813
 11
-531.857
 21
77.9255
  0
LINE
  8
0
 10
-531.857
 20
77.9255
 11
-532.229
 21
76.8911
  0
LINE
  8
0
 10
-532.229
 20
76.8911
 11
-532.666
 21
75.8822
  0
LINE
  8
0
 10
-532.666
 20
75.8822
 11
-533.165
 21
74.9026
  0
LINE
  8
0
 10
-533.165
 20
74.9026
 11
-533.724
 21
73.9564
  0
LINE
  8
0
 10
-533.724
 20
73.9564
 11
-534.342
 21
73.0471
  0
LINE
  8
0
 10
-534.342
 20
73.0471
 11
-535.016
 21
72.1784
  0
LINE
  8
0
 10
-535.016
 20
72.1784
 11
-535.743
 21
71.3538
  0
LINE
  8
0
 10
-535.743
 20
71.3538
 11
-536.52
 21
70.5764
  0
LINE
  8
0
 10
-536.52
 20
70.5764
 11
-537.345
 21
69.8493
  0
LINE
  8
0
 10
-537.345
 20
69.8493
 11
-538.214
 21
69.1755
  0
LINE
  8
0
 10
-538.214
 20
69.1755
 11
-539.123
 21
68.5576
  0
LINE
  8
0
 10
-539.123
 20
68.5576
 11
-540.069
 21
67.998
  0
LINE
  8
0
 10
-540.069
 20
67.998
 11
-541.049
 21
67.4989
  0
LINE
  8
0
 10
-541.049
 20
67.4989
 11
-542.058
 21
67.0622
  0
LINE
  8
0
 10
-542.058
 20
67.0622
 11
-543.092
 21
66.6898
  0
LINE
  8
0
 10
-543.092
 20
66.6898
 11
-544.148
 21
66.3831
  0
LINE
  8
0
 10
-544.148
 20
66.3831
 11
-545.221
 21
66.1433
  0
LINE
  8
0
 10
-545.221
 20
66.1433
 11
-546.307
 21
65.9713
  0
LINE
  8
0
 10
-546.307
 20
65.9713
 11
-547.401
 21
65.8679
  0
LINE
  8
0
 10
-547.401
 20
65.8679
 11
-548.5
 21
65.8333
  0
LINE
  8
0
 10
-548.5
 20
65.8333
 11
-549.599
 21
65.8679
  0
LINE
  8
0
 10
-541.594
 20
57.8363
 11
-541.688
 21
57.8452
  0
LINE
  8
0
 10
-541.688
 20
57.8452
 11
-541.781
 21
57.8599
  0
LINE
  8
0
 10
-541.781
 20
57.8599
 11
-541.873
 21
57.8804
  0
LINE
  8
0
 10
-541.873
 20
57.8804
 11
-541.964
 21
57.9067
  0
LINE
  8
0
 10
-541.964
 20
57.9067
 11
-542.052
 21
57.9387
  0
LINE
  8
0
 10
-542.052
 20
57.9387
 11
-542.139
 21
57.9761
  0
LINE
  8
0
 10
-542.139
 20
57.9761
 11
-542.223
 21
58.0189
  0
LINE
  8
0
 10
-542.223
 20
58.0189
 11
-542.304
 21
58.0668
  0
LINE
  8
0
 10
-542.304
 20
58.0668
 11
-542.382
 21
58.1198
  0
LINE
  8
0
 10
-542.382
 20
58.1198
 11
-542.456
 21
58.1776
  0
LINE
  8
0
 10
-542.456
 20
58.1776
 11
-542.527
 21
58.2399
  0
LINE
  8
0
 10
-542.527
 20
58.2399
 11
-542.593
 21
58.3065
  0
LINE
  8
0
 10
-542.593
 20
58.3065
 11
-542.656
 21
58.3772
  0
LINE
  8
0
 10
-542.656
 20
58.3772
 11
-542.714
 21
58.4516
  0
LINE
  8
0
 10
-542.714
 20
58.4516
 11
-542.766
 21
58.5296
  0
LINE
  8
0
 10
-542.766
 20
58.5296
 11
-542.814
 21
58.6107
  0
LINE
  8
0
 10
-542.814
 20
58.6107
 11
-542.857
 21
58.6947
  0
LINE
  8
0
 10
-542.857
 20
58.6947
 11
-542.895
 21
58.7811
  0
LINE
  8
0
 10
-542.895
 20
58.7811
 11
-542.927
 21
58.8698
  0
LINE
  8
0
 10
-542.927
 20
58.8698
 11
-542.953
 21
58.9603
  0
LINE
  8
0
 10
-542.953
 20
58.9603
 11
-542.973
 21
59.0523
  0
LINE
  8
0
 10
-542.973
 20
59.0523
 11
-542.988
 21
59.1453
  0
LINE
  8
0
 10
-542.988
 20
59.1453
 11
-542.997
 21
59.2391
  0
LINE
  8
0
 10
-542.997
 20
59.2391
 11
-543
 21
59.3333
  0
LINE
  8
0
 10
-543
 20
59.3333
 11
-542.997
 21
59.4275
  0
LINE
  8
0
 10
-542.997
 20
59.4275
 11
-542.988
 21
59.5213
  0
LINE
  8
0
 10
-542.988
 20
59.5213
 11
-542.973
 21
59.6144
  0
LINE
  8
0
 10
-542.973
 20
59.6144
 11
-542.953
 21
59.7064
  0
LINE
  8
0
 10
-542.953
 20
59.7064
 11
-542.927
 21
59.7969
  0
LINE
  8
0
 10
-542.927
 20
59.7969
 11
-542.895
 21
59.8855
  0
LINE
  8
0
 10
-542.895
 20
59.8855
 11
-542.857
 21
59.972
  0
LINE
  8
0
 10
-542.857
 20
59.972
 11
-542.814
 21
60.056
  0
LINE
  8
0
 10
-542.814
 20
60.056
 11
-542.766
 21
60.1371
  0
LINE
  8
0
 10
-542.766
 20
60.1371
 11
-542.714
 21
60.215
  0
LINE
  8
0
 10
-542.714
 20
60.215
 11
-542.656
 21
60.2895
  0
LINE
  8
0
 10
-542.656
 20
60.2895
 11
-542.593
 21
60.3602
  0
LINE
  8
0
 10
-542.593
 20
60.3602
 11
-542.527
 21
60.4268
  0
LINE
  8
0
 10
-542.527
 20
60.4268
 11
-542.456
 21
60.4891
  0
LINE
  8
0
 10
-542.456
 20
60.4891
 11
-542.382
 21
60.5469
  0
LINE
  8
0
 10
-542.382
 20
60.5469
 11
-542.304
 21
60.5998
  0
LINE
  8
0
 10
-542.304
 20
60.5998
 11
-542.223
 21
60.6478
  0
LINE
  8
0
 10
-542.223
 20
60.6478
 11
-542.139
 21
60.6906
  0
LINE
  8
0
 10
-542.139
 20
60.6906
 11
-542.052
 21
60.728
  0
LINE
  8
0
 10
-542.052
 20
60.728
 11
-541.964
 21
60.7599
  0
LINE
  8
0
 10
-541.964
 20
60.7599
 11
-541.873
 21
60.7862
  0
LINE
  8
0
 10
-541.873
 20
60.7862
 11
-541.781
 21
60.8068
  0
LINE
  8
0
 10
-541.781
 20
60.8068
 11
-541.688
 21
60.8215
  0
LINE
  8
0
 10
-541.688
 20
60.8215
 11
-541.594
 21
60.8304
  0
LINE
  8
0
 10
-541.594
 20
60.8304
 11
-541.5
 21
60.8333
  0
LINE
  8
0
 10
-541.5
 20
60.8333
 11
-541.406
 21
60.8304
  0
LINE
  8
0
 10
-541.406
 20
60.8304
 11
-541.312
 21
60.8215
  0
LINE
  8
0
 10
-541.312
 20
60.8215
 11
-541.219
 21
60.8068
  0
LINE
  8
0
 10
-541.219
 20
60.8068
 11
-541.127
 21
60.7862
  0
LINE
  8
0
 10
-541.127
 20
60.7862
 11
-541.036
 21
60.7599
  0
LINE
  8
0
 10
-541.036
 20
60.7599
 11
-540.948
 21
60.728
  0
LINE
  8
0
 10
-540.948
 20
60.728
 11
-540.861
 21
60.6906
  0
LINE
  8
0
 10
-540.861
 20
60.6906
 11
-540.777
 21
60.6478
  0
LINE
  8
0
 10
-540.777
 20
60.6478
 11
-540.696
 21
60.5998
  0
LINE
  8
0
 10
-540.696
 20
60.5998
 11
-540.618
 21
60.5469
  0
LINE
  8
0
 10
-540.618
 20
60.5469
 11
-540.544
 21
60.4891
  0
LINE
  8
0
 10
-540.544
 20
60.4891
 11
-540.473
 21
60.4268
  0
LINE
  8
0
 10
-540.473
 20
60.4268
 11
-540.407
 21
60.3602
  0
LINE
  8
0
 10
-540.407
 20
60.3602
 11
-540.344
 21
60.2895
  0
LINE
  8
0
 10
-540.344
 20
60.2895
 11
-540.286
 21
60.215
  0
LINE
  8
0
 10
-540.286
 20
60.215
 11
-540.234
 21
60.1371
  0
LINE
  8
0
 10
-540.234
 20
60.1371
 11
-540.186
 21
60.056
  0
LINE
  8
0
 10
-540.186
 20
60.056
 11
-540.143
 21
59.972
  0
LINE
  8
0
 10
-540.143
 20
59.972
 11
-540.105
 21
59.8855
  0
LINE
  8
0
 10
-540.105
 20
59.8855
 11
-540.073
 21
59.7969
  0
LINE
  8
0
 10
-540.073
 20
59.7969
 11
-540.047
 21
59.7064
  0
LINE
  8
0
 10
-540.047
 20
59.7064
 11
-540.027
 21
59.6144
  0
LINE
  8
0
 10
-540.027
 20
59.6144
 11
-540.012
 21
59.5213
  0
LINE
  8
0
 10
-540.012
 20
59.5213
 11
-540.003
 21
59.4275
  0
LINE
  8
0
 10
-540.003
 20
59.4275
 11
-540
 21
59.3333
  0
LINE
  8
0
 10
-540
 20
59.3333
 11
-540.003
 21
59.2391
  0
LINE
  8
0
 10
-540.003
 20
59.2391
 11
-540.012
 21
59.1453
  0
LINE
  8
0
 10
-540.012
 20
59.1453
 11
-540.027
 21
59.0523
  0
LINE
  8
0
 10
-540.027
 20
59.0523
 11
-540.047
 21
58.9603
  0
LINE
  8
0
 10
-540.047
 20
58.9603
 11
-540.073
 21
58.8698
  0
LINE
  8
0
 10
-540.073
 20
58.8698
 11
-540.105
 21
58.7811
  0
LINE
  8
0
 10
-540.105
 20
58.7811
 11
-540.143
 21
58.6947
  0
LINE
  8
0
 10
-540.143
 20
58.6947
 11
-540.186
 21
58.6107
  0
LINE
  8
0
 10
-540.186
 20
58.6107
 11
-540.234
 21
58.5296
  0
LINE
  8
0
 10
-540.234
 20
58.5296
 11
-540.286
 21
58.4516
  0
LINE
  8
0
 10
-540.286
 20
58.4516
 11
-540.344
 21
58.3772
  0
LINE
  8
0
 10
-540.344
 20
58.3772
 11
-540.407
 21
58.3065
  0
LINE
  8
0
 10
-540.407
 20
58.3065
 11
-540.473
 21
58.2399
  0
LINE
  8
0
 10
-540.473
 20
58.2399
 11
-540.544
 21
58.1776
  0
LINE
  8
0
 10
-540.544
 20
58.1776
 11
-540.618
 21
58.1198
  0
LINE
  8
0
 10
-540.618
 20
58.1198
 11
-540.696
 21
58.0668
  0
LINE
  8
0
 10
-540.696
 20
58.0668
 11
-540.777
 21
58.0189
  0
LINE
  8
0
 10
-540.777
 20
58.0189
 11
-540.861
 21
57.9761
  0
LINE
  8
0
 10
-540.861
 20
57.9761
 11
-540.948
 21
57.9387
  0
LINE
  8
0
 10
-540.948
 20
57.9387
 11
-541.036
 21
57.9067
  0
LINE
  8
0
 10
-541.036
 20
57.9067
 11
-541.127
 21
57.8804
  0
LINE
  8
0
 10
-541.127
 20
57.8804
 11
-541.219
 21
57.8599
  0
LINE
  8
0
 10
-541.219
 20
57.8599
 11
-541.312
 21
57.8452
  0
LINE
  8
0
 10
-541.312
 20
57.8452
 11
-541.406
 21
57.8363
  0
LINE
  8
0
 10
-541.406
 20
57.8363
 11
-541.5
 21
57.8333
  0
LINE
  8
0
 10
-541.5
 20
57.8333
 11
-541.594
 21
57.8363
  0
LINE
  8
0
 10
-51.0509
 20
31.8063
 11
-51.2511
 21
31.8252
  0
LINE
  8
0
 10
-51.2511
 20
31.8252
 11
-51.4496
 21
31.8567
  0
LINE
  8
0
 10
-51.4496
 20
31.8567
 11
-51.6458
 21
31.9005
  0
LINE
  8
0
 10
-51.6458
 20
31.9005
 11
-51.8388
 21
31.9566
  0
LINE
  8
0
 10
-51.8388
 20
31.9566
 11
-52.028
 21
32.0247
  0
LINE
  8
0
 10
-52.028
 20
32.0247
 11
-52.2125
 21
32.1046
  0
LINE
  8
0
 10
-52.2125
 20
32.1046
 11
-52.3916
 21
32.1958
  0
LINE
  8
0
 10
-52.3916
 20
32.1958
 11
-52.5646
 21
32.2981
  0
LINE
  8
0
 10
-52.5646
 20
32.2981
 11
-52.7309
 21
32.4111
  0
LINE
  8
0
 10
-52.7309
 20
32.4111
 11
-52.8897
 21
32.5343
  0
LINE
  8
0
 10
-52.8897
 20
32.5343
 11
-53.0405
 21
32.6673
  0
LINE
  8
0
 10
-53.0405
 20
32.6673
 11
-53.1827
 21
32.8094
  0
LINE
  8
0
 10
-53.1827
 20
32.8094
 11
-53.3156
 21
32.9602
  0
LINE
  8
0
 10
-53.3156
 20
32.9602
 11
-53.4388
 21
33.1191
  0
LINE
  8
0
 10
-53.4388
 20
33.1191
 11
-53.5518
 21
33.2853
  0
LINE
  8
0
 10
-53.5518
 20
33.2853
 11
-53.6542
 21
33.4584
  0
LINE
  8
0
 10
-53.6542
 20
33.4584
 11
-53.7454
 21
33.6375
  0
LINE
  8
0
 10
-53.7454
 20
33.6375
 11
-53.8253
 21
33.822
  0
LINE
  8
0
 10
-53.8253
 20
33.822
 11
-53.8934
 21
34.0111
  0
LINE
  8
0
 10
-53.8934
 20
34.0111
 11
-53.9494
 21
34.2042
  0
LINE
  8
0
 10
-53.9494
 20
34.2042
 11
-53.9933
 21
34.4004
  0
LINE
  8
0
 10
-53.9933
 20
34.4004
 11
-54.0247
 21
34.5989
  0
LINE
  8
0
 10
-54.0247
 20
34.5989
 11
-54.0437
 21
34.7991
  0
LINE
  8
0
 10
-54.0437
 20
34.7991
 11
-54.05
 21
35
  0
LINE
  8
0
 10
-54.05
 20
35
 11
-54.0437
 21
35.2009
  0
LINE
  8
0
 10
-54.0437
 20
35.2009
 11
-54.0247
 21
35.4011
  0
LINE
  8
0
 10
-54.0247
 20
35.4011
 11
-53.9933
 21
35.5996
  0
LINE
  8
0
 10
-53.9933
 20
35.5996
 11
-53.9494
 21
35.7958
  0
LINE
  8
0
 10
-53.9494
 20
35.7958
 11
-53.8934
 21
35.9888
  0
LINE
  8
0
 10
-53.8934
 20
35.9888
 11
-53.8253
 21
36.178
  0
LINE
  8
0
 10
-53.8253
 20
36.178
 11
-53.7454
 21
36.3625
  0
LINE
  8
0
 10
-53.7454
 20
36.3625
 11
-53.6542
 21
36.5416
  0
LINE
  8
0
 10
-53.6542
 20
36.5416
 11
-53.5518
 21
36.7146
  0
LINE
  8
0
 10
-53.5518
 20
36.7146
 11
-53.4388
 21
36.8809
  0
LINE
  8
0
 10
-53.4388
 20
36.8809
 11
-53.3156
 21
37.0397
  0
LINE
  8
0
 10
-53.3156
 20
37.0397
 11
-53.1827
 21
37.1905
  0
LINE
  8
0
 10
-53.1827
 20
37.1905
 11
-53.0405
 21
37.3327
  0
LINE
  8
0
 10
-53.0405
 20
37.3327
 11
-52.8897
 21
37.4656
  0
LINE
  8
0
 10
-52.8897
 20
37.4656
 11
-52.7309
 21
37.5889
  0
LINE
  8
0
 10
-52.7309
 20
37.5889
 11
-52.5646
 21
37.7018
  0
LINE
  8
0
 10
-52.5646
 20
37.7018
 11
-52.3916
 21
37.8042
  0
LINE
  8
0
 10
-52.3916
 20
37.8042
 11
-52.2125
 21
37.8954
  0
LINE
  8
0
 10
-52.2125
 20
37.8954
 11
-52.028
 21
37.9753
  0
LINE
  8
0
 10
-52.028
 20
37.9753
 11
-51.8388
 21
38.0434
  0
LINE
  8
0
 10
-51.8388
 20
38.0434
 11
-51.6458
 21
38.0995
  0
LINE
  8
0
 10
-51.6458
 20
38.0995
 11
-51.4496
 21
38.1433
  0
LINE
  8
0
 10
-51.4496
 20
38.1433
 11
-51.2511
 21
38.1748
  0
LINE
  8
0
 10
-51.2511
 20
38.1748
 11
-51.0509
 21
38.1937
  0
LINE
  8
0
 10
-51.0509
 20
38.1937
 11
-50.85
 21
38.2
  0
LINE
  8
0
 10
-50.85
 20
38.2
 11
-50.6491
 21
38.1937
  0
LINE
  8
0
 10
-50.6491
 20
38.1937
 11
-50.4489
 21
38.1748
  0
LINE
  8
0
 10
-50.4489
 20
38.1748
 11
-50.2504
 21
38.1433
  0
LINE
  8
0
 10
-50.2504
 20
38.1433
 11
-50.0542
 21
38.0995
  0
LINE
  8
0
 10
-50.0542
 20
38.0995
 11
-49.8611
 21
38.0434
  0
LINE
  8
0
 10
-49.8611
 20
38.0434
 11
-49.672
 21
37.9753
  0
LINE
  8
0
 10
-49.672
 20
37.9753
 11
-49.4875
 21
37.8954
  0
LINE
  8
0
 10
-49.4875
 20
37.8954
 11
-49.3084
 21
37.8042
  0
LINE
  8
0
 10
-49.3084
 20
37.8042
 11
-49.1353
 21
37.7018
  0
LINE
  8
0
 10
-49.1353
 20
37.7018
 11
-48.9691
 21
37.5889
  0
LINE
  8
0
 10
-48.9691
 20
37.5889
 11
-48.8102
 21
37.4656
  0
LINE
  8
0
 10
-48.8102
 20
37.4656
 11
-48.6595
 21
37.3327
  0
LINE
  8
0
 10
-48.6595
 20
37.3327
 11
-48.5173
 21
37.1905
  0
LINE
  8
0
 10
-48.5173
 20
37.1905
 11
-48.3844
 21
37.0397
  0
LINE
  8
0
 10
-48.3844
 20
37.0397
 11
-48.2611
 21
36.8809
  0
LINE
  8
0
 10
-48.2611
 20
36.8809
 11
-48.1481
 21
36.7146
  0
LINE
  8
0
 10
-48.1481
 20
36.7146
 11
-48.0458
 21
36.5416
  0
LINE
  8
0
 10
-48.0458
 20
36.5416
 11
-47.9546
 21
36.3625
  0
LINE
  8
0
 10
-47.9546
 20
36.3625
 11
-47.8747
 21
36.178
  0
LINE
  8
0
 10
-47.8747
 20
36.178
 11
-47.8066
 21
35.9888
  0
LINE
  8
0
 10
-47.8066
 20
35.9888
 11
-47.7505
 21
35.7958
  0
LINE
  8
0
 10
-47.7505
 20
35.7958
 11
-47.7067
 21
35.5996
  0
LINE
  8
0
 10
-47.7067
 20
35.5996
 11
-47.6752
 21
35.4011
  0
LINE
  8
0
 10
-47.6752
 20
35.4011
 11
-47.6563
 21
35.2009
  0
LINE
  8
0
 10
-47.6563
 20
35.2009
 11
-47.65
 21
35
  0
LINE
  8
0
 10
-47.65
 20
35
 11
-47.6563
 21
34.7991
  0
LINE
  8
0
 10
-47.6563
 20
34.7991
 11
-47.6752
 21
34.5989
  0
LINE
  8
0
 10
-47.6752
 20
34.5989
 11
-47.7067
 21
34.4004
  0
LINE
  8
0
 10
-47.7067
 20
34.4004
 11
-47.7505
 21
34.2042
  0
LINE
  8
0
 10
-47.7505
 20
34.2042
 11
-47.8066
 21
34.0111
  0
LINE
  8
0
 10
-47.8066
 20
34.0111
 11
-47.8747
 21
33.822
  0
LINE
  8
0
 10
-47.8747
 20
33.822
 11
-47.9546
 21
33.6375
  0
LINE
  8
0
 10
-47.9546
 20
33.6375
 11
-48.0458
 21
33.4584
  0
LINE
  8
0
 10
-48.0458
 20
33.4584
 11
-48.1481
 21
33.2853
  0
LINE
  8
0
 10
-48.1481
 20
33.2853
 11
-48.2611
 21
33.1191
  0
LINE
  8
0
 10
-48.2611
 20
33.1191
 11
-48.3844
 21
32.9602
  0
LINE
  8
0
 10
-48.3844
 20
32.9602
 11
-48.5173
 21
32.8094
  0
LINE
  8
0
 10
-48.5173
 20
32.8094
 11
-48.6595
 21
32.6673
  0
LINE
  8
0
 10
-48.6595
 20
32.6673
 11
-48.8102
 21
32.5343
  0
LINE
  8
0
 10
-48.8102
 20
32.5343
 11
-48.9691
 21
32.4111
  0
LINE
  8
0
 10
-48.9691
 20
32.4111
 11
-49.1353
 21
32.2981
  0
LINE
  8
0
 10
-49.1353
 20
32.2981
 11
-49.3084
 21
32.1958
  0
LINE
  8
0
 10
-49.3084
 20
32.1958
 11
-49.4875
 21
32.1046
  0
LINE
  8
0
 10
-49.4875
 20
32.1046
 11
-49.672
 21
32.0247
  0
LINE
  8
0
 10
-49.672
 20
32.0247
 11
-49.8611
 21
31.9566
  0
LINE
  8
0
 10
-49.8611
 20
31.9566
 11
-50.0542
 21
31.9005
  0
LINE
  8
0
 10
-50.0542
 20
31.9005
 11
-50.2504
 21
31.8567
  0
LINE
  8
0
 10
-50.2504
 20
31.8567
 11
-50.4489
 21
31.8252
  0
LINE
  8
0
 10
-50.4489
 20
31.8252
 11
-50.6491
 21
31.8063
  0
LINE
  8
0
 10
-50.6491
 20
31.8063
 11
-50.85
 21
31.8
  0
LINE
  8
0
 10
-50.85
 20
31.8
 11
-51.0509
 21
31.8063
  0
LINE
  8
0
 10
39.9058
 20
18.003
 11
39.812
 21
18.0118
  0
LINE
  8
0
 10
39.812
 20
18.0118
 11
39.7189
 21
18.0266
  0
LINE
  8
0
 10
39.7189
 20
18.0266
 11
39.627
 21
18.0471
  0
LINE
  8
0
 10
39.627
 20
18.0471
 11
39.5365
 21
18.0734
  0
LINE
  8
0
 10
39.5365
 20
18.0734
 11
39.4478
 21
18.1053
  0
LINE
  8
0
 10
39.4478
 20
18.1053
 11
39.3613
 21
18.1427
  0
LINE
  8
0
 10
39.3613
 20
18.1427
 11
39.2774
 21
18.1855
  0
LINE
  8
0
 10
39.2774
 20
18.1855
 11
39.1963
 21
18.2335
  0
LINE
  8
0
 10
39.1963
 20
18.2335
 11
39.1183
 21
18.2865
  0
LINE
  8
0
 10
39.1183
 20
18.2865
 11
39.0439
 21
18.3442
  0
LINE
  8
0
 10
39.0439
 20
18.3442
 11
38.9732
 21
18.4065
  0
LINE
  8
0
 10
38.9732
 20
18.4065
 11
38.9065
 21
18.4732
  0
LINE
  8
0
 10
38.9065
 20
18.4732
 11
38.8442
 21
18.5439
  0
LINE
  8
0
 10
38.8442
 20
18.5439
 11
38.7865
 21
18.6183
  0
LINE
  8
0
 10
38.7865
 20
18.6183
 11
38.7335
 21
18.6963
  0
LINE
  8
0
 10
38.7335
 20
18.6963
 11
38.6855
 21
18.7774
  0
LINE
  8
0
 10
38.6855
 20
18.7774
 11
38.6428
 21
18.8613
  0
LINE
  8
0
 10
38.6428
 20
18.8613
 11
38.6053
 21
18.9478
  0
LINE
  8
0
 10
38.6053
 20
18.9478
 11
38.5734
 21
19.0365
  0
LINE
  8
0
 10
38.5734
 20
19.0365
 11
38.5471
 21
19.127
  0
LINE
  8
0
 10
38.5471
 20
19.127
 11
38.5266
 21
19.2189
  0
LINE
  8
0
 10
38.5266
 20
19.2189
 11
38.5118
 21
19.312
  0
LINE
  8
0
 10
38.5118
 20
19.312
 11
38.503
 21
19.4058
  0
LINE
  8
0
 10
38.503
 20
19.4058
 11
38.5
 21
19.5
  0
LINE
  8
0
 10
38.5
 20
19.5
 11
38.503
 21
19.5942
  0
LINE
  8
0
 10
38.503
 20
19.5942
 11
38.5118
 21
19.688
  0
LINE
  8
0
 10
38.5118
 20
19.688
 11
38.5266
 21
19.7811
  0
LINE
  8
0
 10
38.5266
 20
19.7811
 11
38.5471
 21
19.873
  0
LINE
  8
0
 10
38.5471
 20
19.873
 11
38.5734
 21
19.9635
  0
LINE
  8
0
 10
38.5734
 20
19.9635
 11
38.6053
 21
20.0522
  0
LINE
  8
0
 10
38.6053
 20
20.0522
 11
38.6428
 21
20.1387
  0
LINE
  8
0
 10
38.6428
 20
20.1387
 11
38.6855
 21
20.2226
  0
LINE
  8
0
 10
38.6855
 20
20.2226
 11
38.7335
 21
20.3037
  0
LINE
  8
0
 10
38.7335
 20
20.3037
 11
38.7865
 21
20.3817
  0
LINE
  8
0
 10
38.7865
 20
20.3817
 11
38.8442
 21
20.4561
  0
LINE
  8
0
 10
38.8442
 20
20.4561
 11
38.9065
 21
20.5268
  0
LINE
  8
0
 10
38.9065
 20
20.5268
 11
38.9732
 21
20.5934
  0
LINE
  8
0
 10
38.9732
 20
20.5934
 11
39.0439
 21
20.6558
  0
LINE
  8
0
 10
39.0439
 20
20.6558
 11
39.1183
 21
20.7135
  0
LINE
  8
0
 10
39.1183
 20
20.7135
 11
39.1963
 21
20.7665
  0
LINE
  8
0
 10
39.1963
 20
20.7665
 11
39.2774
 21
20.8145
  0
LINE
  8
0
 10
39.2774
 20
20.8145
 11
39.3613
 21
20.8572
  0
LINE
  8
0
 10
39.3613
 20
20.8572
 11
39.4478
 21
20.8947
  0
LINE
  8
0
 10
39.4478
 20
20.8947
 11
39.5365
 21
20.9266
  0
LINE
  8
0
 10
39.5365
 20
20.9266
 11
39.627
 21
20.9529
  0
LINE
  8
0
 10
39.627
 20
20.9529
 11
39.7189
 21
20.9734
  0
LINE
  8
0
 10
39.7189
 20
20.9734
 11
39.812
 21
20.9882
  0
LINE
  8
0
 10
39.812
 20
20.9882
 11
39.9058
 21
20.997
  0
LINE
  8
0
 10
39.9058
 20
20.997
 11
40
 21
21
  0
LINE
  8
0
 10
40
 20
21
 11
40.0942
 21
20.997
  0
LINE
  8
0
 10
40.0942
 20
20.997
 11
40.188
 21
20.9882
  0
LINE
  8
0
 10
40.188
 20
20.9882
 11
40.2811
 21
20.9734
  0
LINE
  8
0
 10
40.2811
 20
20.9734
 11
40.373
 21
20.9529
  0
LINE
  8
0
 10
40.373
 20
20.9529
 11
40.4635
 21
20.9266
  0
LINE
  8
0
 10
40.4635
 20
20.9266
 11
40.5522
 21
20.8947
  0
LINE
  8
0
 10
40.5522
 20
20.8947
 11
40.6387
 21
20.8572
  0
LINE
  8
0
 10
40.6387
 20
20.8572
 11
40.7226
 21
20.8145
  0
LINE
  8
0
 10
40.7226
 20
20.8145
 11
40.8037
 21
20.7665
  0
LINE
  8
0
 10
40.8037
 20
20.7665
 11
40.8817
 21
20.7135
  0
LINE
  8
0
 10
40.8817
 20
20.7135
 11
40.9561
 21
20.6558
  0
LINE
  8
0
 10
40.9561
 20
20.6558
 11
41.0268
 21
20.5934
  0
LINE
  8
0
 10
41.0268
 20
20.5934
 11
41.0934
 21
20.5268
  0
LINE
  8
0
 10
41.0934
 20
20.5268
 11
41.1558
 21
20.4561
  0
LINE
  8
0
 10
41.1558
 20
20.4561
 11
41.2135
 21
20.3817
  0
LINE
  8
0
 10
41.2135
 20
20.3817
 11
41.2665
 21
20.3037
  0
LINE
  8
0
 10
41.2665
 20
20.3037
 11
41.3145
 21
20.2226
  0
LINE
  8
0
 10
41.3145
 20
20.2226
 11
41.3572
 21
20.1387
  0
LINE
  8
0
 10
41.3572
 20
20.1387
 11
41.3947
 21
20.0522
  0
LINE
  8
0
 10
41.3947
 20
20.0522
 11
41.4266
 21
19.9635
  0
LINE
  8
0
 10
41.4266
 20
19.9635
 11
41.4529
 21
19.873
  0
LINE
  8
0
 10
41.4529
 20
19.873
 11
41.4734
 21
19.7811
  0
LINE
  8
0
 10
41.4734
 20
19.7811
 11
41.4882
 21
19.688
  0
LINE
  8
0
 10
41.4882
 20
19.688
 11
41.497
 21
19.5942
  0
LINE
  8
0
 10
41.497
 20
19.5942
 11
41.5
 21
19.5
  0
LINE
  8
0
 10
41.5
 20
19.5
 11
41.497
 21
19.4058
  0
LINE
  8
0
 10
41.497
 20
19.4058
 11
41.4882
 21
19.312
  0
LINE
  8
0
 10
41.4882
 20
19.312
 11
41.4734
 21
19.2189
  0
LINE
  8
0
 10
41.4734
 20
19.2189
 11
41.4529
 21
19.127
  0
LINE
  8
0
 10
41.4529
 20
19.127
 11
41.4266
 21
19.0365
  0
LINE
  8
0
 10
41.4266
 20
19.0365
 11
41.3947
 21
18.9478
  0
LINE
  8
0
 10
41.3947
 20
18.9478
 11
41.3572
 21
18.8613
  0
LINE
  8
0
 10
41.3572
 20
18.8613
 11
41.3145
 21
18.7774
  0
LINE
  8
0
 10
41.3145
 20
18.7774
 11
41.2665
 21
18.6963
  0
LINE
  8
0
 10
41.2665
 20
18.6963
 11
41.2135
 21
18.6183
  0
LINE
  8
0
 10
41.2135
 20
18.6183
 11
41.1558
 21
18.5439
  0
LINE
  8
0
 10
41.1558
 20
18.5439
 11
41.0934
 21
18.4732
  0
LINE
  8
0
 10
41.0934
 20
18.4732
 11
41.0268
 21
18.4065
  0
LINE
  8
0
 10
41.0268
 20
18.4065
 11
40.9561
 21
18.3442
  0
LINE
  8
0
 10
40.9561
 20
18.3442
 11
40.8817
 21
18.2865
  0
LINE
  8
0
 10
40.8817
 20
18.2865
 11
40.8037
 21
18.2335
  0
LINE
  8
0
 10
40.8037
 20
18.2335
 11
40.7226
 21
18.1855
  0
LINE
  8
0
 10
40.7226
 20
18.1855
 11
40.6387
 21
18.1427
  0
LINE
  8
0
 10
40.6387
 20
18.1427
 11
40.5522
 21
18.1053
  0
LINE
  8
0
 10
40.5522
 20
18.1053
 11
40.4635
 21
18.0734
  0
LINE
  8
0
 10
40.4635
 20
18.0734
 11
40.373
 21
18.0471
  0
LINE
  8
0
 10
40.373
 20
18.0471
 11
40.2811
 21
18.0266
  0
LINE
  8
0
 10
40.2811
 20
18.0266
 11
40.188
 21
18.0118
  0
LINE
  8
0
 10
40.188
 20
18.0118
 11
40.0942
 21
18.003
  0
LINE
  8
0
 10
40.0942
 20
18.003
 11
40
 21
18
  0
LINE
  8
0
 10
40
 20
18
 11
39.9058
 21
18.003
  0
LINE
  8
0
 10
-51.4842
 20
-10.0801
 11
-52.1158
 21
-10.0204
  0
LINE
  8
0
 10
-52.1158
 20
-10.0204
 11
-52.7425
 21
-9.92111
  0
LINE
  8
0
 10
-52.7425
 20
-9.92111
 11
-53.3618
 21
-9.7827
  0
LINE
  8
0
 10
-53.3618
 20
-9.7827
 11
-53.9711
 21
-9.60568
  0
LINE
  8
0
 10
-53.9711
 20
-9.60568
 11
-54.568
 21
-9.39075
  0
LINE
  8
0
 10
-54.568
 20
-9.39075
 11
-55.1504
 21
-9.13876
  0
LINE
  8
0
 10
-55.1504
 20
-9.13876
 11
-55.7157
 21
-8.85071
  0
LINE
  8
0
 10
-55.7157
 20
-8.85071
 11
-56.2618
 21
-8.52773
  0
LINE
  8
0
 10
-56.2618
 20
-8.52773
 11
-56.7866
 21
-8.17108
  0
LINE
  8
0
 10
-56.7866
 20
-8.17108
 11
-57.288
 21
-7.7822
  0
LINE
  8
0
 10
-57.288
 20
-7.7822
 11
-57.7639
 21
-7.36259
  0
LINE
  8
0
 10
-57.7639
 20
-7.36259
 11
-58.2126
 21
-6.91394
  0
LINE
  8
0
 10
-58.2126
 20
-6.91394
 11
-58.6322
 21
-6.43799
  0
LINE
  8
0
 10
-58.6322
 20
-6.43799
 11
-59.0211
 21
-5.93665
  0
LINE
  8
0
 10
-59.0211
 20
-5.93665
 11
-59.3777
 21
-5.41187
  0
LINE
  8
0
 10
-59.3777
 20
-5.41187
 11
-59.7007
 21
-4.86572
  0
LINE
  8
0
 10
-59.7007
 20
-4.86572
 11
-59.9887
 21
-4.30038
  0
LINE
  8
0
 10
-59.9887
 20
-4.30038
 11
-60.2407
 21
-3.71806
  0
LINE
  8
0
 10
-60.2407
 20
-3.71806
 11
-60.4557
 21
-3.12108
  0
LINE
  8
0
 10
-60.4557
 20
-3.12108
 11
-60.6327
 21
-2.51178
  0
LINE
  8
0
 10
-60.6327
 20
-2.51178
 11
-60.7711
 21
-1.89256
  0
LINE
  8
0
 10
-60.7711
 20
-1.89256
 11
-60.8703
 21
-1.26587
  0
LINE
  8
0
 10
-60.8703
 20
-1.26587
 11
-60.9301
 21
-0.634186
  0
LINE
  8
0
 10
-60.9301
 20
-0.634186
 11
-60.95
 21
0
  0
LINE
  8
0
 10
-60.95
 20
0
 11
-60.9301
 21
0.634171
  0
LINE
  8
0
 10
-60.9301
 20
0.634171
 11
-60.8703
 21
1.26585
  0
LINE
  8
0
 10
-60.8703
 20
1.26585
 11
-60.7711
 21
1.89255
  0
LINE
  8
0
 10
-60.7711
 20
1.89255
 11
-60.6327
 21
2.51176
  0
LINE
  8
0
 10
-60.6327
 20
2.51176
 11
-60.4557
 21
3.12106
  0
LINE
  8
0
 10
-60.4557
 20
3.12106
 11
-60.2407
 21
3.71805
  0
LINE
  8
0
 10
-60.2407
 20
3.71805
 11
-59.9887
 21
4.30037
  0
LINE
  8
0
 10
-59.9887
 20
4.30037
 11
-59.7007
 21
4.86571
  0
LINE
  8
0
 10
-59.7007
 20
4.86571
 11
-59.3777
 21
5.41185
  0
LINE
  8
0
 10
-59.3777
 20
5.41185
 11
-59.0211
 21
5.93663
  0
LINE
  8
0
 10
-59.0211
 20
5.93663
 11
-58.6322
 21
6.43797
  0
LINE
  8
0
 10
-58.6322
 20
6.43797
 11
-58.2126
 21
6.91393
  0
LINE
  8
0
 10
-58.2126
 20
6.91393
 11
-57.7639
 21
7.36258
  0
LINE
  8
0
 10
-57.7639
 20
7.36258
 11
-57.288
 21
7.78218
  0
LINE
  8
0
 10
-57.288
 20
7.78218
 11
-56.7866
 21
8.17107
  0
LINE
  8
0
 10
-56.7866
 20
8.17107
 11
-56.2618
 21
8.52771
  0
LINE
  8
0
 10
-56.2618
 20
8.52771
 11
-55.7157
 21
8.85069
  0
LINE
  8
0
 10
-55.7157
 20
8.85069
 11
-55.1504
 21
9.13875
  0
LINE
  8
0
 10
-55.1504
 20
9.13875
 11
-54.568
 21
9.39073
  0
LINE
  8
0
 10
-54.568
 20
9.39073
 11
-53.9711
 21
9.60567
  0
LINE
  8
0
 10
-53.9711
 20
9.60567
 11
-53.3618
 21
9.78268
  0
LINE
  8
0
 10
-53.3618
 20
9.78268
 11
-52.7425
 21
9.9211
  0
LINE
  8
0
 10
-52.7425
 20
9.9211
 11
-52.1158
 21
10.0204
  0
LINE
  8
0
 10
-52.1158
 20
10.0204
 11
-51.4842
 21
10.0801
  0
LINE
  8
0
 10
-51.4842
 20
10.0801
 11
-50.85
 21
10.1
  0
LINE
  8
0
 10
-50.85
 20
10.1
 11
-50.2158
 21
10.0801
  0
LINE
  8
0
 10
-50.2158
 20
10.0801
 11
-49.5841
 21
10.0204
  0
LINE
  8
0
 10
-49.5841
 20
10.0204
 11
-48.9574
 21
9.9211
  0
LINE
  8
0
 10
-48.9574
 20
9.9211
 11
-48.3382
 21
9.78268
  0
LINE
  8
0
 10
-48.3382
 20
9.78268
 11
-47.7289
 21
9.60567
  0
LINE
  8
0
 10
-47.7289
 20
9.60567
 11
-47.1319
 21
9.39073
  0
LINE
  8
0
 10
-47.1319
 20
9.39073
 11
-46.5496
 21
9.13875
  0
LINE
  8
0
 10
-46.5496
 20
9.13875
 11
-45.9843
 21
8.85069
  0
LINE
  8
0
 10
-45.9843
 20
8.85069
 11
-45.4381
 21
8.52771
  0
LINE
  8
0
 10
-45.4381
 20
8.52771
 11
-44.9134
 21
8.17107
  0
LINE
  8
0
 10
-44.9134
 20
8.17107
 11
-44.412
 21
7.78218
  0
LINE
  8
0
 10
-44.412
 20
7.78218
 11
-43.9361
 21
7.36258
  0
LINE
  8
0
 10
-43.9361
 20
7.36258
 11
-43.4874
 21
6.91393
  0
LINE
  8
0
 10
-43.4874
 20
6.91393
 11
-43.0678
 21
6.43797
  0
LINE
  8
0
 10
-43.0678
 20
6.43797
 11
-42.6789
 21
5.93663
  0
LINE
  8
0
 10
-42.6789
 20
5.93663
 11
-42.3223
 21
5.41185
  0
LINE
  8
0
 10
-42.3223
 20
5.41185
 11
-41.9993
 21
4.86571
  0
LINE
  8
0
 10
-41.9993
 20
4.86571
 11
-41.7112
 21
4.30037
  0
LINE
  8
0
 10
-41.7112
 20
4.30037
 11
-41.4593
 21
3.71805
  0
LINE
  8
0
 10
-41.4593
 20
3.71805
 11
-41.2443
 21
3.12106
  0
LINE
  8
0
 10
-41.2443
 20
3.12106
 11
-41.0673
 21
2.51176
  0
LINE
  8
0
 10
-41.0673
 20
2.51176
 11
-40.9289
 21
1.89255
  0
LINE
  8
0
 10
-40.9289
 20
1.89255
 11
-40.8296
 21
1.26585
  0
LINE
  8
0
 10
-40.8296
 20
1.26585
 11
-40.7699
 21
0.634171
  0
LINE
  8
0
 10
-40.7699
 20
0.634171
 11
-40.75
 21
0
  0
LINE
  8
0
 10
-40.75
 20
0
 11
-40.7699
 21
-0.634186
  0
LINE
  8
0
 10
-40.7699
 20
-0.634186
 11
-40.8296
 21
-1.26587
  0
LINE
  8
0
 10
-40.8296
 20
-1.26587
 11
-40.9289
 21
-1.89256
  0
LINE
  8
0
 10
-40.9289
 20
-1.89256
 11
-41.0673
 21
-2.51178
  0
LINE
  8
0
 10
-41.0673
 20
-2.51178
 11
-41.2443
 21
-3.12108
  0
LINE
  8
0
 10
-41.2443
 20
-3.12108
 11
-41.4593
 21
-3.71806
  0
LINE
  8
0
 10
-41.4593
 20
-3.71806
 11
-41.7112
 21
-4.30038
  0
LINE
  8
0
 10
-41.7112
 20
-4.30038
 11
-41.9993
 21
-4.86572
  0
LINE
  8
0
 10
-41.9993
 20
-4.86572
 11
-42.3223
 21
-5.41187
  0
LINE
  8
0
 10
-42.3223
 20
-5.41187
 11
-42.6789
 21
-5.93665
  0
LINE
  8
0
 10
-42.6789
 20
-5.93665
 11
-43.0678
 21
-6.43799
  0
LINE
  8
0
 10
-43.0678
 20
-6.43799
 11
-43.4874
 21
-6.91394
  0
LINE
  8
0
 10
-43.4874
 20
-6.91394
 11
-43.9361
 21
-7.36259
  0
LINE
  8
0
 10
-43.9361
 20
-7.36259
 11
-44.412
 21
-7.7822
  0
LINE
  8
0
 10
-44.412
 20
-7.7822
 11
-44.9134
 21
-8.17108
  0
LINE
  8
0
 10
-44.9134
 20
-8.17108
 11
-45.4381
 21
-8.52773
  0
LINE
  8
0
 10
-45.4381
 20
-8.52773
 11
-45.9843
 21
-8.85071
  0
LINE
  8
0
 10
-45.9843
 20
-8.85071
 11
-46.5496
 21
-9.13876
  0
LINE
  8
0
 10
-46.5496
 20
-9.13876
 11
-47.1319
 21
-9.39075
  0
LINE
  8
0
 10
-47.1319
 20
-9.39075
 11
-47.7289
 21
-9.60568
  0
LINE
  8
0
 10
-47.7289
 20
-9.60568
 11
-48.3382
 21
-9.7827
  0
LINE
  8
0
 10
-48.3382
 20
-9.7827
 11
-48.9574
 21
-9.92111
  0
LINE
  8
0
 10
-48.9574
 20
-9.92111
 11
-49.5841
 21
-10.0204
  0
LINE
  8
0
 10
-49.5841
 20
-10.0204
 11
-50.2158
 21
-10.0801
  0
LINE
  8
0
 10
-50.2158
 20
-10.0801
 11
-50.85
 21
-10.1
  0
LINE
  8
0
 10
-50.85
 20
-10.1
 11
-51.4842
 21
-10.0801
  0
LINE
  8
0
 10
15.0058
 20
-19.747
 11
14.912
 21
-19.7382
  0
LINE
  8
0
 10
14.912
 20
-19.7382
 11
14.8189
 21
-19.7234
  0
LINE
  8
0
 10
14.8189
 20
-19.7234
 11
14.727
 21
-19.7029
  0
LINE
  8
0
 10
14.727
 20
-19.7029
 11
14.6365
 21
-19.6766
  0
LINE
  8
0
 10
14.6365
 20
-19.6766
 11
14.5478
 21
-19.6447
  0
LINE
  8
0
 10
14.5478
 20
-19.6447
 11
14.4613
 21
-19.6072
  0
LINE
  8
0
 10
14.4613
 20
-19.6072
 11
14.3774
 21
-19.5645
  0
LINE
  8
0
 10
14.3774
 20
-19.5645
 11
14.2962
 21
-19.5165
  0
LINE
  8
0
 10
14.2962
 20
-19.5165
 11
14.2183
 21
-19.4635
  0
LINE
  8
0
 10
14.2183
 20
-19.4635
 11
14.1439
 21
-19.4058
  0
LINE
  8
0
 10
14.1439
 20
-19.4058
 11
14.0732
 21
-19.3434
  0
LINE
  8
0
 10
14.0732
 20
-19.3434
 11
14.0065
 21
-19.2768
  0
LINE
  8
0
 10
14.0065
 20
-19.2768
 11
13.9442
 21
-19.2061
  0
LINE
  8
0
 10
13.9442
 20
-19.2061
 11
13.8865
 21
-19.1317
  0
LINE
  8
0
 10
13.8865
 20
-19.1317
 11
13.8335
 21
-19.0537
  0
LINE
  8
0
 10
13.8335
 20
-19.0537
 11
13.7855
 21
-18.9726
  0
LINE
  8
0
 10
13.7855
 20
-18.9726
 11
13.7428
 21
-18.8887
  0
LINE
  8
0
 10
13.7428
 20
-18.8887
 11
13.7053
 21
-18.8022
  0
LINE
  8
0
 10
13.7053
 20
-18.8022
 11
13.6734
 21
-18.7135
  0
LINE
  8
0
 10
13.6734
 20
-18.7135
 11
13.6471
 21
-18.623
  0
LINE
  8
0
 10
13.6471
 20
-18.623
 11
13.6266
 21
-18.5311
  0
LINE
  8
0
 10
13.6266
 20
-18.5311
 11
13.6118
 21
-18.438
  0
LINE
  8
0
 10
13.6118
 20
-18.438
 11
13.603
 21
-18.3442
  0
LINE
  8
0
 10
13.603
 20
-18.3442
 11
13.6
 21
-18.25
  0
LINE
  8
0
 10
13.6
 20
-18.25
 11
13.603
 21
-18.1558
  0
LINE
  8
0
 10
13.603
 20
-18.1558
 11
13.6118
 21
-18.062
  0
LINE
  8
0
 10
13.6118
 20
-18.062
 11
13.6266
 21
-17.9689
  0
LINE
  8
0
 10
13.6266
 20
-17.9689
 11
13.6471
 21
-17.877
  0
LINE
  8
0
 10
13.6471
 20
-17.877
 11
13.6734
 21
-17.7865
  0
LINE
  8
0
 10
13.6734
 20
-17.7865
 11
13.7053
 21
-17.6978
  0
LINE
  8
0
 10
13.7053
 20
-17.6978
 11
13.7428
 21
-17.6113
  0
LINE
  8
0
 10
13.7428
 20
-17.6113
 11
13.7855
 21
-17.5274
  0
LINE
  8
0
 10
13.7855
 20
-17.5274
 11
13.8335
 21
-17.4463
  0
LINE
  8
0
 10
13.8335
 20
-17.4463
 11
13.8865
 21
-17.3683
  0
LINE
  8
0
 10
13.8865
 20
-17.3683
 11
13.9442
 21
-17.2939
  0
LINE
  8
0
 10
13.9442
 20
-17.2939
 11
14.0065
 21
-17.2232
  0
LINE
  8
0
 10
14.0065
 20
-17.2232
 11
14.0732
 21
-17.1565
  0
LINE
  8
0
 10
14.0732
 20
-17.1565
 11
14.1439
 21
-17.0942
  0
LINE
  8
0
 10
14.1439
 20
-17.0942
 11
14.2183
 21
-17.0365
  0
LINE
  8
0
 10
14.2183
 20
-17.0365
 11
14.2962
 21
-16.9835
  0
LINE
  8
0
 10
14.2962
 20
-16.9835
 11
14.3774
 21
-16.9355
  0
LINE
  8
0
 10
14.3774
 20
-16.9355
 11
14.4613
 21
-16.8927
  0
LINE
  8
0
 10
14.4613
 20
-16.8927
 11
14.5478
 21
-16.8553
  0
LINE
  8
0
 10
14.5478
 20
-16.8553
 11
14.6365
 21
-16.8234
  0
LINE
  8
0
 10
14.6365
 20
-16.8234
 11
14.727
 21
-16.7971
  0
LINE
  8
0
 10
14.727
 20
-16.7971
 11
14.8189
 21
-16.7766
  0
LINE
  8
0
 10
14.8189
 20
-16.7766
 11
14.912
 21
-16.7618
  0
LINE
  8
0
 10
14.912
 20
-16.7618
 11
15.0058
 21
-16.753
  0
LINE
  8
0
 10
15.0058
 20
-16.753
 11
15.1
 21
-16.75
  0
LINE
  8
0
 10
15.1
 20
-16.75
 11
15.1942
 21
-16.753
  0
LINE
  8
0
 10
15.1942
 20
-16.753
 11
15.288
 21
-16.7618
  0
LINE
  8
0
 10
15.288
 20
-16.7618
 11
15.3811
 21
-16.7766
  0
LINE
  8
0
 10
15.3811
 20
-16.7766
 11
15.473
 21
-16.7971
  0
LINE
  8
0
 10
15.473
 20
-16.7971
 11
15.5635
 21
-16.8234
  0
LINE
  8
0
 10
15.5635
 20
-16.8234
 11
15.6522
 21
-16.8553
  0
LINE
  8
0
 10
15.6522
 20
-16.8553
 11
15.7387
 21
-16.8927
  0
LINE
  8
0
 10
15.7387
 20
-16.8927
 11
15.8226
 21
-16.9355
  0
LINE
  8
0
 10
15.8226
 20
-16.9355
 11
15.9037
 21
-16.9835
  0
LINE
  8
0
 10
15.9037
 20
-16.9835
 11
15.9817
 21
-17.0365
  0
LINE
  8
0
 10
15.9817
 20
-17.0365
 11
16.0561
 21
-17.0942
  0
LINE
  8
0
 10
16.0561
 20
-17.0942
 11
16.1268
 21
-17.1565
  0
LINE
  8
0
 10
16.1268
 20
-17.1565
 11
16.1935
 21
-17.2232
  0
LINE
  8
0
 10
16.1935
 20
-17.2232
 11
16.2558
 21
-17.2939
  0
LINE
  8
0
 10
16.2558
 20
-17.2939
 11
16.3135
 21
-17.3683
  0
LINE
  8
0
 10
16.3135
 20
-17.3683
 11
16.3665
 21
-17.4463
  0
LINE
  8
0
 10
16.3665
 20
-17.4463
 11
16.4145
 21
-17.5274
  0
LINE
  8
0
 10
16.4145
 20
-17.5274
 11
16.4572
 21
-17.6113
  0
LINE
  8
0
 10
16.4572
 20
-17.6113
 11
16.4947
 21
-17.6978
  0
LINE
  8
0
 10
16.4947
 20
-17.6978
 11
16.5266
 21
-17.7865
  0
LINE
  8
0
 10
16.5266
 20
-17.7865
 11
16.5529
 21
-17.877
  0
LINE
  8
0
 10
16.5529
 20
-17.877
 11
16.5734
 21
-17.9689
  0
LINE
  8
0
 10
16.5734
 20
-17.9689
 11
16.5882
 21
-18.062
  0
LINE
  8
0
 10
16.5882
 20
-18.062
 11
16.597
 21
-18.1558
  0
LINE
  8
0
 10
16.597
 20
-18.1558
 11
16.6
 21
-18.25
  0
LINE
  8
0
 10
16.6
 20
-18.25
 11
16.597
 21
-18.3442
  0
LINE
  8
0
 10
16.597
 20
-18.3442
 11
16.5882
 21
-18.438
  0
LINE
  8
0
 10
16.5882
 20
-18.438
 11
16.5734
 21
-18.5311
  0
LINE
  8
0
 10
16.5734
 20
-18.5311
 11
16.5529
 21
-18.623
  0
LINE
  8
0
 10
16.5529
 20
-18.623
 11
16.5266
 21
-18.7135
  0
LINE
  8
0
 10
16.5266
 20
-18.7135
 11
16.4947
 21
-18.8022
  0
LINE
  8
0
 10
16.4947
 20
-18.8022
 11
16.4572
 21
-18.8887
  0
LINE
  8
0
 10
16.4572
 20
-18.8887
 11
16.4145
 21
-18.9726
  0
LINE
  8
0
 10
16.4145
 20
-18.9726
 11
16.3665
 21
-19.0537
  0
LINE
  8
0
 10
16.3665
 20
-19.0537
 11
16.3135
 21
-19.1317
  0
LINE
  8
0
 10
16.3135
 20
-19.1317
 11
16.2558
 21
-19.2061
  0
LINE
  8
0
 10
16.2558
 20
-19.2061
 11
16.1935
 21
-19.2768
  0
LINE
  8
0
 10
16.1935
 20
-19.2768
 11
16.1268
 21
-19.3434
  0
LINE
  8
0
 10
16.1268
 20
-19.3434
 11
16.0561
 21
-19.4058
  0
LINE
  8
0
 10
16.0561
 20
-19.4058
 11
15.9817
 21
-19.4635
  0
LINE
  8
0
 10
15.9817
 20
-19.4635
 11
15.9037
 21
-19.5165
  0
LINE
  8
0
 10
15.9037
 20
-19.5165
 11
15.8226
 21
-19.5645
  0
LINE
  8
0
 10
15.8226
 20
-19.5645
 11
15.7387
 21
-19.6072
  0
LINE
  8
0
 10
15.7387
 20
-19.6072
 11
15.6522
 21
-19.6447
  0
LINE
  8
0
 10
15.6522
 20
-19.6447
 11
15.5635
 21
-19.6766
  0
LINE
  8
0
 10
15.5635
 20
-19.6766
 11
15.473
 21
-19.7029
  0
LINE
  8
0
 10
15.473
 20
-19.7029
 11
15.3811
 21
-19.7234
  0
LINE
  8
0
 10
15.3811
 20
-19.7234
 11
15.288
 21
-19.7382
  0
LINE
  8
0
 10
15.288
 20
-19.7382
 11
15.1942
 21
-19.747
  0
LINE
  8
0
 10
15.1942
 20
-19.747
 11
15.1
 21
-19.75
  0
LINE
  8
0
 10
15.1
 20
-19.75
 11
15.0058
 21
-19.747
  0
LINE
  8
0
 10
-26.1942
 20
-19.747
 11
-26.288
 21
-19.7382
  0
LINE
  8
0
 10
-26.288
 20
-19.7382
 11
-26.3811
 21
-19.7234
  0
LINE
  8
0
 10
-26.3811
 20
-19.7234
 11
-26.473
 21
-19.7029
  0
LINE
  8
0
 10
-26.473
 20
-19.7029
 11
-26.5635
 21
-19.6766
  0
LINE
  8
0
 10
-26.5635
 20
-19.6766
 11
-26.6522
 21
-19.6447
  0
LINE
  8
0
 10
-26.6522
 20
-19.6447
 11
-26.7387
 21
-19.6072
  0
LINE
  8
0
 10
-26.7387
 20
-19.6072
 11
-26.8226
 21
-19.5645
  0
LINE
  8
0
 10
-26.8226
 20
-19.5645
 11
-26.9037
 21
-19.5165
  0
LINE
  8
0
 10
-26.9037
 20
-19.5165
 11
-26.9817
 21
-19.4635
  0
LINE
  8
0
 10
-26.9817
 20
-19.4635
 11
-27.0561
 21
-19.4058
  0
LINE
  8
0
 10
-27.0561
 20
-19.4058
 11
-27.1268
 21
-19.3434
  0
LINE
  8
0
 10
-27.1268
 20
-19.3434
 11
-27.1935
 21
-19.2768
  0
LINE
  8
0
 10
-27.1935
 20
-19.2768
 11
-27.2558
 21
-19.2061
  0
LINE
  8
0
 10
-27.2558
 20
-19.2061
 11
-27.3135
 21
-19.1317
  0
LINE
  8
0
 10
-27.3135
 20
-19.1317
 11
-27.3665
 21
-19.0537
  0
LINE
  8
0
 10
-27.3665
 20
-19.0537
 11
-27.4145
 21
-18.9726
  0
LINE
  8
0
 10
-27.4145
 20
-18.9726
 11
-27.4572
 21
-18.8887
  0
LINE
  8
0
 10
-27.4572
 20
-18.8887
 11
-27.4947
 21
-18.8022
  0
LINE
  8
0
 10
-27.4947
 20
-18.8022
 11
-27.5266
 21
-18.7135
  0
LINE
  8
0
 10
-27.5266
 20
-18.7135
 11
-27.5529
 21
-18.623
  0
LINE
  8
0
 10
-27.5529
 20
-18.623
 11
-27.5734
 21
-18.5311
  0
LINE
  8
0
 10
-27.5734
 20
-18.5311
 11
-27.5882
 21
-18.438
  0
LINE
  8
0
 10
-27.5882
 20
-18.438
 11
-27.597
 21
-18.3442
  0
LINE
  8
0
 10
-27.597
 20
-18.3442
 11
-27.6
 21
-18.25
  0
LINE
  8
0
 10
-27.6
 20
-18.25
 11
-27.597
 21
-18.1558
  0
LINE
  8
0
 10
-27.597
 20
-18.1558
 11
-27.5882
 21
-18.062
  0
LINE
  8
0
 10
-27.5882
 20
-18.062
 11
-27.5734
 21
-17.9689
  0
LINE
  8
0
 10
-27.5734
 20
-17.9689
 11
-27.5529
 21
-17.877
  0
LINE
  8
0
 10
-27.5529
 20
-17.877
 11
-27.5266
 21
-17.7865
  0
LINE
  8
0
 10
-27.5266
 20
-17.7865
 11
-27.4947
 21
-17.6978
  0
LINE
  8
0
 10
-27.4947
 20
-17.6978
 11
-27.4572
 21
-17.6113
  0
LINE
  8
0
 10
-27.4572
 20
-17.6113
 11
-27.4145
 21
-17.5274
  0
LINE
  8
0
 10
-27.4145
 20
-17.5274
 11
-27.3665
 21
-17.4463
  0
LINE
  8
0
 10
-27.3665
 20
-17.4463
 11
-27.3135
 21
-17.3683
  0
LINE
  8
0
 10
-27.3135
 20
-17.3683
 11
-27.2558
 21
-17.2939
  0
LINE
  8
0
 10
-27.2558
 20
-17.2939
 11
-27.1935
 21
-17.2232
  0
LINE
  8
0
 10
-27.1935
 20
-17.2232
 11
-27.1268
 21
-17.1565
  0
LINE
  8
0
 10
-27.1268
 20
-17.1565
 11
-27.0561
 21
-17.0942
  0
LINE
  8
0
 10
-27.0561
 20
-17.0942
 11
-26.9817
 21
-17.0365
  0
LINE
  8
0
 10
-26.9817
 20
-17.0365
 11
-26.9037
 21
-16.9835
  0
LINE
  8
0
 10
-26.9037
 20
-16.9835
 11
-26.8226
 21
-16.9355
  0
LINE
  8
0
 10
-26.8226
 20
-16.9355
 11
-26.7387
 21
-16.8927
  0
LINE
  8
0
 10
-26.7387
 20
-16.8927
 11
-26.6522
 21
-16.8553
  0
LINE
  8
0
 10
-26.6522
 20
-16.8553
 11
-26.5635
 21
-16.8234
  0
LINE
  8
0
 10
-26.5635
 20
-16.8234
 11
-26.473
 21
-16.7971
  0
LINE
  8
0
 10
-26.473
 20
-16.7971
 11
-26.3811
 21
-16.7766
  0
LINE
  8
0
 10
-26.3811
 20
-16.7766
 11
-26.288
 21
-16.7618
  0
LINE
  8
0
 10
-26.288
 20
-16.7618
 11
-26.1942
 21
-16.753
  0
LINE
  8
0
 10
-26.1942
 20
-16.753
 11
-26.1
 21
-16.75
  0
LINE
  8
0
 10
-26.1
 20
-16.75
 11
-26.0058
 21
-16.753
  0
LINE
  8
0
 10
-26.0058
 20
-16.753
 11
-25.912
 21
-16.7618
  0
LINE
  8
0
 10
-25.912
 20
-16.7618
 11
-25.8189
 21
-16.7766
  0
LINE
  8
0
 10
-25.8189
 20
-16.7766
 11
-25.727
 21
-16.7971
  0
LINE
  8
0
 10
-25.727
 20
-16.7971
 11
-25.6365
 21
-16.8234
  0
LINE
  8
0
 10
-25.6365
 20
-16.8234
 11
-25.5478
 21
-16.8553
  0
LINE
  8
0
 10
-25.5478
 20
-16.8553
 11
-25.4613
 21
-16.8927
  0
LINE
  8
0
 10
-25.4613
 20
-16.8927
 11
-25.3774
 21
-16.9355
  0
LINE
  8
0
 10
-25.3774
 20
-16.9355
 11
-25.2962
 21
-16.9835
  0
LINE
  8
0
 10
-25.2962
 20
-16.9835
 11
-25.2183
 21
-17.0365
  0
LINE
  8
0
 10
-25.2183
 20
-17.0365
 11
-25.1439
 21
-17.0942
  0
LINE
  8
0
 10
-25.1439
 20
-17.0942
 11
-25.0732
 21
-17.1565
  0
LINE
  8
0
 10
-25.0732
 20
-17.1565
 11
-25.0065
 21
-17.2232
  0
LINE
  8
0
 10
-25.0065
 20
-17.2232
 11
-24.9442
 21
-17.2939
  0
LINE
  8
0
 10
-24.9442
 20
-17.2939
 11
-24.8865
 21
-17.3683
  0
LINE
  8
0
 10
-24.8865
 20
-17.3683
 11
-24.8335
 21
-17.4463
  0
LINE
  8
0
 10
-24.8335
 20
-17.4463
 11
-24.7855
 21
-17.5274
  0
LINE
  8
0
 10
-24.7855
 20
-17.5274
 11
-24.7428
 21
-17.6113
  0
LINE
  8
0
 10
-24.7428
 20
-17.6113
 11
-24.7053
 21
-17.6978
  0
LINE
  8
0
 10
-24.7053
 20
-17.6978
 11
-24.6734
 21
-17.7865
  0
LINE
  8
0
 10
-24.6734
 20
-17.7865
 11
-24.6471
 21
-17.877
  0
LINE
  8
0
 10
-24.6471
 20
-17.877
 11
-24.6266
 21
-17.9689
  0
LINE
  8
0
 10
-24.6266
 20
-17.9689
 11
-24.6118
 21
-18.062
  0
LINE
  8
0
 10
-24.6118
 20
-18.062
 11
-24.603
 21
-18.1558
  0
LINE
  8
0
 10
-24.603
 20
-18.1558
 11
-24.6
 21
-18.25
  0
LINE
  8
0
 10
-24.6
 20
-18.25
 11
-24.603
 21
-18.3442
  0
LINE
  8
0
 10
-24.603
 20
-18.3442
 11
-24.6118
 21
-18.438
  0
LINE
  8
0
 10
-24.6118
 20
-18.438
 11
-24.6266
 21
-18.5311
  0
LINE
  8
0
 10
-24.6266
 20
-18.5311
 11
-24.6471
 21
-18.623
  0
LINE
  8
0
 10
-24.6471
 20
-18.623
 11
-24.6734
 21
-18.7135
  0
LINE
  8
0
 10
-24.6734
 20
-18.7135
 11
-24.7053
 21
-18.8022
  0
LINE
  8
0
 10
-24.7053
 20
-18.8022
 11
-24.7428
 21
-18.8887
  0
LINE
  8
0
 10
-24.7428
 20
-18.8887
 11
-24.7855
 21
-18.9726
  0
LINE
  8
0
 10
-24.7855
 20
-18.9726
 11
-24.8335
 21
-19.0537
  0
LINE
  8
0
 10
-24.8335
 20
-19.0537
 11
-24.8865
 21
-19.1317
  0
LINE
  8
0
 10
-24.8865
 20
-19.1317
 11
-24.9442
 21
-19.2061
  0
LINE
  8
0
 10
-24.9442
 20
-19.2061
 11
-25.0065
 21
-19.2768
  0
LINE
  8
0
 10
-25.0065
 20
-19.2768
 11
-25.0732
 21
-19.3434
  0
LINE
  8
0
 10
-25.0732
 20
-19.3434
 11
-25.1439
 21
-19.4058
  0
LINE
  8
0
 10
-25.1439
 20
-19.4058
 11
-25.2183
 21
-19.4635
  0
LINE
  8
0
 10
-25.2183
 20
-19.4635
 11
-25.2962
 21
-19.5165
  0
LINE
  8
0
 10
-25.2962
 20
-19.5165
 11
-25.3774
 21
-19.5645
  0
LINE
  8
0
 10
-25.3774
 20
-19.5645
 11
-25.4613
 21
-19.6072
  0
LINE
  8
0
 10
-25.4613
 20
-19.6072
 11
-25.5478
 21
-19.6447
  0
LINE
  8
0
 10
-25.5478
 20
-19.6447
 11
-25.6365
 21
-19.6766
  0
LINE
  8
0
 10
-25.6365
 20
-19.6766
 11
-25.727
 21
-19.7029
  0
LINE
  8
0
 10
-25.727
 20
-19.7029
 11
-25.8189
 21
-19.7234
  0
LINE
  8
0
 10
-25.8189
 20
-19.7234
 11
-25.912
 21
-19.7382
  0
LINE
  8
0
 10
-25.912
 20
-19.7382
 11
-26.0058
 21
-19.747
  0
LINE
  8
0
 10
-26.0058
 20
-19.747
 11
-26.1
 21
-19.75
  0
LINE
  8
0
 10
-26.1
 20
-19.75
 11
-26.1942
 21
-19.747
  0
LINE
  8
0
 10
39.9058
 20
-20.997
 11
39.812
 21
-20.9882
  0
LINE
  8
0
 10
39.812
 20
-20.9882
 11
39.7189
 21
-20.9734
  0
LINE
  8
0
 10
39.7189
 20
-20.9734
 11
39.627
 21
-20.9529
  0
LINE
  8
0
 10
39.627
 20
-20.9529
 11
39.5365
 21
-20.9266
  0
LINE
  8
0
 10
39.5365
 20
-20.9266
 11
39.4478
 21
-20.8947
  0
LINE
  8
0
 10
39.4478
 20
-20.8947
 11
39.3613
 21
-20.8572
  0
LINE
  8
0
 10
39.3613
 20
-20.8572
 11
39.2774
 21
-20.8145
  0
LINE
  8
0
 10
39.2774
 20
-20.8145
 11
39.1963
 21
-20.7665
  0
LINE
  8
0
 10
39.1963
 20
-20.7665
 11
39.1183
 21
-20.7135
  0
LINE
  8
0
 10
39.1183
 20
-20.7135
 11
39.0439
 21
-20.6558
  0
LINE
  8
0
 10
39.0439
 20
-20.6558
 11
38.9732
 21
-20.5934
  0
LINE
  8
0
 10
38.9732
 20
-20.5934
 11
38.9065
 21
-20.5268
  0
LINE
  8
0
 10
38.9065
 20
-20.5268
 11
38.8442
 21
-20.4561
  0
LINE
  8
0
 10
38.8442
 20
-20.4561
 11
38.7865
 21
-20.3817
  0
LINE
  8
0
 10
38.7865
 20
-20.3817
 11
38.7335
 21
-20.3037
  0
LINE
  8
0
 10
38.7335
 20
-20.3037
 11
38.6855
 21
-20.2226
  0
LINE
  8
0
 10
38.6855
 20
-20.2226
 11
38.6428
 21
-20.1387
  0
LINE
  8
0
 10
38.6428
 20
-20.1387
 11
38.6053
 21
-20.0522
  0
LINE
  8
0
 10
38.6053
 20
-20.0522
 11
38.5734
 21
-19.9635
  0
LINE
  8
0
 10
38.5734
 20
-19.9635
 11
38.5471
 21
-19.873
  0
LINE
  8
0
 10
38.5471
 20
-19.873
 11
38.5266
 21
-19.7811
  0
LINE
  8
0
 10
38.5266
 20
-19.7811
 11
38.5118
 21
-19.688
  0
LINE
  8
0
 10
38.5118
 20
-19.688
 11
38.503
 21
-19.5942
  0
LINE
  8
0
 10
38.503
 20
-19.5942
 11
38.5
 21
-19.5
  0
LINE
  8
0
 10
38.5
 20
-19.5
 11
38.503
 21
-19.4058
  0
LINE
  8
0
 10
38.503
 20
-19.4058
 11
38.5118
 21
-19.312
  0
LINE
  8
0
 10
38.5118
 20
-19.312
 11
38.5266
 21
-19.2189
  0
LINE
  8
0
 10
38.5266
 20
-19.2189
 11
38.5471
 21
-19.127
  0
LINE
  8
0
 10
38.5471
 20
-19.127
 11
38.5734
 21
-19.0365
  0
LINE
  8
0
 10
38.5734
 20
-19.0365
 11
38.6053
 21
-18.9478
  0
LINE
  8
0
 10
38.6053
 20
-18.9478
 11
38.6428
 21
-18.8613
  0
LINE
  8
0
 10
38.6428
 20
-18.8613
 11
38.6855
 21
-18.7774
  0
LINE
  8
0
 10
38.6855
 20
-18.7774
 11
38.7335
 21
-18.6963
  0
LINE
  8
0
 10
38.7335
 20
-18.6963
 11
38.7865
 21
-18.6183
  0
LINE
  8
0
 10
38.7865
 20
-18.6183
 11
38.8442
 21
-18.5439
  0
LINE
  8
0
 10
38.8442
 20
-18.5439
 11
38.9065
 21
-18.4732
  0
LINE
  8
0
 10
38.9065
 20
-18.4732
 11
38.9732
 21
-18.4065
  0
LINE
  8
0
 10
38.9732
 20
-18.4065
 11
39.0439
 21
-18.3442
  0
LINE
  8
0
 10
39.0439
 20
-18.3442
 11
39.1183
 21
-18.2865
  0
LINE
  8
0
 10
39.1183
 20
-18.2865
 11
39.1963
 21
-18.2335
  0
LINE
  8
0
 10
39.1963
 20
-18.2335
 11
39.2774
 21
-18.1855
  0
LINE
  8
0
 10
39.2774
 20
-18.1855
 11
39.3613
 21
-18.1428
  0
LINE
  8
0
 10
39.3613
 20
-18.1428
 11
39.4478
 21
-18.1053
  0
LINE
  8
0
 10
39.4478
 20
-18.1053
 11
39.5365
 21
-18.0734
  0
LINE
  8
0
 10
39.5365
 20
-18.0734
 11
39.627
 21
-18.0471
  0
LINE
  8
0
 10
39.627
 20
-18.0471
 11
39.7189
 21
-18.0266
  0
LINE
  8
0
 10
39.7189
 20
-18.0266
 11
39.812
 21
-18.0118
  0
LINE
  8
0
 10
39.812
 20
-18.0118
 11
39.9058
 21
-18.003
  0
LINE
  8
0
 10
39.9058
 20
-18.003
 11
40
 21
-18
  0
LINE
  8
0
 10
40
 20
-18
 11
40.0942
 21
-18.003
  0
LINE
  8
0
 10
40.0942
 20
-18.003
 11
40.188
 21
-18.0118
  0
LINE
  8
0
 10
40.188
 20
-18.0118
 11
40.2811
 21
-18.0266
  0
LINE
  8
0
 10
40.2811
 20
-18.0266
 11
40.373
 21
-18.0471
  0
LINE
  8
0
 10
40.373
 20
-18.0471
 11
40.4635
 21
-18.0734
  0
LINE
  8
0
 10
40.4635
 20
-18.0734
 11
40.5522
 21
-18.1053
  0
LINE
  8
0
 10
40.5522
 20
-18.1053
 11
40.6387
 21
-18.1428
  0
LINE
  8
0
 10
40.6387
 20
-18.1428
 11
40.7226
 21
-18.1855
  0
LINE
  8
0
 10
40.7226
 20
-18.1855
 11
40.8037
 21
-18.2335
  0
LINE
  8
0
 10
40.8037
 20
-18.2335
 11
40.8817
 21
-18.2865
  0
LINE
  8
0
 10
40.8817
 20
-18.2865
 11
40.9561
 21
-18.3442
  0
LINE
  8
0
 10
40.9561
 20
-18.3442
 11
41.0268
 21
-18.4065
  0
LINE
  8
0
 10
41.0268
 20
-18.4065
 11
41.0934
 21
-18.4732
  0
LINE
  8
0
 10
41.0934
 20
-18.4732
 11
41.1558
 21
-18.5439
  0
LINE
  8
0
 10
41.1558
 20
-18.5439
 11
41.2135
 21
-18.6183
  0
LINE
  8
0
 10
41.2135
 20
-18.6183
 11
41.2665
 21
-18.6963
  0
LINE
  8
0
 10
41.2665
 20
-18.6963
 11
41.3145
 21
-18.7774
  0
LINE
  8
0
 10
41.3145
 20
-18.7774
 11
41.3572
 21
-18.8613
  0
LINE
  8
0
 10
41.3572
 20
-18.8613
 11
41.3947
 21
-18.9478
  0
LINE
  8
0
 10
41.3947
 20
-18.9478
 11
41.4266
 21
-19.0365
  0
LINE
  8
0
 10
41.4266
 20
-19.0365
 11
41.4529
 21
-19.127
  0
LINE
  8
0
 10
41.4529
 20
-19.127
 11
41.4734
 21
-19.2189
  0
LINE
  8
0
 10
41.4734
 20
-19.2189
 11
41.4882
 21
-19.312
  0
LINE
  8
0
 10
41.4882
 20
-19.312
 11
41.497
 21
-19.4058
  0
LINE
  8
0
 10
41.497
 20
-19.4058
 11
41.5
 21
-19.5
  0
LINE
  8
0
 10
41.5
 20
-19.5
 11
41.497
 21
-19.5942
  0
LINE
  8
0
 10
41.497
 20
-19.5942
 11
41.4882
 21
-19.688
  0
LINE
  8
0
 10
41.4882
 20
-19.688
 11
41.4734
 21
-19.7811
  0
LINE
  8
0
 10
41.4734
 20
-19.7811
 11
41.4529
 21
-19.873
  0
LINE
  8
0
 10
41.4529
 20
-19.873
 11
41.4266
 21
-19.9635
  0
LINE
  8
0
 10
41.4266
 20
-19.9635
 11
41.3947
 21
-20.0522
  0
LINE
  8
0
 10
41.3947
 20
-20.0522
 11
41.3572
 21
-20.1387
  0
LINE
  8
0
 10
41.3572
 20
-20.1387
 11
41.3145
 21
-20.2226
  0
LINE
  8
0
 10
41.3145
 20
-20.2226
 11
41.2665
 21
-20.3037
  0
LINE
  8
0
 10
41.2665
 20
-20.3037
 11
41.2135
 21
-20.3817
  0
LINE
  8
0
 10
41.2135
 20
-20.3817
 11
41.1558
 21
-20.4561
  0
LINE
  8
0
 10
41.1558
 20
-20.4561
 11
41.0934
 21
-20.5268
  0
LINE
  8
0
 10
41.0934
 20
-20.5268
 11
41.0268
 21
-20.5934
  0
LINE
  8
0
 10
41.0268
 20
-20.5934
 11
40.9561
 21
-20.6558
  0
LINE
  8
0
 10
40.9561
 20
-20.6558
 11
40.8817
 21
-20.7135
  0
LINE
  8
0
 10
40.8817
 20
-20.7135
 11
40.8037
 21
-20.7665
  0
LINE
  8
0
 10
40.8037
 20
-20.7665
 11
40.7226
 21
-20.8145
  0
LINE
  8
0
 10
40.7226
 20
-20.8145
 11
40.6387
 21
-20.8572
  0
LINE
  8
0
 10
40.6387
 20
-20.8572
 11
40.5522
 21
-20.8947
  0
LINE
  8
0
 10
40.5522
 20
-20.8947
 11
40.4635
 21
-20.9266
  0
LINE
  8
0
 10
40.4635
 20
-20.9266
 11
40.373
 21
-20.9529
  0
LINE
  8
0
 10
40.373
 20
-20.9529
 11
40.2811
 21
-20.9734
  0
LINE
  8
0
 10
40.2811
 20
-20.9734
 11
40.188
 21
-20.9882
  0
LINE
  8
0
 10
40.188
 20
-20.9882
 11
40.0942
 21
-20.997
  0
LINE
  8
0
 10
40.0942
 20
-20.997
 11
40
 21
-21
  0
LINE
  8
0
 10
40
 20
-21
 11
39.9058
 21
-20.997
  0
LINE
  8
0
 10
-51.2204
 20
-33.8884
 11
-51.5894
 21
-33.8535
  0
LINE
  8
0
 10
-51.5894
 20
-33.8535
 11
-51.9555
 21
-33.7955
  0
LINE
  8
0
 10
-51.9555
 20
-33.7955
 11
-52.3173
 21
-33.7146
  0
LINE
  8
0
 10
-52.3173
 20
-33.7146
 11
-52.6732
 21
-33.6112
  0
LINE
  8
0
 10
-52.6732
 20
-33.6112
 11
-53.0219
 21
-33.4857
  0
LINE
  8
0
 10
-53.0219
 20
-33.4857
 11
-53.3621
 21
-33.3385
  0
LINE
  8
0
 10
-53.3621
 20
-33.3385
 11
-53.6923
 21
-33.1702
  0
LINE
  8
0
 10
-53.6923
 20
-33.1702
 11
-54.0114
 21
-32.9815
  0
LINE
  8
0
 10
-54.0114
 20
-32.9815
 11
-54.3179
 21
-32.7732
  0
LINE
  8
0
 10
-54.3179
 20
-32.7732
 11
-54.6108
 21
-32.546
  0
LINE
  8
0
 10
-54.6108
 20
-32.546
 11
-54.8888
 21
-32.3009
  0
LINE
  8
0
 10
-54.8888
 20
-32.3009
 11
-55.1509
 21
-32.0388
  0
LINE
  8
0
 10
-55.1509
 20
-32.0388
 11
-55.396
 21
-31.7608
  0
LINE
  8
0
 10
-55.396
 20
-31.7608
 11
-55.6232
 21
-31.4679
  0
LINE
  8
0
 10
-55.6232
 20
-31.4679
 11
-55.8315
 21
-31.1614
  0
LINE
  8
0
 10
-55.8315
 20
-31.1614
 11
-56.0202
 21
-30.8424
  0
LINE
  8
0
 10
-56.0202
 20
-30.8424
 11
-56.1885
 21
-30.5121
  0
LINE
  8
0
 10
-56.1885
 20
-30.5121
 11
-56.3357
 21
-30.1719
  0
LINE
  8
0
 10
-56.3357
 20
-30.1719
 11
-56.4612
 21
-29.8232
  0
LINE
  8
0
 10
-56.4612
 20
-29.8232
 11
-56.5646
 21
-29.4673
  0
LINE
  8
0
 10
-56.5646
 20
-29.4673
 11
-56.6455
 21
-29.1056
  0
LINE
  8
0
 10
-56.6455
 20
-29.1056
 11
-56.7035
 21
-28.7395
  0
LINE
  8
0
 10
-56.7035
 20
-28.7395
 11
-56.7383
 21
-28.3705
  0
LINE
  8
0
 10
-56.7383
 20
-28.3705
 11
-56.75
 21
-28
  0
LINE
  8
0
 10
-56.75
 20
-28
 11
-56.7383
 21
-27.6295
  0
LINE
  8
0
 10
-56.7383
 20
-27.6295
 11
-56.7035
 21
-27.2605
  0
LINE
  8
0
 10
-56.7035
 20
-27.2605
 11
-56.6455
 21
-26.8945
  0
LINE
  8
0
 10
-56.6455
 20
-26.8945
 11
-56.5646
 21
-26.5327
  0
LINE
  8
0
 10
-56.5646
 20
-26.5327
 11
-56.4612
 21
-26.1768
  0
LINE
  8
0
 10
-56.4612
 20
-26.1768
 11
-56.3357
 21
-25.8281
  0
LINE
  8
0
 10
-56.3357
 20
-25.8281
 11
-56.1885
 21
-25.4879
  0
LINE
  8
0
 10
-56.1885
 20
-25.4879
 11
-56.0202
 21
-25.1577
  0
LINE
  8
0
 10
-56.0202
 20
-25.1577
 11
-55.8315
 21
-24.8386
  0
LINE
  8
0
 10
-55.8315
 20
-24.8386
 11
-55.6232
 21
-24.5321
  0
LINE
  8
0
 10
-55.6232
 20
-24.5321
 11
-55.396
 21
-24.2392
  0
LINE
  8
0
 10
-55.396
 20
-24.2392
 11
-55.1509
 21
-23.9612
  0
LINE
  8
0
 10
-55.1509
 20
-23.9612
 11
-54.8888
 21
-23.6991
  0
LINE
  8
0
 10
-54.8888
 20
-23.6991
 11
-54.6108
 21
-23.454
  0
LINE
  8
0
 10
-54.6108
 20
-23.454
 11
-54.3179
 21
-23.2268
  0
LINE
  8
0
 10
-54.3179
 20
-23.2268
 11
-54.0114
 21
-23.0185
  0
LINE
  8
0
 10
-54.0114
 20
-23.0185
 11
-53.6923
 21
-22.8298
  0
LINE
  8
0
 10
-53.6923
 20
-22.8298
 11
-53.3621
 21
-22.6615
  0
LINE
  8
0
 10
-53.3621
 20
-22.6615
 11
-53.0219
 21
-22.5143
  0
LINE
  8
0
 10
-53.0219
 20
-22.5143
 11
-52.6732
 21
-22.3888
  0
LINE
  8
0
 10
-52.6732
 20
-22.3888
 11
-52.3173
 21
-22.2854
  0
LINE
  8
0
 10
-52.3173
 20
-22.2854
 11
-51.9555
 21
-22.2045
  0
LINE
  8
0
 10
-51.9555
 20
-22.2045
 11
-51.5894
 21
-22.1465
  0
LINE
  8
0
 10
-51.5894
 20
-22.1465
 11
-51.2204
 21
-22.1116
  0
LINE
  8
0
 10
-51.2204
 20
-22.1116
 11
-50.85
 21
-22.1
  0
LINE
  8
0
 10
-50.85
 20
-22.1
 11
-50.4795
 21
-22.1116
  0
LINE
  8
0
 10
-50.4795
 20
-22.1116
 11
-50.1105
 21
-22.1465
  0
LINE
  8
0
 10
-50.1105
 20
-22.1465
 11
-49.7444
 21
-22.2045
  0
LINE
  8
0
 10
-49.7444
 20
-22.2045
 11
-49.3827
 21
-22.2854
  0
LINE
  8
0
 10
-49.3827
 20
-22.2854
 11
-49.0268
 21
-22.3888
  0
LINE
  8
0
 10
-49.0268
 20
-22.3888
 11
-48.6781
 21
-22.5143
  0
LINE
  8
0
 10
-48.6781
 20
-22.5143
 11
-48.3379
 21
-22.6615
  0
LINE
  8
0
 10
-48.3379
 20
-22.6615
 11
-48.0076
 21
-22.8298
  0
LINE
  8
0
 10
-48.0076
 20
-22.8298
 11
-47.6886
 21
-23.0185
  0
LINE
  8
0
 10
-47.6886
 20
-23.0185
 11
-47.3821
 21
-23.2268
  0
LINE
  8
0
 10
-47.3821
 20
-23.2268
 11
-47.0892
 21
-23.454
  0
LINE
  8
0
 10
-47.0892
 20
-23.454
 11
-46.8112
 21
-23.6991
  0
LINE
  8
0
 10
-46.8112
 20
-23.6991
 11
-46.5491
 21
-23.9612
  0
LINE
  8
0
 10
-46.5491
 20
-23.9612
 11
-46.304
 21
-24.2392
  0
LINE
  8
0
 10
-46.304
 20
-24.2392
 11
-46.0768
 21
-24.5321
  0
LINE
  8
0
 10
-46.0768
 20
-24.5321
 11
-45.8685
 21
-24.8386
  0
LINE
  8
0
 10
-45.8685
 20
-24.8386
 11
-45.6798
 21
-25.1577
  0
LINE
  8
0
 10
-45.6798
 20
-25.1577
 11
-45.5115
 21
-25.4879
  0
LINE
  8
0
 10
-45.5115
 20
-25.4879
 11
-45.3643
 21
-25.8281
  0
LINE
  8
0
 10
-45.3643
 20
-25.8281
 11
-45.2388
 21
-26.1768
  0
LINE
  8
0
 10
-45.2388
 20
-26.1768
 11
-45.1354
 21
-26.5327
  0
LINE
  8
0
 10
-45.1354
 20
-26.5327
 11
-45.0545
 21
-26.8945
  0
LINE
  8
0
 10
-45.0545
 20
-26.8945
 11
-44.9965
 21
-27.2605
  0
LINE
  8
0
 10
-44.9965
 20
-27.2605
 11
-44.9616
 21
-27.6295
  0
LINE
  8
0
 10
-44.9616
 20
-27.6295
 11
-44.95
 21
-28
  0
LINE
  8
0
 10
-44.95
 20
-28
 11
-44.9616
 21
-28.3705
  0
LINE
  8
0
 10
-44.9616
 20
-28.3705
 11
-44.9965
 21
-28.7395
  0
LINE
  8
0
 10
-44.9965
 20
-28.7395
 11
-45.0545
 21
-29.1056
  0
LINE
  8
0
 10
-45.0545
 20
-29.1056
 11
-45.1354
 21
-29.4673
  0
LINE
  8
0
 10
-45.1354
 20
-29.4673
 11
-45.2388
 21
-29.8232
  0
LINE
  8
0
 10
-45.2388
 20
-29.8232
 11
-45.3643
 21
-30.1719
  0
LINE
  8
0
 10
-45.3643
 20
-30.1719
 11
-45.5115
 21
-30.5121
  0
LINE
  8
0
 10
-45.5115
 20
-30.5121
 11
-45.6798
 21
-30.8424
  0
LINE
  8
0
 10
-45.6798
 20
-30.8424
 11
-45.8685
 21
-31.1614
  0
LINE
  8
0
 10
-45.8685
 20
-31.1614
 11
-46.0768
 21
-31.4679
  0
LINE
  8
0
 10
-46.0768
 20
-31.4679
 11
-46.304
 21
-31.7608
  0
LINE
  8
0
 10
-46.304
 20
-31.7608
 11
-46.5491
 21
-32.0388
  0
LINE
  8
0
 10
-46.5491
 20
-32.0388
 11
-46.8112
 21
-32.3009
  0
LINE
  8
0
 10
-46.8112
 20
-32.3009
 11
-47.0892
 21
-32.546
  0
LINE
  8
0
 10
-47.0892
 20
-32.546
 11
-47.3821
 21
-32.7732
  0
LINE
  8
0
 10
-47.3821
 20
-32.7732
 11
-47.6886
 21
-32.9815
  0
LINE
  8
0
 10
-47.6886
 20
-32.9815
 11
-48.0076
 21
-33.1702
  0
LINE
  8
0
 10
-48.0076
 20
-33.1702
 11
-48.3379
 21
-33.3385
  0
LINE
  8
0
 10
-48.3379
 20
-33.3385
 11
-48.6781
 21
-33.4857
  0
LINE
  8
0
 10
-48.6781
 20
-33.4857
 11
-49.0268
 21
-33.6112
  0
LINE
  8
0
 10
-49.0268
 20
-33.6112
 11
-49.3827
 21
-33.7146
  0
LINE
  8
0
 10
-49.3827
 20
-33.7146
 11
-49.7444
 21
-33.7955
  0
LINE
  8
0
 10
-49.7444
 20
-33.7955
 11
-50.1105
 21
-33.8535
  0
LINE
  8
0
 10
-50.1105
 20
-33.8535
 11
-50.4795
 21
-33.8884
  0
LINE
  8
0
 10
-50.4795
 20
-33.8884
 11
-50.85
 21
-33.9
  0
LINE
  8
0
 10
-50.85
 20
-33.9
 11
-51.2204
 21
-33.8884
  0
LINE
  8
0
 10
-541.594
 20
-60.8304
 11
-541.688
 21
-60.8215
  0
LINE
  8
0
 10
-541.688
 20
-60.8215
 11
-541.781
 21
-60.8068
  0
LINE
  8
0
 10
-541.781
 20
-60.8068
 11
-541.873
 21
-60.7862
  0
LINE
  8
0
 10
-541.873
 20
-60.7862
 11
-541.964
 21
-60.7599
  0
LINE
  8
0
 10
-541.964
 20
-60.7599
 11
-542.052
 21
-60.728
  0
LINE
  8
0
 10
-542.052
 20
-60.728
 11
-542.139
 21
-60.6906
  0
LINE
  8
0
 10
-542.139
 20
-60.6906
 11
-542.223
 21
-60.6478
  0
LINE
  8
0
 10
-542.223
 20
-60.6478
 11
-542.304
 21
-60.5998
  0
LINE
  8
0
 10
-542.304
 20
-60.5998
 11
-542.382
 21
-60.5469
  0
LINE
  8
0
 10
-542.382
 20
-60.5469
 11
-542.456
 21
-60.4891
  0
LINE
  8
0
 10
-542.456
 20
-60.4891
 11
-542.527
 21
-60.4268
  0
LINE
  8
0
 10
-542.527
 20
-60.4268
 11
-542.593
 21
-60.3602
  0
LINE
  8
0
 10
-542.593
 20
-60.3602
 11
-542.656
 21
-60.2895
  0
LINE
  8
0
 10
-542.656
 20
-60.2895
 11
-542.714
 21
-60.215
  0
LINE
  8
0
 10
-542.714
 20
-60.215
 11
-542.766
 21
-60.1371
  0
LINE
  8
0
 10
-542.766
 20
-60.1371
 11
-542.814
 21
-60.056
  0
LINE
  8
0
 10
-542.814
 20
-60.056
 11
-542.857
 21
-59.972
  0
LINE
  8
0
 10
-542.857
 20
-59.972
 11
-542.895
 21
-59.8855
  0
LINE
  8
0
 10
-542.895
 20
-59.8855
 11
-542.927
 21
-59.7969
  0
LINE
  8
0
 10
-542.927
 20
-59.7969
 11
-542.953
 21
-59.7064
  0
LINE
  8
0
 10
-542.953
 20
-59.7064
 11
-542.973
 21
-59.6144
  0
LINE
  8
0
 10
-542.973
 20
-59.6144
 11
-542.988
 21
-59.5213
  0
LINE
  8
0
 10
-542.988
 20
-59.5213
 11
-542.997
 21
-59.4275
  0
LINE
  8
0
 10
-542.997
 20
-59.4275
 11
-543
 21
-59.3333
  0
LINE
  8
0
 10
-543
 20
-59.3333
 11
-542.997
 21
-59.2391
  0
LINE
  8
0
 10
-542.997
 20
-59.2391
 11
-542.988
 21
-59.1453
  0
LINE
  8
0
 10
-542.988
 20
-59.1453
 11
-542.973
 21
-59.0523
  0
LINE
  8
0
 10
-542.973
 20
-59.0523
 11
-542.953
 21
-58.9603
  0
LINE
  8
0
 10
-542.953
 20
-58.9603
 11
-542.927
 21
-58.8698
  0
LINE
  8
0
 10
-542.927
 20
-58.8698
 11
-542.895
 21
-58.7811
  0
LINE
  8
0
 10
-542.895
 20
-58.7811
 11
-542.857
 21
-58.6947
  0
LINE
  8
0
 10
-542.857
 20
-58.6947
 11
-542.814
 21
-58.6107
  0
LINE
  8
0
 10
-542.814
 20
-58.6107
 11
-542.766
 21
-58.5296
  0
LINE
  8
0
 10
-542.766
 20
-58.5296
 11
-542.714
 21
-58.4516
  0
LINE
  8
0
 10
-542.714
 20
-58.4516
 11
-542.656
 21
-58.3772
  0
LINE
  8
0
 10
-542.656
 20
-58.3772
 11
-542.593
 21
-58.3065
  0
LINE
  8
0
 10
-542.593
 20
-58.3065
 11
-542.527
 21
-58.2399
  0
LINE
  8
0
 10
-542.527
 20
-58.2399
 11
-542.456
 21
-58.1776
  0
LINE
  8
0
 10
-542.456
 20
-58.1776
 11
-542.382
 21
-58.1198
  0
LINE
  8
0
 10
-542.382
 20
-58.1198
 11
-542.304
 21
-58.0668
  0
LINE
  8
0
 10
-542.304
 20
-58.0668
 11
-542.223
 21
-58.0189
  0
LINE
  8
0
 10
-542.223
 20
-58.0189
 11
-542.139
 21
-57.9761
  0
LINE
  8
0
 10
-542.139
 20
-57.9761
 11
-542.052
 21
-57.9387
  0
LINE
  8
0
 10
-542.052
 20
-57.9387
 11
-541.964
 21
-57.9067
  0
LINE
  8
0
 10
-541.964
 20
-57.9067
 11
-541.873
 21
-57.8804
  0
LINE
  8
0
 10
-541.873
 20
-57.8804
 11
-541.781
 21
-57.8599
  0
LINE
  8
0
 10
-541.781
 20
-57.8599
 11
-541.688
 21
-57.8452
  0
LINE
  8
0
 10
-541.688
 20
-57.8452
 11
-541.594
 21
-57.8363
  0
LINE
  8
0
 10
-541.594
 20
-57.8363
 11
-541.5
 21
-57.8333
  0
LINE
  8
0
 10
-541.5
 20
-57.8333
 11
-541.406
 21
-57.8363
  0
LINE
  8
0
 10
-541.406
 20
-57.8363
 11
-541.312
 21
-57.8452
  0
LINE
  8
0
 10
-541.312
 20
-57.8452
 11
-541.219
 21
-57.8599
  0
LINE
  8
0
 10
-541.219
 20
-57.8599
 11
-541.127
 21
-57.8804
  0
LINE
  8
0
 10
-541.127
 20
-57.8804
 11
-541.036
 21
-57.9067
  0
LINE
  8
0
 10
-541.036
 20
-57.9067
 11
-540.948
 21
-57.9387
  0
LINE
  8
0
 10
-540.948
 20
-57.9387
 11
-540.861
 21
-57.9761
  0
LINE
  8
0
 10
-540.861
 20
-57.9761
 11
-540.777
 21
-58.0189
  0
LINE
  8
0
 10
-540.777
 20
-58.0189
 11
-540.696
 21
-58.0668
  0
LINE
  8
0
 10
-540.696
 20
-58.0668
 11
-540.618
 21
-58.1198
  0
LINE
  8
0
 10
-540.618
 20
-58.1198
 11
-540.544
 21
-58.1776
  0
LINE
  8
0
 10
-540.544
 20
-58.1776
 11
-540.473
 21
-58.2399
  0
LINE
  8
0
 10
-540.473
 20
-58.2399
 11
-540.407
 21
-58.3065
  0
LINE
  8
0
 10
-540.407
 20
-58.3065
 11
-540.344
 21
-58.3772
  0
LINE
  8
0
 10
-540.344
 20
-58.3772
 11
-540.286
 21
-58.4516
  0
LINE
  8
0
 10
-540.286
 20
-58.4516
 11
-540.234
 21
-58.5296
  0
LINE
  8
0
 10
-540.234
 20
-58.5296
 11
-540.186
 21
-58.6107
  0
LINE
  8
0
 10
-540.186
 20
-58.6107
 11
-540.143
 21
-58.6947
  0
LINE
  8
0
 10
-540.143
 20
-58.6947
 11
-540.105
 21
-58.7811
  0
LINE
  8
0
 10
-540.105
 20
-58.7811
 11
-540.073
 21
-58.8698
  0
LINE
  8
0
 10
-540.073
 20
-58.8698
 11
-540.047
 21
-58.9603
  0
LINE
  8
0
 10
-540.047
 20
-58.9603
 11
-540.027
 21
-59.0523
  0
LINE
  8
0
 10
-540.027
 20
-59.0523
 11
-540.012
 21
-59.1453
  0
LINE
  8
0
 10
-540.012
 20
-59.1453
 11
-540.003
 21
-59.2391
  0
LINE
  8
0
 10
-540.003
 20
-59.2391
 11
-540
 21
-59.3333
  0
LINE
  8
0
 10
-540
 20
-59.3333
 11
-540.003
 21
-59.4275
  0
LINE
  8
0
 10
-540.003
 20
-59.4275
 11
-540.012
 21
-59.5213
  0
LINE
  8
0
 10
-540.012
 20
-59.5213
 11
-540.027
 21
-59.6144
  0
LINE
  8
0
 10
-540.027
 20
-59.6144
 11
-540.047
 21
-59.7064
  0
LINE
  8
0
 10
-540.047
 20
-59.7064
 11
-540.073
 21
-59.7969
  0
LINE
  8
0
 10
-540.073
 20
-59.7969
 11
-540.105
 21
-59.8855
  0
LINE
  8
0
 10
-540.105
 20
-59.8855
 11
-540.143
 21
-59.972
  0
LINE
  8
0
 10
-540.143
 20
-59.972
 11
-540.186
 21
-60.056
  0
LINE
  8
0
 10
-540.186
 20
-60.056
 11
-540.234
 21
-60.1371
  0
LINE
  8
0
 10
-540.234
 20
-60.1371
 11
-540.286
 21
-60.215
  0
LINE
  8
0
 10
-540.286
 20
-60.215
 11
-540.344
 21
-60.2895
  0
LINE
  8
0
 10
-540.344
 20
-60.2895
 11
-540.407
 21
-60.3602
  0
LINE
  8
0
 10
-540.407
 20
-60.3602
 11
-540.473
 21
-60.4268
  0
LINE
  8
0
 10
-540.473
 20
-60.4268
 11
-540.544
 21
-60.4891
  0
LINE
  8
0
 10
-540.544
 20
-60.4891
 11
-540.618
 21
-60.5469
  0
LINE
  8
0
 10
-540.618
 20
-60.5469
 11
-540.696
 21
-60.5998
  0
LINE
  8
0
 10
-540.696
 20
-60.5998
 11
-540.777
 21
-60.6478
  0
LINE
  8
0
 10
-540.777
 20
-60.6478
 11
-540.861
 21
-60.6906
  0
LINE
  8
0
 10
-540.861
 20
-60.6906
 11
-540.948
 21
-60.728
  0
LINE
  8
0
 10
-540.948
 20
-60.728
 11
-541.036
 21
-60.7599
  0
LINE
  8
0
 10
-541.036
 20
-60.7599
 11
-541.127
 21
-60.7862
  0
LINE
  8
0
 10
-541.127
 20
-60.7862
 11
-541.219
 21
-60.8068
  0
LINE
  8
0
 10
-541.219
 20
-60.8068
 11
-541.312
 21
-60.8215
  0
LINE
  8
0
 10
-541.312
 20
-60.8215
 11
-541.406
 21
-60.8304
  0
LINE
  8
0
 10
-541.406
 20
-60.8304
 11
-541.5
 21
-60.8333
  0
LINE
  8
0
 10
-541.5
 20
-60.8333
 11
-541.594
 21
-60.8304
  0
LINE
  8
0
 10
-549.599
 20
-100.799
 11
-550.693
 21
-100.695
  0
LINE
  8
0
 10
-550.693
 20
-100.695
 11
-551.779
 21
-100.523
  0
LINE
  8
0
 10
-551.779
 20
-100.523
 11
-552.852
 21
-100.284
  0
LINE
  8
0
 10
-552.852
 20
-100.284
 11
-553.908
 21
-99.9768
  0
LINE
  8
0
 10
-553.908
 20
-99.9768
 11
-554.942
 21
-99.6044
  0
LINE
  8
0
 10
-554.942
 20
-99.6044
 11
-555.951
 21
-99.1678
  0
LINE
  8
0
 10
-555.951
 20
-99.1678
 11
-556.931
 21
-98.6687
  0
LINE
  8
0
 10
-556.931
 20
-98.6687
 11
-557.877
 21
-98.1091
  0
LINE
  8
0
 10
-557.877
 20
-98.1091
 11
-558.786
 21
-97.4911
  0
LINE
  8
0
 10
-558.786
 20
-97.4911
 11
-559.655
 21
-96.8173
  0
LINE
  8
0
 10
-559.655
 20
-96.8173
 11
-560.48
 21
-96.0903
  0
LINE
  8
0
 10
-560.48
 20
-96.0903
 11
-561.257
 21
-95.3129
  0
LINE
  8
0
 10
-561.257
 20
-95.3129
 11
-561.984
 21
-94.4883
  0
LINE
  8
0
 10
-561.984
 20
-94.4883
 11
-562.658
 21
-93.6196
  0
LINE
  8
0
 10
-562.658
 20
-93.6196
 11
-563.276
 21
-92.7103
  0
LINE
  8
0
 10
-563.276
 20
-92.7103
 11
-563.835
 21
-91.764
  0
LINE
  8
0
 10
-563.835
 20
-91.764
 11
-564.334
 21
-90.7845
  0
LINE
  8
0
 10
-564.334
 20
-90.7845
 11
-564.771
 21
-89.7755
  0
LINE
  8
0
 10
-564.771
 20
-89.7755
 11
-565.143
 21
-88.7411
  0
LINE
  8
0
 10
-565.143
 20
-88.7411
 11
-565.45
 21
-87.6854
  0
LINE
  8
0
 10
-565.45
 20
-87.6854
 11
-565.69
 21
-86.6125
  0
LINE
  8
0
 10
-565.69
 20
-86.6125
 11
-565.862
 21
-85.5267
  0
LINE
  8
0
 10
-565.862
 20
-85.5267
 11
-565.965
 21
-84.4322
  0
LINE
  8
0
 10
-565.965
 20
-84.4322
 11
-566
 21
-83.3333
  0
LINE
  8
0
 10
-566
 20
-83.3333
 11
-565.965
 21
-82.2345
  0
LINE
  8
0
 10
-565.965
 20
-82.2345
 11
-565.862
 21
-81.14
  0
LINE
  8
0
 10
-565.862
 20
-81.14
 11
-565.69
 21
-80.0542
  0
LINE
  8
0
 10
-565.69
 20
-80.0542
 11
-565.45
 21
-78.9813
  0
LINE
  8
0
 10
-565.45
 20
-78.9813
 11
-565.143
 21
-77.9255
  0
LINE
  8
0
 10
-565.143
 20
-77.9255
 11
-564.771
 21
-76.8911
  0
LINE
  8
0
 10
-564.771
 20
-76.8911
 11
-564.334
 21
-75.8822
  0
LINE
  8
0
 10
-564.334
 20
-75.8822
 11
-563.835
 21
-74.9026
  0
LINE
  8
0
 10
-563.835
 20
-74.9026
 11
-563.276
 21
-73.9564
  0
LINE
  8
0
 10
-563.276
 20
-73.9564
 11
-562.658
 21
-73.0471
  0
LINE
  8
0
 10
-562.658
 20
-73.0471
 11
-561.984
 21
-72.1784
  0
LINE
  8
0
 10
-561.984
 20
-72.1784
 11
-561.257
 21
-71.3538
  0
LINE
  8
0
 10
-561.257
 20
-71.3538
 11
-560.48
 21
-70.5764
  0
LINE
  8
0
 10
-560.48
 20
-70.5764
 11
-559.655
 21
-69.8493
  0
LINE
  8
0
 10
-559.655
 20
-69.8493
 11
-558.786
 21
-69.1755
  0
LINE
  8
0
 10
-558.786
 20
-69.1755
 11
-557.877
 21
-68.5576
  0
LINE
  8
0
 10
-557.877
 20
-68.5576
 11
-556.931
 21
-67.998
  0
LINE
  8
0
 10
-556.931
 20
-67.998
 11
-555.951
 21
-67.4989
  0
LINE
  8
0
 10
-555.951
 20
-67.4989
 11
-554.942
 21
-67.0622
  0
LINE
  8
0
 10
-554.942
 20
-67.0622
 11
-553.908
 21
-66.6898
  0
LINE
  8
0
 10
-553.908
 20
-66.6898
 11
-552.852
 21
-66.3831
  0
LINE
  8
0
 10
-552.852
 20
-66.3831
 11
-551.779
 21
-66.1433
  0
LINE
  8
0
 10
-551.779
 20
-66.1433
 11
-550.693
 21
-65.9713
  0
LINE
  8
0
 10
-550.693
 20
-65.9713
 11
-549.599
 21
-65.8679
  0
LINE
  8
0
 10
-549.599
 20
-65.8679
 11
-548.5
 21
-65.8333
  0
LINE
  8
0
 10
-548.5
 20
-65.8333
 11
-547.401
 21
-65.8679
  0
LINE
  8
0
 10
-547.401
 20
-65.8679
 11
-546.307
 21
-65.9713
  0
LINE
  8
0
 10
-546.307
 20
-65.9713
 11
-545.221
 21
-66.1433
  0
LINE
  8
0
 10
-545.221
 20
-66.1433
 11
-544.148
 21
-66.3831
  0
LINE
  8
0
 10
-544.148
 20
-66.3831
 11
-543.092
 21
-66.6898
  0
LINE
  8
0
 10
-543.092
 20
-66.6898
 11
-542.058
 21
-67.0622
  0
LINE
  8
0
 10
-542.058
 20
-67.0622
 11
-541.049
 21
-67.4989
  0
LINE
  8
0
 10
-541.049
 20
-67.4989
 11
-540.069
 21
-67.998
  0
LINE
  8
0
 10
-540.069
 20
-67.998
 11
-539.123
 21
-68.5576
  0
LINE
  8
0
 10
-539.123
 20
-68.5576
 11
-538.214
 21
-69.1755
  0
LINE
  8
0
 10
-538.214
 20
-69.1755
 11
-537.345
 21
-69.8493
  0
LINE
  8
0
 10
-537.345
 20
-69.8493
 11
-536.52
 21
-70.5764
  0
LINE
  8
0
 10
-536.52
 20
-70.5764
 11
-535.743
 21
-71.3538
  0
LINE
  8
0
 10
-535.743
 20
-71.3538
 11
-535.016
 21
-72.1784
  0
LINE
  8
0
 10
-535.016
 20
-72.1784
 11
-534.342
 21
-73.0471
  0
LINE
  8
0
 10
-534.342
 20
-73.0471
 11
-533.724
 21
-73.9564
  0
LINE
  8
0
 10
-533.724
 20
-73.9564
 11
-533.165
 21
-74.9026
  0
LINE
  8
0
 10
-533.165
 20
-74.9026
 11
-532.666
 21
-75.8822
  0
LINE
  8
0
 10
-532.666
 20
-75.8822
 11
-532.229
 21
-76.8911
  0
LINE
  8
0
 10
-532.229
 20
-76.8911
 11
-531.857
 21
-77.9255
  0
LINE
  8
0
 10
-531.857
 20
-77.9255
 11
-531.55
 21
-78.9813
  0
LINE
  8
0
 10
-531.55
 20
-78.9813
 11
-531.31
 21
-80.0542
  0
LINE
  8
0
 10
-531.31
 20
-80.0542
 11
-531.138
 21
-81.14
  0
LINE
  8
0
 10
-531.138
 20
-81.14
 11
-531.035
 21
-82.2345
  0
LINE
  8
0
 10
-531.035
 20
-82.2345
 11
-531
 21
-83.3333
  0
LINE
  8
0
 10
-531
 20
-83.3333
 11
-531.035
 21
-84.4322
  0
LINE
  8
0
 10
-531.035
 20
-84.4322
 11
-531.138
 21
-85.5267
  0
LINE
  8
0
 10
-531.138
 20
-85.5267
 11
-531.31
 21
-86.6125
  0
LINE
  8
0
 10
-531.31
 20
-86.6125
 11
-531.55
 21
-87.6854
  0
LINE
  8
0
 10
-531.55
 20
-87.6854
 11
-531.857
 21
-88.7411
  0
LINE
  8
0
 10
-531.857
 20
-88.7411
 11
-532.229
 21
-89.7755
  0
LINE
  8
0
 10
-532.229
 20
-89.7755
 11
-532.666
 21
-90.7845
  0
LINE
  8
0
 10
-532.666
 20
-90.7845
 11
-533.165
 21
-91.764
  0
LINE
  8
0
 10
-533.165
 20
-91.764
 11
-533.724
 21
-92.7103
  0
LINE
  8
0
 10
-533.724
 20
-92.7103
 11
-534.342
 21
-93.6196
  0
LINE
  8
0
 10
-534.342
 20
-93.6196
 11
-535.016
 21
-94.4883
  0
LINE
  8
0
 10
-535.016
 20
-94.4883
 11
-535.743
 21
-95.3129
  0
LINE
  8
0
 10
-535.743
 20
-95.3129
 11
-536.52
 21
-96.0903
  0
LINE
  8
0
 10
-536.52
 20
-96.0903
 11
-537.345
 21
-96.8173
  0
LINE
  8
0
 10
-537.345
 20
-96.8173
 11
-538.214
 21
-97.4911
  0
LINE
  8
0
 10
-538.214
 20
-97.4911
 11
-539.123
 21
-98.1091
  0
LINE
  8
0
 10
-539.123
 20
-98.1091
 11
-540.069
 21
-98.6687
  0
LINE
  8
0
 10
-540.069
 20
-98.6687
 11
-541.049
 21
-99.1678
  0
LINE
  8
0
 10
-541.049
 20
-99.1678
 11
-542.058
 21
-99.6044
  0
LINE
  8
0
 10
-542.058
 20
-99.6044
 11
-543.092
 21
-99.9768
  0
LINE
  8
0
 10
-543.092
 20
-99.9768
 11
-544.148
 21
-100.284
  0
LINE
  8
0
 10
-544.148
 20
-100.284
 11
-545.221
 21
-100.523
  0
LINE
  8
0
 10
-545.221
 20
-100.523
 11
-546.307
 21
-100.695
  0
LINE
  8
0
 10
-546.307
 20
-100.695
 11
-547.401
 21
-100.799
  0
LINE
  8
0
 10
-547.401
 20
-100.799
 11
-548.5
 21
-100.833
  0
LINE
  8
0
 10
-548.5
 20
-100.833
 11
-549.599
 21
-100.799
  0
LINE
  8
0
 10
-541.594
 20
-108.83
 11
-541.688
 21
-108.822
  0
LINE
  8
0
 10
-541.688
 20
-108.822
 11
-541.781
 21
-108.807
  0
LINE
  8
0
 10
-541.781
 20
-108.807
 11
-541.873
 21
-108.786
  0
LINE
  8
0
 10
-541.873
 20
-108.786
 11
-541.964
 21
-108.76
  0
LINE
  8
0
 10
-541.964
 20
-108.76
 11
-542.052
 21
-108.728
  0
LINE
  8
0
 10
-542.052
 20
-108.728
 11
-542.139
 21
-108.691
  0
LINE
  8
0
 10
-542.139
 20
-108.691
 11
-542.223
 21
-108.648
  0
LINE
  8
0
 10
-542.223
 20
-108.648
 11
-542.304
 21
-108.6
  0
LINE
  8
0
 10
-542.304
 20
-108.6
 11
-542.382
 21
-108.547
  0
LINE
  8
0
 10
-542.382
 20
-108.547
 11
-542.456
 21
-108.489
  0
LINE
  8
0
 10
-542.456
 20
-108.489
 11
-542.527
 21
-108.427
  0
LINE
  8
0
 10
-542.527
 20
-108.427
 11
-542.593
 21
-108.36
  0
LINE
  8
0
 10
-542.593
 20
-108.36
 11
-542.656
 21
-108.289
  0
LINE
  8
0
 10
-542.656
 20
-108.289
 11
-542.714
 21
-108.215
  0
LINE
  8
0
 10
-542.714
 20
-108.215
 11
-542.766
 21
-108.137
  0
LINE
  8
0
 10
-542.766
 20
-108.137
 11
-542.814
 21
-108.056
  0
LINE
  8
0
 10
-542.814
 20
-108.056
 11
-542.857
 21
-107.972
  0
LINE
  8
0
 10
-542.857
 20
-107.972
 11
-542.895
 21
-107.886
  0
LINE
  8
0
 10
-542.895
 20
-107.886
 11
-542.927
 21
-107.797
  0
LINE
  8
0
 10
-542.927
 20
-107.797
 11
-542.953
 21
-107.706
  0
LINE
  8
0
 10
-542.953
 20
-107.706
 11
-542.973
 21
-107.614
  0
LINE
  8
0
 10
-542.973
 20
-107.614
 11
-542.988
 21
-107.521
  0
LINE
  8
0
 10
-542.988
 20
-107.521
 11
-542.997
 21
-107.428
  0
LINE
  8
0
 10
-542.997
 20
-107.428
 11
-543
 21
-107.333
  0
LINE
  8
0
 10
-543
 20
-107.333
 11
-542.997
 21
-107.239
  0
LINE
  8
0
 10
-542.997
 20
-107.239
 11
-542.988
 21
-107.145
  0
LINE
  8
0
 10
-542.988
 20
-107.145
 11
-542.973
 21
-107.052
  0
LINE
  8
0
 10
-542.973
 20
-107.052
 11
-542.953
 21
-106.96
  0
LINE
  8
0
 10
-542.953
 20
-106.96
 11
-542.927
 21
-106.87
  0
LINE
  8
0
 10
-542.927
 20
-106.87
 11
-542.895
 21
-106.781
  0
LINE
  8
0
 10
-542.895
 20
-106.781
 11
-542.857
 21
-106.695
  0
LINE
  8
0
 10
-542.857
 20
-106.695
 11
-542.814
 21
-106.611
  0
LINE
  8
0
 10
-542.814
 20
-106.611
 11
-542.766
 21
-106.53
  0
LINE
  8
0
 10
-542.766
 20
-106.53
 11
-542.714
 21
-106.452
  0
LINE
  8
0
 10
-542.714
 20
-106.452
 11
-542.656
 21
-106.377
  0
LINE
  8
0
 10
-542.656
 20
-106.377
 11
-542.593
 21
-106.307
  0
LINE
  8
0
 10
-542.593
 20
-106.307
 11
-542.527
 21
-106.24
  0
LINE
  8
0
 10
-542.527
 20
-106.24
 11
-542.456
 21
-106.178
  0
LINE
  8
0
 10
-542.456
 20
-106.178
 11
-542.382
 21
-106.12
  0
LINE
  8
0
 10
-542.382
 20
-106.12
 11
-542.304
 21
-106.067
  0
LINE
  8
0
 10
-542.304
 20
-106.067
 11
-542.223
 21
-106.019
  0
LINE
  8
0
 10
-542.223
 20
-106.019
 11
-542.139
 21
-105.976
  0
LINE
  8
0
 10
-542.139
 20
-105.976
 11
-542.052
 21
-105.939
  0
LINE
  8
0
 10
-542.052
 20
-105.939
 11
-541.964
 21
-105.907
  0
LINE
  8
0
 10
-541.964
 20
-105.907
 11
-541.873
 21
-105.88
  0
LINE
  8
0
 10
-541.873
 20
-105.88
 11
-541.781
 21
-105.86
  0
LINE
  8
0
 10
-541.781
 20
-105.86
 11
-541.688
 21
-105.845
  0
LINE
  8
0
 10
-541.688
 20
-105.845
 11
-541.594
 21
-105.836
  0
LINE
  8
0
 10
-541.594
 20
-105.836
 11
-541.5
 21
-105.833
  0
LINE
  8
0
 10
-541.5
 20
-105.833
 11
-541.406
 21
-105.836
  0
LINE
  8
0
 10
-541.406
 20
-105.836
 11
-541.312
 21
-105.845
  0
LINE
  8
0
 10
-541.312
 20
-105.845
 11
-541.219
 21
-105.86
  0
LINE
  8
0
 10
-541.219
 20
-105.86
 11
-541.127
 21
-105.88
  0
LINE
  8
0
 10
-541.127
 20
-105.88
 11
-541.036
 21
-105.907
  0
LINE
  8
0
 10
-541.036
 20
-105.907
 11
-540.948
 21
-105.939
  0
LINE
  8
0
 10
-540.948
 20
-105.939
 11
-540.861
 21
-105.976
  0
LINE
  8
0
 10
-540.861
 20
-105.976
 11
-540.777
 21
-106.019
  0
LINE
  8
0
 10
-540.777
 20
-106.019
 11
-540.696
 21
-106.067
  0
LINE
  8
0
 10
-540.696
 20
-106.067
 11
-540.618
 21
-106.12
  0
LINE
  8
0
 10
-540.618
 20
-106.12
 11
-540.544
 21
-106.178
  0
LINE
  8
0
 10
-540.544
 20
-106.178
 11
-540.473
 21
-106.24
  0
LINE
  8
0
 10
-540.473
 20
-106.24
 11
-540.407
 21
-106.307
  0
LINE
  8
0
 10
-540.407
 20
-106.307
 11
-540.344
 21
-106.377
  0
LINE
  8
0
 10
-540.344
 20
-106.377
 11
-540.286
 21
-106.452
  0
LINE
  8
0
 10
-540.286
 20
-106.452
 11
-540.234
 21
-106.53
  0
LINE
  8
0
 10
-540.234
 20
-106.53
 11
-540.186
 21
-106.611
  0
LINE
  8
0
 10
-540.186
 20
-106.611
 11
-540.143
 21
-106.695
  0
LINE
  8
0
 10
-540.143
 20
-106.695
 11
-540.105
 21
-106.781
  0
LINE
  8
0
 10
-540.105
 20
-106.781
 11
-540.073
 21
-106.87
  0
LINE
  8
0
 10
-540.073
 20
-106.87
 11
-540.047
 21
-106.96
  0
LINE
  8
0
 10
-540.047
 20
-106.96
 11
-540.027
 21
-107.052
  0
LINE
  8
0
 10
-540.027
 20
-107.052
 11
-540.012
 21
-107.145
  0
LINE
  8
0
 10
-540.012
 20
-107.145
 11
-540.003
 21
-107.239
  0
LINE
  8
0
 10
-540.003
 20
-107.239
 11
-540
 21
-107.333
  0
LINE
  8
0
 10
-540
 20
-107.333
 11
-540.003
 21
-107.428
  0
LINE
  8
0
 10
-540.003
 20
-107.428
 11
-540.012
 21
-107.521
  0
LINE
  8
0
 10
-540.012
 20
-107.521
 11
-540.027
 21
-107.614
  0
LINE
  8
0
 10
-540.027
 20
-107.614
 11
-540.047
 21
-107.706
  0
LINE
  8
0
 10
-540.047
 20
-107.706
 11
-540.073
 21
-107.797
  0
LINE
  8
0
 10
-540.073
 20
-107.797
 11
-540.105
 21
-107.886
  0
LINE
  8
0
 10
-540.105
 20
-107.886
 11
-540.143
 21
-107.972
  0
LINE
  8
0
 10
-540.143
 20
-107.972
 11
-540.186
 21
-108.056
  0
LINE
  8
0
 10
-540.186
 20
-108.056
 11
-540.234
 21
-108.137
  0
LINE
  8
0
 10
-540.234
 20
-108.137
 11
-540.286
 21
-108.215
  0
LINE
  8
0
 10
-540.286
 20
-108.215
 11
-540.344
 21
-108.289
  0
LINE
  8
0
 10
-540.344
 20
-108.289
 11
-540.407
 21
-108.36
  0
LINE
  8
0
 10
-540.407
 20
-108.36
 11
-540.473
 21
-108.427
  0
LINE
  8
0
 10
-540.473
 20
-108.427
 11
-540.544
 21
-108.489
  0
LINE
  8
0
 10
-540.544
 20
-108.489
 11
-540.618
 21
-108.547
  0
LINE
  8
0
 10
-540.618
 20
-108.547
 11
-540.696
 21
-108.6
  0
LINE
  8
0
 10
-540.696
 20
-108.6
 11
-540.777
 21
-108.648
  0
LINE
  8
0
 10
-540.777
 20
-108.648
 11
-540.861
 21
-108.691
  0
LINE
  8
0
 10
-540.861
 20
-108.691
 11
-540.948
 21
-108.728
  0
LINE
  8
0
 10
-540.948
 20
-108.728
 11
-541.036
 21
-108.76
  0
LINE
  8
0
 10
-541.036
 20
-108.76
 11
-541.127
 21
-108.786
  0
LINE
  8
0
 10
-541.127
 20
-108.786
 11
-541.219
 21
-108.807
  0
LINE
  8
0
 10
-541.219
 20
-108.807
 11
-541.312
 21
-108.822
  0
LINE
  8
0
 10
-541.312
 20
-108.822
 11
-541.406
 21
-108.83
  0
LINE
  8
0
 10
-541.406
 20
-108.83
 11
-541.5
 21
-108.833
  0
LINE
  8
0
 10
-541.5
 20
-108.833
 11
-541.594
 21
-108.83
  0
ENDSEC
  0
SECTION
  2
OBJECTS
  0
DICTIONARY
  0
ENDSEC
  0
EOF
