<?xml version="1.0" standalone="no"?>
<!DOCTYPE svg PUBLIC "-//W3C//DTD SVG 1.1//EN" "http://www.w3.org/Graphics/SVG/1.1/DTD/svg11.dtd">
<svg width="207mm" height="150mm" viewBox="-147 -75 207 150" xmlns="http://www.w3.org/2000/svg" version="1.1">
<title>OpenSCAD Model</title>
<path d="
M 53,-75 L -147,-75 L -147,75 L 53,75 z
M -42.2204,-22.1116 L -42.5894,-22.1465 L -42.9555,-22.2045 L -43.3173,-22.2854 L -43.6732,-22.3888 L -44.0219,-22.5143
 L -44.3621,-22.6615 L -44.6923,-22.8298 L -45.0114,-23.0185 L -45.3179,-23.2268 L -45.6108,-23.454 L -45.8888,-23.6991
 L -46.1509,-23.9612 L -46.396,-24.2392 L -46.6232,-24.5321 L -46.8315,-24.8386 L -47.0202,-25.1577 L -47.1885,-25.4879
 L -47.3357,-25.8281 L -47.4612,-26.1768 L -47.5646,-26.5327 L -47.6455,-26.8945 L -47.7035,-27.2605 L -47.7383,-27.6295
 L -47.75,-28 L -47.7383,-28.3705 L -47.7035,-28.7395 L -47.6455,-29.1056 L -47.5646,-29.4673 L -47.4612,-29.8232
 L -47.3357,-30.1719 L -47.1885,-30.5121 L -47.0202,-30.8424 L -46.8315,-31.1614 L -46.6232,-31.4679 L -46.396,-31.7608
 L -46.1509,-32.0388 L -45.8888,-32.3009 L -45.6108,-32.546 L -45.3179,-32.7732 L -45.0114,-32.9815 L -44.6923,-33.1702
 L -44.3621,-33.3385 L -44.0219,-33.4857 L -43.6732,-33.6112 L -43.3173,-33.7146 L -42.9555,-33.7955 L -42.5894,-33.8535
 L -42.2204,-33.8884 L -41.85,-33.9 L -41.4795,-33.8884 L -41.1105,-33.8535 L -40.7444,-33.7955 L -40.3827,-33.7146
 L -40.0268,-33.6112 L -39.6781,-33.4857 L -39.3379,-33.3385 L -39.0076,-33.1702 L -38.6886,-32.9815 L -38.3821,-32.7732
 L -38.0892,-32.546 L -37.8112,-32.3009 L -37.5491,-32.0388 L -37.304,-31.7608 L -37.0768,-31.4679 L -36.8685,-31.1614
 L -36.6798,-30.8424 L -36.5115,-30.5121 L -36.3643,-30.1719 L -36.2388,-29.8232 L -36.1354,-29.4673 L -36.0545,-29.1056
 L -35.9965,-28.7395 L -35.9616,-28.3705 L -35.95,-28 L -35.9616,-27.6295 L -35.9965,-27.2605 L -36.0545,-26.8945
 L -36.1354,-26.5327 L -36.2388,-26.1768 L -36.3643,-25.8281 L -36.5115,-25.4879 L -36.6798,-25.1577 L -36.8685,-24.8386
 L -37.0768,-24.5321 L -37.304,-24.2392 L -37.5491,-23.9612 L -37.8112,-23.6991 L -38.0892,-23.454 L -38.3821,-23.2268
 L -38.6886,-23.0185 L -39.0076,-22.8298 L -39.3379,-22.6615 L -39.6781,-22.5143 L -40.0268,-22.3888 L -40.3827,-22.2854
 L -40.7444,-22.2045 L -41.1105,-22.1465 L -41.4795,-22.1116 L -41.85,-22.1 z
M 39.9058,-18.003 L 39.812,-18.0118 L 39.7189,-18.0266 L 39.627,-18.0471 L 39.5365,-18.0734 L 39.4478,-18.1053
 L 39.3613,-18.1427 L 39.2774,-18.1855 L 39.1963,-18.2335 L 39.1183,-18.2865 L 39.0439,-18.3442 L 38.9732,-18.4065
 L 38.9065,-18.4732 L 38.8442,-18.5439 L 38.7865,-18.6183 L 38.7335,-18.6963 L 38.6855,-18.7774 L 38.6428,-18.8613
 L 38.6053,-18.9478 L 38.5734,-19.0365 L 38.5471,-19.127 L 38.5266,-19.2189 L 38.5118,-19.312 L 38.503,-19.4058
 L 38.5,-19.5 L 38.503,-19.5942 L 38.5118,-19.688 L 38.5266,-19.7811 L 38.5471,-19.873 L 38.5734,-19.9635
 L 38.6053,-20.0522 L 38.6428,-20.1387 L 38.6855,-20.2226 L 38.7335,-20.3037 L 38.7865,-20.3817 L 38.8442,-20.4561
 L 38.9065,-20.5268 L 38.9732,-20.5934 L 39.0439,-20.6558 L 39.1183,-20.7135 L 39.1963,-20.7665 L 39.2774,-20.8145
 L 39.3613,-20.8572 L 39.4478,-20.8947 L 39.5365,-20.9266 L 39.627,-20.9529 L 39.7189,-20.9734 L 39.812,-20.9882
 L 39.9058,-20.997 L 40,-21 L 40.0942,-20.997 L 40.188,-20.9882 L 40.2811,-20.9734 L 40.373,-20.9529
 L 40.4635,-20.9266 L 40.5522,-20.8947 L 40.6387,-20.8572 L 40.7226,-20.8145 L 40.8037,-20.7665 L 40.8817,-20.7135
 L 40.9561,-20.6558 L 41.0268,-20.5934 L 41.0934,-20.5268 L 41.1558,-20.4561 L 41.2135,-20.3817 L 41.2665,-20.3037
 L 41.3145,-20.2226 L 41.3572,-20.1387 L 41.3947,-20.0522 L 41.4266,-19.9635 L 41.4529,-19.873 L 41.4734,-19.7811
 L 41.4882,-19.688 L 41.497,-19.5942 L 41.5,-19.5 L 41.497,-19.4058 L 41.4882,-19.312 L 41.4734,-19.2189
 L 41.4529,-19.127 L 41.4266,-19.0365 L 41.3947,-18.9478 L 41.3572,-18.8613 L 41.3145,-18.7774 L 41.2665,-18.6963
 L 41.2135,-18.6183 L 41.1558,-18.5439 L 41.0934,-18.4732 L 41.0268,-18.4065 L 40.9561,-18.3442 L 40.8817,-18.2865
 L 40.8037,-18.2335 L 40.7226,-18.1855 L 40.6387,-18.1427 L 40.5522,-18.1053 L 40.4635,-18.0734 L 40.373,-18.0471
 L 40.2811,-18.0266 L 40.188,-18.0118 L 40.0942,-18.003 L 40,-18 z
M -42.4842,10.0801 L -43.1158,10.0204 L -43.7425,9.9211 L -44.3618,9.78268 L -44.9711,9.60567 L -45.568,9.39073
 L -46.1504,9.13875 L -46.7157,8.85069 L -47.2618,8.52771 L -47.7866,8.17107 L -48.288,7.78218 L -48.7639,7.36258
 L -49.2126,6.91393 L -49.6322,6.43797 L -50.0211,5.93663 L -50.3777,5.41185 L -50.7007,4.86571 L -50.9887,4.30037
 L -51.2407,3.71805 L -51.4557,3.12106 L -51.6327,2.51176 L -51.7711,1.89255 L -51.8703,1.26585 L -51.9301,0.634171
 L -51.95,-0 L -51.9301,-0.634186 L -51.8703,-1.26587 L -51.7711,-1.89256 L -51.6327,-2.51178 L -51.4557,-3.12108
 L -51.2407,-3.71806 L -50.9887,-4.30038 L -50.7007,-4.86572 L -50.3777,-5.41187 L -50.0211,-5.93665 L -49.6322,-6.43799
 L -49.2126,-6.91394 L -48.7639,-7.36259 L -48.288,-7.7822 L -47.7866,-8.17108 L -47.2618,-8.52773 L -46.7157,-8.85071
 L -46.1504,-9.13876 L -45.568,-9.39075 L -44.9711,-9.60568 L -44.3618,-9.7827 L -43.7425,-9.92111 L -43.1158,-10.0204
 L -42.4842,-10.0801 L -41.85,-10.1 L -41.2158,-10.0801 L -40.5841,-10.0204 L -39.9574,-9.92111 L -39.3382,-9.7827
 L -38.7289,-9.60568 L -38.1319,-9.39075 L -37.5496,-9.13876 L -36.9843,-8.85071 L -36.4381,-8.52773 L -35.9134,-8.17108
 L -35.412,-7.7822 L -34.9361,-7.36259 L -34.4874,-6.91394 L -34.0678,-6.43799 L -33.6789,-5.93665 L -33.3223,-5.41187
 L -32.9993,-4.86572 L -32.7112,-4.30038 L -32.4593,-3.71806 L -32.2443,-3.12108 L -32.0673,-2.51178 L -31.9289,-1.89256
 L -31.8296,-1.26587 L -31.7699,-0.634186 L -31.75,-0 L -31.7699,0.634171 L -31.8296,1.26585 L -31.9289,1.89255
 L -32.0673,2.51176 L -32.2443,3.12106 L -32.4593,3.71805 L -32.7112,4.30037 L -32.9993,4.86571 L -33.3223,5.41185
 L -33.6789,5.93663 L -34.0678,6.43797 L -34.4874,6.91393 L -34.9361,7.36258 L -35.412,7.78218 L -35.9134,8.17107
 L -36.4381,8.52771 L -36.9843,8.85069 L -37.5496,9.13875 L -38.1319,9.39073 L -38.7289,9.60567 L -39.3382,9.78268
 L -39.9574,9.9211 L -40.5841,10.0204 L -41.2158,10.0801 L -41.85,10.1 z
M 15.0058,19.747 L 14.912,19.7382 L 14.8189,19.7234 L 14.727,19.7029 L 14.6365,19.6766 L 14.5478,19.6447
 L 14.4613,19.6072 L 14.3774,19.5645 L 14.2962,19.5165 L 14.2183,19.4635 L 14.1439,19.4058 L 14.0732,19.3434
 L 14.0065,19.2768 L 13.9442,19.2061 L 13.8865,19.1317 L 13.8335,19.0537 L 13.7855,18.9726 L 13.7428,18.8887
 L 13.7053,18.8022 L 13.6734,18.7135 L 13.6471,18.623 L 13.6266,18.5311 L 13.6118,18.438 L 13.603,18.3442
 L 13.6,18.25 L 13.603,18.1558 L 13.6118,18.062 L 13.6266,17.9689 L 13.6471,17.877 L 13.6734,17.7865
 L 13.7053,17.6978 L 13.7428,17.6113 L 13.7855,17.5274 L 13.8335,17.4463 L 13.8865,17.3683 L 13.9442,17.2939
 L 14.0065,17.2232 L 14.0732,17.1565 L 14.1439,17.0942 L 14.2183,17.0365 L 14.2962,16.9835 L 14.3774,16.9355
 L 14.4613,16.8927 L 14.5478,16.8553 L 14.6365,16.8234 L 14.727,16.7971 L 14.8189,16.7766 L 14.912,16.7618
 L 15.0058,16.753 L 15.1,16.75 L 15.1942,16.753 L 15.288,16.7618 L 15.3811,16.7766 L 15.473,16.7971
 L 15.5635,16.8234 L 15.6522,16.8553 L 15.7387,16.8927 L 15.8226,16.9355 L 15.9037,16.9835 L 15.9817,17.0365
 L 16.0561,17.0942 L 16.1268,17.1565 L 16.1935,17.2232 L 16.2558,17.2939 L 16.3135,17.3683 L 16.3665,17.4463
 L 16.4145,17.5274 L 16.4572,17.6113 L 16.4947,17.6978 L 16.5266,17.7865 L 16.5529,17.877 L 16.5734,17.9689
 L 16.5882,18.062 L 16.597,18.1558 L 16.6,18.25 L 16.597,18.3442 L 16.5882,18.438 L 16.5734,18.5311
 L 16.5529,18.623 L 16.5266,18.7135 L 16.4947,18.8022 L 16.4572,18.8887 L 16.4145,18.9726 L 16.3665,19.0537
 L 16.3135,19.1317 L 16.2558,19.2061 L 16.1935,19.2768 L 16.1268,19.3434 L 16.0561,19.4058 L 15.9817,19.4635
 L 15.9037,19.5165 L 15.8226,19.5645 L 15.7387,19.6072 L 15.6522,19.6447 L 15.5635,19.6766 L 15.473,19.7029
 L 15.3811,19.7234 L 15.288,19.7382 L 15.1942,19.747 L 15.1,19.75 z
M -26.1942,19.747 L -26.288,19.7382 L -26.3811,19.7234 L -26.473,19.7029 L -26.5635,19.6766 L -26.6522,19.6447
 L -26.7387,19.6072 L -26.8226,19.5645 L -26.9037,19.5165 L -26.9817,19.4635 L -27.0561,19.4058 L -27.1268,19.3434
 L -27.1935,19.2768 L -27.2558,19.2061 L -27.3135,19.1317 L -27.3665,19.0537 L -27.4145,18.9726 L -27.4572,18.8887
 L -27.4947,18.8022 L -27.5266,18.7135 L -27.5529,18.623 L -27.5734,18.5311 L -27.5882,18.438 L -27.597,18.3442
 L -27.6,18.25 L -27.597,18.1558 L -27.5882,18.062 L -27.5734,17.9689 L -27.5529,17.877 L -27.5266,17.7865
 L -27.4947,17.6978 L -27.4572,17.6113 L -27.4145,17.5274 L -27.3665,17.4463 L -27.3135,17.3683 L -27.2558,17.2939
 L -27.1935,17.2232 L -27.1268,17.1565 L -27.0561,17.0942 L -26.9817,17.0365 L -26.9037,16.9835 L -26.8226,16.9355
 L -26.7387,16.8927 L -26.6522,16.8553 L -26.5635,16.8234 L -26.473,16.7971 L -26.3811,16.7766 L -26.288,16.7618
 L -26.1942,16.753 L -26.1,16.75 L -26.0058,16.753 L -25.912,16.7618 L -25.8189,16.7766 L -25.727,16.7971
 L -25.6365,16.8234 L -25.5478,16.8553 L -25.4613,16.8927 L -25.3774,16.9355 L -25.2962,16.9835 L -25.2183,17.0365
 L -25.1439,17.0942 L -25.0732,17.1565 L -25.0065,17.2232 L -24.9442,17.2939 L -24.8865,17.3683 L -24.8335,17.4463
 L -24.7855,17.5274 L -24.7428,17.6113 L -24.7053,17.6978 L -24.6734,17.7865 L -24.6471,17.877 L -24.6266,17.9689
 L -24.6118,18.062 L -24.603,18.1558 L -24.6,18.25 L -24.603,18.3442 L -24.6118,18.438 L -24.6266,18.5311
 L -24.6471,18.623 L -24.6734,18.7135 L -24.7053,18.8022 L -24.7428,18.8887 L -24.7855,18.9726 L -24.8335,19.0537
 L -24.8865,19.1317 L -24.9442,19.2061 L -25.0065,19.2768 L -25.0732,19.3434 L -25.1439,19.4058 L -25.2183,19.4635
 L -25.2962,19.5165 L -25.3774,19.5645 L -25.4613,19.6072 L -25.5478,19.6447 L -25.6365,19.6766 L -25.727,19.7029
 L -25.8189,19.7234 L -25.912,19.7382 L -26.0058,19.747 L -26.1,19.75 z
M 39.9058,20.997 L 39.812,20.9882 L 39.7189,20.9734 L 39.627,20.9529 L 39.5365,20.9266 L 39.4478,20.8947
 L 39.3613,20.8572 L 39.2774,20.8145 L 39.1963,20.7665 L 39.1183,20.7135 L 39.0439,20.6558 L 38.9732,20.5934
 L 38.9065,20.5268 L 38.8442,20.4561 L 38.7865,20.3817 L 38.7335,20.3037 L 38.6855,20.2226 L 38.6428,20.1387
 L 38.6053,20.0522 L 38.5734,19.9635 L 38.5471,19.873 L 38.5266,19.7811 L 38.5118,19.688 L 38.503,19.5942
 L 38.5,19.5 L 38.503,19.4058 L 38.5118,19.312 L 38.5266,19.2189 L 38.5471,19.127 L 38.5734,19.0365
 L 38.6053,18.9478 L 38.6428,18.8613 L 38.6855,18.7774 L 38.7335,18.6963 L 38.7865,18.6183 L 38.8442,18.5439
 L 38.9065,18.4732 L 38.9732,18.4065 L 39.0439,18.3442 L 39.1183,18.2865 L 39.1963,18.2335 L 39.2774,18.1855
 L 39.3613,18.1428 L 39.4478,18.1053 L 39.5365,18.0734 L 39.627,18.0471 L 39.7189,18.0266 L 39.812,18.0118
 L 39.9058,18.003 L 40,18 L 40.0942,18.003 L 40.188,18.0118 L 40.2811,18.0266 L 40.373,18.0471
 L 40.4635,18.0734 L 40.5522,18.1053 L 40.6387,18.1428 L 40.7226,18.1855 L 40.8037,18.2335 L 40.8817,18.2865
 L 40.9561,18.3442 L 41.0268,18.4065 L 41.0934,18.4732 L 41.1558,18.5439 L 41.2135,18.6183 L 41.2665,18.6963
 L 41.3145,18.7774 L 41.3572,18.8613 L 41.3947,18.9478 L 41.4266,19.0365 L 41.4529,19.127 L 41.4734,19.2189
 L 41.4882,19.312 L 41.497,19.4058 L 41.5,19.5 L 41.497,19.5942 L 41.4882,19.688 L 41.4734,19.7811
 L 41.4529,19.873 L 41.4266,19.9635 L 41.3947,20.0522 L 41.3572,20.1387 L 41.3145,20.2226 L 41.2665,20.3037
 L 41.2135,20.3817 L 41.1558,20.4561 L 41.0934,20.5268 L 41.0268,20.5934 L 40.9561,20.6558 L 40.8817,20.7135
 L 40.8037,20.7665 L 40.7226,20.8145 L 40.6387,20.8572 L 40.5522,20.8947 L 40.4635,20.9266 L 40.373,20.9529
 L 40.2811,20.9734 L 40.188,20.9882 L 40.0942,20.997 L 40,21 z
M -42.0509,38.1937 L -42.2511,38.1748 L -42.4496,38.1433 L -42.6458,38.0995 L -42.8388,38.0434 L -43.028,37.9753
 L -43.2125,37.8954 L -43.3916,37.8042 L -43.5646,37.7018 L -43.7309,37.5889 L -43.8897,37.4656 L -44.0405,37.3327
 L -44.1827,37.1905 L -44.3156,37.0397 L -44.4388,36.8809 L -44.5518,36.7146 L -44.6542,36.5416 L -44.7454,36.3625
 L -44.8253,36.178 L -44.8934,35.9888 L -44.9494,35.7958 L -44.9933,35.5996 L -45.0247,35.4011 L -45.0437,35.2009
 L -45.05,35 L -45.0437,34.7991 L -45.0247,34.5989 L -44.9933,34.4004 L -44.9494,34.2042 L -44.8934,34.0111
 L -44.8253,33.822 L -44.7454,33.6375 L -44.6542,33.4584 L -44.5518,33.2853 L -44.4388,33.1191 L -44.3156,32.9602
 L -44.1827,32.8094 L -44.0405,32.6673 L -43.8897,32.5343 L -43.7309,32.4111 L -43.5646,32.2981 L -43.3916,32.1958
 L -43.2125,32.1046 L -43.028,32.0247 L -42.8388,31.9566 L -42.6458,31.9005 L -42.4496,31.8567 L -42.2511,31.8252
 L -42.0509,31.8063 L -41.85,31.8 L -41.6491,31.8063 L -41.4489,31.8252 L -41.2504,31.8567 L -41.0542,31.9005
 L -40.8611,31.9566 L -40.672,32.0247 L -40.4875,32.1046 L -40.3084,32.1958 L -40.1353,32.2981 L -39.9691,32.4111
 L -39.8102,32.5343 L -39.6595,32.6673 L -39.5173,32.8094 L -39.3844,32.9602 L -39.2611,33.1191 L -39.1481,33.2853
 L -39.0458,33.4584 L -38.9546,33.6375 L -38.8747,33.822 L -38.8066,34.0111 L -38.7505,34.2042 L -38.7067,34.4004
 L -38.6752,34.5989 L -38.6563,34.7991 L -38.65,35 L -38.6563,35.2009 L -38.6752,35.4011 L -38.7067,35.5996
 L -38.7505,35.7958 L -38.8066,35.9888 L -38.8747,36.178 L -38.9546,36.3625 L -39.0458,36.5416 L -39.1481,36.7146
 L -39.2611,36.8809 L -39.3844,37.0397 L -39.5173,37.1905 L -39.6595,37.3327 L -39.8102,37.4656 L -39.9691,37.5889
 L -40.1353,37.7018 L -40.3084,37.8042 L -40.4875,37.8954 L -40.672,37.9753 L -40.8611,38.0434 L -41.0542,38.0995
 L -41.2504,38.1433 L -41.4489,38.1748 L -41.6491,38.1937 L -41.85,38.2 z
M 57.7942,-13.203 L 57.888,-13.2118 L 57.9811,-13.2266 L 58.073,-13.2471 L 58.1635,-13.2734 L 58.2522,-13.3053
 L 58.3387,-13.3428 L 58.4226,-13.3855 L 58.5037,-13.4335 L 58.5817,-13.4865 L 58.6561,-13.5442 L 58.7268,-13.6065
 L 58.7934,-13.6732 L 58.8558,-13.7439 L 58.9135,-13.8183 L 58.9665,-13.8963 L 59.0145,-13.9774 L 59.0572,-14.0613
 L 59.0947,-14.1478 L 59.1266,-14.2365 L 59.1529,-14.327 L 59.1734,-14.4189 L 59.1882,-14.512 L 59.197,-14.6058
 L 59.2,-14.7 L 59.197,-14.7942 L 59.1882,-14.888 L 59.1734,-14.9811 L 59.1529,-15.073 L 59.1266,-15.1635
 L 59.0947,-15.2522 L 59.0572,-15.3387 L 59.0145,-15.4226 L 58.9665,-15.5037 L 58.9135,-15.5817 L 58.8558,-15.6561
 L 58.7934,-15.7268 L 58.7268,-15.7934 L 58.6561,-15.8558 L 58.5817,-15.9135 L 58.5037,-15.9665 L 58.4226,-16.0145
 L 58.3387,-16.0572 L 58.2522,-16.0947 L 58.1635,-16.1266 L 58.073,-16.1529 L 57.9811,-16.1734 L 57.888,-16.1882
 L 57.7942,-16.197 L 57.7,-16.2 L 57.6058,-16.197 L 57.512,-16.1882 L 57.4189,-16.1734 L 57.327,-16.1529
 L 57.2365,-16.1266 L 57.1478,-16.0947 L 57.0613,-16.0572 L 56.9774,-16.0145 L 56.8963,-15.9665 L 56.8183,-15.9135
 L 56.7439,-15.8558 L 56.6732,-15.7934 L 56.6065,-15.7268 L 56.5442,-15.6561 L 56.4865,-15.5817 L 56.4335,-15.5037
 L 56.3855,-15.4226 L 56.3428,-15.3387 L 56.3053,-15.2522 L 56.2734,-15.1635 L 56.2471,-15.073 L 56.2266,-14.9811
 L 56.2118,-14.888 L 56.203,-14.7942 L 56.2,-14.7 L 56.203,-14.6058 L 56.2118,-14.512 L 56.2266,-14.4189
 L 56.2471,-14.327 L 56.2734,-14.2365 L 56.3053,-14.1478 L 56.3428,-14.0613 L 56.3855,-13.9774 L 56.4335,-13.8963
 L 56.4865,-13.8183 L 56.5442,-13.7439 L 56.6065,-13.6732 L 56.6732,-13.6065 L 56.7439,-13.5442 L 56.8183,-13.4865
 L 56.8963,-13.4335 L 56.9774,-13.3855 L 57.0613,-13.3428 L 57.1478,-13.3053 L 57.2365,-13.2734 L 57.327,-13.2471
 L 57.4189,-13.2266 L 57.512,-13.2118 L 57.6058,-13.203 L 57.7,-13.2 z
M 57.7942,16.197 L 57.888,16.1882 L 57.9811,16.1734 L 58.073,16.1529 L 58.1635,16.1266 L 58.2522,16.0947
 L 58.3387,16.0572 L 58.4226,16.0145 L 58.5037,15.9665 L 58.5817,15.9135 L 58.6561,15.8558 L 58.7268,15.7934
 L 58.7934,15.7268 L 58.8558,15.6561 L 58.9135,15.5817 L 58.9665,15.5037 L 59.0145,15.4226 L 59.0572,15.3387
 L 59.0947,15.2522 L 59.1266,15.1635 L 59.1529,15.073 L 59.1734,14.9811 L 59.1882,14.888 L 59.197,14.7942
 L 59.2,14.7 L 59.197,14.6058 L 59.1882,14.512 L 59.1734,14.4189 L 59.1529,14.327 L 59.1266,14.2365
 L 59.0947,14.1478 L 59.0572,14.0613 L 59.0145,13.9774 L 58.9665,13.8963 L 58.9135,13.8183 L 58.8558,13.7439
 L 58.7934,13.6732 L 58.7268,13.6065 L 58.6561,13.5442 L 58.5817,13.4865 L 58.5037,13.4335 L 58.4226,13.3855
 L 58.3387,13.3428 L 58.2522,13.3053 L 58.1635,13.2734 L 58.073,13.2471 L 57.9811,13.2266 L 57.888,13.2118
 L 57.7942,13.203 L 57.7,13.2 L 57.6058,13.203 L 57.512,13.2118 L 57.4189,13.2266 L 57.327,13.2471
 L 57.2365,13.2734 L 57.1478,13.3053 L 57.0613,13.3428 L 56.9774,13.3855 L 56.8963,13.4335 L 56.8183,13.4865
 L 56.7439,13.5442 L 56.6732,13.6065 L 56.6065,13.6732 L 56.5442,13.7439 L 56.4865,13.8183 L 56.4335,13.8963
 L 56.3855,13.9774 L 56.3428,14.0613 L 56.3053,14.1478 L 56.2734,14.2365 L 56.2471,14.327 L 56.2266,14.4189
 L 56.2118,14.512 L 56.203,14.6058 L 56.2,14.7 L 56.203,14.7942 L 56.2118,14.888 L 56.2266,14.9811
 L 56.2471,15.073 L 56.2734,15.1635 L 56.3053,15.2522 L 56.3428,15.3387 L 56.3855,15.4226 L 56.4335,15.5037
 L 56.4865,15.5817 L 56.5442,15.6561 L 56.6065,15.7268 L 56.6732,15.7934 L 56.7439,15.8558 L 56.8183,15.9135
 L 56.8963,15.9665 L 56.9774,16.0145 L 57.0613,16.0572 L 57.1478,16.0947 L 57.2365,16.1266 L 57.327,16.1529
 L 57.4189,16.1734 L 57.512,16.1882 L 57.6058,16.197 L 57.7,16.2 z
" stroke="black" fill="lightgray" stroke-width="0.5"/>
</svg>
