<?xml version="1.0" standalone="no"?>
<!DOCTYPE svg PUBLIC "-//W3C//DTD SVG 1.1//EN" "http://www.w3.org/Graphics/SVG/1.1/DTD/svg11.dtd">
<svg width="540mm" height="400mm" viewBox="-527 -195 540 400" xmlns="http://www.w3.org/2000/svg" version="1.1">
<title>OpenSCAD Model</title>
<path d="
M -527,205 L 13,205 L 13,40 L -151.07,40 L -151.07,-40 L 13,-40
 L 13,-195 L -527,-195 z
M -524.25,200 L -524.247,199.906 L -524.238,199.812 L -524.223,199.719 L -524.203,199.627 L -524.177,199.536
 L -524.145,199.448 L -524.107,199.361 L -524.064,199.277 L -524.016,199.196 L -523.964,199.118 L -523.906,199.044
 L -523.843,198.973 L -523.777,198.907 L -523.706,198.844 L -523.632,198.786 L -523.554,198.734 L -523.473,198.686
 L -523.389,198.643 L -523.302,198.605 L -523.214,198.573 L -523.123,198.547 L -523.031,198.527 L -522.938,198.512
 L -522.844,198.503 L -522.75,198.5 L -522.656,198.503 L -522.562,198.512 L -522.469,198.527 L -522.377,198.547
 L -522.286,198.573 L -522.198,198.605 L -522.111,198.643 L -522.027,198.686 L -521.946,198.734 L -521.868,198.786
 L -521.794,198.844 L -521.723,198.907 L -521.657,198.973 L -521.594,199.044 L -521.536,199.118 L -521.484,199.196
 L -521.436,199.277 L -521.393,199.361 L -521.355,199.448 L -521.323,199.536 L -521.297,199.627 L -521.277,199.719
 L -521.262,199.812 L -521.253,199.906 L -521.25,200 L -521.253,200.094 L -521.262,200.188 L -521.277,200.281
 L -521.297,200.373 L -521.323,200.464 L -521.355,200.552 L -521.393,200.639 L -521.436,200.723 L -521.484,200.804
 L -521.536,200.882 L -521.594,200.956 L -521.657,201.027 L -521.723,201.093 L -521.794,201.156 L -521.868,201.214
 L -521.946,201.266 L -522.027,201.314 L -522.111,201.357 L -522.198,201.395 L -522.286,201.427 L -522.377,201.453
 L -522.469,201.473 L -522.562,201.488 L -522.656,201.497 L -522.75,201.5 L -522.844,201.497 L -522.938,201.488
 L -523.031,201.473 L -523.123,201.453 L -523.214,201.427 L -523.302,201.395 L -523.389,201.357 L -523.473,201.314
 L -523.554,201.266 L -523.632,201.214 L -523.706,201.156 L -523.777,201.093 L -523.843,201.027 L -523.906,200.956
 L -523.964,200.882 L -524.016,200.804 L -524.064,200.723 L -524.107,200.639 L -524.145,200.552 L -524.177,200.464
 L -524.203,200.373 L -524.223,200.281 L -524.238,200.188 L -524.247,200.094 z
M -524.25,95 L -524.247,94.9058 L -524.238,94.812 L -524.223,94.7189 L -524.203,94.627 L -524.177,94.5365
 L -524.145,94.4478 L -524.107,94.3613 L -524.064,94.2774 L -524.016,94.1963 L -523.964,94.1183 L -523.906,94.0439
 L -523.843,93.9732 L -523.777,93.9065 L -523.706,93.8442 L -523.632,93.7865 L -523.554,93.7335 L -523.473,93.6855
 L -523.389,93.6428 L -523.302,93.6053 L -523.214,93.5734 L -523.123,93.5471 L -523.031,93.5266 L -522.938,93.5118
 L -522.844,93.503 L -522.75,93.5 L -522.656,93.503 L -522.562,93.5118 L -522.469,93.5266 L -522.377,93.5471
 L -522.286,93.5734 L -522.198,93.6053 L -522.111,93.6428 L -522.027,93.6855 L -521.946,93.7335 L -521.868,93.7865
 L -521.794,93.8442 L -521.723,93.9065 L -521.657,93.9732 L -521.594,94.0439 L -521.536,94.1183 L -521.484,94.1963
 L -521.436,94.2774 L -521.393,94.3613 L -521.355,94.4478 L -521.323,94.5365 L -521.297,94.627 L -521.277,94.7189
 L -521.262,94.812 L -521.253,94.9058 L -521.25,95 L -521.253,95.0942 L -521.262,95.188 L -521.277,95.2811
 L -521.297,95.373 L -521.323,95.4635 L -521.355,95.5522 L -521.393,95.6387 L -521.436,95.7226 L -521.484,95.8037
 L -521.536,95.8817 L -521.594,95.9561 L -521.657,96.0268 L -521.723,96.0935 L -521.794,96.1558 L -521.868,96.2135
 L -521.946,96.2665 L -522.027,96.3145 L -522.111,96.3572 L -522.198,96.3947 L -522.286,96.4266 L -522.377,96.4529
 L -522.469,96.4734 L -522.562,96.4882 L -522.656,96.497 L -522.75,96.5 L -522.844,96.497 L -522.938,96.4882
 L -523.031,96.4734 L -523.123,96.4529 L -523.214,96.4266 L -523.302,96.3947 L -523.389,96.3572 L -523.473,96.3145
 L -523.554,96.2665 L -523.632,96.2135 L -523.706,96.1558 L -523.777,96.0935 L -523.843,96.0268 L -523.906,95.9561
 L -523.964,95.8817 L -524.016,95.8037 L -524.064,95.7226 L -524.107,95.6387 L -524.145,95.5522 L -524.177,95.4635
 L -524.203,95.373 L -524.223,95.2811 L -524.238,95.188 L -524.247,95.0942 z
M -524.25,-95 L -524.247,-95.0942 L -524.238,-95.188 L -524.223,-95.2811 L -524.203,-95.373 L -524.177,-95.4635
 L -524.145,-95.5522 L -524.107,-95.6387 L -524.064,-95.7226 L -524.016,-95.8037 L -523.964,-95.8817 L -523.906,-95.9561
 L -523.843,-96.0268 L -523.777,-96.0935 L -523.706,-96.1558 L -523.632,-96.2135 L -523.554,-96.2665 L -523.473,-96.3145
 L -523.389,-96.3572 L -523.302,-96.3947 L -523.214,-96.4266 L -523.123,-96.4529 L -523.031,-96.4734 L -522.938,-96.4882
 L -522.844,-96.497 L -522.75,-96.5 L -522.656,-96.497 L -522.562,-96.4882 L -522.469,-96.4734 L -522.377,-96.4529
 L -522.286,-96.4266 L -522.198,-96.3947 L -522.111,-96.3572 L -522.027,-96.3145 L -521.946,-96.2665 L -521.868,-96.2135
 L -521.794,-96.1558 L -521.723,-96.0935 L -521.657,-96.0268 L -521.594,-95.9561 L -521.536,-95.8817 L -521.484,-95.8037
 L -521.436,-95.7226 L -521.393,-95.6387 L -521.355,-95.5522 L -521.323,-95.4635 L -521.297,-95.373 L -521.277,-95.2811
 L -521.262,-95.188 L -521.253,-95.0942 L -521.25,-95 L -521.253,-94.9058 L -521.262,-94.812 L -521.277,-94.7189
 L -521.297,-94.627 L -521.323,-94.5365 L -521.355,-94.4478 L -521.393,-94.3613 L -521.436,-94.2774 L -521.484,-94.1963
 L -521.536,-94.1183 L -521.594,-94.0439 L -521.657,-93.9732 L -521.723,-93.9065 L -521.794,-93.8442 L -521.868,-93.7865
 L -521.946,-93.7335 L -522.027,-93.6855 L -522.111,-93.6428 L -522.198,-93.6053 L -522.286,-93.5734 L -522.377,-93.5471
 L -522.469,-93.5266 L -522.562,-93.5118 L -522.656,-93.503 L -522.75,-93.5 L -522.844,-93.503 L -522.938,-93.5118
 L -523.031,-93.5266 L -523.123,-93.5471 L -523.214,-93.5734 L -523.302,-93.6053 L -523.389,-93.6428 L -523.473,-93.6855
 L -523.554,-93.7335 L -523.632,-93.7865 L -523.706,-93.8442 L -523.777,-93.9065 L -523.843,-93.9732 L -523.906,-94.0439
 L -523.964,-94.1183 L -524.016,-94.1963 L -524.064,-94.2774 L -524.107,-94.3613 L -524.145,-94.4478 L -524.177,-94.5365
 L -524.203,-94.627 L -524.223,-94.7189 L -524.238,-94.812 L -524.247,-94.9058 z
M -524.25,-190 L -524.247,-190.094 L -524.238,-190.188 L -524.223,-190.281 L -524.203,-190.373 L -524.177,-190.464
 L -524.145,-190.552 L -524.107,-190.639 L -524.064,-190.723 L -524.016,-190.804 L -523.964,-190.882 L -523.906,-190.956
 L -523.843,-191.027 L -523.777,-191.093 L -523.706,-191.156 L -523.632,-191.214 L -523.554,-191.266 L -523.473,-191.314
 L -523.389,-191.357 L -523.302,-191.395 L -523.214,-191.427 L -523.123,-191.453 L -523.031,-191.473 L -522.938,-191.488
 L -522.844,-191.497 L -522.75,-191.5 L -522.656,-191.497 L -522.562,-191.488 L -522.469,-191.473 L -522.377,-191.453
 L -522.286,-191.427 L -522.198,-191.395 L -522.111,-191.357 L -522.027,-191.314 L -521.946,-191.266 L -521.868,-191.214
 L -521.794,-191.156 L -521.723,-191.093 L -521.657,-191.027 L -521.594,-190.956 L -521.536,-190.882 L -521.484,-190.804
 L -521.436,-190.723 L -521.393,-190.639 L -521.355,-190.552 L -521.323,-190.464 L -521.297,-190.373 L -521.277,-190.281
 L -521.262,-190.188 L -521.253,-190.094 L -521.25,-190 L -521.253,-189.906 L -521.262,-189.812 L -521.277,-189.719
 L -521.297,-189.627 L -521.323,-189.536 L -521.355,-189.448 L -521.393,-189.361 L -521.436,-189.277 L -521.484,-189.196
 L -521.536,-189.118 L -521.594,-189.044 L -521.657,-188.973 L -521.723,-188.907 L -521.794,-188.844 L -521.868,-188.786
 L -521.946,-188.734 L -522.027,-188.686 L -522.111,-188.643 L -522.198,-188.605 L -522.286,-188.573 L -522.377,-188.547
 L -522.469,-188.527 L -522.562,-188.512 L -522.656,-188.503 L -522.75,-188.5 L -522.844,-188.503 L -522.938,-188.512
 L -523.031,-188.527 L -523.123,-188.547 L -523.214,-188.573 L -523.302,-188.605 L -523.389,-188.643 L -523.473,-188.686
 L -523.554,-188.734 L -523.632,-188.786 L -523.706,-188.844 L -523.777,-188.907 L -523.843,-188.973 L -523.906,-189.044
 L -523.964,-189.118 L -524.016,-189.196 L -524.064,-189.277 L -524.107,-189.361 L -524.145,-189.448 L -524.177,-189.536
 L -524.203,-189.627 L -524.223,-189.719 L -524.238,-189.812 L -524.247,-189.906 z
M -391.375,200 L -391.372,199.906 L -391.363,199.812 L -391.348,199.719 L -391.328,199.627 L -391.302,199.536
 L -391.27,199.448 L -391.232,199.361 L -391.189,199.277 L -391.141,199.196 L -391.089,199.118 L -391.031,199.044
 L -390.968,198.973 L -390.902,198.907 L -390.831,198.844 L -390.757,198.786 L -390.679,198.734 L -390.598,198.686
 L -390.514,198.643 L -390.427,198.605 L -390.339,198.573 L -390.248,198.547 L -390.156,198.527 L -390.063,198.512
 L -389.969,198.503 L -389.875,198.5 L -389.781,198.503 L -389.687,198.512 L -389.594,198.527 L -389.502,198.547
 L -389.411,198.573 L -389.323,198.605 L -389.236,198.643 L -389.152,198.686 L -389.071,198.734 L -388.993,198.786
 L -388.919,198.844 L -388.848,198.907 L -388.782,198.973 L -388.719,199.044 L -388.661,199.118 L -388.609,199.196
 L -388.561,199.277 L -388.518,199.361 L -388.48,199.448 L -388.448,199.536 L -388.422,199.627 L -388.402,199.719
 L -388.387,199.812 L -388.378,199.906 L -388.375,200 L -388.378,200.094 L -388.387,200.188 L -388.402,200.281
 L -388.422,200.373 L -388.448,200.464 L -388.48,200.552 L -388.518,200.639 L -388.561,200.723 L -388.609,200.804
 L -388.661,200.882 L -388.719,200.956 L -388.782,201.027 L -388.848,201.093 L -388.919,201.156 L -388.993,201.214
 L -389.071,201.266 L -389.152,201.314 L -389.236,201.357 L -389.323,201.395 L -389.411,201.427 L -389.502,201.453
 L -389.594,201.473 L -389.687,201.488 L -389.781,201.497 L -389.875,201.5 L -389.969,201.497 L -390.063,201.488
 L -390.156,201.473 L -390.248,201.453 L -390.339,201.427 L -390.427,201.395 L -390.514,201.357 L -390.598,201.314
 L -390.679,201.266 L -390.757,201.214 L -390.831,201.156 L -390.902,201.093 L -390.968,201.027 L -391.031,200.956
 L -391.089,200.882 L -391.141,200.804 L -391.189,200.723 L -391.232,200.639 L -391.27,200.552 L -391.302,200.464
 L -391.328,200.373 L -391.348,200.281 L -391.363,200.188 L -391.372,200.094 z
M -391.375,-190 L -391.372,-190.094 L -391.363,-190.188 L -391.348,-190.281 L -391.328,-190.373 L -391.302,-190.464
 L -391.27,-190.552 L -391.232,-190.639 L -391.189,-190.723 L -391.141,-190.804 L -391.089,-190.882 L -391.031,-190.956
 L -390.968,-191.027 L -390.902,-191.093 L -390.831,-191.156 L -390.757,-191.214 L -390.679,-191.266 L -390.598,-191.314
 L -390.514,-191.357 L -390.427,-191.395 L -390.339,-191.427 L -390.248,-191.453 L -390.156,-191.473 L -390.063,-191.488
 L -389.969,-191.497 L -389.875,-191.5 L -389.781,-191.497 L -389.687,-191.488 L -389.594,-191.473 L -389.502,-191.453
 L -389.411,-191.427 L -389.323,-191.395 L -389.236,-191.357 L -389.152,-191.314 L -389.071,-191.266 L -388.993,-191.214
 L -388.919,-191.156 L -388.848,-191.093 L -388.782,-191.027 L -388.719,-190.956 L -388.661,-190.882 L -388.609,-190.804
 L -388.561,-190.723 L -388.518,-190.639 L -388.48,-190.552 L -388.448,-190.464 L -388.422,-190.373 L -388.402,-190.281
 L -388.387,-190.188 L -388.378,-190.094 L -388.375,-190 L -388.378,-189.906 L -388.387,-189.812 L -388.402,-189.719
 L -388.422,-189.627 L -388.448,-189.536 L -388.48,-189.448 L -388.518,-189.361 L -388.561,-189.277 L -388.609,-189.196
 L -388.661,-189.118 L -388.719,-189.044 L -388.782,-188.973 L -388.848,-188.907 L -388.919,-188.844 L -388.993,-188.786
 L -389.071,-188.734 L -389.152,-188.686 L -389.236,-188.643 L -389.323,-188.605 L -389.411,-188.573 L -389.502,-188.547
 L -389.594,-188.527 L -389.687,-188.512 L -389.781,-188.503 L -389.875,-188.5 L -389.969,-188.503 L -390.063,-188.512
 L -390.156,-188.527 L -390.248,-188.547 L -390.339,-188.573 L -390.427,-188.605 L -390.514,-188.643 L -390.598,-188.686
 L -390.679,-188.734 L -390.757,-188.786 L -390.831,-188.844 L -390.902,-188.907 L -390.968,-188.973 L -391.031,-189.044
 L -391.089,-189.118 L -391.141,-189.196 L -391.189,-189.277 L -391.232,-189.361 L -391.27,-189.448 L -391.302,-189.536
 L -391.328,-189.627 L -391.348,-189.719 L -391.363,-189.812 L -391.372,-189.906 z
M -258.5,200 L -258.497,199.906 L -258.488,199.812 L -258.473,199.719 L -258.453,199.627 L -258.427,199.536
 L -258.395,199.448 L -258.357,199.361 L -258.314,199.277 L -258.266,199.196 L -258.214,199.118 L -258.156,199.044
 L -258.093,198.973 L -258.027,198.907 L -257.956,198.844 L -257.882,198.786 L -257.804,198.734 L -257.723,198.686
 L -257.639,198.643 L -257.552,198.605 L -257.464,198.573 L -257.373,198.547 L -257.281,198.527 L -257.188,198.512
 L -257.094,198.503 L -257,198.5 L -256.906,198.503 L -256.812,198.512 L -256.719,198.527 L -256.627,198.547
 L -256.536,198.573 L -256.448,198.605 L -256.361,198.643 L -256.277,198.686 L -256.196,198.734 L -256.118,198.786
 L -256.044,198.844 L -255.973,198.907 L -255.907,198.973 L -255.844,199.044 L -255.786,199.118 L -255.734,199.196
 L -255.686,199.277 L -255.643,199.361 L -255.605,199.448 L -255.573,199.536 L -255.547,199.627 L -255.527,199.719
 L -255.512,199.812 L -255.503,199.906 L -255.5,200 L -255.503,200.094 L -255.512,200.188 L -255.527,200.281
 L -255.547,200.373 L -255.573,200.464 L -255.605,200.552 L -255.643,200.639 L -255.686,200.723 L -255.734,200.804
 L -255.786,200.882 L -255.844,200.956 L -255.907,201.027 L -255.973,201.093 L -256.044,201.156 L -256.118,201.214
 L -256.196,201.266 L -256.277,201.314 L -256.361,201.357 L -256.448,201.395 L -256.536,201.427 L -256.627,201.453
 L -256.719,201.473 L -256.812,201.488 L -256.906,201.497 L -257,201.5 L -257.094,201.497 L -257.188,201.488
 L -257.281,201.473 L -257.373,201.453 L -257.464,201.427 L -257.552,201.395 L -257.639,201.357 L -257.723,201.314
 L -257.804,201.266 L -257.882,201.214 L -257.956,201.156 L -258.027,201.093 L -258.093,201.027 L -258.156,200.956
 L -258.214,200.882 L -258.266,200.804 L -258.314,200.723 L -258.357,200.639 L -258.395,200.552 L -258.427,200.464
 L -258.453,200.373 L -258.473,200.281 L -258.488,200.188 L -258.497,200.094 z
M -258.5,-190 L -258.497,-190.094 L -258.488,-190.188 L -258.473,-190.281 L -258.453,-190.373 L -258.427,-190.464
 L -258.395,-190.552 L -258.357,-190.639 L -258.314,-190.723 L -258.266,-190.804 L -258.214,-190.882 L -258.156,-190.956
 L -258.093,-191.027 L -258.027,-191.093 L -257.956,-191.156 L -257.882,-191.214 L -257.804,-191.266 L -257.723,-191.314
 L -257.639,-191.357 L -257.552,-191.395 L -257.464,-191.427 L -257.373,-191.453 L -257.281,-191.473 L -257.188,-191.488
 L -257.094,-191.497 L -257,-191.5 L -256.906,-191.497 L -256.812,-191.488 L -256.719,-191.473 L -256.627,-191.453
 L -256.536,-191.427 L -256.448,-191.395 L -256.361,-191.357 L -256.277,-191.314 L -256.196,-191.266 L -256.118,-191.214
 L -256.044,-191.156 L -255.973,-191.093 L -255.907,-191.027 L -255.844,-190.956 L -255.786,-190.882 L -255.734,-190.804
 L -255.686,-190.723 L -255.643,-190.639 L -255.605,-190.552 L -255.573,-190.464 L -255.547,-190.373 L -255.527,-190.281
 L -255.512,-190.188 L -255.503,-190.094 L -255.5,-190 L -255.503,-189.906 L -255.512,-189.812 L -255.527,-189.719
 L -255.547,-189.627 L -255.573,-189.536 L -255.605,-189.448 L -255.643,-189.361 L -255.686,-189.277 L -255.734,-189.196
 L -255.786,-189.118 L -255.844,-189.044 L -255.907,-188.973 L -255.973,-188.907 L -256.044,-188.844 L -256.118,-188.786
 L -256.196,-188.734 L -256.277,-188.686 L -256.361,-188.643 L -256.448,-188.605 L -256.536,-188.573 L -256.627,-188.547
 L -256.719,-188.527 L -256.812,-188.512 L -256.906,-188.503 L -257,-188.5 L -257.094,-188.503 L -257.188,-188.512
 L -257.281,-188.527 L -257.373,-188.547 L -257.464,-188.573 L -257.552,-188.605 L -257.639,-188.643 L -257.723,-188.686
 L -257.804,-188.734 L -257.882,-188.786 L -257.956,-188.844 L -258.027,-188.907 L -258.093,-188.973 L -258.156,-189.044
 L -258.214,-189.118 L -258.266,-189.196 L -258.314,-189.277 L -258.357,-189.361 L -258.395,-189.448 L -258.427,-189.536
 L -258.453,-189.627 L -258.473,-189.719 L -258.488,-189.812 L -258.497,-189.906 z
M -156.816,45 L -156.813,44.9058 L -156.804,44.812 L -156.79,44.7189 L -156.769,44.627 L -156.743,44.5365
 L -156.711,44.4478 L -156.674,44.3613 L -156.631,44.2774 L -156.583,44.1963 L -156.53,44.1183 L -156.472,44.0439
 L -156.41,43.9732 L -156.343,43.9065 L -156.272,43.8442 L -156.198,43.7865 L -156.12,43.7335 L -156.039,43.6855
 L -155.955,43.6428 L -155.868,43.6053 L -155.78,43.5734 L -155.689,43.5471 L -155.597,43.5266 L -155.504,43.5118
 L -155.41,43.503 L -155.316,43.5 L -155.222,43.503 L -155.128,43.5118 L -155.035,43.5266 L -154.943,43.5471
 L -154.853,43.5734 L -154.764,43.6053 L -154.678,43.6428 L -154.594,43.6855 L -154.513,43.7335 L -154.435,43.7865
 L -154.36,43.8442 L -154.289,43.9065 L -154.223,43.9732 L -154.161,44.0439 L -154.103,44.1183 L -154.05,44.1963
 L -154.002,44.2774 L -153.959,44.3613 L -153.922,44.4478 L -153.89,44.5365 L -153.863,44.627 L -153.843,44.7189
 L -153.828,44.812 L -153.819,44.9058 L -153.816,45 L -153.819,45.0942 L -153.828,45.188 L -153.843,45.2811
 L -153.863,45.373 L -153.89,45.4635 L -153.922,45.5522 L -153.959,45.6387 L -154.002,45.7226 L -154.05,45.8037
 L -154.103,45.8817 L -154.161,45.9561 L -154.223,46.0268 L -154.289,46.0935 L -154.36,46.1558 L -154.435,46.2135
 L -154.513,46.2665 L -154.594,46.3145 L -154.678,46.3572 L -154.764,46.3947 L -154.853,46.4266 L -154.943,46.4529
 L -155.035,46.4734 L -155.128,46.4882 L -155.222,46.497 L -155.316,46.5 L -155.41,46.497 L -155.504,46.4882
 L -155.597,46.4734 L -155.689,46.4529 L -155.78,46.4266 L -155.868,46.3947 L -155.955,46.3572 L -156.039,46.3145
 L -156.12,46.2665 L -156.198,46.2135 L -156.272,46.1558 L -156.343,46.0935 L -156.41,46.0268 L -156.472,45.9561
 L -156.53,45.8817 L -156.583,45.8037 L -156.631,45.7226 L -156.674,45.6387 L -156.711,45.5522 L -156.743,45.4635
 L -156.769,45.373 L -156.79,45.2811 L -156.804,45.188 L -156.813,45.0942 z
M -156.816,-45 L -156.813,-45.0942 L -156.804,-45.188 L -156.79,-45.2811 L -156.769,-45.373 L -156.743,-45.4635
 L -156.711,-45.5522 L -156.674,-45.6387 L -156.631,-45.7226 L -156.583,-45.8037 L -156.53,-45.8817 L -156.472,-45.9561
 L -156.41,-46.0268 L -156.343,-46.0935 L -156.272,-46.1558 L -156.198,-46.2135 L -156.12,-46.2665 L -156.039,-46.3145
 L -155.955,-46.3572 L -155.868,-46.3947 L -155.78,-46.4266 L -155.689,-46.4529 L -155.597,-46.4734 L -155.504,-46.4882
 L -155.41,-46.497 L -155.316,-46.5 L -155.222,-46.497 L -155.128,-46.4882 L -155.035,-46.4734 L -154.943,-46.4529
 L -154.853,-46.4266 L -154.764,-46.3947 L -154.678,-46.3572 L -154.594,-46.3145 L -154.513,-46.2665 L -154.435,-46.2135
 L -154.36,-46.1558 L -154.289,-46.0935 L -154.223,-46.0268 L -154.161,-45.9561 L -154.103,-45.8817 L -154.05,-45.8037
 L -154.002,-45.7226 L -153.959,-45.6387 L -153.922,-45.5522 L -153.89,-45.4635 L -153.863,-45.373 L -153.843,-45.2811
 L -153.828,-45.188 L -153.819,-45.0942 L -153.816,-45 L -153.819,-44.9058 L -153.828,-44.812 L -153.843,-44.7189
 L -153.863,-44.627 L -153.89,-44.5365 L -153.922,-44.4478 L -153.959,-44.3613 L -154.002,-44.2774 L -154.05,-44.1963
 L -154.103,-44.1183 L -154.161,-44.0439 L -154.223,-43.9732 L -154.289,-43.9065 L -154.36,-43.8442 L -154.435,-43.7865
 L -154.513,-43.7335 L -154.594,-43.6855 L -154.678,-43.6428 L -154.764,-43.6053 L -154.853,-43.5734 L -154.943,-43.5471
 L -155.035,-43.5266 L -155.128,-43.5118 L -155.222,-43.503 L -155.316,-43.5 L -155.41,-43.503 L -155.504,-43.5118
 L -155.597,-43.5266 L -155.689,-43.5471 L -155.78,-43.5734 L -155.868,-43.6053 L -155.955,-43.6428 L -156.039,-43.6855
 L -156.12,-43.7335 L -156.198,-43.7865 L -156.272,-43.8442 L -156.343,-43.9065 L -156.41,-43.9732 L -156.472,-44.0439
 L -156.53,-44.1183 L -156.583,-44.1963 L -156.631,-44.2774 L -156.674,-44.3613 L -156.711,-44.4478 L -156.743,-44.5365
 L -156.769,-44.627 L -156.79,-44.7189 L -156.804,-44.812 L -156.813,-44.9058 z
M -125.625,200 L -125.622,199.906 L -125.613,199.812 L -125.598,199.719 L -125.578,199.627 L -125.552,199.536
 L -125.52,199.448 L -125.482,199.361 L -125.439,199.277 L -125.391,199.196 L -125.339,199.118 L -125.281,199.044
 L -125.218,198.973 L -125.152,198.907 L -125.081,198.844 L -125.007,198.786 L -124.929,198.734 L -124.848,198.686
 L -124.764,198.643 L -124.677,198.605 L -124.589,198.573 L -124.498,198.547 L -124.406,198.527 L -124.313,198.512
 L -124.219,198.503 L -124.125,198.5 L -124.031,198.503 L -123.937,198.512 L -123.844,198.527 L -123.752,198.547
 L -123.661,198.573 L -123.573,198.605 L -123.486,198.643 L -123.402,198.686 L -123.321,198.734 L -123.243,198.786
 L -123.169,198.844 L -123.098,198.907 L -123.032,198.973 L -122.969,199.044 L -122.911,199.118 L -122.859,199.196
 L -122.811,199.277 L -122.768,199.361 L -122.73,199.448 L -122.698,199.536 L -122.672,199.627 L -122.652,199.719
 L -122.637,199.812 L -122.628,199.906 L -122.625,200 L -122.628,200.094 L -122.637,200.188 L -122.652,200.281
 L -122.672,200.373 L -122.698,200.464 L -122.73,200.552 L -122.768,200.639 L -122.811,200.723 L -122.859,200.804
 L -122.911,200.882 L -122.969,200.956 L -123.032,201.027 L -123.098,201.093 L -123.169,201.156 L -123.243,201.214
 L -123.321,201.266 L -123.402,201.314 L -123.486,201.357 L -123.573,201.395 L -123.661,201.427 L -123.752,201.453
 L -123.844,201.473 L -123.937,201.488 L -124.031,201.497 L -124.125,201.5 L -124.219,201.497 L -124.313,201.488
 L -124.406,201.473 L -124.498,201.453 L -124.589,201.427 L -124.677,201.395 L -124.764,201.357 L -124.848,201.314
 L -124.929,201.266 L -125.007,201.214 L -125.081,201.156 L -125.152,201.093 L -125.218,201.027 L -125.281,200.956
 L -125.339,200.882 L -125.391,200.804 L -125.439,200.723 L -125.482,200.639 L -125.52,200.552 L -125.552,200.464
 L -125.578,200.373 L -125.598,200.281 L -125.613,200.188 L -125.622,200.094 z
M -125.625,-190 L -125.622,-190.094 L -125.613,-190.188 L -125.598,-190.281 L -125.578,-190.373 L -125.552,-190.464
 L -125.52,-190.552 L -125.482,-190.639 L -125.439,-190.723 L -125.391,-190.804 L -125.339,-190.882 L -125.281,-190.956
 L -125.218,-191.027 L -125.152,-191.093 L -125.081,-191.156 L -125.007,-191.214 L -124.929,-191.266 L -124.848,-191.314
 L -124.764,-191.357 L -124.677,-191.395 L -124.589,-191.427 L -124.498,-191.453 L -124.406,-191.473 L -124.313,-191.488
 L -124.219,-191.497 L -124.125,-191.5 L -124.031,-191.497 L -123.937,-191.488 L -123.844,-191.473 L -123.752,-191.453
 L -123.661,-191.427 L -123.573,-191.395 L -123.486,-191.357 L -123.402,-191.314 L -123.321,-191.266 L -123.243,-191.214
 L -123.169,-191.156 L -123.098,-191.093 L -123.032,-191.027 L -122.969,-190.956 L -122.911,-190.882 L -122.859,-190.804
 L -122.811,-190.723 L -122.768,-190.639 L -122.73,-190.552 L -122.698,-190.464 L -122.672,-190.373 L -122.652,-190.281
 L -122.637,-190.188 L -122.628,-190.094 L -122.625,-190 L -122.628,-189.906 L -122.637,-189.812 L -122.652,-189.719
 L -122.672,-189.627 L -122.698,-189.536 L -122.73,-189.448 L -122.768,-189.361 L -122.811,-189.277 L -122.859,-189.196
 L -122.911,-189.118 L -122.969,-189.044 L -123.032,-188.973 L -123.098,-188.907 L -123.169,-188.844 L -123.243,-188.786
 L -123.321,-188.734 L -123.402,-188.686 L -123.486,-188.643 L -123.573,-188.605 L -123.661,-188.573 L -123.752,-188.547
 L -123.844,-188.527 L -123.937,-188.512 L -124.031,-188.503 L -124.125,-188.5 L -124.219,-188.503 L -124.313,-188.512
 L -124.406,-188.527 L -124.498,-188.547 L -124.589,-188.573 L -124.677,-188.605 L -124.764,-188.643 L -124.848,-188.686
 L -124.929,-188.734 L -125.007,-188.786 L -125.081,-188.844 L -125.152,-188.907 L -125.218,-188.973 L -125.281,-189.044
 L -125.339,-189.118 L -125.391,-189.196 L -125.439,-189.277 L -125.482,-189.361 L -125.52,-189.448 L -125.552,-189.536
 L -125.578,-189.627 L -125.598,-189.719 L -125.613,-189.812 L -125.622,-189.906 z
M -52.35,45 L -52.347,44.9058 L -52.3382,44.812 L -52.3234,44.7189 L -52.3029,44.627 L -52.2766,44.5365
 L -52.2447,44.4478 L -52.2072,44.3613 L -52.1645,44.2774 L -52.1165,44.1963 L -52.0635,44.1183 L -52.0058,44.0439
 L -51.9435,43.9732 L -51.8768,43.9065 L -51.8061,43.8442 L -51.7317,43.7865 L -51.6537,43.7335 L -51.5726,43.6855
 L -51.4887,43.6428 L -51.4022,43.6053 L -51.3135,43.5734 L -51.223,43.5471 L -51.1311,43.5266 L -51.038,43.5118
 L -50.9442,43.503 L -50.85,43.5 L -50.7558,43.503 L -50.662,43.5118 L -50.5689,43.5266 L -50.477,43.5471
 L -50.3865,43.5734 L -50.2978,43.6053 L -50.2113,43.6428 L -50.1274,43.6855 L -50.0463,43.7335 L -49.9683,43.7865
 L -49.8939,43.8442 L -49.8232,43.9065 L -49.7565,43.9732 L -49.6942,44.0439 L -49.6365,44.1183 L -49.5835,44.1963
 L -49.5355,44.2774 L -49.4928,44.3613 L -49.4553,44.4478 L -49.4234,44.5365 L -49.3971,44.627 L -49.3766,44.7189
 L -49.3618,44.812 L -49.353,44.9058 L -49.35,45 L -49.353,45.0942 L -49.3618,45.188 L -49.3766,45.2811
 L -49.3971,45.373 L -49.4234,45.4635 L -49.4553,45.5522 L -49.4928,45.6387 L -49.5355,45.7226 L -49.5835,45.8037
 L -49.6365,45.8817 L -49.6942,45.9561 L -49.7565,46.0268 L -49.8232,46.0935 L -49.8939,46.1558 L -49.9683,46.2135
 L -50.0463,46.2665 L -50.1274,46.3145 L -50.2113,46.3572 L -50.2978,46.3947 L -50.3865,46.4266 L -50.477,46.4529
 L -50.5689,46.4734 L -50.662,46.4882 L -50.7558,46.497 L -50.85,46.5 L -50.9442,46.497 L -51.038,46.4882
 L -51.1311,46.4734 L -51.223,46.4529 L -51.3135,46.4266 L -51.4022,46.3947 L -51.4887,46.3572 L -51.5726,46.3145
 L -51.6537,46.2665 L -51.7317,46.2135 L -51.8061,46.1558 L -51.8768,46.0935 L -51.9435,46.0268 L -52.0058,45.9561
 L -52.0635,45.8817 L -52.1165,45.8037 L -52.1645,45.7226 L -52.2072,45.6387 L -52.2447,45.5522 L -52.2766,45.4635
 L -52.3029,45.373 L -52.3234,45.2811 L -52.3382,45.188 L -52.347,45.0942 z
M -52.35,-45 L -52.347,-45.0942 L -52.3382,-45.188 L -52.3234,-45.2811 L -52.3029,-45.373 L -52.2766,-45.4635
 L -52.2447,-45.5522 L -52.2072,-45.6387 L -52.1645,-45.7226 L -52.1165,-45.8037 L -52.0635,-45.8817 L -52.0058,-45.9561
 L -51.9435,-46.0268 L -51.8768,-46.0935 L -51.8061,-46.1558 L -51.7317,-46.2135 L -51.6537,-46.2665 L -51.5726,-46.3145
 L -51.4887,-46.3572 L -51.4022,-46.3947 L -51.3135,-46.4266 L -51.223,-46.4529 L -51.1311,-46.4734 L -51.038,-46.4882
 L -50.9442,-46.497 L -50.85,-46.5 L -50.7558,-46.497 L -50.662,-46.4882 L -50.5689,-46.4734 L -50.477,-46.4529
 L -50.3865,-46.4266 L -50.2978,-46.3947 L -50.2113,-46.3572 L -50.1274,-46.3145 L -50.0463,-46.2665 L -49.9683,-46.2135
 L -49.8939,-46.1558 L -49.8232,-46.0935 L -49.7565,-46.0268 L -49.6942,-45.9561 L -49.6365,-45.8817 L -49.5835,-45.8037
 L -49.5355,-45.7226 L -49.4928,-45.6387 L -49.4553,-45.5522 L -49.4234,-45.4635 L -49.3971,-45.373 L -49.3766,-45.2811
 L -49.3618,-45.188 L -49.353,-45.0942 L -49.35,-45 L -49.353,-44.9058 L -49.3618,-44.812 L -49.3766,-44.7189
 L -49.3971,-44.627 L -49.4234,-44.5365 L -49.4553,-44.4478 L -49.4928,-44.3613 L -49.5355,-44.2774 L -49.5835,-44.1963
 L -49.6365,-44.1183 L -49.6942,-44.0439 L -49.7565,-43.9732 L -49.8232,-43.9065 L -49.8939,-43.8442 L -49.9683,-43.7865
 L -50.0463,-43.7335 L -50.1274,-43.6855 L -50.2113,-43.6428 L -50.2978,-43.6053 L -50.3865,-43.5734 L -50.477,-43.5471
 L -50.5689,-43.5266 L -50.662,-43.5118 L -50.7558,-43.503 L -50.85,-43.5 L -50.9442,-43.503 L -51.038,-43.5118
 L -51.1311,-43.5266 L -51.223,-43.5471 L -51.3135,-43.5734 L -51.4022,-43.6053 L -51.4887,-43.6428 L -51.5726,-43.6855
 L -51.6537,-43.7335 L -51.7317,-43.7865 L -51.8061,-43.8442 L -51.8768,-43.9065 L -51.9435,-43.9732 L -52.0058,-44.0439
 L -52.0635,-44.1183 L -52.1165,-44.1963 L -52.1645,-44.2774 L -52.2072,-44.3613 L -52.2447,-44.4478 L -52.2766,-44.5365
 L -52.3029,-44.627 L -52.3234,-44.7189 L -52.3382,-44.812 L -52.347,-44.9058 z
M 7.25,200 L 7.25296,199.906 L 7.26183,199.812 L 7.27657,199.719 L 7.29712,199.627 L 7.32341,199.536
 L 7.35534,199.448 L 7.39276,199.361 L 7.43554,199.277 L 7.48351,199.196 L 7.53647,199.118 L 7.59423,199.044
 L 7.65655,198.973 L 7.72318,198.907 L 7.79386,198.844 L 7.86832,198.786 L 7.94626,198.734 L 8.02737,198.686
 L 8.11133,198.643 L 8.19781,198.605 L 8.28647,198.573 L 8.37696,198.547 L 8.46893,198.527 L 8.562,198.512
 L 8.65581,198.503 L 8.75,198.5 L 8.84418,198.503 L 8.938,198.512 L 9.03107,198.527 L 9.12303,198.547
 L 9.21352,198.573 L 9.30219,198.605 L 9.38867,198.643 L 9.47263,198.686 L 9.55374,198.734 L 9.63168,198.786
 L 9.70614,198.844 L 9.77682,198.907 L 9.84345,198.973 L 9.90577,199.044 L 9.96352,199.118 L 10.0165,199.196
 L 10.0645,199.277 L 10.1072,199.361 L 10.1447,199.448 L 10.1766,199.536 L 10.2029,199.627 L 10.2234,199.719
 L 10.2382,199.812 L 10.247,199.906 L 10.25,200 L 10.247,200.094 L 10.2382,200.188 L 10.2234,200.281
 L 10.2029,200.373 L 10.1766,200.464 L 10.1447,200.552 L 10.1072,200.639 L 10.0645,200.723 L 10.0165,200.804
 L 9.96352,200.882 L 9.90577,200.956 L 9.84345,201.027 L 9.77682,201.093 L 9.70614,201.156 L 9.63168,201.214
 L 9.55374,201.266 L 9.47263,201.314 L 9.38867,201.357 L 9.30219,201.395 L 9.21352,201.427 L 9.12303,201.453
 L 9.03107,201.473 L 8.938,201.488 L 8.84418,201.497 L 8.75,201.5 L 8.65581,201.497 L 8.562,201.488
 L 8.46893,201.473 L 8.37696,201.453 L 8.28647,201.427 L 8.19781,201.395 L 8.11133,201.357 L 8.02737,201.314
 L 7.94626,201.266 L 7.86832,201.214 L 7.79386,201.156 L 7.72318,201.093 L 7.65655,201.027 L 7.59423,200.956
 L 7.53647,200.882 L 7.48351,200.804 L 7.43554,200.723 L 7.39276,200.639 L 7.35534,200.552 L 7.32341,200.464
 L 7.29712,200.373 L 7.27657,200.281 L 7.26183,200.188 L 7.25296,200.094 z
M 7.25,127.5 L 7.25296,127.406 L 7.26183,127.312 L 7.27657,127.219 L 7.29712,127.127 L 7.32341,127.036
 L 7.35534,126.948 L 7.39276,126.861 L 7.43554,126.777 L 7.48351,126.696 L 7.53647,126.618 L 7.59423,126.544
 L 7.65655,126.473 L 7.72318,126.407 L 7.79386,126.344 L 7.86832,126.286 L 7.94626,126.234 L 8.02737,126.186
 L 8.11133,126.143 L 8.19781,126.105 L 8.28647,126.073 L 8.37696,126.047 L 8.46893,126.027 L 8.562,126.012
 L 8.65581,126.003 L 8.75,126 L 8.84418,126.003 L 8.938,126.012 L 9.03107,126.027 L 9.12303,126.047
 L 9.21352,126.073 L 9.30219,126.105 L 9.38867,126.143 L 9.47263,126.186 L 9.55374,126.234 L 9.63168,126.286
 L 9.70614,126.344 L 9.77682,126.407 L 9.84345,126.473 L 9.90577,126.544 L 9.96352,126.618 L 10.0165,126.696
 L 10.0645,126.777 L 10.1072,126.861 L 10.1447,126.948 L 10.1766,127.036 L 10.2029,127.127 L 10.2234,127.219
 L 10.2382,127.312 L 10.247,127.406 L 10.25,127.5 L 10.247,127.594 L 10.2382,127.688 L 10.2234,127.781
 L 10.2029,127.873 L 10.1766,127.964 L 10.1447,128.052 L 10.1072,128.139 L 10.0645,128.223 L 10.0165,128.304
 L 9.96352,128.382 L 9.90577,128.456 L 9.84345,128.527 L 9.77682,128.593 L 9.70614,128.656 L 9.63168,128.714
 L 9.55374,128.766 L 9.47263,128.814 L 9.38867,128.857 L 9.30219,128.895 L 9.21352,128.927 L 9.12303,128.953
 L 9.03107,128.973 L 8.938,128.988 L 8.84418,128.997 L 8.75,129 L 8.65581,128.997 L 8.562,128.988
 L 8.46893,128.973 L 8.37696,128.953 L 8.28647,128.927 L 8.19781,128.895 L 8.11133,128.857 L 8.02737,128.814
 L 7.94626,128.766 L 7.86832,128.714 L 7.79386,128.656 L 7.72318,128.593 L 7.65655,128.527 L 7.59423,128.456
 L 7.53647,128.382 L 7.48351,128.304 L 7.43554,128.223 L 7.39276,128.139 L 7.35534,128.052 L 7.32341,127.964
 L 7.29712,127.873 L 7.27657,127.781 L 7.26183,127.688 L 7.25296,127.594 z
M 7.25,45 L 7.25296,44.9058 L 7.26183,44.812 L 7.27657,44.7189 L 7.29712,44.627 L 7.32341,44.5365
 L 7.35534,44.4478 L 7.39276,44.3613 L 7.43554,44.2774 L 7.48351,44.1963 L 7.53647,44.1183 L 7.59423,44.0439
 L 7.65655,43.9732 L 7.72318,43.9065 L 7.79386,43.8442 L 7.86832,43.7865 L 7.94626,43.7335 L 8.02737,43.6855
 L 8.11133,43.6428 L 8.19781,43.6053 L 8.28647,43.5734 L 8.37696,43.5471 L 8.46893,43.5266 L 8.562,43.5118
 L 8.65581,43.503 L 8.75,43.5 L 8.84418,43.503 L 8.938,43.5118 L 9.03107,43.5266 L 9.12303,43.5471
 L 9.21352,43.5734 L 9.30219,43.6053 L 9.38867,43.6428 L 9.47263,43.6855 L 9.55374,43.7335 L 9.63168,43.7865
 L 9.70614,43.8442 L 9.77682,43.9065 L 9.84345,43.9732 L 9.90577,44.0439 L 9.96352,44.1183 L 10.0165,44.1963
 L 10.0645,44.2774 L 10.1072,44.3613 L 10.1447,44.4478 L 10.1766,44.5365 L 10.2029,44.627 L 10.2234,44.7189
 L 10.2382,44.812 L 10.247,44.9058 L 10.25,45 L 10.247,45.0942 L 10.2382,45.188 L 10.2234,45.2811
 L 10.2029,45.373 L 10.1766,45.4635 L 10.1447,45.5522 L 10.1072,45.6387 L 10.0645,45.7226 L 10.0165,45.8037
 L 9.96352,45.8817 L 9.90577,45.9561 L 9.84345,46.0268 L 9.77682,46.0935 L 9.70614,46.1558 L 9.63168,46.2135
 L 9.55374,46.2665 L 9.47263,46.3145 L 9.38867,46.3572 L 9.30219,46.3947 L 9.21352,46.4266 L 9.12303,46.4529
 L 9.03107,46.4734 L 8.938,46.4882 L 8.84418,46.497 L 8.75,46.5 L 8.65581,46.497 L 8.562,46.4882
 L 8.46893,46.4734 L 8.37696,46.4529 L 8.28647,46.4266 L 8.19781,46.3947 L 8.11133,46.3572 L 8.02737,46.3145
 L 7.94626,46.2665 L 7.86832,46.2135 L 7.79386,46.1558 L 7.72318,46.0935 L 7.65655,46.0268 L 7.59423,45.9561
 L 7.53647,45.8817 L 7.48351,45.8037 L 7.43554,45.7226 L 7.39276,45.6387 L 7.35534,45.5522 L 7.32341,45.4635
 L 7.29712,45.373 L 7.27657,45.2811 L 7.26183,45.188 L 7.25296,45.0942 z
M 7.25,-45 L 7.25296,-45.0942 L 7.26183,-45.188 L 7.27657,-45.2811 L 7.29712,-45.373 L 7.32341,-45.4635
 L 7.35534,-45.5522 L 7.39276,-45.6387 L 7.43554,-45.7226 L 7.48351,-45.8037 L 7.53647,-45.8817 L 7.59423,-45.9561
 L 7.65655,-46.0268 L 7.72318,-46.0935 L 7.79386,-46.1558 L 7.86832,-46.2135 L 7.94626,-46.2665 L 8.02737,-46.3145
 L 8.11133,-46.3572 L 8.19781,-46.3947 L 8.28647,-46.4266 L 8.37696,-46.4529 L 8.46893,-46.4734 L 8.562,-46.4882
 L 8.65581,-46.497 L 8.75,-46.5 L 8.84418,-46.497 L 8.938,-46.4882 L 9.03107,-46.4734 L 9.12303,-46.4529
 L 9.21352,-46.4266 L 9.30219,-46.3947 L 9.38867,-46.3572 L 9.47263,-46.3145 L 9.55374,-46.2665 L 9.63168,-46.2135
 L 9.70614,-46.1558 L 9.77682,-46.0935 L 9.84345,-46.0268 L 9.90577,-45.9561 L 9.96352,-45.8817 L 10.0165,-45.8037
 L 10.0645,-45.7226 L 10.1072,-45.6387 L 10.1447,-45.5522 L 10.1766,-45.4635 L 10.2029,-45.373 L 10.2234,-45.2811
 L 10.2382,-45.188 L 10.247,-45.0942 L 10.25,-45 L 10.247,-44.9058 L 10.2382,-44.812 L 10.2234,-44.7189
 L 10.2029,-44.627 L 10.1766,-44.5365 L 10.1447,-44.4478 L 10.1072,-44.3613 L 10.0645,-44.2774 L 10.0165,-44.1963
 L 9.96352,-44.1183 L 9.90577,-44.0439 L 9.84345,-43.9732 L 9.77682,-43.9065 L 9.70614,-43.8442 L 9.63168,-43.7865
 L 9.55374,-43.7335 L 9.47263,-43.6855 L 9.38867,-43.6428 L 9.30219,-43.6053 L 9.21352,-43.5734 L 9.12303,-43.5471
 L 9.03107,-43.5266 L 8.938,-43.5118 L 8.84418,-43.503 L 8.75,-43.5 L 8.65581,-43.503 L 8.562,-43.5118
 L 8.46893,-43.5266 L 8.37696,-43.5471 L 8.28647,-43.5734 L 8.19781,-43.6053 L 8.11133,-43.6428 L 8.02737,-43.6855
 L 7.94626,-43.7335 L 7.86832,-43.7865 L 7.79386,-43.8442 L 7.72318,-43.9065 L 7.65655,-43.9732 L 7.59423,-44.0439
 L 7.53647,-44.1183 L 7.48351,-44.1963 L 7.43554,-44.2774 L 7.39276,-44.3613 L 7.35534,-44.4478 L 7.32341,-44.5365
 L 7.29712,-44.627 L 7.27657,-44.7189 L 7.26183,-44.812 L 7.25296,-44.9058 z
M 7.25,-117.5 L 7.25296,-117.594 L 7.26183,-117.688 L 7.27657,-117.781 L 7.29712,-117.873 L 7.32341,-117.964
 L 7.35534,-118.052 L 7.39276,-118.139 L 7.43554,-118.223 L 7.48351,-118.304 L 7.53647,-118.382 L 7.59423,-118.456
 L 7.65655,-118.527 L 7.72318,-118.593 L 7.79386,-118.656 L 7.86832,-118.714 L 7.94626,-118.766 L 8.02737,-118.814
 L 8.11133,-118.857 L 8.19781,-118.895 L 8.28647,-118.927 L 8.37696,-118.953 L 8.46893,-118.973 L 8.562,-118.988
 L 8.65581,-118.997 L 8.75,-119 L 8.84418,-118.997 L 8.938,-118.988 L 9.03107,-118.973 L 9.12303,-118.953
 L 9.21352,-118.927 L 9.30219,-118.895 L 9.38867,-118.857 L 9.47263,-118.814 L 9.55374,-118.766 L 9.63168,-118.714
 L 9.70614,-118.656 L 9.77682,-118.593 L 9.84345,-118.527 L 9.90577,-118.456 L 9.96352,-118.382 L 10.0165,-118.304
 L 10.0645,-118.223 L 10.1072,-118.139 L 10.1447,-118.052 L 10.1766,-117.964 L 10.2029,-117.873 L 10.2234,-117.781
 L 10.2382,-117.688 L 10.247,-117.594 L 10.25,-117.5 L 10.247,-117.406 L 10.2382,-117.312 L 10.2234,-117.219
 L 10.2029,-117.127 L 10.1766,-117.036 L 10.1447,-116.948 L 10.1072,-116.861 L 10.0645,-116.777 L 10.0165,-116.696
 L 9.96352,-116.618 L 9.90577,-116.544 L 9.84345,-116.473 L 9.77682,-116.407 L 9.70614,-116.344 L 9.63168,-116.286
 L 9.55374,-116.234 L 9.47263,-116.186 L 9.38867,-116.143 L 9.30219,-116.105 L 9.21352,-116.073 L 9.12303,-116.047
 L 9.03107,-116.027 L 8.938,-116.012 L 8.84418,-116.003 L 8.75,-116 L 8.65581,-116.003 L 8.562,-116.012
 L 8.46893,-116.027 L 8.37696,-116.047 L 8.28647,-116.073 L 8.19781,-116.105 L 8.11133,-116.143 L 8.02737,-116.186
 L 7.94626,-116.234 L 7.86832,-116.286 L 7.79386,-116.344 L 7.72318,-116.407 L 7.65655,-116.473 L 7.59423,-116.544
 L 7.53647,-116.618 L 7.48351,-116.696 L 7.43554,-116.777 L 7.39276,-116.861 L 7.35534,-116.948 L 7.32341,-117.036
 L 7.29712,-117.127 L 7.27657,-117.219 L 7.26183,-117.312 L 7.25296,-117.406 z
M 7.25,-190 L 7.25296,-190.094 L 7.26183,-190.188 L 7.27657,-190.281 L 7.29712,-190.373 L 7.32341,-190.464
 L 7.35534,-190.552 L 7.39276,-190.639 L 7.43554,-190.723 L 7.48351,-190.804 L 7.53647,-190.882 L 7.59423,-190.956
 L 7.65655,-191.027 L 7.72318,-191.093 L 7.79386,-191.156 L 7.86832,-191.214 L 7.94626,-191.266 L 8.02737,-191.314
 L 8.11133,-191.357 L 8.19781,-191.395 L 8.28647,-191.427 L 8.37696,-191.453 L 8.46893,-191.473 L 8.562,-191.488
 L 8.65581,-191.497 L 8.75,-191.5 L 8.84418,-191.497 L 8.938,-191.488 L 9.03107,-191.473 L 9.12303,-191.453
 L 9.21352,-191.427 L 9.30219,-191.395 L 9.38867,-191.357 L 9.47263,-191.314 L 9.55374,-191.266 L 9.63168,-191.214
 L 9.70614,-191.156 L 9.77682,-191.093 L 9.84345,-191.027 L 9.90577,-190.956 L 9.96352,-190.882 L 10.0165,-190.804
 L 10.0645,-190.723 L 10.1072,-190.639 L 10.1447,-190.552 L 10.1766,-190.464 L 10.2029,-190.373 L 10.2234,-190.281
 L 10.2382,-190.188 L 10.247,-190.094 L 10.25,-190 L 10.247,-189.906 L 10.2382,-189.812 L 10.2234,-189.719
 L 10.2029,-189.627 L 10.1766,-189.536 L 10.1447,-189.448 L 10.1072,-189.361 L 10.0645,-189.277 L 10.0165,-189.196
 L 9.96352,-189.118 L 9.90577,-189.044 L 9.84345,-188.973 L 9.77682,-188.907 L 9.70614,-188.844 L 9.63168,-188.786
 L 9.55374,-188.734 L 9.47263,-188.686 L 9.38867,-188.643 L 9.30219,-188.605 L 9.21352,-188.573 L 9.12303,-188.547
 L 9.03107,-188.527 L 8.938,-188.512 L 8.84418,-188.503 L 8.75,-188.5 L 8.65581,-188.503 L 8.562,-188.512
 L 8.46893,-188.527 L 8.37696,-188.547 L 8.28647,-188.573 L 8.19781,-188.605 L 8.11133,-188.643 L 8.02737,-188.686
 L 7.94626,-188.734 L 7.86832,-188.786 L 7.79386,-188.844 L 7.72318,-188.907 L 7.65655,-188.973 L 7.59423,-189.044
 L 7.53647,-189.118 L 7.48351,-189.196 L 7.43554,-189.277 L 7.39276,-189.361 L 7.35534,-189.448 L 7.32341,-189.536
 L 7.29712,-189.627 L 7.27657,-189.719 L 7.26183,-189.812 L 7.25296,-189.906 z
" stroke="black" fill="lightgray" stroke-width="0.5"/>
</svg>
