  0
SECTION
  2
BLOCKS
  0
ENDSEC
  0
SECTION
  2
ENTITIES
  0
LINE
  8
0
 10
53
 20
75
 11
-147
 21
75
  0
LINE
  8
0
 10
-147
 20
75
 11
-147
 21
-75
  0
LINE
  8
0
 10
-147
 20
-75
 11
53
 21
-75
  0
LINE
  8
0
 10
53
 20
-75
 11
53
 21
75
  0
LINE
  8
0
 10
-42.2204
 20
22.1116
 11
-42.5894
 21
22.1465
  0
LINE
  8
0
 10
-42.5894
 20
22.1465
 11
-42.9555
 21
22.2045
  0
LINE
  8
0
 10
-42.9555
 20
22.2045
 11
-43.3173
 21
22.2854
  0
LINE
  8
0
 10
-43.3173
 20
22.2854
 11
-43.6732
 21
22.3888
  0
LINE
  8
0
 10
-43.6732
 20
22.3888
 11
-44.0219
 21
22.5143
  0
LINE
  8
0
 10
-44.0219
 20
22.5143
 11
-44.3621
 21
22.6615
  0
LINE
  8
0
 10
-44.3621
 20
22.6615
 11
-44.6923
 21
22.8298
  0
LINE
  8
0
 10
-44.6923
 20
22.8298
 11
-45.0114
 21
23.0185
  0
LINE
  8
0
 10
-45.0114
 20
23.0185
 11
-45.3179
 21
23.2268
  0
LINE
  8
0
 10
-45.3179
 20
23.2268
 11
-45.6108
 21
23.454
  0
LINE
  8
0
 10
-45.6108
 20
23.454
 11
-45.8888
 21
23.6991
  0
LINE
  8
0
 10
-45.8888
 20
23.6991
 11
-46.1509
 21
23.9612
  0
LINE
  8
0
 10
-46.1509
 20
23.9612
 11
-46.396
 21
24.2392
  0
LINE
  8
0
 10
-46.396
 20
24.2392
 11
-46.6232
 21
24.5321
  0
LINE
  8
0
 10
-46.6232
 20
24.5321
 11
-46.8315
 21
24.8386
  0
LINE
  8
0
 10
-46.8315
 20
24.8386
 11
-47.0202
 21
25.1577
  0
LINE
  8
0
 10
-47.0202
 20
25.1577
 11
-47.1885
 21
25.4879
  0
LINE
  8
0
 10
-47.1885
 20
25.4879
 11
-47.3357
 21
25.8281
  0
LINE
  8
0
 10
-47.3357
 20
25.8281
 11
-47.4612
 21
26.1768
  0
LINE
  8
0
 10
-47.4612
 20
26.1768
 11
-47.5646
 21
26.5327
  0
LINE
  8
0
 10
-47.5646
 20
26.5327
 11
-47.6455
 21
26.8945
  0
LINE
  8
0
 10
-47.6455
 20
26.8945
 11
-47.7035
 21
27.2605
  0
LINE
  8
0
 10
-47.7035
 20
27.2605
 11
-47.7383
 21
27.6295
  0
LINE
  8
0
 10
-47.7383
 20
27.6295
 11
-47.75
 21
28
  0
LINE
  8
0
 10
-47.75
 20
28
 11
-47.7383
 21
28.3705
  0
LINE
  8
0
 10
-47.7383
 20
28.3705
 11
-47.7035
 21
28.7395
  0
LINE
  8
0
 10
-47.7035
 20
28.7395
 11
-47.6455
 21
29.1056
  0
LINE
  8
0
 10
-47.6455
 20
29.1056
 11
-47.5646
 21
29.4673
  0
LINE
  8
0
 10
-47.5646
 20
29.4673
 11
-47.4612
 21
29.8232
  0
LINE
  8
0
 10
-47.4612
 20
29.8232
 11
-47.3357
 21
30.1719
  0
LINE
  8
0
 10
-47.3357
 20
30.1719
 11
-47.1885
 21
30.5121
  0
LINE
  8
0
 10
-47.1885
 20
30.5121
 11
-47.0202
 21
30.8424
  0
LINE
  8
0
 10
-47.0202
 20
30.8424
 11
-46.8315
 21
31.1614
  0
LINE
  8
0
 10
-46.8315
 20
31.1614
 11
-46.6232
 21
31.4679
  0
LINE
  8
0
 10
-46.6232
 20
31.4679
 11
-46.396
 21
31.7608
  0
LINE
  8
0
 10
-46.396
 20
31.7608
 11
-46.1509
 21
32.0388
  0
LINE
  8
0
 10
-46.1509
 20
32.0388
 11
-45.8888
 21
32.3009
  0
LINE
  8
0
 10
-45.8888
 20
32.3009
 11
-45.6108
 21
32.546
  0
LINE
  8
0
 10
-45.6108
 20
32.546
 11
-45.3179
 21
32.7732
  0
LINE
  8
0
 10
-45.3179
 20
32.7732
 11
-45.0114
 21
32.9815
  0
LINE
  8
0
 10
-45.0114
 20
32.9815
 11
-44.6923
 21
33.1702
  0
LINE
  8
0
 10
-44.6923
 20
33.1702
 11
-44.3621
 21
33.3385
  0
LINE
  8
0
 10
-44.3621
 20
33.3385
 11
-44.0219
 21
33.4857
  0
LINE
  8
0
 10
-44.0219
 20
33.4857
 11
-43.6732
 21
33.6112
  0
LINE
  8
0
 10
-43.6732
 20
33.6112
 11
-43.3173
 21
33.7146
  0
LINE
  8
0
 10
-43.3173
 20
33.7146
 11
-42.9555
 21
33.7955
  0
LINE
  8
0
 10
-42.9555
 20
33.7955
 11
-42.5894
 21
33.8535
  0
LINE
  8
0
 10
-42.5894
 20
33.8535
 11
-42.2204
 21
33.8884
  0
LINE
  8
0
 10
-42.2204
 20
33.8884
 11
-41.85
 21
33.9
  0
LINE
  8
0
 10
-41.85
 20
33.9
 11
-41.4795
 21
33.8884
  0
LINE
  8
0
 10
-41.4795
 20
33.8884
 11
-41.1105
 21
33.8535
  0
LINE
  8
0
 10
-41.1105
 20
33.8535
 11
-40.7444
 21
33.7955
  0
LINE
  8
0
 10
-40.7444
 20
33.7955
 11
-40.3827
 21
33.7146
  0
LINE
  8
0
 10
-40.3827
 20
33.7146
 11
-40.0268
 21
33.6112
  0
LINE
  8
0
 10
-40.0268
 20
33.6112
 11
-39.6781
 21
33.4857
  0
LINE
  8
0
 10
-39.6781
 20
33.4857
 11
-39.3379
 21
33.3385
  0
LINE
  8
0
 10
-39.3379
 20
33.3385
 11
-39.0076
 21
33.1702
  0
LINE
  8
0
 10
-39.0076
 20
33.1702
 11
-38.6886
 21
32.9815
  0
LINE
  8
0
 10
-38.6886
 20
32.9815
 11
-38.3821
 21
32.7732
  0
LINE
  8
0
 10
-38.3821
 20
32.7732
 11
-38.0892
 21
32.546
  0
LINE
  8
0
 10
-38.0892
 20
32.546
 11
-37.8112
 21
32.3009
  0
LINE
  8
0
 10
-37.8112
 20
32.3009
 11
-37.5491
 21
32.0388
  0
LINE
  8
0
 10
-37.5491
 20
32.0388
 11
-37.304
 21
31.7608
  0
LINE
  8
0
 10
-37.304
 20
31.7608
 11
-37.0768
 21
31.4679
  0
LINE
  8
0
 10
-37.0768
 20
31.4679
 11
-36.8685
 21
31.1614
  0
LINE
  8
0
 10
-36.8685
 20
31.1614
 11
-36.6798
 21
30.8424
  0
LINE
  8
0
 10
-36.6798
 20
30.8424
 11
-36.5115
 21
30.5121
  0
LINE
  8
0
 10
-36.5115
 20
30.5121
 11
-36.3643
 21
30.1719
  0
LINE
  8
0
 10
-36.3643
 20
30.1719
 11
-36.2388
 21
29.8232
  0
LINE
  8
0
 10
-36.2388
 20
29.8232
 11
-36.1354
 21
29.4673
  0
LINE
  8
0
 10
-36.1354
 20
29.4673
 11
-36.0545
 21
29.1056
  0
LINE
  8
0
 10
-36.0545
 20
29.1056
 11
-35.9965
 21
28.7395
  0
LINE
  8
0
 10
-35.9965
 20
28.7395
 11
-35.9616
 21
28.3705
  0
LINE
  8
0
 10
-35.9616
 20
28.3705
 11
-35.95
 21
28
  0
LINE
  8
0
 10
-35.95
 20
28
 11
-35.9616
 21
27.6295
  0
LINE
  8
0
 10
-35.9616
 20
27.6295
 11
-35.9965
 21
27.2605
  0
LINE
  8
0
 10
-35.9965
 20
27.2605
 11
-36.0545
 21
26.8945
  0
LINE
  8
0
 10
-36.0545
 20
26.8945
 11
-36.1354
 21
26.5327
  0
LINE
  8
0
 10
-36.1354
 20
26.5327
 11
-36.2388
 21
26.1768
  0
LINE
  8
0
 10
-36.2388
 20
26.1768
 11
-36.3643
 21
25.8281
  0
LINE
  8
0
 10
-36.3643
 20
25.8281
 11
-36.5115
 21
25.4879
  0
LINE
  8
0
 10
-36.5115
 20
25.4879
 11
-36.6798
 21
25.1577
  0
LINE
  8
0
 10
-36.6798
 20
25.1577
 11
-36.8685
 21
24.8386
  0
LINE
  8
0
 10
-36.8685
 20
24.8386
 11
-37.0768
 21
24.5321
  0
LINE
  8
0
 10
-37.0768
 20
24.5321
 11
-37.304
 21
24.2392
  0
LINE
  8
0
 10
-37.304
 20
24.2392
 11
-37.5491
 21
23.9612
  0
LINE
  8
0
 10
-37.5491
 20
23.9612
 11
-37.8112
 21
23.6991
  0
LINE
  8
0
 10
-37.8112
 20
23.6991
 11
-38.0892
 21
23.454
  0
LINE
  8
0
 10
-38.0892
 20
23.454
 11
-38.3821
 21
23.2268
  0
LINE
  8
0
 10
-38.3821
 20
23.2268
 11
-38.6886
 21
23.0185
  0
LINE
  8
0
 10
-38.6886
 20
23.0185
 11
-39.0076
 21
22.8298
  0
LINE
  8
0
 10
-39.0076
 20
22.8298
 11
-39.3379
 21
22.6615
  0
LINE
  8
0
 10
-39.3379
 20
22.6615
 11
-39.6781
 21
22.5143
  0
LINE
  8
0
 10
-39.6781
 20
22.5143
 11
-40.0268
 21
22.3888
  0
LINE
  8
0
 10
-40.0268
 20
22.3888
 11
-40.3827
 21
22.2854
  0
LINE
  8
0
 10
-40.3827
 20
22.2854
 11
-40.7444
 21
22.2045
  0
LINE
  8
0
 10
-40.7444
 20
22.2045
 11
-41.1105
 21
22.1465
  0
LINE
  8
0
 10
-41.1105
 20
22.1465
 11
-41.4795
 21
22.1116
  0
LINE
  8
0
 10
-41.4795
 20
22.1116
 11
-41.85
 21
22.1
  0
LINE
  8
0
 10
-41.85
 20
22.1
 11
-42.2204
 21
22.1116
  0
LINE
  8
0
 10
39.9058
 20
18.003
 11
39.812
 21
18.0118
  0
LINE
  8
0
 10
39.812
 20
18.0118
 11
39.7189
 21
18.0266
  0
LINE
  8
0
 10
39.7189
 20
18.0266
 11
39.627
 21
18.0471
  0
LINE
  8
0
 10
39.627
 20
18.0471
 11
39.5365
 21
18.0734
  0
LINE
  8
0
 10
39.5365
 20
18.0734
 11
39.4478
 21
18.1053
  0
LINE
  8
0
 10
39.4478
 20
18.1053
 11
39.3613
 21
18.1427
  0
LINE
  8
0
 10
39.3613
 20
18.1427
 11
39.2774
 21
18.1855
  0
LINE
  8
0
 10
39.2774
 20
18.1855
 11
39.1963
 21
18.2335
  0
LINE
  8
0
 10
39.1963
 20
18.2335
 11
39.1183
 21
18.2865
  0
LINE
  8
0
 10
39.1183
 20
18.2865
 11
39.0439
 21
18.3442
  0
LINE
  8
0
 10
39.0439
 20
18.3442
 11
38.9732
 21
18.4065
  0
LINE
  8
0
 10
38.9732
 20
18.4065
 11
38.9065
 21
18.4732
  0
LINE
  8
0
 10
38.9065
 20
18.4732
 11
38.8442
 21
18.5439
  0
LINE
  8
0
 10
38.8442
 20
18.5439
 11
38.7865
 21
18.6183
  0
LINE
  8
0
 10
38.7865
 20
18.6183
 11
38.7335
 21
18.6963
  0
LINE
  8
0
 10
38.7335
 20
18.6963
 11
38.6855
 21
18.7774
  0
LINE
  8
0
 10
38.6855
 20
18.7774
 11
38.6428
 21
18.8613
  0
LINE
  8
0
 10
38.6428
 20
18.8613
 11
38.6053
 21
18.9478
  0
LINE
  8
0
 10
38.6053
 20
18.9478
 11
38.5734
 21
19.0365
  0
LINE
  8
0
 10
38.5734
 20
19.0365
 11
38.5471
 21
19.127
  0
LINE
  8
0
 10
38.5471
 20
19.127
 11
38.5266
 21
19.2189
  0
LINE
  8
0
 10
38.5266
 20
19.2189
 11
38.5118
 21
19.312
  0
LINE
  8
0
 10
38.5118
 20
19.312
 11
38.503
 21
19.4058
  0
LINE
  8
0
 10
38.503
 20
19.4058
 11
38.5
 21
19.5
  0
LINE
  8
0
 10
38.5
 20
19.5
 11
38.503
 21
19.5942
  0
LINE
  8
0
 10
38.503
 20
19.5942
 11
38.5118
 21
19.688
  0
LINE
  8
0
 10
38.5118
 20
19.688
 11
38.5266
 21
19.7811
  0
LINE
  8
0
 10
38.5266
 20
19.7811
 11
38.5471
 21
19.873
  0
LINE
  8
0
 10
38.5471
 20
19.873
 11
38.5734
 21
19.9635
  0
LINE
  8
0
 10
38.5734
 20
19.9635
 11
38.6053
 21
20.0522
  0
LINE
  8
0
 10
38.6053
 20
20.0522
 11
38.6428
 21
20.1387
  0
LINE
  8
0
 10
38.6428
 20
20.1387
 11
38.6855
 21
20.2226
  0
LINE
  8
0
 10
38.6855
 20
20.2226
 11
38.7335
 21
20.3037
  0
LINE
  8
0
 10
38.7335
 20
20.3037
 11
38.7865
 21
20.3817
  0
LINE
  8
0
 10
38.7865
 20
20.3817
 11
38.8442
 21
20.4561
  0
LINE
  8
0
 10
38.8442
 20
20.4561
 11
38.9065
 21
20.5268
  0
LINE
  8
0
 10
38.9065
 20
20.5268
 11
38.9732
 21
20.5934
  0
LINE
  8
0
 10
38.9732
 20
20.5934
 11
39.0439
 21
20.6558
  0
LINE
  8
0
 10
39.0439
 20
20.6558
 11
39.1183
 21
20.7135
  0
LINE
  8
0
 10
39.1183
 20
20.7135
 11
39.1963
 21
20.7665
  0
LINE
  8
0
 10
39.1963
 20
20.7665
 11
39.2774
 21
20.8145
  0
LINE
  8
0
 10
39.2774
 20
20.8145
 11
39.3613
 21
20.8572
  0
LINE
  8
0
 10
39.3613
 20
20.8572
 11
39.4478
 21
20.8947
  0
LINE
  8
0
 10
39.4478
 20
20.8947
 11
39.5365
 21
20.9266
  0
LINE
  8
0
 10
39.5365
 20
20.9266
 11
39.627
 21
20.9529
  0
LINE
  8
0
 10
39.627
 20
20.9529
 11
39.7189
 21
20.9734
  0
LINE
  8
0
 10
39.7189
 20
20.9734
 11
39.812
 21
20.9882
  0
LINE
  8
0
 10
39.812
 20
20.9882
 11
39.9058
 21
20.997
  0
LINE
  8
0
 10
39.9058
 20
20.997
 11
40
 21
21
  0
LINE
  8
0
 10
40
 20
21
 11
40.0942
 21
20.997
  0
LINE
  8
0
 10
40.0942
 20
20.997
 11
40.188
 21
20.9882
  0
LINE
  8
0
 10
40.188
 20
20.9882
 11
40.2811
 21
20.9734
  0
LINE
  8
0
 10
40.2811
 20
20.9734
 11
40.373
 21
20.9529
  0
LINE
  8
0
 10
40.373
 20
20.9529
 11
40.4635
 21
20.9266
  0
LINE
  8
0
 10
40.4635
 20
20.9266
 11
40.5522
 21
20.8947
  0
LINE
  8
0
 10
40.5522
 20
20.8947
 11
40.6387
 21
20.8572
  0
LINE
  8
0
 10
40.6387
 20
20.8572
 11
40.7226
 21
20.8145
  0
LINE
  8
0
 10
40.7226
 20
20.8145
 11
40.8037
 21
20.7665
  0
LINE
  8
0
 10
40.8037
 20
20.7665
 11
40.8817
 21
20.7135
  0
LINE
  8
0
 10
40.8817
 20
20.7135
 11
40.9561
 21
20.6558
  0
LINE
  8
0
 10
40.9561
 20
20.6558
 11
41.0268
 21
20.5934
  0
LINE
  8
0
 10
41.0268
 20
20.5934
 11
41.0934
 21
20.5268
  0
LINE
  8
0
 10
41.0934
 20
20.5268
 11
41.1558
 21
20.4561
  0
LINE
  8
0
 10
41.1558
 20
20.4561
 11
41.2135
 21
20.3817
  0
LINE
  8
0
 10
41.2135
 20
20.3817
 11
41.2665
 21
20.3037
  0
LINE
  8
0
 10
41.2665
 20
20.3037
 11
41.3145
 21
20.2226
  0
LINE
  8
0
 10
41.3145
 20
20.2226
 11
41.3572
 21
20.1387
  0
LINE
  8
0
 10
41.3572
 20
20.1387
 11
41.3947
 21
20.0522
  0
LINE
  8
0
 10
41.3947
 20
20.0522
 11
41.4266
 21
19.9635
  0
LINE
  8
0
 10
41.4266
 20
19.9635
 11
41.4529
 21
19.873
  0
LINE
  8
0
 10
41.4529
 20
19.873
 11
41.4734
 21
19.7811
  0
LINE
  8
0
 10
41.4734
 20
19.7811
 11
41.4882
 21
19.688
  0
LINE
  8
0
 10
41.4882
 20
19.688
 11
41.497
 21
19.5942
  0
LINE
  8
0
 10
41.497
 20
19.5942
 11
41.5
 21
19.5
  0
LINE
  8
0
 10
41.5
 20
19.5
 11
41.497
 21
19.4058
  0
LINE
  8
0
 10
41.497
 20
19.4058
 11
41.4882
 21
19.312
  0
LINE
  8
0
 10
41.4882
 20
19.312
 11
41.4734
 21
19.2189
  0
LINE
  8
0
 10
41.4734
 20
19.2189
 11
41.4529
 21
19.127
  0
LINE
  8
0
 10
41.4529
 20
19.127
 11
41.4266
 21
19.0365
  0
LINE
  8
0
 10
41.4266
 20
19.0365
 11
41.3947
 21
18.9478
  0
LINE
  8
0
 10
41.3947
 20
18.9478
 11
41.3572
 21
18.8613
  0
LINE
  8
0
 10
41.3572
 20
18.8613
 11
41.3145
 21
18.7774
  0
LINE
  8
0
 10
41.3145
 20
18.7774
 11
41.2665
 21
18.6963
  0
LINE
  8
0
 10
41.2665
 20
18.6963
 11
41.2135
 21
18.6183
  0
LINE
  8
0
 10
41.2135
 20
18.6183
 11
41.1558
 21
18.5439
  0
LINE
  8
0
 10
41.1558
 20
18.5439
 11
41.0934
 21
18.4732
  0
LINE
  8
0
 10
41.0934
 20
18.4732
 11
41.0268
 21
18.4065
  0
LINE
  8
0
 10
41.0268
 20
18.4065
 11
40.9561
 21
18.3442
  0
LINE
  8
0
 10
40.9561
 20
18.3442
 11
40.8817
 21
18.2865
  0
LINE
  8
0
 10
40.8817
 20
18.2865
 11
40.8037
 21
18.2335
  0
LINE
  8
0
 10
40.8037
 20
18.2335
 11
40.7226
 21
18.1855
  0
LINE
  8
0
 10
40.7226
 20
18.1855
 11
40.6387
 21
18.1427
  0
LINE
  8
0
 10
40.6387
 20
18.1427
 11
40.5522
 21
18.1053
  0
LINE
  8
0
 10
40.5522
 20
18.1053
 11
40.4635
 21
18.0734
  0
LINE
  8
0
 10
40.4635
 20
18.0734
 11
40.373
 21
18.0471
  0
LINE
  8
0
 10
40.373
 20
18.0471
 11
40.2811
 21
18.0266
  0
LINE
  8
0
 10
40.2811
 20
18.0266
 11
40.188
 21
18.0118
  0
LINE
  8
0
 10
40.188
 20
18.0118
 11
40.0942
 21
18.003
  0
LINE
  8
0
 10
40.0942
 20
18.003
 11
40
 21
18
  0
LINE
  8
0
 10
40
 20
18
 11
39.9058
 21
18.003
  0
LINE
  8
0
 10
-42.4842
 20
-10.0801
 11
-43.1158
 21
-10.0204
  0
LINE
  8
0
 10
-43.1158
 20
-10.0204
 11
-43.7425
 21
-9.9211
  0
LINE
  8
0
 10
-43.7425
 20
-9.9211
 11
-44.3618
 21
-9.78268
  0
LINE
  8
0
 10
-44.3618
 20
-9.78268
 11
-44.9711
 21
-9.60567
  0
LINE
  8
0
 10
-44.9711
 20
-9.60567
 11
-45.568
 21
-9.39073
  0
LINE
  8
0
 10
-45.568
 20
-9.39073
 11
-46.1504
 21
-9.13875
  0
LINE
  8
0
 10
-46.1504
 20
-9.13875
 11
-46.7157
 21
-8.85069
  0
LINE
  8
0
 10
-46.7157
 20
-8.85069
 11
-47.2618
 21
-8.52771
  0
LINE
  8
0
 10
-47.2618
 20
-8.52771
 11
-47.7866
 21
-8.17107
  0
LINE
  8
0
 10
-47.7866
 20
-8.17107
 11
-48.288
 21
-7.78218
  0
LINE
  8
0
 10
-48.288
 20
-7.78218
 11
-48.7639
 21
-7.36258
  0
LINE
  8
0
 10
-48.7639
 20
-7.36258
 11
-49.2126
 21
-6.91393
  0
LINE
  8
0
 10
-49.2126
 20
-6.91393
 11
-49.6322
 21
-6.43797
  0
LINE
  8
0
 10
-49.6322
 20
-6.43797
 11
-50.0211
 21
-5.93663
  0
LINE
  8
0
 10
-50.0211
 20
-5.93663
 11
-50.3777
 21
-5.41185
  0
LINE
  8
0
 10
-50.3777
 20
-5.41185
 11
-50.7007
 21
-4.86571
  0
LINE
  8
0
 10
-50.7007
 20
-4.86571
 11
-50.9887
 21
-4.30037
  0
LINE
  8
0
 10
-50.9887
 20
-4.30037
 11
-51.2407
 21
-3.71805
  0
LINE
  8
0
 10
-51.2407
 20
-3.71805
 11
-51.4557
 21
-3.12106
  0
LINE
  8
0
 10
-51.4557
 20
-3.12106
 11
-51.6327
 21
-2.51176
  0
LINE
  8
0
 10
-51.6327
 20
-2.51176
 11
-51.7711
 21
-1.89255
  0
LINE
  8
0
 10
-51.7711
 20
-1.89255
 11
-51.8703
 21
-1.26585
  0
LINE
  8
0
 10
-51.8703
 20
-1.26585
 11
-51.9301
 21
-0.634171
  0
LINE
  8
0
 10
-51.9301
 20
-0.634171
 11
-51.95
 21
0
  0
LINE
  8
0
 10
-51.95
 20
0
 11
-51.9301
 21
0.634186
  0
LINE
  8
0
 10
-51.9301
 20
0.634186
 11
-51.8703
 21
1.26587
  0
LINE
  8
0
 10
-51.8703
 20
1.26587
 11
-51.7711
 21
1.89256
  0
LINE
  8
0
 10
-51.7711
 20
1.89256
 11
-51.6327
 21
2.51178
  0
LINE
  8
0
 10
-51.6327
 20
2.51178
 11
-51.4557
 21
3.12108
  0
LINE
  8
0
 10
-51.4557
 20
3.12108
 11
-51.2407
 21
3.71806
  0
LINE
  8
0
 10
-51.2407
 20
3.71806
 11
-50.9887
 21
4.30038
  0
LINE
  8
0
 10
-50.9887
 20
4.30038
 11
-50.7007
 21
4.86572
  0
LINE
  8
0
 10
-50.7007
 20
4.86572
 11
-50.3777
 21
5.41187
  0
LINE
  8
0
 10
-50.3777
 20
5.41187
 11
-50.0211
 21
5.93665
  0
LINE
  8
0
 10
-50.0211
 20
5.93665
 11
-49.6322
 21
6.43799
  0
LINE
  8
0
 10
-49.6322
 20
6.43799
 11
-49.2126
 21
6.91394
  0
LINE
  8
0
 10
-49.2126
 20
6.91394
 11
-48.7639
 21
7.36259
  0
LINE
  8
0
 10
-48.7639
 20
7.36259
 11
-48.288
 21
7.7822
  0
LINE
  8
0
 10
-48.288
 20
7.7822
 11
-47.7866
 21
8.17108
  0
LINE
  8
0
 10
-47.7866
 20
8.17108
 11
-47.2618
 21
8.52773
  0
LINE
  8
0
 10
-47.2618
 20
8.52773
 11
-46.7157
 21
8.85071
  0
LINE
  8
0
 10
-46.7157
 20
8.85071
 11
-46.1504
 21
9.13876
  0
LINE
  8
0
 10
-46.1504
 20
9.13876
 11
-45.568
 21
9.39075
  0
LINE
  8
0
 10
-45.568
 20
9.39075
 11
-44.9711
 21
9.60568
  0
LINE
  8
0
 10
-44.9711
 20
9.60568
 11
-44.3618
 21
9.7827
  0
LINE
  8
0
 10
-44.3618
 20
9.7827
 11
-43.7425
 21
9.92111
  0
LINE
  8
0
 10
-43.7425
 20
9.92111
 11
-43.1158
 21
10.0204
  0
LINE
  8
0
 10
-43.1158
 20
10.0204
 11
-42.4842
 21
10.0801
  0
LINE
  8
0
 10
-42.4842
 20
10.0801
 11
-41.85
 21
10.1
  0
LINE
  8
0
 10
-41.85
 20
10.1
 11
-41.2158
 21
10.0801
  0
LINE
  8
0
 10
-41.2158
 20
10.0801
 11
-40.5841
 21
10.0204
  0
LINE
  8
0
 10
-40.5841
 20
10.0204
 11
-39.9574
 21
9.92111
  0
LINE
  8
0
 10
-39.9574
 20
9.92111
 11
-39.3382
 21
9.7827
  0
LINE
  8
0
 10
-39.3382
 20
9.7827
 11
-38.7289
 21
9.60568
  0
LINE
  8
0
 10
-38.7289
 20
9.60568
 11
-38.1319
 21
9.39075
  0
LINE
  8
0
 10
-38.1319
 20
9.39075
 11
-37.5496
 21
9.13876
  0
LINE
  8
0
 10
-37.5496
 20
9.13876
 11
-36.9843
 21
8.85071
  0
LINE
  8
0
 10
-36.9843
 20
8.85071
 11
-36.4381
 21
8.52773
  0
LINE
  8
0
 10
-36.4381
 20
8.52773
 11
-35.9134
 21
8.17108
  0
LINE
  8
0
 10
-35.9134
 20
8.17108
 11
-35.412
 21
7.7822
  0
LINE
  8
0
 10
-35.412
 20
7.7822
 11
-34.9361
 21
7.36259
  0
LINE
  8
0
 10
-34.9361
 20
7.36259
 11
-34.4874
 21
6.91394
  0
LINE
  8
0
 10
-34.4874
 20
6.91394
 11
-34.0678
 21
6.43799
  0
LINE
  8
0
 10
-34.0678
 20
6.43799
 11
-33.6789
 21
5.93665
  0
LINE
  8
0
 10
-33.6789
 20
5.93665
 11
-33.3223
 21
5.41187
  0
LINE
  8
0
 10
-33.3223
 20
5.41187
 11
-32.9993
 21
4.86572
  0
LINE
  8
0
 10
-32.9993
 20
4.86572
 11
-32.7112
 21
4.30038
  0
LINE
  8
0
 10
-32.7112
 20
4.30038
 11
-32.4593
 21
3.71806
  0
LINE
  8
0
 10
-32.4593
 20
3.71806
 11
-32.2443
 21
3.12108
  0
LINE
  8
0
 10
-32.2443
 20
3.12108
 11
-32.0673
 21
2.51178
  0
LINE
  8
0
 10
-32.0673
 20
2.51178
 11
-31.9289
 21
1.89256
  0
LINE
  8
0
 10
-31.9289
 20
1.89256
 11
-31.8296
 21
1.26587
  0
LINE
  8
0
 10
-31.8296
 20
1.26587
 11
-31.7699
 21
0.634186
  0
LINE
  8
0
 10
-31.7699
 20
0.634186
 11
-31.75
 21
0
  0
LINE
  8
0
 10
-31.75
 20
0
 11
-31.7699
 21
-0.634171
  0
LINE
  8
0
 10
-31.7699
 20
-0.634171
 11
-31.8296
 21
-1.26585
  0
LINE
  8
0
 10
-31.8296
 20
-1.26585
 11
-31.9289
 21
-1.89255
  0
LINE
  8
0
 10
-31.9289
 20
-1.89255
 11
-32.0673
 21
-2.51176
  0
LINE
  8
0
 10
-32.0673
 20
-2.51176
 11
-32.2443
 21
-3.12106
  0
LINE
  8
0
 10
-32.2443
 20
-3.12106
 11
-32.4593
 21
-3.71805
  0
LINE
  8
0
 10
-32.4593
 20
-3.71805
 11
-32.7112
 21
-4.30037
  0
LINE
  8
0
 10
-32.7112
 20
-4.30037
 11
-32.9993
 21
-4.86571
  0
LINE
  8
0
 10
-32.9993
 20
-4.86571
 11
-33.3223
 21
-5.41185
  0
LINE
  8
0
 10
-33.3223
 20
-5.41185
 11
-33.6789
 21
-5.93663
  0
LINE
  8
0
 10
-33.6789
 20
-5.93663
 11
-34.0678
 21
-6.43797
  0
LINE
  8
0
 10
-34.0678
 20
-6.43797
 11
-34.4874
 21
-6.91393
  0
LINE
  8
0
 10
-34.4874
 20
-6.91393
 11
-34.9361
 21
-7.36258
  0
LINE
  8
0
 10
-34.9361
 20
-7.36258
 11
-35.412
 21
-7.78218
  0
LINE
  8
0
 10
-35.412
 20
-7.78218
 11
-35.9134
 21
-8.17107
  0
LINE
  8
0
 10
-35.9134
 20
-8.17107
 11
-36.4381
 21
-8.52771
  0
LINE
  8
0
 10
-36.4381
 20
-8.52771
 11
-36.9843
 21
-8.85069
  0
LINE
  8
0
 10
-36.9843
 20
-8.85069
 11
-37.5496
 21
-9.13875
  0
LINE
  8
0
 10
-37.5496
 20
-9.13875
 11
-38.1319
 21
-9.39073
  0
LINE
  8
0
 10
-38.1319
 20
-9.39073
 11
-38.7289
 21
-9.60567
  0
LINE
  8
0
 10
-38.7289
 20
-9.60567
 11
-39.3382
 21
-9.78268
  0
LINE
  8
0
 10
-39.3382
 20
-9.78268
 11
-39.9574
 21
-9.9211
  0
LINE
  8
0
 10
-39.9574
 20
-9.9211
 11
-40.5841
 21
-10.0204
  0
LINE
  8
0
 10
-40.5841
 20
-10.0204
 11
-41.2158
 21
-10.0801
  0
LINE
  8
0
 10
-41.2158
 20
-10.0801
 11
-41.85
 21
-10.1
  0
LINE
  8
0
 10
-41.85
 20
-10.1
 11
-42.4842
 21
-10.0801
  0
LINE
  8
0
 10
15.0058
 20
-19.747
 11
14.912
 21
-19.7382
  0
LINE
  8
0
 10
14.912
 20
-19.7382
 11
14.8189
 21
-19.7234
  0
LINE
  8
0
 10
14.8189
 20
-19.7234
 11
14.727
 21
-19.7029
  0
LINE
  8
0
 10
14.727
 20
-19.7029
 11
14.6365
 21
-19.6766
  0
LINE
  8
0
 10
14.6365
 20
-19.6766
 11
14.5478
 21
-19.6447
  0
LINE
  8
0
 10
14.5478
 20
-19.6447
 11
14.4613
 21
-19.6072
  0
LINE
  8
0
 10
14.4613
 20
-19.6072
 11
14.3774
 21
-19.5645
  0
LINE
  8
0
 10
14.3774
 20
-19.5645
 11
14.2962
 21
-19.5165
  0
LINE
  8
0
 10
14.2962
 20
-19.5165
 11
14.2183
 21
-19.4635
  0
LINE
  8
0
 10
14.2183
 20
-19.4635
 11
14.1439
 21
-19.4058
  0
LINE
  8
0
 10
14.1439
 20
-19.4058
 11
14.0732
 21
-19.3434
  0
LINE
  8
0
 10
14.0732
 20
-19.3434
 11
14.0065
 21
-19.2768
  0
LINE
  8
0
 10
14.0065
 20
-19.2768
 11
13.9442
 21
-19.2061
  0
LINE
  8
0
 10
13.9442
 20
-19.2061
 11
13.8865
 21
-19.1317
  0
LINE
  8
0
 10
13.8865
 20
-19.1317
 11
13.8335
 21
-19.0537
  0
LINE
  8
0
 10
13.8335
 20
-19.0537
 11
13.7855
 21
-18.9726
  0
LINE
  8
0
 10
13.7855
 20
-18.9726
 11
13.7428
 21
-18.8887
  0
LINE
  8
0
 10
13.7428
 20
-18.8887
 11
13.7053
 21
-18.8022
  0
LINE
  8
0
 10
13.7053
 20
-18.8022
 11
13.6734
 21
-18.7135
  0
LINE
  8
0
 10
13.6734
 20
-18.7135
 11
13.6471
 21
-18.623
  0
LINE
  8
0
 10
13.6471
 20
-18.623
 11
13.6266
 21
-18.5311
  0
LINE
  8
0
 10
13.6266
 20
-18.5311
 11
13.6118
 21
-18.438
  0
LINE
  8
0
 10
13.6118
 20
-18.438
 11
13.603
 21
-18.3442
  0
LINE
  8
0
 10
13.603
 20
-18.3442
 11
13.6
 21
-18.25
  0
LINE
  8
0
 10
13.6
 20
-18.25
 11
13.603
 21
-18.1558
  0
LINE
  8
0
 10
13.603
 20
-18.1558
 11
13.6118
 21
-18.062
  0
LINE
  8
0
 10
13.6118
 20
-18.062
 11
13.6266
 21
-17.9689
  0
LINE
  8
0
 10
13.6266
 20
-17.9689
 11
13.6471
 21
-17.877
  0
LINE
  8
0
 10
13.6471
 20
-17.877
 11
13.6734
 21
-17.7865
  0
LINE
  8
0
 10
13.6734
 20
-17.7865
 11
13.7053
 21
-17.6978
  0
LINE
  8
0
 10
13.7053
 20
-17.6978
 11
13.7428
 21
-17.6113
  0
LINE
  8
0
 10
13.7428
 20
-17.6113
 11
13.7855
 21
-17.5274
  0
LINE
  8
0
 10
13.7855
 20
-17.5274
 11
13.8335
 21
-17.4463
  0
LINE
  8
0
 10
13.8335
 20
-17.4463
 11
13.8865
 21
-17.3683
  0
LINE
  8
0
 10
13.8865
 20
-17.3683
 11
13.9442
 21
-17.2939
  0
LINE
  8
0
 10
13.9442
 20
-17.2939
 11
14.0065
 21
-17.2232
  0
LINE
  8
0
 10
14.0065
 20
-17.2232
 11
14.0732
 21
-17.1565
  0
LINE
  8
0
 10
14.0732
 20
-17.1565
 11
14.1439
 21
-17.0942
  0
LINE
  8
0
 10
14.1439
 20
-17.0942
 11
14.2183
 21
-17.0365
  0
LINE
  8
0
 10
14.2183
 20
-17.0365
 11
14.2962
 21
-16.9835
  0
LINE
  8
0
 10
14.2962
 20
-16.9835
 11
14.3774
 21
-16.9355
  0
LINE
  8
0
 10
14.3774
 20
-16.9355
 11
14.4613
 21
-16.8927
  0
LINE
  8
0
 10
14.4613
 20
-16.8927
 11
14.5478
 21
-16.8553
  0
LINE
  8
0
 10
14.5478
 20
-16.8553
 11
14.6365
 21
-16.8234
  0
LINE
  8
0
 10
14.6365
 20
-16.8234
 11
14.727
 21
-16.7971
  0
LINE
  8
0
 10
14.727
 20
-16.7971
 11
14.8189
 21
-16.7766
  0
LINE
  8
0
 10
14.8189
 20
-16.7766
 11
14.912
 21
-16.7618
  0
LINE
  8
0
 10
14.912
 20
-16.7618
 11
15.0058
 21
-16.753
  0
LINE
  8
0
 10
15.0058
 20
-16.753
 11
15.1
 21
-16.75
  0
LINE
  8
0
 10
15.1
 20
-16.75
 11
15.1942
 21
-16.753
  0
LINE
  8
0
 10
15.1942
 20
-16.753
 11
15.288
 21
-16.7618
  0
LINE
  8
0
 10
15.288
 20
-16.7618
 11
15.3811
 21
-16.7766
  0
LINE
  8
0
 10
15.3811
 20
-16.7766
 11
15.473
 21
-16.7971
  0
LINE
  8
0
 10
15.473
 20
-16.7971
 11
15.5635
 21
-16.8234
  0
LINE
  8
0
 10
15.5635
 20
-16.8234
 11
15.6522
 21
-16.8553
  0
LINE
  8
0
 10
15.6522
 20
-16.8553
 11
15.7387
 21
-16.8927
  0
LINE
  8
0
 10
15.7387
 20
-16.8927
 11
15.8226
 21
-16.9355
  0
LINE
  8
0
 10
15.8226
 20
-16.9355
 11
15.9037
 21
-16.9835
  0
LINE
  8
0
 10
15.9037
 20
-16.9835
 11
15.9817
 21
-17.0365
  0
LINE
  8
0
 10
15.9817
 20
-17.0365
 11
16.0561
 21
-17.0942
  0
LINE
  8
0
 10
16.0561
 20
-17.0942
 11
16.1268
 21
-17.1565
  0
LINE
  8
0
 10
16.1268
 20
-17.1565
 11
16.1935
 21
-17.2232
  0
LINE
  8
0
 10
16.1935
 20
-17.2232
 11
16.2558
 21
-17.2939
  0
LINE
  8
0
 10
16.2558
 20
-17.2939
 11
16.3135
 21
-17.3683
  0
LINE
  8
0
 10
16.3135
 20
-17.3683
 11
16.3665
 21
-17.4463
  0
LINE
  8
0
 10
16.3665
 20
-17.4463
 11
16.4145
 21
-17.5274
  0
LINE
  8
0
 10
16.4145
 20
-17.5274
 11
16.4572
 21
-17.6113
  0
LINE
  8
0
 10
16.4572
 20
-17.6113
 11
16.4947
 21
-17.6978
  0
LINE
  8
0
 10
16.4947
 20
-17.6978
 11
16.5266
 21
-17.7865
  0
LINE
  8
0
 10
16.5266
 20
-17.7865
 11
16.5529
 21
-17.877
  0
LINE
  8
0
 10
16.5529
 20
-17.877
 11
16.5734
 21
-17.9689
  0
LINE
  8
0
 10
16.5734
 20
-17.9689
 11
16.5882
 21
-18.062
  0
LINE
  8
0
 10
16.5882
 20
-18.062
 11
16.597
 21
-18.1558
  0
LINE
  8
0
 10
16.597
 20
-18.1558
 11
16.6
 21
-18.25
  0
LINE
  8
0
 10
16.6
 20
-18.25
 11
16.597
 21
-18.3442
  0
LINE
  8
0
 10
16.597
 20
-18.3442
 11
16.5882
 21
-18.438
  0
LINE
  8
0
 10
16.5882
 20
-18.438
 11
16.5734
 21
-18.5311
  0
LINE
  8
0
 10
16.5734
 20
-18.5311
 11
16.5529
 21
-18.623
  0
LINE
  8
0
 10
16.5529
 20
-18.623
 11
16.5266
 21
-18.7135
  0
LINE
  8
0
 10
16.5266
 20
-18.7135
 11
16.4947
 21
-18.8022
  0
LINE
  8
0
 10
16.4947
 20
-18.8022
 11
16.4572
 21
-18.8887
  0
LINE
  8
0
 10
16.4572
 20
-18.8887
 11
16.4145
 21
-18.9726
  0
LINE
  8
0
 10
16.4145
 20
-18.9726
 11
16.3665
 21
-19.0537
  0
LINE
  8
0
 10
16.3665
 20
-19.0537
 11
16.3135
 21
-19.1317
  0
LINE
  8
0
 10
16.3135
 20
-19.1317
 11
16.2558
 21
-19.2061
  0
LINE
  8
0
 10
16.2558
 20
-19.2061
 11
16.1935
 21
-19.2768
  0
LINE
  8
0
 10
16.1935
 20
-19.2768
 11
16.1268
 21
-19.3434
  0
LINE
  8
0
 10
16.1268
 20
-19.3434
 11
16.0561
 21
-19.4058
  0
LINE
  8
0
 10
16.0561
 20
-19.4058
 11
15.9817
 21
-19.4635
  0
LINE
  8
0
 10
15.9817
 20
-19.4635
 11
15.9037
 21
-19.5165
  0
LINE
  8
0
 10
15.9037
 20
-19.5165
 11
15.8226
 21
-19.5645
  0
LINE
  8
0
 10
15.8226
 20
-19.5645
 11
15.7387
 21
-19.6072
  0
LINE
  8
0
 10
15.7387
 20
-19.6072
 11
15.6522
 21
-19.6447
  0
LINE
  8
0
 10
15.6522
 20
-19.6447
 11
15.5635
 21
-19.6766
  0
LINE
  8
0
 10
15.5635
 20
-19.6766
 11
15.473
 21
-19.7029
  0
LINE
  8
0
 10
15.473
 20
-19.7029
 11
15.3811
 21
-19.7234
  0
LINE
  8
0
 10
15.3811
 20
-19.7234
 11
15.288
 21
-19.7382
  0
LINE
  8
0
 10
15.288
 20
-19.7382
 11
15.1942
 21
-19.747
  0
LINE
  8
0
 10
15.1942
 20
-19.747
 11
15.1
 21
-19.75
  0
LINE
  8
0
 10
15.1
 20
-19.75
 11
15.0058
 21
-19.747
  0
LINE
  8
0
 10
-26.1942
 20
-19.747
 11
-26.288
 21
-19.7382
  0
LINE
  8
0
 10
-26.288
 20
-19.7382
 11
-26.3811
 21
-19.7234
  0
LINE
  8
0
 10
-26.3811
 20
-19.7234
 11
-26.473
 21
-19.7029
  0
LINE
  8
0
 10
-26.473
 20
-19.7029
 11
-26.5635
 21
-19.6766
  0
LINE
  8
0
 10
-26.5635
 20
-19.6766
 11
-26.6522
 21
-19.6447
  0
LINE
  8
0
 10
-26.6522
 20
-19.6447
 11
-26.7387
 21
-19.6072
  0
LINE
  8
0
 10
-26.7387
 20
-19.6072
 11
-26.8226
 21
-19.5645
  0
LINE
  8
0
 10
-26.8226
 20
-19.5645
 11
-26.9037
 21
-19.5165
  0
LINE
  8
0
 10
-26.9037
 20
-19.5165
 11
-26.9817
 21
-19.4635
  0
LINE
  8
0
 10
-26.9817
 20
-19.4635
 11
-27.0561
 21
-19.4058
  0
LINE
  8
0
 10
-27.0561
 20
-19.4058
 11
-27.1268
 21
-19.3434
  0
LINE
  8
0
 10
-27.1268
 20
-19.3434
 11
-27.1935
 21
-19.2768
  0
LINE
  8
0
 10
-27.1935
 20
-19.2768
 11
-27.2558
 21
-19.2061
  0
LINE
  8
0
 10
-27.2558
 20
-19.2061
 11
-27.3135
 21
-19.1317
  0
LINE
  8
0
 10
-27.3135
 20
-19.1317
 11
-27.3665
 21
-19.0537
  0
LINE
  8
0
 10
-27.3665
 20
-19.0537
 11
-27.4145
 21
-18.9726
  0
LINE
  8
0
 10
-27.4145
 20
-18.9726
 11
-27.4572
 21
-18.8887
  0
LINE
  8
0
 10
-27.4572
 20
-18.8887
 11
-27.4947
 21
-18.8022
  0
LINE
  8
0
 10
-27.4947
 20
-18.8022
 11
-27.5266
 21
-18.7135
  0
LINE
  8
0
 10
-27.5266
 20
-18.7135
 11
-27.5529
 21
-18.623
  0
LINE
  8
0
 10
-27.5529
 20
-18.623
 11
-27.5734
 21
-18.5311
  0
LINE
  8
0
 10
-27.5734
 20
-18.5311
 11
-27.5882
 21
-18.438
  0
LINE
  8
0
 10
-27.5882
 20
-18.438
 11
-27.597
 21
-18.3442
  0
LINE
  8
0
 10
-27.597
 20
-18.3442
 11
-27.6
 21
-18.25
  0
LINE
  8
0
 10
-27.6
 20
-18.25
 11
-27.597
 21
-18.1558
  0
LINE
  8
0
 10
-27.597
 20
-18.1558
 11
-27.5882
 21
-18.062
  0
LINE
  8
0
 10
-27.5882
 20
-18.062
 11
-27.5734
 21
-17.9689
  0
LINE
  8
0
 10
-27.5734
 20
-17.9689
 11
-27.5529
 21
-17.877
  0
LINE
  8
0
 10
-27.5529
 20
-17.877
 11
-27.5266
 21
-17.7865
  0
LINE
  8
0
 10
-27.5266
 20
-17.7865
 11
-27.4947
 21
-17.6978
  0
LINE
  8
0
 10
-27.4947
 20
-17.6978
 11
-27.4572
 21
-17.6113
  0
LINE
  8
0
 10
-27.4572
 20
-17.6113
 11
-27.4145
 21
-17.5274
  0
LINE
  8
0
 10
-27.4145
 20
-17.5274
 11
-27.3665
 21
-17.4463
  0
LINE
  8
0
 10
-27.3665
 20
-17.4463
 11
-27.3135
 21
-17.3683
  0
LINE
  8
0
 10
-27.3135
 20
-17.3683
 11
-27.2558
 21
-17.2939
  0
LINE
  8
0
 10
-27.2558
 20
-17.2939
 11
-27.1935
 21
-17.2232
  0
LINE
  8
0
 10
-27.1935
 20
-17.2232
 11
-27.1268
 21
-17.1565
  0
LINE
  8
0
 10
-27.1268
 20
-17.1565
 11
-27.0561
 21
-17.0942
  0
LINE
  8
0
 10
-27.0561
 20
-17.0942
 11
-26.9817
 21
-17.0365
  0
LINE
  8
0
 10
-26.9817
 20
-17.0365
 11
-26.9037
 21
-16.9835
  0
LINE
  8
0
 10
-26.9037
 20
-16.9835
 11
-26.8226
 21
-16.9355
  0
LINE
  8
0
 10
-26.8226
 20
-16.9355
 11
-26.7387
 21
-16.8927
  0
LINE
  8
0
 10
-26.7387
 20
-16.8927
 11
-26.6522
 21
-16.8553
  0
LINE
  8
0
 10
-26.6522
 20
-16.8553
 11
-26.5635
 21
-16.8234
  0
LINE
  8
0
 10
-26.5635
 20
-16.8234
 11
-26.473
 21
-16.7971
  0
LINE
  8
0
 10
-26.473
 20
-16.7971
 11
-26.3811
 21
-16.7766
  0
LINE
  8
0
 10
-26.3811
 20
-16.7766
 11
-26.288
 21
-16.7618
  0
LINE
  8
0
 10
-26.288
 20
-16.7618
 11
-26.1942
 21
-16.753
  0
LINE
  8
0
 10
-26.1942
 20
-16.753
 11
-26.1
 21
-16.75
  0
LINE
  8
0
 10
-26.1
 20
-16.75
 11
-26.0058
 21
-16.753
  0
LINE
  8
0
 10
-26.0058
 20
-16.753
 11
-25.912
 21
-16.7618
  0
LINE
  8
0
 10
-25.912
 20
-16.7618
 11
-25.8189
 21
-16.7766
  0
LINE
  8
0
 10
-25.8189
 20
-16.7766
 11
-25.727
 21
-16.7971
  0
LINE
  8
0
 10
-25.727
 20
-16.7971
 11
-25.6365
 21
-16.8234
  0
LINE
  8
0
 10
-25.6365
 20
-16.8234
 11
-25.5478
 21
-16.8553
  0
LINE
  8
0
 10
-25.5478
 20
-16.8553
 11
-25.4613
 21
-16.8927
  0
LINE
  8
0
 10
-25.4613
 20
-16.8927
 11
-25.3774
 21
-16.9355
  0
LINE
  8
0
 10
-25.3774
 20
-16.9355
 11
-25.2962
 21
-16.9835
  0
LINE
  8
0
 10
-25.2962
 20
-16.9835
 11
-25.2183
 21
-17.0365
  0
LINE
  8
0
 10
-25.2183
 20
-17.0365
 11
-25.1439
 21
-17.0942
  0
LINE
  8
0
 10
-25.1439
 20
-17.0942
 11
-25.0732
 21
-17.1565
  0
LINE
  8
0
 10
-25.0732
 20
-17.1565
 11
-25.0065
 21
-17.2232
  0
LINE
  8
0
 10
-25.0065
 20
-17.2232
 11
-24.9442
 21
-17.2939
  0
LINE
  8
0
 10
-24.9442
 20
-17.2939
 11
-24.8865
 21
-17.3683
  0
LINE
  8
0
 10
-24.8865
 20
-17.3683
 11
-24.8335
 21
-17.4463
  0
LINE
  8
0
 10
-24.8335
 20
-17.4463
 11
-24.7855
 21
-17.5274
  0
LINE
  8
0
 10
-24.7855
 20
-17.5274
 11
-24.7428
 21
-17.6113
  0
LINE
  8
0
 10
-24.7428
 20
-17.6113
 11
-24.7053
 21
-17.6978
  0
LINE
  8
0
 10
-24.7053
 20
-17.6978
 11
-24.6734
 21
-17.7865
  0
LINE
  8
0
 10
-24.6734
 20
-17.7865
 11
-24.6471
 21
-17.877
  0
LINE
  8
0
 10
-24.6471
 20
-17.877
 11
-24.6266
 21
-17.9689
  0
LINE
  8
0
 10
-24.6266
 20
-17.9689
 11
-24.6118
 21
-18.062
  0
LINE
  8
0
 10
-24.6118
 20
-18.062
 11
-24.603
 21
-18.1558
  0
LINE
  8
0
 10
-24.603
 20
-18.1558
 11
-24.6
 21
-18.25
  0
LINE
  8
0
 10
-24.6
 20
-18.25
 11
-24.603
 21
-18.3442
  0
LINE
  8
0
 10
-24.603
 20
-18.3442
 11
-24.6118
 21
-18.438
  0
LINE
  8
0
 10
-24.6118
 20
-18.438
 11
-24.6266
 21
-18.5311
  0
LINE
  8
0
 10
-24.6266
 20
-18.5311
 11
-24.6471
 21
-18.623
  0
LINE
  8
0
 10
-24.6471
 20
-18.623
 11
-24.6734
 21
-18.7135
  0
LINE
  8
0
 10
-24.6734
 20
-18.7135
 11
-24.7053
 21
-18.8022
  0
LINE
  8
0
 10
-24.7053
 20
-18.8022
 11
-24.7428
 21
-18.8887
  0
LINE
  8
0
 10
-24.7428
 20
-18.8887
 11
-24.7855
 21
-18.9726
  0
LINE
  8
0
 10
-24.7855
 20
-18.9726
 11
-24.8335
 21
-19.0537
  0
LINE
  8
0
 10
-24.8335
 20
-19.0537
 11
-24.8865
 21
-19.1317
  0
LINE
  8
0
 10
-24.8865
 20
-19.1317
 11
-24.9442
 21
-19.2061
  0
LINE
  8
0
 10
-24.9442
 20
-19.2061
 11
-25.0065
 21
-19.2768
  0
LINE
  8
0
 10
-25.0065
 20
-19.2768
 11
-25.0732
 21
-19.3434
  0
LINE
  8
0
 10
-25.0732
 20
-19.3434
 11
-25.1439
 21
-19.4058
  0
LINE
  8
0
 10
-25.1439
 20
-19.4058
 11
-25.2183
 21
-19.4635
  0
LINE
  8
0
 10
-25.2183
 20
-19.4635
 11
-25.2962
 21
-19.5165
  0
LINE
  8
0
 10
-25.2962
 20
-19.5165
 11
-25.3774
 21
-19.5645
  0
LINE
  8
0
 10
-25.3774
 20
-19.5645
 11
-25.4613
 21
-19.6072
  0
LINE
  8
0
 10
-25.4613
 20
-19.6072
 11
-25.5478
 21
-19.6447
  0
LINE
  8
0
 10
-25.5478
 20
-19.6447
 11
-25.6365
 21
-19.6766
  0
LINE
  8
0
 10
-25.6365
 20
-19.6766
 11
-25.727
 21
-19.7029
  0
LINE
  8
0
 10
-25.727
 20
-19.7029
 11
-25.8189
 21
-19.7234
  0
LINE
  8
0
 10
-25.8189
 20
-19.7234
 11
-25.912
 21
-19.7382
  0
LINE
  8
0
 10
-25.912
 20
-19.7382
 11
-26.0058
 21
-19.747
  0
LINE
  8
0
 10
-26.0058
 20
-19.747
 11
-26.1
 21
-19.75
  0
LINE
  8
0
 10
-26.1
 20
-19.75
 11
-26.1942
 21
-19.747
  0
LINE
  8
0
 10
39.9058
 20
-20.997
 11
39.812
 21
-20.9882
  0
LINE
  8
0
 10
39.812
 20
-20.9882
 11
39.7189
 21
-20.9734
  0
LINE
  8
0
 10
39.7189
 20
-20.9734
 11
39.627
 21
-20.9529
  0
LINE
  8
0
 10
39.627
 20
-20.9529
 11
39.5365
 21
-20.9266
  0
LINE
  8
0
 10
39.5365
 20
-20.9266
 11
39.4478
 21
-20.8947
  0
LINE
  8
0
 10
39.4478
 20
-20.8947
 11
39.3613
 21
-20.8572
  0
LINE
  8
0
 10
39.3613
 20
-20.8572
 11
39.2774
 21
-20.8145
  0
LINE
  8
0
 10
39.2774
 20
-20.8145
 11
39.1963
 21
-20.7665
  0
LINE
  8
0
 10
39.1963
 20
-20.7665
 11
39.1183
 21
-20.7135
  0
LINE
  8
0
 10
39.1183
 20
-20.7135
 11
39.0439
 21
-20.6558
  0
LINE
  8
0
 10
39.0439
 20
-20.6558
 11
38.9732
 21
-20.5934
  0
LINE
  8
0
 10
38.9732
 20
-20.5934
 11
38.9065
 21
-20.5268
  0
LINE
  8
0
 10
38.9065
 20
-20.5268
 11
38.8442
 21
-20.4561
  0
LINE
  8
0
 10
38.8442
 20
-20.4561
 11
38.7865
 21
-20.3817
  0
LINE
  8
0
 10
38.7865
 20
-20.3817
 11
38.7335
 21
-20.3037
  0
LINE
  8
0
 10
38.7335
 20
-20.3037
 11
38.6855
 21
-20.2226
  0
LINE
  8
0
 10
38.6855
 20
-20.2226
 11
38.6428
 21
-20.1387
  0
LINE
  8
0
 10
38.6428
 20
-20.1387
 11
38.6053
 21
-20.0522
  0
LINE
  8
0
 10
38.6053
 20
-20.0522
 11
38.5734
 21
-19.9635
  0
LINE
  8
0
 10
38.5734
 20
-19.9635
 11
38.5471
 21
-19.873
  0
LINE
  8
0
 10
38.5471
 20
-19.873
 11
38.5266
 21
-19.7811
  0
LINE
  8
0
 10
38.5266
 20
-19.7811
 11
38.5118
 21
-19.688
  0
LINE
  8
0
 10
38.5118
 20
-19.688
 11
38.503
 21
-19.5942
  0
LINE
  8
0
 10
38.503
 20
-19.5942
 11
38.5
 21
-19.5
  0
LINE
  8
0
 10
38.5
 20
-19.5
 11
38.503
 21
-19.4058
  0
LINE
  8
0
 10
38.503
 20
-19.4058
 11
38.5118
 21
-19.312
  0
LINE
  8
0
 10
38.5118
 20
-19.312
 11
38.5266
 21
-19.2189
  0
LINE
  8
0
 10
38.5266
 20
-19.2189
 11
38.5471
 21
-19.127
  0
LINE
  8
0
 10
38.5471
 20
-19.127
 11
38.5734
 21
-19.0365
  0
LINE
  8
0
 10
38.5734
 20
-19.0365
 11
38.6053
 21
-18.9478
  0
LINE
  8
0
 10
38.6053
 20
-18.9478
 11
38.6428
 21
-18.8613
  0
LINE
  8
0
 10
38.6428
 20
-18.8613
 11
38.6855
 21
-18.7774
  0
LINE
  8
0
 10
38.6855
 20
-18.7774
 11
38.7335
 21
-18.6963
  0
LINE
  8
0
 10
38.7335
 20
-18.6963
 11
38.7865
 21
-18.6183
  0
LINE
  8
0
 10
38.7865
 20
-18.6183
 11
38.8442
 21
-18.5439
  0
LINE
  8
0
 10
38.8442
 20
-18.5439
 11
38.9065
 21
-18.4732
  0
LINE
  8
0
 10
38.9065
 20
-18.4732
 11
38.9732
 21
-18.4065
  0
LINE
  8
0
 10
38.9732
 20
-18.4065
 11
39.0439
 21
-18.3442
  0
LINE
  8
0
 10
39.0439
 20
-18.3442
 11
39.1183
 21
-18.2865
  0
LINE
  8
0
 10
39.1183
 20
-18.2865
 11
39.1963
 21
-18.2335
  0
LINE
  8
0
 10
39.1963
 20
-18.2335
 11
39.2774
 21
-18.1855
  0
LINE
  8
0
 10
39.2774
 20
-18.1855
 11
39.3613
 21
-18.1428
  0
LINE
  8
0
 10
39.3613
 20
-18.1428
 11
39.4478
 21
-18.1053
  0
LINE
  8
0
 10
39.4478
 20
-18.1053
 11
39.5365
 21
-18.0734
  0
LINE
  8
0
 10
39.5365
 20
-18.0734
 11
39.627
 21
-18.0471
  0
LINE
  8
0
 10
39.627
 20
-18.0471
 11
39.7189
 21
-18.0266
  0
LINE
  8
0
 10
39.7189
 20
-18.0266
 11
39.812
 21
-18.0118
  0
LINE
  8
0
 10
39.812
 20
-18.0118
 11
39.9058
 21
-18.003
  0
LINE
  8
0
 10
39.9058
 20
-18.003
 11
40
 21
-18
  0
LINE
  8
0
 10
40
 20
-18
 11
40.0942
 21
-18.003
  0
LINE
  8
0
 10
40.0942
 20
-18.003
 11
40.188
 21
-18.0118
  0
LINE
  8
0
 10
40.188
 20
-18.0118
 11
40.2811
 21
-18.0266
  0
LINE
  8
0
 10
40.2811
 20
-18.0266
 11
40.373
 21
-18.0471
  0
LINE
  8
0
 10
40.373
 20
-18.0471
 11
40.4635
 21
-18.0734
  0
LINE
  8
0
 10
40.4635
 20
-18.0734
 11
40.5522
 21
-18.1053
  0
LINE
  8
0
 10
40.5522
 20
-18.1053
 11
40.6387
 21
-18.1428
  0
LINE
  8
0
 10
40.6387
 20
-18.1428
 11
40.7226
 21
-18.1855
  0
LINE
  8
0
 10
40.7226
 20
-18.1855
 11
40.8037
 21
-18.2335
  0
LINE
  8
0
 10
40.8037
 20
-18.2335
 11
40.8817
 21
-18.2865
  0
LINE
  8
0
 10
40.8817
 20
-18.2865
 11
40.9561
 21
-18.3442
  0
LINE
  8
0
 10
40.9561
 20
-18.3442
 11
41.0268
 21
-18.4065
  0
LINE
  8
0
 10
41.0268
 20
-18.4065
 11
41.0934
 21
-18.4732
  0
LINE
  8
0
 10
41.0934
 20
-18.4732
 11
41.1558
 21
-18.5439
  0
LINE
  8
0
 10
41.1558
 20
-18.5439
 11
41.2135
 21
-18.6183
  0
LINE
  8
0
 10
41.2135
 20
-18.6183
 11
41.2665
 21
-18.6963
  0
LINE
  8
0
 10
41.2665
 20
-18.6963
 11
41.3145
 21
-18.7774
  0
LINE
  8
0
 10
41.3145
 20
-18.7774
 11
41.3572
 21
-18.8613
  0
LINE
  8
0
 10
41.3572
 20
-18.8613
 11
41.3947
 21
-18.9478
  0
LINE
  8
0
 10
41.3947
 20
-18.9478
 11
41.4266
 21
-19.0365
  0
LINE
  8
0
 10
41.4266
 20
-19.0365
 11
41.4529
 21
-19.127
  0
LINE
  8
0
 10
41.4529
 20
-19.127
 11
41.4734
 21
-19.2189
  0
LINE
  8
0
 10
41.4734
 20
-19.2189
 11
41.4882
 21
-19.312
  0
LINE
  8
0
 10
41.4882
 20
-19.312
 11
41.497
 21
-19.4058
  0
LINE
  8
0
 10
41.497
 20
-19.4058
 11
41.5
 21
-19.5
  0
LINE
  8
0
 10
41.5
 20
-19.5
 11
41.497
 21
-19.5942
  0
LINE
  8
0
 10
41.497
 20
-19.5942
 11
41.4882
 21
-19.688
  0
LINE
  8
0
 10
41.4882
 20
-19.688
 11
41.4734
 21
-19.7811
  0
LINE
  8
0
 10
41.4734
 20
-19.7811
 11
41.4529
 21
-19.873
  0
LINE
  8
0
 10
41.4529
 20
-19.873
 11
41.4266
 21
-19.9635
  0
LINE
  8
0
 10
41.4266
 20
-19.9635
 11
41.3947
 21
-20.0522
  0
LINE
  8
0
 10
41.3947
 20
-20.0522
 11
41.3572
 21
-20.1387
  0
LINE
  8
0
 10
41.3572
 20
-20.1387
 11
41.3145
 21
-20.2226
  0
LINE
  8
0
 10
41.3145
 20
-20.2226
 11
41.2665
 21
-20.3037
  0
LINE
  8
0
 10
41.2665
 20
-20.3037
 11
41.2135
 21
-20.3817
  0
LINE
  8
0
 10
41.2135
 20
-20.3817
 11
41.1558
 21
-20.4561
  0
LINE
  8
0
 10
41.1558
 20
-20.4561
 11
41.0934
 21
-20.5268
  0
LINE
  8
0
 10
41.0934
 20
-20.5268
 11
41.0268
 21
-20.5934
  0
LINE
  8
0
 10
41.0268
 20
-20.5934
 11
40.9561
 21
-20.6558
  0
LINE
  8
0
 10
40.9561
 20
-20.6558
 11
40.8817
 21
-20.7135
  0
LINE
  8
0
 10
40.8817
 20
-20.7135
 11
40.8037
 21
-20.7665
  0
LINE
  8
0
 10
40.8037
 20
-20.7665
 11
40.7226
 21
-20.8145
  0
LINE
  8
0
 10
40.7226
 20
-20.8145
 11
40.6387
 21
-20.8572
  0
LINE
  8
0
 10
40.6387
 20
-20.8572
 11
40.5522
 21
-20.8947
  0
LINE
  8
0
 10
40.5522
 20
-20.8947
 11
40.4635
 21
-20.9266
  0
LINE
  8
0
 10
40.4635
 20
-20.9266
 11
40.373
 21
-20.9529
  0
LINE
  8
0
 10
40.373
 20
-20.9529
 11
40.2811
 21
-20.9734
  0
LINE
  8
0
 10
40.2811
 20
-20.9734
 11
40.188
 21
-20.9882
  0
LINE
  8
0
 10
40.188
 20
-20.9882
 11
40.0942
 21
-20.997
  0
LINE
  8
0
 10
40.0942
 20
-20.997
 11
40
 21
-21
  0
LINE
  8
0
 10
40
 20
-21
 11
39.9058
 21
-20.997
  0
LINE
  8
0
 10
-42.0509
 20
-38.1937
 11
-42.2511
 21
-38.1748
  0
LINE
  8
0
 10
-42.2511
 20
-38.1748
 11
-42.4496
 21
-38.1433
  0
LINE
  8
0
 10
-42.4496
 20
-38.1433
 11
-42.6458
 21
-38.0995
  0
LINE
  8
0
 10
-42.6458
 20
-38.0995
 11
-42.8388
 21
-38.0434
  0
LINE
  8
0
 10
-42.8388
 20
-38.0434
 11
-43.028
 21
-37.9753
  0
LINE
  8
0
 10
-43.028
 20
-37.9753
 11
-43.2125
 21
-37.8954
  0
LINE
  8
0
 10
-43.2125
 20
-37.8954
 11
-43.3916
 21
-37.8042
  0
LINE
  8
0
 10
-43.3916
 20
-37.8042
 11
-43.5646
 21
-37.7018
  0
LINE
  8
0
 10
-43.5646
 20
-37.7018
 11
-43.7309
 21
-37.5889
  0
LINE
  8
0
 10
-43.7309
 20
-37.5889
 11
-43.8897
 21
-37.4656
  0
LINE
  8
0
 10
-43.8897
 20
-37.4656
 11
-44.0405
 21
-37.3327
  0
LINE
  8
0
 10
-44.0405
 20
-37.3327
 11
-44.1827
 21
-37.1905
  0
LINE
  8
0
 10
-44.1827
 20
-37.1905
 11
-44.3156
 21
-37.0397
  0
LINE
  8
0
 10
-44.3156
 20
-37.0397
 11
-44.4388
 21
-36.8809
  0
LINE
  8
0
 10
-44.4388
 20
-36.8809
 11
-44.5518
 21
-36.7146
  0
LINE
  8
0
 10
-44.5518
 20
-36.7146
 11
-44.6542
 21
-36.5416
  0
LINE
  8
0
 10
-44.6542
 20
-36.5416
 11
-44.7454
 21
-36.3625
  0
LINE
  8
0
 10
-44.7454
 20
-36.3625
 11
-44.8253
 21
-36.178
  0
LINE
  8
0
 10
-44.8253
 20
-36.178
 11
-44.8934
 21
-35.9888
  0
LINE
  8
0
 10
-44.8934
 20
-35.9888
 11
-44.9494
 21
-35.7958
  0
LINE
  8
0
 10
-44.9494
 20
-35.7958
 11
-44.9933
 21
-35.5996
  0
LINE
  8
0
 10
-44.9933
 20
-35.5996
 11
-45.0247
 21
-35.4011
  0
LINE
  8
0
 10
-45.0247
 20
-35.4011
 11
-45.0437
 21
-35.2009
  0
LINE
  8
0
 10
-45.0437
 20
-35.2009
 11
-45.05
 21
-35
  0
LINE
  8
0
 10
-45.05
 20
-35
 11
-45.0437
 21
-34.7991
  0
LINE
  8
0
 10
-45.0437
 20
-34.7991
 11
-45.0247
 21
-34.5989
  0
LINE
  8
0
 10
-45.0247
 20
-34.5989
 11
-44.9933
 21
-34.4004
  0
LINE
  8
0
 10
-44.9933
 20
-34.4004
 11
-44.9494
 21
-34.2042
  0
LINE
  8
0
 10
-44.9494
 20
-34.2042
 11
-44.8934
 21
-34.0111
  0
LINE
  8
0
 10
-44.8934
 20
-34.0111
 11
-44.8253
 21
-33.822
  0
LINE
  8
0
 10
-44.8253
 20
-33.822
 11
-44.7454
 21
-33.6375
  0
LINE
  8
0
 10
-44.7454
 20
-33.6375
 11
-44.6542
 21
-33.4584
  0
LINE
  8
0
 10
-44.6542
 20
-33.4584
 11
-44.5518
 21
-33.2853
  0
LINE
  8
0
 10
-44.5518
 20
-33.2853
 11
-44.4388
 21
-33.1191
  0
LINE
  8
0
 10
-44.4388
 20
-33.1191
 11
-44.3156
 21
-32.9602
  0
LINE
  8
0
 10
-44.3156
 20
-32.9602
 11
-44.1827
 21
-32.8094
  0
LINE
  8
0
 10
-44.1827
 20
-32.8094
 11
-44.0405
 21
-32.6673
  0
LINE
  8
0
 10
-44.0405
 20
-32.6673
 11
-43.8897
 21
-32.5343
  0
LINE
  8
0
 10
-43.8897
 20
-32.5343
 11
-43.7309
 21
-32.4111
  0
LINE
  8
0
 10
-43.7309
 20
-32.4111
 11
-43.5646
 21
-32.2981
  0
LINE
  8
0
 10
-43.5646
 20
-32.2981
 11
-43.3916
 21
-32.1958
  0
LINE
  8
0
 10
-43.3916
 20
-32.1958
 11
-43.2125
 21
-32.1046
  0
LINE
  8
0
 10
-43.2125
 20
-32.1046
 11
-43.028
 21
-32.0247
  0
LINE
  8
0
 10
-43.028
 20
-32.0247
 11
-42.8388
 21
-31.9566
  0
LINE
  8
0
 10
-42.8388
 20
-31.9566
 11
-42.6458
 21
-31.9005
  0
LINE
  8
0
 10
-42.6458
 20
-31.9005
 11
-42.4496
 21
-31.8567
  0
LINE
  8
0
 10
-42.4496
 20
-31.8567
 11
-42.2511
 21
-31.8252
  0
LINE
  8
0
 10
-42.2511
 20
-31.8252
 11
-42.0509
 21
-31.8063
  0
LINE
  8
0
 10
-42.0509
 20
-31.8063
 11
-41.85
 21
-31.8
  0
LINE
  8
0
 10
-41.85
 20
-31.8
 11
-41.6491
 21
-31.8063
  0
LINE
  8
0
 10
-41.6491
 20
-31.8063
 11
-41.4489
 21
-31.8252
  0
LINE
  8
0
 10
-41.4489
 20
-31.8252
 11
-41.2504
 21
-31.8567
  0
LINE
  8
0
 10
-41.2504
 20
-31.8567
 11
-41.0542
 21
-31.9005
  0
LINE
  8
0
 10
-41.0542
 20
-31.9005
 11
-40.8611
 21
-31.9566
  0
LINE
  8
0
 10
-40.8611
 20
-31.9566
 11
-40.672
 21
-32.0247
  0
LINE
  8
0
 10
-40.672
 20
-32.0247
 11
-40.4875
 21
-32.1046
  0
LINE
  8
0
 10
-40.4875
 20
-32.1046
 11
-40.3084
 21
-32.1958
  0
LINE
  8
0
 10
-40.3084
 20
-32.1958
 11
-40.1353
 21
-32.2981
  0
LINE
  8
0
 10
-40.1353
 20
-32.2981
 11
-39.9691
 21
-32.4111
  0
LINE
  8
0
 10
-39.9691
 20
-32.4111
 11
-39.8102
 21
-32.5343
  0
LINE
  8
0
 10
-39.8102
 20
-32.5343
 11
-39.6595
 21
-32.6673
  0
LINE
  8
0
 10
-39.6595
 20
-32.6673
 11
-39.5173
 21
-32.8094
  0
LINE
  8
0
 10
-39.5173
 20
-32.8094
 11
-39.3844
 21
-32.9602
  0
LINE
  8
0
 10
-39.3844
 20
-32.9602
 11
-39.2611
 21
-33.1191
  0
LINE
  8
0
 10
-39.2611
 20
-33.1191
 11
-39.1481
 21
-33.2853
  0
LINE
  8
0
 10
-39.1481
 20
-33.2853
 11
-39.0458
 21
-33.4584
  0
LINE
  8
0
 10
-39.0458
 20
-33.4584
 11
-38.9546
 21
-33.6375
  0
LINE
  8
0
 10
-38.9546
 20
-33.6375
 11
-38.8747
 21
-33.822
  0
LINE
  8
0
 10
-38.8747
 20
-33.822
 11
-38.8066
 21
-34.0111
  0
LINE
  8
0
 10
-38.8066
 20
-34.0111
 11
-38.7505
 21
-34.2042
  0
LINE
  8
0
 10
-38.7505
 20
-34.2042
 11
-38.7067
 21
-34.4004
  0
LINE
  8
0
 10
-38.7067
 20
-34.4004
 11
-38.6752
 21
-34.5989
  0
LINE
  8
0
 10
-38.6752
 20
-34.5989
 11
-38.6563
 21
-34.7991
  0
LINE
  8
0
 10
-38.6563
 20
-34.7991
 11
-38.65
 21
-35
  0
LINE
  8
0
 10
-38.65
 20
-35
 11
-38.6563
 21
-35.2009
  0
LINE
  8
0
 10
-38.6563
 20
-35.2009
 11
-38.6752
 21
-35.4011
  0
LINE
  8
0
 10
-38.6752
 20
-35.4011
 11
-38.7067
 21
-35.5996
  0
LINE
  8
0
 10
-38.7067
 20
-35.5996
 11
-38.7505
 21
-35.7958
  0
LINE
  8
0
 10
-38.7505
 20
-35.7958
 11
-38.8066
 21
-35.9888
  0
LINE
  8
0
 10
-38.8066
 20
-35.9888
 11
-38.8747
 21
-36.178
  0
LINE
  8
0
 10
-38.8747
 20
-36.178
 11
-38.9546
 21
-36.3625
  0
LINE
  8
0
 10
-38.9546
 20
-36.3625
 11
-39.0458
 21
-36.5416
  0
LINE
  8
0
 10
-39.0458
 20
-36.5416
 11
-39.1481
 21
-36.7146
  0
LINE
  8
0
 10
-39.1481
 20
-36.7146
 11
-39.2611
 21
-36.8809
  0
LINE
  8
0
 10
-39.2611
 20
-36.8809
 11
-39.3844
 21
-37.0397
  0
LINE
  8
0
 10
-39.3844
 20
-37.0397
 11
-39.5173
 21
-37.1905
  0
LINE
  8
0
 10
-39.5173
 20
-37.1905
 11
-39.6595
 21
-37.3327
  0
LINE
  8
0
 10
-39.6595
 20
-37.3327
 11
-39.8102
 21
-37.4656
  0
LINE
  8
0
 10
-39.8102
 20
-37.4656
 11
-39.9691
 21
-37.5889
  0
LINE
  8
0
 10
-39.9691
 20
-37.5889
 11
-40.1353
 21
-37.7018
  0
LINE
  8
0
 10
-40.1353
 20
-37.7018
 11
-40.3084
 21
-37.8042
  0
LINE
  8
0
 10
-40.3084
 20
-37.8042
 11
-40.4875
 21
-37.8954
  0
LINE
  8
0
 10
-40.4875
 20
-37.8954
 11
-40.672
 21
-37.9753
  0
LINE
  8
0
 10
-40.672
 20
-37.9753
 11
-40.8611
 21
-38.0434
  0
LINE
  8
0
 10
-40.8611
 20
-38.0434
 11
-41.0542
 21
-38.0995
  0
LINE
  8
0
 10
-41.0542
 20
-38.0995
 11
-41.2504
 21
-38.1433
  0
LINE
  8
0
 10
-41.2504
 20
-38.1433
 11
-41.4489
 21
-38.1748
  0
LINE
  8
0
 10
-41.4489
 20
-38.1748
 11
-41.6491
 21
-38.1937
  0
LINE
  8
0
 10
-41.6491
 20
-38.1937
 11
-41.85
 21
-38.2
  0
LINE
  8
0
 10
-41.85
 20
-38.2
 11
-42.0509
 21
-38.1937
  0
LINE
  8
0
 10
57.7942
 20
13.203
 11
57.888
 21
13.2118
  0
LINE
  8
0
 10
57.888
 20
13.2118
 11
57.9811
 21
13.2266
  0
LINE
  8
0
 10
57.9811
 20
13.2266
 11
58.073
 21
13.2471
  0
LINE
  8
0
 10
58.073
 20
13.2471
 11
58.1635
 21
13.2734
  0
LINE
  8
0
 10
58.1635
 20
13.2734
 11
58.2522
 21
13.3053
  0
LINE
  8
0
 10
58.2522
 20
13.3053
 11
58.3387
 21
13.3428
  0
LINE
  8
0
 10
58.3387
 20
13.3428
 11
58.4226
 21
13.3855
  0
LINE
  8
0
 10
58.4226
 20
13.3855
 11
58.5037
 21
13.4335
  0
LINE
  8
0
 10
58.5037
 20
13.4335
 11
58.5817
 21
13.4865
  0
LINE
  8
0
 10
58.5817
 20
13.4865
 11
58.6561
 21
13.5442
  0
LINE
  8
0
 10
58.6561
 20
13.5442
 11
58.7268
 21
13.6065
  0
LINE
  8
0
 10
58.7268
 20
13.6065
 11
58.7934
 21
13.6732
  0
LINE
  8
0
 10
58.7934
 20
13.6732
 11
58.8558
 21
13.7439
  0
LINE
  8
0
 10
58.8558
 20
13.7439
 11
58.9135
 21
13.8183
  0
LINE
  8
0
 10
58.9135
 20
13.8183
 11
58.9665
 21
13.8963
  0
LINE
  8
0
 10
58.9665
 20
13.8963
 11
59.0145
 21
13.9774
  0
LINE
  8
0
 10
59.0145
 20
13.9774
 11
59.0572
 21
14.0613
  0
LINE
  8
0
 10
59.0572
 20
14.0613
 11
59.0947
 21
14.1478
  0
LINE
  8
0
 10
59.0947
 20
14.1478
 11
59.1266
 21
14.2365
  0
LINE
  8
0
 10
59.1266
 20
14.2365
 11
59.1529
 21
14.327
  0
LINE
  8
0
 10
59.1529
 20
14.327
 11
59.1734
 21
14.4189
  0
LINE
  8
0
 10
59.1734
 20
14.4189
 11
59.1882
 21
14.512
  0
LINE
  8
0
 10
59.1882
 20
14.512
 11
59.197
 21
14.6058
  0
LINE
  8
0
 10
59.197
 20
14.6058
 11
59.2
 21
14.7
  0
LINE
  8
0
 10
59.2
 20
14.7
 11
59.197
 21
14.7942
  0
LINE
  8
0
 10
59.197
 20
14.7942
 11
59.1882
 21
14.888
  0
LINE
  8
0
 10
59.1882
 20
14.888
 11
59.1734
 21
14.9811
  0
LINE
  8
0
 10
59.1734
 20
14.9811
 11
59.1529
 21
15.073
  0
LINE
  8
0
 10
59.1529
 20
15.073
 11
59.1266
 21
15.1635
  0
LINE
  8
0
 10
59.1266
 20
15.1635
 11
59.0947
 21
15.2522
  0
LINE
  8
0
 10
59.0947
 20
15.2522
 11
59.0572
 21
15.3387
  0
LINE
  8
0
 10
59.0572
 20
15.3387
 11
59.0145
 21
15.4226
  0
LINE
  8
0
 10
59.0145
 20
15.4226
 11
58.9665
 21
15.5037
  0
LINE
  8
0
 10
58.9665
 20
15.5037
 11
58.9135
 21
15.5817
  0
LINE
  8
0
 10
58.9135
 20
15.5817
 11
58.8558
 21
15.6561
  0
LINE
  8
0
 10
58.8558
 20
15.6561
 11
58.7934
 21
15.7268
  0
LINE
  8
0
 10
58.7934
 20
15.7268
 11
58.7268
 21
15.7934
  0
LINE
  8
0
 10
58.7268
 20
15.7934
 11
58.6561
 21
15.8558
  0
LINE
  8
0
 10
58.6561
 20
15.8558
 11
58.5817
 21
15.9135
  0
LINE
  8
0
 10
58.5817
 20
15.9135
 11
58.5037
 21
15.9665
  0
LINE
  8
0
 10
58.5037
 20
15.9665
 11
58.4226
 21
16.0145
  0
LINE
  8
0
 10
58.4226
 20
16.0145
 11
58.3387
 21
16.0572
  0
LINE
  8
0
 10
58.3387
 20
16.0572
 11
58.2522
 21
16.0947
  0
LINE
  8
0
 10
58.2522
 20
16.0947
 11
58.1635
 21
16.1266
  0
LINE
  8
0
 10
58.1635
 20
16.1266
 11
58.073
 21
16.1529
  0
LINE
  8
0
 10
58.073
 20
16.1529
 11
57.9811
 21
16.1734
  0
LINE
  8
0
 10
57.9811
 20
16.1734
 11
57.888
 21
16.1882
  0
LINE
  8
0
 10
57.888
 20
16.1882
 11
57.7942
 21
16.197
  0
LINE
  8
0
 10
57.7942
 20
16.197
 11
57.7
 21
16.2
  0
LINE
  8
0
 10
57.7
 20
16.2
 11
57.6058
 21
16.197
  0
LINE
  8
0
 10
57.6058
 20
16.197
 11
57.512
 21
16.1882
  0
LINE
  8
0
 10
57.512
 20
16.1882
 11
57.4189
 21
16.1734
  0
LINE
  8
0
 10
57.4189
 20
16.1734
 11
57.327
 21
16.1529
  0
LINE
  8
0
 10
57.327
 20
16.1529
 11
57.2365
 21
16.1266
  0
LINE
  8
0
 10
57.2365
 20
16.1266
 11
57.1478
 21
16.0947
  0
LINE
  8
0
 10
57.1478
 20
16.0947
 11
57.0613
 21
16.0572
  0
LINE
  8
0
 10
57.0613
 20
16.0572
 11
56.9774
 21
16.0145
  0
LINE
  8
0
 10
56.9774
 20
16.0145
 11
56.8963
 21
15.9665
  0
LINE
  8
0
 10
56.8963
 20
15.9665
 11
56.8183
 21
15.9135
  0
LINE
  8
0
 10
56.8183
 20
15.9135
 11
56.7439
 21
15.8558
  0
LINE
  8
0
 10
56.7439
 20
15.8558
 11
56.6732
 21
15.7934
  0
LINE
  8
0
 10
56.6732
 20
15.7934
 11
56.6065
 21
15.7268
  0
LINE
  8
0
 10
56.6065
 20
15.7268
 11
56.5442
 21
15.6561
  0
LINE
  8
0
 10
56.5442
 20
15.6561
 11
56.4865
 21
15.5817
  0
LINE
  8
0
 10
56.4865
 20
15.5817
 11
56.4335
 21
15.5037
  0
LINE
  8
0
 10
56.4335
 20
15.5037
 11
56.3855
 21
15.4226
  0
LINE
  8
0
 10
56.3855
 20
15.4226
 11
56.3428
 21
15.3387
  0
LINE
  8
0
 10
56.3428
 20
15.3387
 11
56.3053
 21
15.2522
  0
LINE
  8
0
 10
56.3053
 20
15.2522
 11
56.2734
 21
15.1635
  0
LINE
  8
0
 10
56.2734
 20
15.1635
 11
56.2471
 21
15.073
  0
LINE
  8
0
 10
56.2471
 20
15.073
 11
56.2266
 21
14.9811
  0
LINE
  8
0
 10
56.2266
 20
14.9811
 11
56.2118
 21
14.888
  0
LINE
  8
0
 10
56.2118
 20
14.888
 11
56.203
 21
14.7942
  0
LINE
  8
0
 10
56.203
 20
14.7942
 11
56.2
 21
14.7
  0
LINE
  8
0
 10
56.2
 20
14.7
 11
56.203
 21
14.6058
  0
LINE
  8
0
 10
56.203
 20
14.6058
 11
56.2118
 21
14.512
  0
LINE
  8
0
 10
56.2118
 20
14.512
 11
56.2266
 21
14.4189
  0
LINE
  8
0
 10
56.2266
 20
14.4189
 11
56.2471
 21
14.327
  0
LINE
  8
0
 10
56.2471
 20
14.327
 11
56.2734
 21
14.2365
  0
LINE
  8
0
 10
56.2734
 20
14.2365
 11
56.3053
 21
14.1478
  0
LINE
  8
0
 10
56.3053
 20
14.1478
 11
56.3428
 21
14.0613
  0
LINE
  8
0
 10
56.3428
 20
14.0613
 11
56.3855
 21
13.9774
  0
LINE
  8
0
 10
56.3855
 20
13.9774
 11
56.4335
 21
13.8963
  0
LINE
  8
0
 10
56.4335
 20
13.8963
 11
56.4865
 21
13.8183
  0
LINE
  8
0
 10
56.4865
 20
13.8183
 11
56.5442
 21
13.7439
  0
LINE
  8
0
 10
56.5442
 20
13.7439
 11
56.6065
 21
13.6732
  0
LINE
  8
0
 10
56.6065
 20
13.6732
 11
56.6732
 21
13.6065
  0
LINE
  8
0
 10
56.6732
 20
13.6065
 11
56.7439
 21
13.5442
  0
LINE
  8
0
 10
56.7439
 20
13.5442
 11
56.8183
 21
13.4865
  0
LINE
  8
0
 10
56.8183
 20
13.4865
 11
56.8963
 21
13.4335
  0
LINE
  8
0
 10
56.8963
 20
13.4335
 11
56.9774
 21
13.3855
  0
LINE
  8
0
 10
56.9774
 20
13.3855
 11
57.0613
 21
13.3428
  0
LINE
  8
0
 10
57.0613
 20
13.3428
 11
57.1478
 21
13.3053
  0
LINE
  8
0
 10
57.1478
 20
13.3053
 11
57.2365
 21
13.2734
  0
LINE
  8
0
 10
57.2365
 20
13.2734
 11
57.327
 21
13.2471
  0
LINE
  8
0
 10
57.327
 20
13.2471
 11
57.4189
 21
13.2266
  0
LINE
  8
0
 10
57.4189
 20
13.2266
 11
57.512
 21
13.2118
  0
LINE
  8
0
 10
57.512
 20
13.2118
 11
57.6058
 21
13.203
  0
LINE
  8
0
 10
57.6058
 20
13.203
 11
57.7
 21
13.2
  0
LINE
  8
0
 10
57.7
 20
13.2
 11
57.7942
 21
13.203
  0
LINE
  8
0
 10
57.7942
 20
-16.197
 11
57.888
 21
-16.1882
  0
LINE
  8
0
 10
57.888
 20
-16.1882
 11
57.9811
 21
-16.1734
  0
LINE
  8
0
 10
57.9811
 20
-16.1734
 11
58.073
 21
-16.1529
  0
LINE
  8
0
 10
58.073
 20
-16.1529
 11
58.1635
 21
-16.1266
  0
LINE
  8
0
 10
58.1635
 20
-16.1266
 11
58.2522
 21
-16.0947
  0
LINE
  8
0
 10
58.2522
 20
-16.0947
 11
58.3387
 21
-16.0572
  0
LINE
  8
0
 10
58.3387
 20
-16.0572
 11
58.4226
 21
-16.0145
  0
LINE
  8
0
 10
58.4226
 20
-16.0145
 11
58.5037
 21
-15.9665
  0
LINE
  8
0
 10
58.5037
 20
-15.9665
 11
58.5817
 21
-15.9135
  0
LINE
  8
0
 10
58.5817
 20
-15.9135
 11
58.6561
 21
-15.8558
  0
LINE
  8
0
 10
58.6561
 20
-15.8558
 11
58.7268
 21
-15.7934
  0
LINE
  8
0
 10
58.7268
 20
-15.7934
 11
58.7934
 21
-15.7268
  0
LINE
  8
0
 10
58.7934
 20
-15.7268
 11
58.8558
 21
-15.6561
  0
LINE
  8
0
 10
58.8558
 20
-15.6561
 11
58.9135
 21
-15.5817
  0
LINE
  8
0
 10
58.9135
 20
-15.5817
 11
58.9665
 21
-15.5037
  0
LINE
  8
0
 10
58.9665
 20
-15.5037
 11
59.0145
 21
-15.4226
  0
LINE
  8
0
 10
59.0145
 20
-15.4226
 11
59.0572
 21
-15.3387
  0
LINE
  8
0
 10
59.0572
 20
-15.3387
 11
59.0947
 21
-15.2522
  0
LINE
  8
0
 10
59.0947
 20
-15.2522
 11
59.1266
 21
-15.1635
  0
LINE
  8
0
 10
59.1266
 20
-15.1635
 11
59.1529
 21
-15.073
  0
LINE
  8
0
 10
59.1529
 20
-15.073
 11
59.1734
 21
-14.9811
  0
LINE
  8
0
 10
59.1734
 20
-14.9811
 11
59.1882
 21
-14.888
  0
LINE
  8
0
 10
59.1882
 20
-14.888
 11
59.197
 21
-14.7942
  0
LINE
  8
0
 10
59.197
 20
-14.7942
 11
59.2
 21
-14.7
  0
LINE
  8
0
 10
59.2
 20
-14.7
 11
59.197
 21
-14.6058
  0
LINE
  8
0
 10
59.197
 20
-14.6058
 11
59.1882
 21
-14.512
  0
LINE
  8
0
 10
59.1882
 20
-14.512
 11
59.1734
 21
-14.4189
  0
LINE
  8
0
 10
59.1734
 20
-14.4189
 11
59.1529
 21
-14.327
  0
LINE
  8
0
 10
59.1529
 20
-14.327
 11
59.1266
 21
-14.2365
  0
LINE
  8
0
 10
59.1266
 20
-14.2365
 11
59.0947
 21
-14.1478
  0
LINE
  8
0
 10
59.0947
 20
-14.1478
 11
59.0572
 21
-14.0613
  0
LINE
  8
0
 10
59.0572
 20
-14.0613
 11
59.0145
 21
-13.9774
  0
LINE
  8
0
 10
59.0145
 20
-13.9774
 11
58.9665
 21
-13.8963
  0
LINE
  8
0
 10
58.9665
 20
-13.8963
 11
58.9135
 21
-13.8183
  0
LINE
  8
0
 10
58.9135
 20
-13.8183
 11
58.8558
 21
-13.7439
  0
LINE
  8
0
 10
58.8558
 20
-13.7439
 11
58.7934
 21
-13.6732
  0
LINE
  8
0
 10
58.7934
 20
-13.6732
 11
58.7268
 21
-13.6065
  0
LINE
  8
0
 10
58.7268
 20
-13.6065
 11
58.6561
 21
-13.5442
  0
LINE
  8
0
 10
58.6561
 20
-13.5442
 11
58.5817
 21
-13.4865
  0
LINE
  8
0
 10
58.5817
 20
-13.4865
 11
58.5037
 21
-13.4335
  0
LINE
  8
0
 10
58.5037
 20
-13.4335
 11
58.4226
 21
-13.3855
  0
LINE
  8
0
 10
58.4226
 20
-13.3855
 11
58.3387
 21
-13.3428
  0
LINE
  8
0
 10
58.3387
 20
-13.3428
 11
58.2522
 21
-13.3053
  0
LINE
  8
0
 10
58.2522
 20
-13.3053
 11
58.1635
 21
-13.2734
  0
LINE
  8
0
 10
58.1635
 20
-13.2734
 11
58.073
 21
-13.2471
  0
LINE
  8
0
 10
58.073
 20
-13.2471
 11
57.9811
 21
-13.2266
  0
LINE
  8
0
 10
57.9811
 20
-13.2266
 11
57.888
 21
-13.2118
  0
LINE
  8
0
 10
57.888
 20
-13.2118
 11
57.7942
 21
-13.203
  0
LINE
  8
0
 10
57.7942
 20
-13.203
 11
57.7
 21
-13.2
  0
LINE
  8
0
 10
57.7
 20
-13.2
 11
57.6058
 21
-13.203
  0
LINE
  8
0
 10
57.6058
 20
-13.203
 11
57.512
 21
-13.2118
  0
LINE
  8
0
 10
57.512
 20
-13.2118
 11
57.4189
 21
-13.2266
  0
LINE
  8
0
 10
57.4189
 20
-13.2266
 11
57.327
 21
-13.2471
  0
LINE
  8
0
 10
57.327
 20
-13.2471
 11
57.2365
 21
-13.2734
  0
LINE
  8
0
 10
57.2365
 20
-13.2734
 11
57.1478
 21
-13.3053
  0
LINE
  8
0
 10
57.1478
 20
-13.3053
 11
57.0613
 21
-13.3428
  0
LINE
  8
0
 10
57.0613
 20
-13.3428
 11
56.9774
 21
-13.3855
  0
LINE
  8
0
 10
56.9774
 20
-13.3855
 11
56.8963
 21
-13.4335
  0
LINE
  8
0
 10
56.8963
 20
-13.4335
 11
56.8183
 21
-13.4865
  0
LINE
  8
0
 10
56.8183
 20
-13.4865
 11
56.7439
 21
-13.5442
  0
LINE
  8
0
 10
56.7439
 20
-13.5442
 11
56.6732
 21
-13.6065
  0
LINE
  8
0
 10
56.6732
 20
-13.6065
 11
56.6065
 21
-13.6732
  0
LINE
  8
0
 10
56.6065
 20
-13.6732
 11
56.5442
 21
-13.7439
  0
LINE
  8
0
 10
56.5442
 20
-13.7439
 11
56.4865
 21
-13.8183
  0
LINE
  8
0
 10
56.4865
 20
-13.8183
 11
56.4335
 21
-13.8963
  0
LINE
  8
0
 10
56.4335
 20
-13.8963
 11
56.3855
 21
-13.9774
  0
LINE
  8
0
 10
56.3855
 20
-13.9774
 11
56.3428
 21
-14.0613
  0
LINE
  8
0
 10
56.3428
 20
-14.0613
 11
56.3053
 21
-14.1478
  0
LINE
  8
0
 10
56.3053
 20
-14.1478
 11
56.2734
 21
-14.2365
  0
LINE
  8
0
 10
56.2734
 20
-14.2365
 11
56.2471
 21
-14.327
  0
LINE
  8
0
 10
56.2471
 20
-14.327
 11
56.2266
 21
-14.4189
  0
LINE
  8
0
 10
56.2266
 20
-14.4189
 11
56.2118
 21
-14.512
  0
LINE
  8
0
 10
56.2118
 20
-14.512
 11
56.203
 21
-14.6058
  0
LINE
  8
0
 10
56.203
 20
-14.6058
 11
56.2
 21
-14.7
  0
LINE
  8
0
 10
56.2
 20
-14.7
 11
56.203
 21
-14.7942
  0
LINE
  8
0
 10
56.203
 20
-14.7942
 11
56.2118
 21
-14.888
  0
LINE
  8
0
 10
56.2118
 20
-14.888
 11
56.2266
 21
-14.9811
  0
LINE
  8
0
 10
56.2266
 20
-14.9811
 11
56.2471
 21
-15.073
  0
LINE
  8
0
 10
56.2471
 20
-15.073
 11
56.2734
 21
-15.1635
  0
LINE
  8
0
 10
56.2734
 20
-15.1635
 11
56.3053
 21
-15.2522
  0
LINE
  8
0
 10
56.3053
 20
-15.2522
 11
56.3428
 21
-15.3387
  0
LINE
  8
0
 10
56.3428
 20
-15.3387
 11
56.3855
 21
-15.4226
  0
LINE
  8
0
 10
56.3855
 20
-15.4226
 11
56.4335
 21
-15.5037
  0
LINE
  8
0
 10
56.4335
 20
-15.5037
 11
56.4865
 21
-15.5817
  0
LINE
  8
0
 10
56.4865
 20
-15.5817
 11
56.5442
 21
-15.6561
  0
LINE
  8
0
 10
56.5442
 20
-15.6561
 11
56.6065
 21
-15.7268
  0
LINE
  8
0
 10
56.6065
 20
-15.7268
 11
56.6732
 21
-15.7934
  0
LINE
  8
0
 10
56.6732
 20
-15.7934
 11
56.7439
 21
-15.8558
  0
LINE
  8
0
 10
56.7439
 20
-15.8558
 11
56.8183
 21
-15.9135
  0
LINE
  8
0
 10
56.8183
 20
-15.9135
 11
56.8963
 21
-15.9665
  0
LINE
  8
0
 10
56.8963
 20
-15.9665
 11
56.9774
 21
-16.0145
  0
LINE
  8
0
 10
56.9774
 20
-16.0145
 11
57.0613
 21
-16.0572
  0
LINE
  8
0
 10
57.0613
 20
-16.0572
 11
57.1478
 21
-16.0947
  0
LINE
  8
0
 10
57.1478
 20
-16.0947
 11
57.2365
 21
-16.1266
  0
LINE
  8
0
 10
57.2365
 20
-16.1266
 11
57.327
 21
-16.1529
  0
LINE
  8
0
 10
57.327
 20
-16.1529
 11
57.4189
 21
-16.1734
  0
LINE
  8
0
 10
57.4189
 20
-16.1734
 11
57.512
 21
-16.1882
  0
LINE
  8
0
 10
57.512
 20
-16.1882
 11
57.6058
 21
-16.197
  0
LINE
  8
0
 10
57.6058
 20
-16.197
 11
57.7
 21
-16.2
  0
LINE
  8
0
 10
57.7
 20
-16.2
 11
57.7942
 21
-16.197
  0
ENDSEC
  0
SECTION
  2
OBJECTS
  0
DICTIONARY
  0
ENDSEC
  0
EOF
