  0
SECTION
  2
BLOCKS
  0
ENDSEC
  0
SECTION
  2
ENTITIES
  0
LINE
  8
0
 10
40.3333
 20
1068
 11
60.5
 21
1068
  0
LINE
  8
0
 10
60.5
 20
1068
 11
60.5
 21
1064
  0
LINE
  8
0
 10
60.5
 20
1064
 11
80.6667
 21
1064
  0
LINE
  8
0
 10
80.6667
 20
1064
 11
80.6667
 21
1068
  0
LINE
  8
0
 10
80.6667
 20
1068
 11
100.833
 21
1068
  0
LINE
  8
0
 10
100.833
 20
1068
 11
100.833
 21
1064
  0
LINE
  8
0
 10
100.833
 20
1064
 11
121
 21
1064
  0
LINE
  8
0
 10
121
 20
1064
 11
121
 21
1068
  0
LINE
  8
0
 10
121
 20
1068
 11
141.167
 21
1068
  0
LINE
  8
0
 10
141.167
 20
1068
 11
141.167
 21
1064
  0
LINE
  8
0
 10
141.167
 20
1064
 11
161.333
 21
1064
  0
LINE
  8
0
 10
161.333
 20
1064
 11
161.333
 21
1068
  0
LINE
  8
0
 10
161.333
 20
1068
 11
181.5
 21
1068
  0
LINE
  8
0
 10
181.5
 20
1068
 11
181.5
 21
1064
  0
LINE
  8
0
 10
181.5
 20
1064
 11
201.667
 21
1064
  0
LINE
  8
0
 10
201.667
 20
1064
 11
201.667
 21
1068
  0
LINE
  8
0
 10
201.667
 20
1068
 11
221.833
 21
1068
  0
LINE
  8
0
 10
221.833
 20
1068
 11
221.833
 21
1064
  0
LINE
  8
0
 10
221.833
 20
1064
 11
242
 21
1064
  0
LINE
  8
0
 10
242
 20
1064
 11
242
 21
1090.67
  0
LINE
  8
0
 10
242
 20
1090.67
 11
246
 21
1090.67
  0
LINE
  8
0
 10
246
 20
1090.67
 11
246
 21
1113.33
  0
LINE
  8
0
 10
246
 20
1113.33
 11
242
 21
1113.33
  0
LINE
  8
0
 10
242
 20
1113.33
 11
242
 21
1136
  0
LINE
  8
0
 10
242
 20
1136
 11
246
 21
1136
  0
LINE
  8
0
 10
246
 20
1136
 11
246
 21
1158.67
  0
LINE
  8
0
 10
246
 20
1158.67
 11
242
 21
1158.67
  0
LINE
  8
0
 10
242
 20
1158.67
 11
242
 21
1181.33
  0
LINE
  8
0
 10
242
 20
1181.33
 11
246
 21
1181.33
  0
LINE
  8
0
 10
246
 20
1181.33
 11
246
 21
1204
  0
LINE
  8
0
 10
246
 20
1204
 11
242
 21
1204
  0
LINE
  8
0
 10
242
 20
1204
 11
242
 21
1226.67
  0
LINE
  8
0
 10
242
 20
1226.67
 11
246
 21
1226.67
  0
LINE
  8
0
 10
246
 20
1226.67
 11
246
 21
1249.33
  0
LINE
  8
0
 10
246
 20
1249.33
 11
242
 21
1249.33
  0
LINE
  8
0
 10
242
 20
1249.33
 11
242
 21
1272
  0
LINE
  8
0
 10
242
 20
1272
 11
246
 21
1272
  0
LINE
  8
0
 10
246
 20
1272
 11
246
 21
1294.67
  0
LINE
  8
0
 10
246
 20
1294.67
 11
242
 21
1294.67
  0
LINE
  8
0
 10
242
 20
1294.67
 11
242
 21
1317.33
  0
LINE
  8
0
 10
242
 20
1317.33
 11
246
 21
1317.33
  0
LINE
  8
0
 10
246
 20
1317.33
 11
246
 21
1340
  0
LINE
  8
0
 10
246
 20
1340
 11
242
 21
1340
  0
LINE
  8
0
 10
242
 20
1340
 11
242
 21
1344
  0
LINE
  8
0
 10
242
 20
1344
 11
221.833
 21
1344
  0
LINE
  8
0
 10
221.833
 20
1344
 11
221.833
 21
1340
  0
LINE
  8
0
 10
221.833
 20
1340
 11
201.667
 21
1340
  0
LINE
  8
0
 10
201.667
 20
1340
 11
201.667
 21
1344
  0
LINE
  8
0
 10
201.667
 20
1344
 11
181.5
 21
1344
  0
LINE
  8
0
 10
181.5
 20
1344
 11
181.5
 21
1340
  0
LINE
  8
0
 10
181.5
 20
1340
 11
161.333
 21
1340
  0
LINE
  8
0
 10
161.333
 20
1340
 11
161.333
 21
1344
  0
LINE
  8
0
 10
161.333
 20
1344
 11
141.167
 21
1344
  0
LINE
  8
0
 10
141.167
 20
1344
 11
141.167
 21
1340
  0
LINE
  8
0
 10
141.167
 20
1340
 11
121
 21
1340
  0
LINE
  8
0
 10
121
 20
1340
 11
121
 21
1344
  0
LINE
  8
0
 10
121
 20
1344
 11
100.833
 21
1344
  0
LINE
  8
0
 10
100.833
 20
1344
 11
100.833
 21
1340
  0
LINE
  8
0
 10
100.833
 20
1340
 11
80.6667
 21
1340
  0
LINE
  8
0
 10
80.6667
 20
1340
 11
80.6667
 21
1344
  0
LINE
  8
0
 10
80.6667
 20
1344
 11
60.5
 21
1344
  0
LINE
  8
0
 10
60.5
 20
1344
 11
60.5
 21
1340
  0
LINE
  8
0
 10
60.5
 20
1340
 11
40.3333
 21
1340
  0
LINE
  8
0
 10
40.3333
 20
1340
 11
40.3333
 21
1344
  0
LINE
  8
0
 10
40.3333
 20
1344
 11
20.1667
 21
1344
  0
LINE
  8
0
 10
20.1667
 20
1344
 11
20.1667
 21
1340
  0
LINE
  8
0
 10
20.1667
 20
1340
 11
-4
 21
1340
  0
LINE
  8
0
 10
-4
 20
1340
 11
-4
 21
1317.33
  0
LINE
  8
0
 10
-4
 20
1317.33
 11
0
 21
1317.33
  0
LINE
  8
0
 10
0
 20
1317.33
 11
0
 21
1294.67
  0
LINE
  8
0
 10
0
 20
1294.67
 11
-4
 21
1294.67
  0
LINE
  8
0
 10
-4
 20
1294.67
 11
-4
 21
1272
  0
LINE
  8
0
 10
-4
 20
1272
 11
0
 21
1272
  0
LINE
  8
0
 10
0
 20
1272
 11
0
 21
1249.33
  0
LINE
  8
0
 10
0
 20
1249.33
 11
-4
 21
1249.33
  0
LINE
  8
0
 10
-4
 20
1249.33
 11
-4
 21
1226.67
  0
LINE
  8
0
 10
-4
 20
1226.67
 11
0
 21
1226.67
  0
LINE
  8
0
 10
0
 20
1226.67
 11
0
 21
1204
  0
LINE
  8
0
 10
0
 20
1204
 11
-4
 21
1204
  0
LINE
  8
0
 10
-4
 20
1204
 11
-4
 21
1181.33
  0
LINE
  8
0
 10
-4
 20
1181.33
 11
0
 21
1181.33
  0
LINE
  8
0
 10
0
 20
1181.33
 11
0
 21
1158.67
  0
LINE
  8
0
 10
0
 20
1158.67
 11
-4
 21
1158.67
  0
LINE
  8
0
 10
-4
 20
1158.67
 11
-4
 21
1136
  0
LINE
  8
0
 10
-4
 20
1136
 11
0
 21
1136
  0
LINE
  8
0
 10
0
 20
1136
 11
0
 21
1113.33
  0
LINE
  8
0
 10
0
 20
1113.33
 11
-4
 21
1113.33
  0
LINE
  8
0
 10
-4
 20
1113.33
 11
-4
 21
1090.67
  0
LINE
  8
0
 10
-4
 20
1090.67
 11
0
 21
1090.67
  0
LINE
  8
0
 10
0
 20
1090.67
 11
0
 21
1068
  0
LINE
  8
0
 10
0
 20
1068
 11
20.1667
 21
1068
  0
LINE
  8
0
 10
20.1667
 20
1068
 11
20.1667
 21
1064
  0
LINE
  8
0
 10
20.1667
 20
1064
 11
40.3333
 21
1064
  0
LINE
  8
0
 10
40.3333
 20
1064
 11
40.3333
 21
1068
  0
LINE
  8
0
 10
41
 20
816
 11
61.5
 21
816
  0
LINE
  8
0
 10
61.5
 20
816
 11
61.5
 21
812
  0
LINE
  8
0
 10
61.5
 20
812
 11
82
 21
812
  0
LINE
  8
0
 10
82
 20
812
 11
82
 21
816
  0
LINE
  8
0
 10
82
 20
816
 11
102.5
 21
816
  0
LINE
  8
0
 10
102.5
 20
816
 11
102.5
 21
812
  0
LINE
  8
0
 10
102.5
 20
812
 11
123
 21
812
  0
LINE
  8
0
 10
123
 20
812
 11
123
 21
816
  0
LINE
  8
0
 10
123
 20
816
 11
143.5
 21
816
  0
LINE
  8
0
 10
143.5
 20
816
 11
143.5
 21
812
  0
LINE
  8
0
 10
143.5
 20
812
 11
164
 21
812
  0
LINE
  8
0
 10
164
 20
812
 11
164
 21
816
  0
LINE
  8
0
 10
164
 20
816
 11
184.5
 21
816
  0
LINE
  8
0
 10
184.5
 20
816
 11
184.5
 21
812
  0
LINE
  8
0
 10
184.5
 20
812
 11
205
 21
812
  0
LINE
  8
0
 10
205
 20
812
 11
205
 21
816
  0
LINE
  8
0
 10
205
 20
816
 11
225.5
 21
816
  0
LINE
  8
0
 10
225.5
 20
816
 11
225.5
 21
812
  0
LINE
  8
0
 10
225.5
 20
812
 11
246
 21
812
  0
LINE
  8
0
 10
246
 20
812
 11
246
 21
1058
  0
LINE
  8
0
 10
246
 20
1058
 11
225.5
 21
1058
  0
LINE
  8
0
 10
225.5
 20
1058
 11
225.5
 21
1062
  0
LINE
  8
0
 10
225.5
 20
1062
 11
205
 21
1062
  0
LINE
  8
0
 10
205
 20
1062
 11
205
 21
1058
  0
LINE
  8
0
 10
205
 20
1058
 11
184.5
 21
1058
  0
LINE
  8
0
 10
184.5
 20
1058
 11
184.5
 21
1062
  0
LINE
  8
0
 10
184.5
 20
1062
 11
164
 21
1062
  0
LINE
  8
0
 10
164
 20
1062
 11
164
 21
1058
  0
LINE
  8
0
 10
164
 20
1058
 11
143.5
 21
1058
  0
LINE
  8
0
 10
143.5
 20
1058
 11
143.5
 21
1062
  0
LINE
  8
0
 10
143.5
 20
1062
 11
123
 21
1062
  0
LINE
  8
0
 10
123
 20
1062
 11
123
 21
1058
  0
LINE
  8
0
 10
123
 20
1058
 11
102.5
 21
1058
  0
LINE
  8
0
 10
102.5
 20
1058
 11
102.5
 21
1062
  0
LINE
  8
0
 10
102.5
 20
1062
 11
82
 21
1062
  0
LINE
  8
0
 10
82
 20
1062
 11
82
 21
1058
  0
LINE
  8
0
 10
82
 20
1058
 11
61.5
 21
1058
  0
LINE
  8
0
 10
61.5
 20
1058
 11
61.5
 21
1062
  0
LINE
  8
0
 10
61.5
 20
1062
 11
41
 21
1062
  0
LINE
  8
0
 10
41
 20
1062
 11
41
 21
1058
  0
LINE
  8
0
 10
41
 20
1058
 11
20.5
 21
1058
  0
LINE
  8
0
 10
20.5
 20
1058
 11
20.5
 21
1062
  0
LINE
  8
0
 10
20.5
 20
1062
 11
-4
 21
1062
  0
LINE
  8
0
 10
-4
 20
1062
 11
-4
 21
1058
  0
LINE
  8
0
 10
-4
 20
1058
 11
0
 21
1058
  0
LINE
  8
0
 10
0
 20
1058
 11
0
 21
1037.83
  0
LINE
  8
0
 10
0
 20
1037.83
 11
-4
 21
1037.83
  0
LINE
  8
0
 10
-4
 20
1037.83
 11
-4
 21
1017.67
  0
LINE
  8
0
 10
-4
 20
1017.67
 11
0
 21
1017.67
  0
LINE
  8
0
 10
0
 20
1017.67
 11
0
 21
997.5
  0
LINE
  8
0
 10
0
 20
997.5
 11
-4
 21
997.5
  0
LINE
  8
0
 10
-4
 20
997.5
 11
-4
 21
977.333
  0
LINE
  8
0
 10
-4
 20
977.333
 11
0
 21
977.333
  0
LINE
  8
0
 10
0
 20
977.333
 11
0
 21
957.167
  0
LINE
  8
0
 10
0
 20
957.167
 11
-4
 21
957.167
  0
LINE
  8
0
 10
-4
 20
957.167
 11
-4
 21
937
  0
LINE
  8
0
 10
-4
 20
937
 11
0
 21
937
  0
LINE
  8
0
 10
0
 20
937
 11
0
 21
916.833
  0
LINE
  8
0
 10
0
 20
916.833
 11
-4
 21
916.833
  0
LINE
  8
0
 10
-4
 20
916.833
 11
-4
 21
896.667
  0
LINE
  8
0
 10
-4
 20
896.667
 11
0
 21
896.667
  0
LINE
  8
0
 10
0
 20
896.667
 11
0
 21
876.5
  0
LINE
  8
0
 10
0
 20
876.5
 11
-4
 21
876.5
  0
LINE
  8
0
 10
-4
 20
876.5
 11
-4
 21
856.333
  0
LINE
  8
0
 10
-4
 20
856.333
 11
0
 21
856.333
  0
LINE
  8
0
 10
0
 20
856.333
 11
0
 21
836.167
  0
LINE
  8
0
 10
0
 20
836.167
 11
-4
 21
836.167
  0
LINE
  8
0
 10
-4
 20
836.167
 11
-4
 21
816
  0
LINE
  8
0
 10
-4
 20
816
 11
20.5
 21
816
  0
LINE
  8
0
 10
20.5
 20
816
 11
20.5
 21
812
  0
LINE
  8
0
 10
20.5
 20
812
 11
41
 21
812
  0
LINE
  8
0
 10
41
 20
812
 11
41
 21
816
  0
LINE
  8
0
 10
220.843
 20
993.175
 11
220.688
 21
993.2
  0
LINE
  8
0
 10
220.688
 20
993.2
 11
220.536
 21
993.24
  0
LINE
  8
0
 10
220.536
 20
993.24
 11
220.39
 21
993.297
  0
LINE
  8
0
 10
220.39
 20
993.297
 11
220.25
 21
993.368
  0
LINE
  8
0
 10
220.25
 20
993.368
 11
220.118
 21
993.453
  0
LINE
  8
0
 10
220.118
 20
993.453
 11
219.996
 21
993.552
  0
LINE
  8
0
 10
219.996
 20
993.552
 11
219.885
 21
993.663
  0
LINE
  8
0
 10
219.885
 20
993.663
 11
219.786
 21
993.785
  0
LINE
  8
0
 10
219.786
 20
993.785
 11
219.701
 21
993.917
  0
LINE
  8
0
 10
219.701
 20
993.917
 11
219.63
 21
994.057
  0
LINE
  8
0
 10
219.63
 20
994.057
 11
219.573
 21
994.203
  0
LINE
  8
0
 10
219.573
 20
994.203
 11
219.533
 21
994.355
  0
LINE
  8
0
 10
219.533
 20
994.355
 11
219.508
 21
994.51
  0
LINE
  8
0
 10
219.508
 20
994.51
 11
219.5
 21
994.667
  0
LINE
  8
0
 10
219.5
 20
994.667
 11
219.508
 21
994.824
  0
LINE
  8
0
 10
219.508
 20
994.824
 11
219.533
 21
994.979
  0
LINE
  8
0
 10
219.533
 20
994.979
 11
219.573
 21
995.131
  0
LINE
  8
0
 10
219.573
 20
995.131
 11
219.63
 21
995.277
  0
LINE
  8
0
 10
219.63
 20
995.277
 11
219.701
 21
995.417
  0
LINE
  8
0
 10
219.701
 20
995.417
 11
219.786
 21
995.549
  0
LINE
  8
0
 10
219.786
 20
995.549
 11
219.885
 21
995.671
  0
LINE
  8
0
 10
219.885
 20
995.671
 11
219.996
 21
995.782
  0
LINE
  8
0
 10
219.996
 20
995.782
 11
220.118
 21
995.881
  0
LINE
  8
0
 10
220.118
 20
995.881
 11
220.25
 21
995.966
  0
LINE
  8
0
 10
220.25
 20
995.966
 11
220.39
 21
996.037
  0
LINE
  8
0
 10
220.39
 20
996.037
 11
220.536
 21
996.094
  0
LINE
  8
0
 10
220.536
 20
996.094
 11
220.688
 21
996.134
  0
LINE
  8
0
 10
220.688
 20
996.134
 11
220.843
 21
996.159
  0
LINE
  8
0
 10
220.843
 20
996.159
 11
221
 21
996.167
  0
LINE
  8
0
 10
221
 20
996.167
 11
221.157
 21
996.159
  0
LINE
  8
0
 10
221.157
 20
996.159
 11
221.312
 21
996.134
  0
LINE
  8
0
 10
221.312
 20
996.134
 11
221.464
 21
996.094
  0
LINE
  8
0
 10
221.464
 20
996.094
 11
221.61
 21
996.037
  0
LINE
  8
0
 10
221.61
 20
996.037
 11
221.75
 21
995.966
  0
LINE
  8
0
 10
221.75
 20
995.966
 11
221.882
 21
995.881
  0
LINE
  8
0
 10
221.882
 20
995.881
 11
222.004
 21
995.782
  0
LINE
  8
0
 10
222.004
 20
995.782
 11
222.115
 21
995.671
  0
LINE
  8
0
 10
222.115
 20
995.671
 11
222.214
 21
995.549
  0
LINE
  8
0
 10
222.214
 20
995.549
 11
222.299
 21
995.417
  0
LINE
  8
0
 10
222.299
 20
995.417
 11
222.37
 21
995.277
  0
LINE
  8
0
 10
222.37
 20
995.277
 11
222.427
 21
995.131
  0
LINE
  8
0
 10
222.427
 20
995.131
 11
222.467
 21
994.979
  0
LINE
  8
0
 10
222.467
 20
994.979
 11
222.492
 21
994.824
  0
LINE
  8
0
 10
222.492
 20
994.824
 11
222.5
 21
994.667
  0
LINE
  8
0
 10
222.5
 20
994.667
 11
222.492
 21
994.51
  0
LINE
  8
0
 10
222.492
 20
994.51
 11
222.467
 21
994.355
  0
LINE
  8
0
 10
222.467
 20
994.355
 11
222.427
 21
994.203
  0
LINE
  8
0
 10
222.427
 20
994.203
 11
222.37
 21
994.057
  0
LINE
  8
0
 10
222.37
 20
994.057
 11
222.299
 21
993.917
  0
LINE
  8
0
 10
222.299
 20
993.917
 11
222.214
 21
993.785
  0
LINE
  8
0
 10
222.214
 20
993.785
 11
222.115
 21
993.663
  0
LINE
  8
0
 10
222.115
 20
993.663
 11
222.004
 21
993.552
  0
LINE
  8
0
 10
222.004
 20
993.552
 11
221.882
 21
993.453
  0
LINE
  8
0
 10
221.882
 20
993.453
 11
221.75
 21
993.368
  0
LINE
  8
0
 10
221.75
 20
993.368
 11
221.61
 21
993.297
  0
LINE
  8
0
 10
221.61
 20
993.297
 11
221.464
 21
993.24
  0
LINE
  8
0
 10
221.464
 20
993.24
 11
221.312
 21
993.2
  0
LINE
  8
0
 10
221.312
 20
993.2
 11
221.157
 21
993.175
  0
LINE
  8
0
 10
221.157
 20
993.175
 11
221
 21
993.167
  0
LINE
  8
0
 10
221
 20
993.167
 11
220.843
 21
993.175
  0
LINE
  8
0
 10
220.843
 20
961.175
 11
220.688
 21
961.2
  0
LINE
  8
0
 10
220.688
 20
961.2
 11
220.536
 21
961.24
  0
LINE
  8
0
 10
220.536
 20
961.24
 11
220.39
 21
961.297
  0
LINE
  8
0
 10
220.39
 20
961.297
 11
220.25
 21
961.368
  0
LINE
  8
0
 10
220.25
 20
961.368
 11
220.118
 21
961.453
  0
LINE
  8
0
 10
220.118
 20
961.453
 11
219.996
 21
961.552
  0
LINE
  8
0
 10
219.996
 20
961.552
 11
219.885
 21
961.663
  0
LINE
  8
0
 10
219.885
 20
961.663
 11
219.786
 21
961.785
  0
LINE
  8
0
 10
219.786
 20
961.785
 11
219.701
 21
961.917
  0
LINE
  8
0
 10
219.701
 20
961.917
 11
219.63
 21
962.057
  0
LINE
  8
0
 10
219.63
 20
962.057
 11
219.573
 21
962.203
  0
LINE
  8
0
 10
219.573
 20
962.203
 11
219.533
 21
962.355
  0
LINE
  8
0
 10
219.533
 20
962.355
 11
219.508
 21
962.51
  0
LINE
  8
0
 10
219.508
 20
962.51
 11
219.5
 21
962.667
  0
LINE
  8
0
 10
219.5
 20
962.667
 11
219.508
 21
962.824
  0
LINE
  8
0
 10
219.508
 20
962.824
 11
219.533
 21
962.979
  0
LINE
  8
0
 10
219.533
 20
962.979
 11
219.573
 21
963.131
  0
LINE
  8
0
 10
219.573
 20
963.131
 11
219.63
 21
963.277
  0
LINE
  8
0
 10
219.63
 20
963.277
 11
219.701
 21
963.417
  0
LINE
  8
0
 10
219.701
 20
963.417
 11
219.786
 21
963.549
  0
LINE
  8
0
 10
219.786
 20
963.549
 11
219.885
 21
963.671
  0
LINE
  8
0
 10
219.885
 20
963.671
 11
219.996
 21
963.782
  0
LINE
  8
0
 10
219.996
 20
963.782
 11
220.118
 21
963.881
  0
LINE
  8
0
 10
220.118
 20
963.881
 11
220.25
 21
963.966
  0
LINE
  8
0
 10
220.25
 20
963.966
 11
220.39
 21
964.037
  0
LINE
  8
0
 10
220.39
 20
964.037
 11
220.536
 21
964.094
  0
LINE
  8
0
 10
220.536
 20
964.094
 11
220.688
 21
964.134
  0
LINE
  8
0
 10
220.688
 20
964.134
 11
220.843
 21
964.159
  0
LINE
  8
0
 10
220.843
 20
964.159
 11
221
 21
964.167
  0
LINE
  8
0
 10
221
 20
964.167
 11
221.157
 21
964.159
  0
LINE
  8
0
 10
221.157
 20
964.159
 11
221.312
 21
964.134
  0
LINE
  8
0
 10
221.312
 20
964.134
 11
221.464
 21
964.094
  0
LINE
  8
0
 10
221.464
 20
964.094
 11
221.61
 21
964.037
  0
LINE
  8
0
 10
221.61
 20
964.037
 11
221.75
 21
963.966
  0
LINE
  8
0
 10
221.75
 20
963.966
 11
221.882
 21
963.881
  0
LINE
  8
0
 10
221.882
 20
963.881
 11
222.004
 21
963.782
  0
LINE
  8
0
 10
222.004
 20
963.782
 11
222.115
 21
963.671
  0
LINE
  8
0
 10
222.115
 20
963.671
 11
222.214
 21
963.549
  0
LINE
  8
0
 10
222.214
 20
963.549
 11
222.299
 21
963.417
  0
LINE
  8
0
 10
222.299
 20
963.417
 11
222.37
 21
963.277
  0
LINE
  8
0
 10
222.37
 20
963.277
 11
222.427
 21
963.131
  0
LINE
  8
0
 10
222.427
 20
963.131
 11
222.467
 21
962.979
  0
LINE
  8
0
 10
222.467
 20
962.979
 11
222.492
 21
962.824
  0
LINE
  8
0
 10
222.492
 20
962.824
 11
222.5
 21
962.667
  0
LINE
  8
0
 10
222.5
 20
962.667
 11
222.492
 21
962.51
  0
LINE
  8
0
 10
222.492
 20
962.51
 11
222.467
 21
962.355
  0
LINE
  8
0
 10
222.467
 20
962.355
 11
222.427
 21
962.203
  0
LINE
  8
0
 10
222.427
 20
962.203
 11
222.37
 21
962.057
  0
LINE
  8
0
 10
222.37
 20
962.057
 11
222.299
 21
961.917
  0
LINE
  8
0
 10
222.299
 20
961.917
 11
222.214
 21
961.785
  0
LINE
  8
0
 10
222.214
 20
961.785
 11
222.115
 21
961.663
  0
LINE
  8
0
 10
222.115
 20
961.663
 11
222.004
 21
961.552
  0
LINE
  8
0
 10
222.004
 20
961.552
 11
221.882
 21
961.453
  0
LINE
  8
0
 10
221.882
 20
961.453
 11
221.75
 21
961.368
  0
LINE
  8
0
 10
221.75
 20
961.368
 11
221.61
 21
961.297
  0
LINE
  8
0
 10
221.61
 20
961.297
 11
221.464
 21
961.24
  0
LINE
  8
0
 10
221.464
 20
961.24
 11
221.312
 21
961.2
  0
LINE
  8
0
 10
221.312
 20
961.2
 11
221.157
 21
961.175
  0
LINE
  8
0
 10
221.157
 20
961.175
 11
221
 21
961.167
  0
LINE
  8
0
 10
221
 20
961.167
 11
220.843
 21
961.175
  0
LINE
  8
0
 10
220.843
 20
909.841
 11
220.688
 21
909.866
  0
LINE
  8
0
 10
220.688
 20
909.866
 11
220.536
 21
909.907
  0
LINE
  8
0
 10
220.536
 20
909.907
 11
220.39
 21
909.963
  0
LINE
  8
0
 10
220.39
 20
909.963
 11
220.25
 21
910.034
  0
LINE
  8
0
 10
220.25
 20
910.034
 11
220.118
 21
910.12
  0
LINE
  8
0
 10
220.118
 20
910.12
 11
219.996
 21
910.219
  0
LINE
  8
0
 10
219.996
 20
910.219
 11
219.885
 21
910.33
  0
LINE
  8
0
 10
219.885
 20
910.33
 11
219.786
 21
910.452
  0
LINE
  8
0
 10
219.786
 20
910.452
 11
219.701
 21
910.583
  0
LINE
  8
0
 10
219.701
 20
910.583
 11
219.63
 21
910.723
  0
LINE
  8
0
 10
219.63
 20
910.723
 11
219.573
 21
910.87
  0
LINE
  8
0
 10
219.573
 20
910.87
 11
219.533
 21
911.021
  0
LINE
  8
0
 10
219.533
 20
911.021
 11
219.508
 21
911.177
  0
LINE
  8
0
 10
219.508
 20
911.177
 11
219.5
 21
911.333
  0
LINE
  8
0
 10
219.5
 20
911.333
 11
219.508
 21
911.49
  0
LINE
  8
0
 10
219.508
 20
911.49
 11
219.533
 21
911.645
  0
LINE
  8
0
 10
219.533
 20
911.645
 11
219.573
 21
911.797
  0
LINE
  8
0
 10
219.573
 20
911.797
 11
219.63
 21
911.943
  0
LINE
  8
0
 10
219.63
 20
911.943
 11
219.701
 21
912.083
  0
LINE
  8
0
 10
219.701
 20
912.083
 11
219.786
 21
912.215
  0
LINE
  8
0
 10
219.786
 20
912.215
 11
219.885
 21
912.337
  0
LINE
  8
0
 10
219.885
 20
912.337
 11
219.996
 21
912.448
  0
LINE
  8
0
 10
219.996
 20
912.448
 11
220.118
 21
912.547
  0
LINE
  8
0
 10
220.118
 20
912.547
 11
220.25
 21
912.632
  0
LINE
  8
0
 10
220.25
 20
912.632
 11
220.39
 21
912.704
  0
LINE
  8
0
 10
220.39
 20
912.704
 11
220.536
 21
912.76
  0
LINE
  8
0
 10
220.536
 20
912.76
 11
220.688
 21
912.801
  0
LINE
  8
0
 10
220.688
 20
912.801
 11
220.843
 21
912.825
  0
LINE
  8
0
 10
220.843
 20
912.825
 11
221
 21
912.833
  0
LINE
  8
0
 10
221
 20
912.833
 11
221.157
 21
912.825
  0
LINE
  8
0
 10
221.157
 20
912.825
 11
221.312
 21
912.801
  0
LINE
  8
0
 10
221.312
 20
912.801
 11
221.464
 21
912.76
  0
LINE
  8
0
 10
221.464
 20
912.76
 11
221.61
 21
912.704
  0
LINE
  8
0
 10
221.61
 20
912.704
 11
221.75
 21
912.632
  0
LINE
  8
0
 10
221.75
 20
912.632
 11
221.882
 21
912.547
  0
LINE
  8
0
 10
221.882
 20
912.547
 11
222.004
 21
912.448
  0
LINE
  8
0
 10
222.004
 20
912.448
 11
222.115
 21
912.337
  0
LINE
  8
0
 10
222.115
 20
912.337
 11
222.214
 21
912.215
  0
LINE
  8
0
 10
222.214
 20
912.215
 11
222.299
 21
912.083
  0
LINE
  8
0
 10
222.299
 20
912.083
 11
222.37
 21
911.943
  0
LINE
  8
0
 10
222.37
 20
911.943
 11
222.427
 21
911.797
  0
LINE
  8
0
 10
222.427
 20
911.797
 11
222.467
 21
911.645
  0
LINE
  8
0
 10
222.467
 20
911.645
 11
222.492
 21
911.49
  0
LINE
  8
0
 10
222.492
 20
911.49
 11
222.5
 21
911.333
  0
LINE
  8
0
 10
222.5
 20
911.333
 11
222.492
 21
911.177
  0
LINE
  8
0
 10
222.492
 20
911.177
 11
222.467
 21
911.021
  0
LINE
  8
0
 10
222.467
 20
911.021
 11
222.427
 21
910.87
  0
LINE
  8
0
 10
222.427
 20
910.87
 11
222.37
 21
910.723
  0
LINE
  8
0
 10
222.37
 20
910.723
 11
222.299
 21
910.583
  0
LINE
  8
0
 10
222.299
 20
910.583
 11
222.214
 21
910.452
  0
LINE
  8
0
 10
222.214
 20
910.452
 11
222.115
 21
910.33
  0
LINE
  8
0
 10
222.115
 20
910.33
 11
222.004
 21
910.219
  0
LINE
  8
0
 10
222.004
 20
910.219
 11
221.882
 21
910.12
  0
LINE
  8
0
 10
221.882
 20
910.12
 11
221.75
 21
910.034
  0
LINE
  8
0
 10
221.75
 20
910.034
 11
221.61
 21
909.963
  0
LINE
  8
0
 10
221.61
 20
909.963
 11
221.464
 21
909.907
  0
LINE
  8
0
 10
221.464
 20
909.907
 11
221.312
 21
909.866
  0
LINE
  8
0
 10
221.312
 20
909.866
 11
221.157
 21
909.841
  0
LINE
  8
0
 10
221.157
 20
909.841
 11
221
 21
909.833
  0
LINE
  8
0
 10
221
 20
909.833
 11
220.843
 21
909.841
  0
LINE
  8
0
 10
220.843
 20
877.841
 11
220.688
 21
877.866
  0
LINE
  8
0
 10
220.688
 20
877.866
 11
220.536
 21
877.907
  0
LINE
  8
0
 10
220.536
 20
877.907
 11
220.39
 21
877.963
  0
LINE
  8
0
 10
220.39
 20
877.963
 11
220.25
 21
878.034
  0
LINE
  8
0
 10
220.25
 20
878.034
 11
220.118
 21
878.12
  0
LINE
  8
0
 10
220.118
 20
878.12
 11
219.996
 21
878.219
  0
LINE
  8
0
 10
219.996
 20
878.219
 11
219.885
 21
878.33
  0
LINE
  8
0
 10
219.885
 20
878.33
 11
219.786
 21
878.452
  0
LINE
  8
0
 10
219.786
 20
878.452
 11
219.701
 21
878.583
  0
LINE
  8
0
 10
219.701
 20
878.583
 11
219.63
 21
878.723
  0
LINE
  8
0
 10
219.63
 20
878.723
 11
219.573
 21
878.87
  0
LINE
  8
0
 10
219.573
 20
878.87
 11
219.533
 21
879.021
  0
LINE
  8
0
 10
219.533
 20
879.021
 11
219.508
 21
879.177
  0
LINE
  8
0
 10
219.508
 20
879.177
 11
219.5
 21
879.333
  0
LINE
  8
0
 10
219.5
 20
879.333
 11
219.508
 21
879.49
  0
LINE
  8
0
 10
219.508
 20
879.49
 11
219.533
 21
879.645
  0
LINE
  8
0
 10
219.533
 20
879.645
 11
219.573
 21
879.797
  0
LINE
  8
0
 10
219.573
 20
879.797
 11
219.63
 21
879.943
  0
LINE
  8
0
 10
219.63
 20
879.943
 11
219.701
 21
880.083
  0
LINE
  8
0
 10
219.701
 20
880.083
 11
219.786
 21
880.215
  0
LINE
  8
0
 10
219.786
 20
880.215
 11
219.885
 21
880.337
  0
LINE
  8
0
 10
219.885
 20
880.337
 11
219.996
 21
880.448
  0
LINE
  8
0
 10
219.996
 20
880.448
 11
220.118
 21
880.547
  0
LINE
  8
0
 10
220.118
 20
880.547
 11
220.25
 21
880.632
  0
LINE
  8
0
 10
220.25
 20
880.632
 11
220.39
 21
880.704
  0
LINE
  8
0
 10
220.39
 20
880.704
 11
220.536
 21
880.76
  0
LINE
  8
0
 10
220.536
 20
880.76
 11
220.688
 21
880.801
  0
LINE
  8
0
 10
220.688
 20
880.801
 11
220.843
 21
880.825
  0
LINE
  8
0
 10
220.843
 20
880.825
 11
221
 21
880.833
  0
LINE
  8
0
 10
221
 20
880.833
 11
221.157
 21
880.825
  0
LINE
  8
0
 10
221.157
 20
880.825
 11
221.312
 21
880.801
  0
LINE
  8
0
 10
221.312
 20
880.801
 11
221.464
 21
880.76
  0
LINE
  8
0
 10
221.464
 20
880.76
 11
221.61
 21
880.704
  0
LINE
  8
0
 10
221.61
 20
880.704
 11
221.75
 21
880.632
  0
LINE
  8
0
 10
221.75
 20
880.632
 11
221.882
 21
880.547
  0
LINE
  8
0
 10
221.882
 20
880.547
 11
222.004
 21
880.448
  0
LINE
  8
0
 10
222.004
 20
880.448
 11
222.115
 21
880.337
  0
LINE
  8
0
 10
222.115
 20
880.337
 11
222.214
 21
880.215
  0
LINE
  8
0
 10
222.214
 20
880.215
 11
222.299
 21
880.083
  0
LINE
  8
0
 10
222.299
 20
880.083
 11
222.37
 21
879.943
  0
LINE
  8
0
 10
222.37
 20
879.943
 11
222.427
 21
879.797
  0
LINE
  8
0
 10
222.427
 20
879.797
 11
222.467
 21
879.645
  0
LINE
  8
0
 10
222.467
 20
879.645
 11
222.492
 21
879.49
  0
LINE
  8
0
 10
222.492
 20
879.49
 11
222.5
 21
879.333
  0
LINE
  8
0
 10
222.5
 20
879.333
 11
222.492
 21
879.177
  0
LINE
  8
0
 10
222.492
 20
879.177
 11
222.467
 21
879.021
  0
LINE
  8
0
 10
222.467
 20
879.021
 11
222.427
 21
878.87
  0
LINE
  8
0
 10
222.427
 20
878.87
 11
222.37
 21
878.723
  0
LINE
  8
0
 10
222.37
 20
878.723
 11
222.299
 21
878.583
  0
LINE
  8
0
 10
222.299
 20
878.583
 11
222.214
 21
878.452
  0
LINE
  8
0
 10
222.214
 20
878.452
 11
222.115
 21
878.33
  0
LINE
  8
0
 10
222.115
 20
878.33
 11
222.004
 21
878.219
  0
LINE
  8
0
 10
222.004
 20
878.219
 11
221.882
 21
878.12
  0
LINE
  8
0
 10
221.882
 20
878.12
 11
221.75
 21
878.034
  0
LINE
  8
0
 10
221.75
 20
878.034
 11
221.61
 21
877.963
  0
LINE
  8
0
 10
221.61
 20
877.963
 11
221.464
 21
877.907
  0
LINE
  8
0
 10
221.464
 20
877.907
 11
221.312
 21
877.866
  0
LINE
  8
0
 10
221.312
 20
877.866
 11
221.157
 21
877.841
  0
LINE
  8
0
 10
221.157
 20
877.841
 11
221
 21
877.833
  0
LINE
  8
0
 10
221
 20
877.833
 11
220.843
 21
877.841
  0
LINE
  8
0
 10
164
 20
810
 11
164
 21
806
  0
LINE
  8
0
 10
164
 20
806
 11
143.5
 21
806
  0
LINE
  8
0
 10
143.5
 20
806
 11
143.5
 21
810
  0
LINE
  8
0
 10
143.5
 20
810
 11
123
 21
810
  0
LINE
  8
0
 10
123
 20
810
 11
123
 21
806
  0
LINE
  8
0
 10
123
 20
806
 11
102.5
 21
806
  0
LINE
  8
0
 10
102.5
 20
806
 11
102.5
 21
810
  0
LINE
  8
0
 10
102.5
 20
810
 11
82
 21
810
  0
LINE
  8
0
 10
82
 20
810
 11
82
 21
806
  0
LINE
  8
0
 10
82
 20
806
 11
61.5
 21
806
  0
LINE
  8
0
 10
61.5
 20
806
 11
61.5
 21
810
  0
LINE
  8
0
 10
61.5
 20
810
 11
41
 21
810
  0
LINE
  8
0
 10
41
 20
810
 11
41
 21
806
  0
LINE
  8
0
 10
41
 20
806
 11
20.5
 21
806
  0
LINE
  8
0
 10
20.5
 20
806
 11
20.5
 21
810
  0
LINE
  8
0
 10
20.5
 20
810
 11
0
 21
810
  0
LINE
  8
0
 10
0
 20
810
 11
0
 21
785.833
  0
LINE
  8
0
 10
0
 20
785.833
 11
-4
 21
785.833
  0
LINE
  8
0
 10
-4
 20
785.833
 11
-4
 21
765.667
  0
LINE
  8
0
 10
-4
 20
765.667
 11
0
 21
765.667
  0
LINE
  8
0
 10
0
 20
765.667
 11
0
 21
745.5
  0
LINE
  8
0
 10
0
 20
745.5
 11
-4
 21
745.5
  0
LINE
  8
0
 10
-4
 20
745.5
 11
-4
 21
725.333
  0
LINE
  8
0
 10
-4
 20
725.333
 11
0
 21
725.333
  0
LINE
  8
0
 10
0
 20
725.333
 11
0
 21
705.167
  0
LINE
  8
0
 10
0
 20
705.167
 11
-4
 21
705.167
  0
LINE
  8
0
 10
-4
 20
705.167
 11
-4
 21
685
  0
LINE
  8
0
 10
-4
 20
685
 11
0
 21
685
  0
LINE
  8
0
 10
0
 20
685
 11
0
 21
664.833
  0
LINE
  8
0
 10
0
 20
664.833
 11
-4
 21
664.833
  0
LINE
  8
0
 10
-4
 20
664.833
 11
-4
 21
644.667
  0
LINE
  8
0
 10
-4
 20
644.667
 11
0
 21
644.667
  0
LINE
  8
0
 10
0
 20
644.667
 11
0
 21
624.5
  0
LINE
  8
0
 10
0
 20
624.5
 11
-4
 21
624.5
  0
LINE
  8
0
 10
-4
 20
624.5
 11
-4
 21
604.333
  0
LINE
  8
0
 10
-4
 20
604.333
 11
0
 21
604.333
  0
LINE
  8
0
 10
0
 20
604.333
 11
0
 21
584.167
  0
LINE
  8
0
 10
0
 20
584.167
 11
-4
 21
584.167
  0
LINE
  8
0
 10
-4
 20
584.167
 11
-4
 21
564
  0
LINE
  8
0
 10
-4
 20
564
 11
0
 21
564
  0
LINE
  8
0
 10
0
 20
564
 11
0
 21
560
  0
LINE
  8
0
 10
0
 20
560
 11
20.5
 21
560
  0
LINE
  8
0
 10
20.5
 20
560
 11
20.5
 21
564
  0
LINE
  8
0
 10
20.5
 20
564
 11
41
 21
564
  0
LINE
  8
0
 10
41
 20
564
 11
41
 21
560
  0
LINE
  8
0
 10
41
 20
560
 11
61.5
 21
560
  0
LINE
  8
0
 10
61.5
 20
560
 11
61.5
 21
564
  0
LINE
  8
0
 10
61.5
 20
564
 11
82
 21
564
  0
LINE
  8
0
 10
82
 20
564
 11
82
 21
560
  0
LINE
  8
0
 10
82
 20
560
 11
102.5
 21
560
  0
LINE
  8
0
 10
102.5
 20
560
 11
102.5
 21
564
  0
LINE
  8
0
 10
102.5
 20
564
 11
123
 21
564
  0
LINE
  8
0
 10
123
 20
564
 11
123
 21
560
  0
LINE
  8
0
 10
123
 20
560
 11
143.5
 21
560
  0
LINE
  8
0
 10
143.5
 20
560
 11
143.5
 21
564
  0
LINE
  8
0
 10
143.5
 20
564
 11
164
 21
564
  0
LINE
  8
0
 10
164
 20
564
 11
164
 21
560
  0
LINE
  8
0
 10
164
 20
560
 11
184.5
 21
560
  0
LINE
  8
0
 10
184.5
 20
560
 11
184.5
 21
564
  0
LINE
  8
0
 10
184.5
 20
564
 11
205
 21
564
  0
LINE
  8
0
 10
205
 20
564
 11
205
 21
560
  0
LINE
  8
0
 10
205
 20
560
 11
225.5
 21
560
  0
LINE
  8
0
 10
225.5
 20
560
 11
225.5
 21
564
  0
LINE
  8
0
 10
225.5
 20
564
 11
246
 21
564
  0
LINE
  8
0
 10
246
 20
564
 11
246
 21
806
  0
LINE
  8
0
 10
246
 20
806
 11
225.5
 21
806
  0
LINE
  8
0
 10
225.5
 20
806
 11
225.5
 21
810
  0
LINE
  8
0
 10
225.5
 20
810
 11
205
 21
810
  0
LINE
  8
0
 10
205
 20
810
 11
205
 21
806
  0
LINE
  8
0
 10
205
 20
806
 11
184.5
 21
806
  0
LINE
  8
0
 10
184.5
 20
806
 11
184.5
 21
810
  0
LINE
  8
0
 10
184.5
 20
810
 11
164
 21
810
  0
LINE
  8
0
 10
235.343
 20
698.258
 11
235.188
 21
698.283
  0
LINE
  8
0
 10
235.188
 20
698.283
 11
235.036
 21
698.323
  0
LINE
  8
0
 10
235.036
 20
698.323
 11
234.89
 21
698.38
  0
LINE
  8
0
 10
234.89
 20
698.38
 11
234.75
 21
698.451
  0
LINE
  8
0
 10
234.75
 20
698.451
 11
234.618
 21
698.536
  0
LINE
  8
0
 10
234.618
 20
698.536
 11
234.496
 21
698.635
  0
LINE
  8
0
 10
234.496
 20
698.635
 11
234.385
 21
698.746
  0
LINE
  8
0
 10
234.385
 20
698.746
 11
234.286
 21
698.868
  0
LINE
  8
0
 10
234.286
 20
698.868
 11
234.201
 21
699
  0
LINE
  8
0
 10
234.201
 20
699
 11
234.13
 21
699.14
  0
LINE
  8
0
 10
234.13
 20
699.14
 11
234.073
 21
699.286
  0
LINE
  8
0
 10
234.073
 20
699.286
 11
234.033
 21
699.438
  0
LINE
  8
0
 10
234.033
 20
699.438
 11
234.008
 21
699.593
  0
LINE
  8
0
 10
234.008
 20
699.593
 11
234
 21
699.75
  0
LINE
  8
0
 10
234
 20
699.75
 11
234.008
 21
699.907
  0
LINE
  8
0
 10
234.008
 20
699.907
 11
234.033
 21
700.062
  0
LINE
  8
0
 10
234.033
 20
700.062
 11
234.073
 21
700.214
  0
LINE
  8
0
 10
234.073
 20
700.214
 11
234.13
 21
700.36
  0
LINE
  8
0
 10
234.13
 20
700.36
 11
234.201
 21
700.5
  0
LINE
  8
0
 10
234.201
 20
700.5
 11
234.286
 21
700.632
  0
LINE
  8
0
 10
234.286
 20
700.632
 11
234.385
 21
700.754
  0
LINE
  8
0
 10
234.385
 20
700.754
 11
234.496
 21
700.865
  0
LINE
  8
0
 10
234.496
 20
700.865
 11
234.618
 21
700.964
  0
LINE
  8
0
 10
234.618
 20
700.964
 11
234.75
 21
701.049
  0
LINE
  8
0
 10
234.75
 20
701.049
 11
234.89
 21
701.12
  0
LINE
  8
0
 10
234.89
 20
701.12
 11
235.036
 21
701.177
  0
LINE
  8
0
 10
235.036
 20
701.177
 11
235.188
 21
701.217
  0
LINE
  8
0
 10
235.188
 20
701.217
 11
235.343
 21
701.242
  0
LINE
  8
0
 10
235.343
 20
701.242
 11
235.5
 21
701.25
  0
LINE
  8
0
 10
235.5
 20
701.25
 11
235.657
 21
701.242
  0
LINE
  8
0
 10
235.657
 20
701.242
 11
235.812
 21
701.217
  0
LINE
  8
0
 10
235.812
 20
701.217
 11
235.964
 21
701.177
  0
LINE
  8
0
 10
235.964
 20
701.177
 11
236.11
 21
701.12
  0
LINE
  8
0
 10
236.11
 20
701.12
 11
236.25
 21
701.049
  0
LINE
  8
0
 10
236.25
 20
701.049
 11
236.382
 21
700.964
  0
LINE
  8
0
 10
236.382
 20
700.964
 11
236.504
 21
700.865
  0
LINE
  8
0
 10
236.504
 20
700.865
 11
236.615
 21
700.754
  0
LINE
  8
0
 10
236.615
 20
700.754
 11
236.714
 21
700.632
  0
LINE
  8
0
 10
236.714
 20
700.632
 11
236.799
 21
700.5
  0
LINE
  8
0
 10
236.799
 20
700.5
 11
236.87
 21
700.36
  0
LINE
  8
0
 10
236.87
 20
700.36
 11
236.927
 21
700.214
  0
LINE
  8
0
 10
236.927
 20
700.214
 11
236.967
 21
700.062
  0
LINE
  8
0
 10
236.967
 20
700.062
 11
236.992
 21
699.907
  0
LINE
  8
0
 10
236.992
 20
699.907
 11
237
 21
699.75
  0
LINE
  8
0
 10
237
 20
699.75
 11
236.992
 21
699.593
  0
LINE
  8
0
 10
236.992
 20
699.593
 11
236.967
 21
699.438
  0
LINE
  8
0
 10
236.967
 20
699.438
 11
236.927
 21
699.286
  0
LINE
  8
0
 10
236.927
 20
699.286
 11
236.87
 21
699.14
  0
LINE
  8
0
 10
236.87
 20
699.14
 11
236.799
 21
699
  0
LINE
  8
0
 10
236.799
 20
699
 11
236.714
 21
698.868
  0
LINE
  8
0
 10
236.714
 20
698.868
 11
236.615
 21
698.746
  0
LINE
  8
0
 10
236.615
 20
698.746
 11
236.504
 21
698.635
  0
LINE
  8
0
 10
236.504
 20
698.635
 11
236.382
 21
698.536
  0
LINE
  8
0
 10
236.382
 20
698.536
 11
236.25
 21
698.451
  0
LINE
  8
0
 10
236.25
 20
698.451
 11
236.11
 21
698.38
  0
LINE
  8
0
 10
236.11
 20
698.38
 11
235.964
 21
698.323
  0
LINE
  8
0
 10
235.964
 20
698.323
 11
235.812
 21
698.283
  0
LINE
  8
0
 10
235.812
 20
698.283
 11
235.657
 21
698.258
  0
LINE
  8
0
 10
235.657
 20
698.258
 11
235.5
 21
698.25
  0
LINE
  8
0
 10
235.5
 20
698.25
 11
235.343
 21
698.258
  0
LINE
  8
0
 10
235.343
 20
668.758
 11
235.188
 21
668.783
  0
LINE
  8
0
 10
235.188
 20
668.783
 11
235.036
 21
668.823
  0
LINE
  8
0
 10
235.036
 20
668.823
 11
234.89
 21
668.88
  0
LINE
  8
0
 10
234.89
 20
668.88
 11
234.75
 21
668.951
  0
LINE
  8
0
 10
234.75
 20
668.951
 11
234.618
 21
669.036
  0
LINE
  8
0
 10
234.618
 20
669.036
 11
234.496
 21
669.135
  0
LINE
  8
0
 10
234.496
 20
669.135
 11
234.385
 21
669.246
  0
LINE
  8
0
 10
234.385
 20
669.246
 11
234.286
 21
669.368
  0
LINE
  8
0
 10
234.286
 20
669.368
 11
234.201
 21
669.5
  0
LINE
  8
0
 10
234.201
 20
669.5
 11
234.13
 21
669.64
  0
LINE
  8
0
 10
234.13
 20
669.64
 11
234.073
 21
669.786
  0
LINE
  8
0
 10
234.073
 20
669.786
 11
234.033
 21
669.938
  0
LINE
  8
0
 10
234.033
 20
669.938
 11
234.008
 21
670.093
  0
LINE
  8
0
 10
234.008
 20
670.093
 11
234
 21
670.25
  0
LINE
  8
0
 10
234
 20
670.25
 11
234.008
 21
670.407
  0
LINE
  8
0
 10
234.008
 20
670.407
 11
234.033
 21
670.562
  0
LINE
  8
0
 10
234.033
 20
670.562
 11
234.073
 21
670.714
  0
LINE
  8
0
 10
234.073
 20
670.714
 11
234.13
 21
670.86
  0
LINE
  8
0
 10
234.13
 20
670.86
 11
234.201
 21
671
  0
LINE
  8
0
 10
234.201
 20
671
 11
234.286
 21
671.132
  0
LINE
  8
0
 10
234.286
 20
671.132
 11
234.385
 21
671.254
  0
LINE
  8
0
 10
234.385
 20
671.254
 11
234.496
 21
671.365
  0
LINE
  8
0
 10
234.496
 20
671.365
 11
234.618
 21
671.464
  0
LINE
  8
0
 10
234.618
 20
671.464
 11
234.75
 21
671.549
  0
LINE
  8
0
 10
234.75
 20
671.549
 11
234.89
 21
671.62
  0
LINE
  8
0
 10
234.89
 20
671.62
 11
235.036
 21
671.677
  0
LINE
  8
0
 10
235.036
 20
671.677
 11
235.188
 21
671.717
  0
LINE
  8
0
 10
235.188
 20
671.717
 11
235.343
 21
671.742
  0
LINE
  8
0
 10
235.343
 20
671.742
 11
235.5
 21
671.75
  0
LINE
  8
0
 10
235.5
 20
671.75
 11
235.657
 21
671.742
  0
LINE
  8
0
 10
235.657
 20
671.742
 11
235.812
 21
671.717
  0
LINE
  8
0
 10
235.812
 20
671.717
 11
235.964
 21
671.677
  0
LINE
  8
0
 10
235.964
 20
671.677
 11
236.11
 21
671.62
  0
LINE
  8
0
 10
236.11
 20
671.62
 11
236.25
 21
671.549
  0
LINE
  8
0
 10
236.25
 20
671.549
 11
236.382
 21
671.464
  0
LINE
  8
0
 10
236.382
 20
671.464
 11
236.504
 21
671.365
  0
LINE
  8
0
 10
236.504
 20
671.365
 11
236.615
 21
671.254
  0
LINE
  8
0
 10
236.615
 20
671.254
 11
236.714
 21
671.132
  0
LINE
  8
0
 10
236.714
 20
671.132
 11
236.799
 21
671
  0
LINE
  8
0
 10
236.799
 20
671
 11
236.87
 21
670.86
  0
LINE
  8
0
 10
236.87
 20
670.86
 11
236.927
 21
670.714
  0
LINE
  8
0
 10
236.927
 20
670.714
 11
236.967
 21
670.562
  0
LINE
  8
0
 10
236.967
 20
670.562
 11
236.992
 21
670.407
  0
LINE
  8
0
 10
236.992
 20
670.407
 11
237
 21
670.25
  0
LINE
  8
0
 10
237
 20
670.25
 11
236.992
 21
670.093
  0
LINE
  8
0
 10
236.992
 20
670.093
 11
236.967
 21
669.938
  0
LINE
  8
0
 10
236.967
 20
669.938
 11
236.927
 21
669.786
  0
LINE
  8
0
 10
236.927
 20
669.786
 11
236.87
 21
669.64
  0
LINE
  8
0
 10
236.87
 20
669.64
 11
236.799
 21
669.5
  0
LINE
  8
0
 10
236.799
 20
669.5
 11
236.714
 21
669.368
  0
LINE
  8
0
 10
236.714
 20
669.368
 11
236.615
 21
669.246
  0
LINE
  8
0
 10
236.615
 20
669.246
 11
236.504
 21
669.135
  0
LINE
  8
0
 10
236.504
 20
669.135
 11
236.382
 21
669.036
  0
LINE
  8
0
 10
236.382
 20
669.036
 11
236.25
 21
668.951
  0
LINE
  8
0
 10
236.25
 20
668.951
 11
236.11
 21
668.88
  0
LINE
  8
0
 10
236.11
 20
668.88
 11
235.964
 21
668.823
  0
LINE
  8
0
 10
235.964
 20
668.823
 11
235.812
 21
668.783
  0
LINE
  8
0
 10
235.812
 20
668.783
 11
235.657
 21
668.758
  0
LINE
  8
0
 10
235.657
 20
668.758
 11
235.5
 21
668.75
  0
LINE
  8
0
 10
235.5
 20
668.75
 11
235.343
 21
668.758
  0
LINE
  8
0
 10
0
 20
282
 11
20.5
 21
282
  0
LINE
  8
0
 10
20.5
 20
282
 11
20.5
 21
278
  0
LINE
  8
0
 10
20.5
 20
278
 11
41
 21
278
  0
LINE
  8
0
 10
41
 20
278
 11
41
 21
282
  0
LINE
  8
0
 10
41
 20
282
 11
61.5
 21
282
  0
LINE
  8
0
 10
61.5
 20
282
 11
61.5
 21
278
  0
LINE
  8
0
 10
61.5
 20
278
 11
82
 21
278
  0
LINE
  8
0
 10
82
 20
278
 11
82
 21
282
  0
LINE
  8
0
 10
82
 20
282
 11
102.5
 21
282
  0
LINE
  8
0
 10
102.5
 20
282
 11
102.5
 21
278
  0
LINE
  8
0
 10
102.5
 20
278
 11
123
 21
278
  0
LINE
  8
0
 10
123
 20
278
 11
123
 21
282
  0
LINE
  8
0
 10
123
 20
282
 11
143.5
 21
282
  0
LINE
  8
0
 10
143.5
 20
282
 11
143.5
 21
278
  0
LINE
  8
0
 10
143.5
 20
278
 11
164
 21
278
  0
LINE
  8
0
 10
164
 20
278
 11
164
 21
282
  0
LINE
  8
0
 10
164
 20
282
 11
184.5
 21
282
  0
LINE
  8
0
 10
184.5
 20
282
 11
184.5
 21
278
  0
LINE
  8
0
 10
184.5
 20
278
 11
205
 21
278
  0
LINE
  8
0
 10
205
 20
278
 11
205
 21
282
  0
LINE
  8
0
 10
205
 20
282
 11
225.5
 21
282
  0
LINE
  8
0
 10
225.5
 20
282
 11
225.5
 21
278
  0
LINE
  8
0
 10
225.5
 20
278
 11
246
 21
278
  0
LINE
  8
0
 10
246
 20
278
 11
246
 21
558
  0
LINE
  8
0
 10
246
 20
558
 11
225.5
 21
558
  0
LINE
  8
0
 10
225.5
 20
558
 11
225.5
 21
554
  0
LINE
  8
0
 10
225.5
 20
554
 11
205
 21
554
  0
LINE
  8
0
 10
205
 20
554
 11
205
 21
558
  0
LINE
  8
0
 10
205
 20
558
 11
184.5
 21
558
  0
LINE
  8
0
 10
184.5
 20
558
 11
184.5
 21
554
  0
LINE
  8
0
 10
184.5
 20
554
 11
164
 21
554
  0
LINE
  8
0
 10
164
 20
554
 11
164
 21
558
  0
LINE
  8
0
 10
164
 20
558
 11
143.5
 21
558
  0
LINE
  8
0
 10
143.5
 20
558
 11
143.5
 21
554
  0
LINE
  8
0
 10
143.5
 20
554
 11
123
 21
554
  0
LINE
  8
0
 10
123
 20
554
 11
123
 21
558
  0
LINE
  8
0
 10
123
 20
558
 11
102.5
 21
558
  0
LINE
  8
0
 10
102.5
 20
558
 11
102.5
 21
554
  0
LINE
  8
0
 10
102.5
 20
554
 11
82
 21
554
  0
LINE
  8
0
 10
82
 20
554
 11
82
 21
558
  0
LINE
  8
0
 10
82
 20
558
 11
61.5
 21
558
  0
LINE
  8
0
 10
61.5
 20
558
 11
61.5
 21
554
  0
LINE
  8
0
 10
61.5
 20
554
 11
41
 21
554
  0
LINE
  8
0
 10
41
 20
554
 11
41
 21
558
  0
LINE
  8
0
 10
41
 20
558
 11
20.5
 21
558
  0
LINE
  8
0
 10
20.5
 20
558
 11
20.5
 21
554
  0
LINE
  8
0
 10
20.5
 20
554
 11
0
 21
554
  0
LINE
  8
0
 10
0
 20
554
 11
0
 21
531.333
  0
LINE
  8
0
 10
0
 20
531.333
 11
-4
 21
531.333
  0
LINE
  8
0
 10
-4
 20
531.333
 11
-4
 21
508.667
  0
LINE
  8
0
 10
-4
 20
508.667
 11
0
 21
508.667
  0
LINE
  8
0
 10
0
 20
508.667
 11
0
 21
486
  0
LINE
  8
0
 10
0
 20
486
 11
-4
 21
486
  0
LINE
  8
0
 10
-4
 20
486
 11
-4
 21
463.333
  0
LINE
  8
0
 10
-4
 20
463.333
 11
0
 21
463.333
  0
LINE
  8
0
 10
0
 20
463.333
 11
0
 21
440.667
  0
LINE
  8
0
 10
0
 20
440.667
 11
-4
 21
440.667
  0
LINE
  8
0
 10
-4
 20
440.667
 11
-4
 21
418
  0
LINE
  8
0
 10
-4
 20
418
 11
0
 21
418
  0
LINE
  8
0
 10
0
 20
418
 11
0
 21
395.333
  0
LINE
  8
0
 10
0
 20
395.333
 11
-4
 21
395.333
  0
LINE
  8
0
 10
-4
 20
395.333
 11
-4
 21
372.667
  0
LINE
  8
0
 10
-4
 20
372.667
 11
0
 21
372.667
  0
LINE
  8
0
 10
0
 20
372.667
 11
0
 21
350
  0
LINE
  8
0
 10
0
 20
350
 11
-4
 21
350
  0
LINE
  8
0
 10
-4
 20
350
 11
-4
 21
327.333
  0
LINE
  8
0
 10
-4
 20
327.333
 11
0
 21
327.333
  0
LINE
  8
0
 10
0
 20
327.333
 11
0
 21
304.667
  0
LINE
  8
0
 10
0
 20
304.667
 11
-4
 21
304.667
  0
LINE
  8
0
 10
-4
 20
304.667
 11
-4
 21
278
  0
LINE
  8
0
 10
-4
 20
278
 11
0
 21
278
  0
LINE
  8
0
 10
0
 20
278
 11
0
 21
282
  0
LINE
  8
0
 10
0
 20
0
 11
20.5
 21
0
  0
LINE
  8
0
 10
20.5
 20
0
 11
20.5
 21
-4
  0
LINE
  8
0
 10
20.5
 20
-4
 11
41
 21
-4
  0
LINE
  8
0
 10
41
 20
-4
 11
41
 21
0
  0
LINE
  8
0
 10
41
 20
0
 11
61.5
 21
0
  0
LINE
  8
0
 10
61.5
 20
0
 11
61.5
 21
-4
  0
LINE
  8
0
 10
61.5
 20
-4
 11
82
 21
-4
  0
LINE
  8
0
 10
82
 20
-4
 11
82
 21
0
  0
LINE
  8
0
 10
82
 20
0
 11
102.5
 21
0
  0
LINE
  8
0
 10
102.5
 20
0
 11
102.5
 21
-4
  0
LINE
  8
0
 10
102.5
 20
-4
 11
123
 21
-4
  0
LINE
  8
0
 10
123
 20
-4
 11
123
 21
0
  0
LINE
  8
0
 10
123
 20
0
 11
143.5
 21
0
  0
LINE
  8
0
 10
143.5
 20
0
 11
143.5
 21
-4
  0
LINE
  8
0
 10
143.5
 20
-4
 11
164
 21
-4
  0
LINE
  8
0
 10
164
 20
-4
 11
164
 21
0
  0
LINE
  8
0
 10
164
 20
0
 11
184.5
 21
0
  0
LINE
  8
0
 10
184.5
 20
0
 11
184.5
 21
-4
  0
LINE
  8
0
 10
184.5
 20
-4
 11
205
 21
-4
  0
LINE
  8
0
 10
205
 20
-4
 11
205
 21
0
  0
LINE
  8
0
 10
205
 20
0
 11
225.5
 21
0
  0
LINE
  8
0
 10
225.5
 20
0
 11
225.5
 21
-4
  0
LINE
  8
0
 10
225.5
 20
-4
 11
246
 21
-4
  0
LINE
  8
0
 10
246
 20
-4
 11
246
 21
272
  0
LINE
  8
0
 10
246
 20
272
 11
225.5
 21
272
  0
LINE
  8
0
 10
225.5
 20
272
 11
225.5
 21
276
  0
LINE
  8
0
 10
225.5
 20
276
 11
205
 21
276
  0
LINE
  8
0
 10
205
 20
276
 11
205
 21
272
  0
LINE
  8
0
 10
205
 20
272
 11
184.5
 21
272
  0
LINE
  8
0
 10
184.5
 20
272
 11
184.5
 21
276
  0
LINE
  8
0
 10
184.5
 20
276
 11
164
 21
276
  0
LINE
  8
0
 10
164
 20
276
 11
164
 21
272
  0
LINE
  8
0
 10
164
 20
272
 11
143.5
 21
272
  0
LINE
  8
0
 10
143.5
 20
272
 11
143.5
 21
276
  0
LINE
  8
0
 10
143.5
 20
276
 11
123
 21
276
  0
LINE
  8
0
 10
123
 20
276
 11
123
 21
272
  0
LINE
  8
0
 10
123
 20
272
 11
102.5
 21
272
  0
LINE
  8
0
 10
102.5
 20
272
 11
102.5
 21
276
  0
LINE
  8
0
 10
102.5
 20
276
 11
82
 21
276
  0
LINE
  8
0
 10
82
 20
276
 11
82
 21
272
  0
LINE
  8
0
 10
82
 20
272
 11
61.5
 21
272
  0
LINE
  8
0
 10
61.5
 20
272
 11
61.5
 21
276
  0
LINE
  8
0
 10
61.5
 20
276
 11
41
 21
276
  0
LINE
  8
0
 10
41
 20
276
 11
41
 21
272
  0
LINE
  8
0
 10
41
 20
272
 11
20.5
 21
272
  0
LINE
  8
0
 10
20.5
 20
272
 11
20.5
 21
276
  0
LINE
  8
0
 10
20.5
 20
276
 11
-4
 21
276
  0
LINE
  8
0
 10
-4
 20
276
 11
-4
 21
272
  0
LINE
  8
0
 10
-4
 20
272
 11
0
 21
272
  0
LINE
  8
0
 10
0
 20
272
 11
0
 21
249.333
  0
LINE
  8
0
 10
0
 20
249.333
 11
-4
 21
249.333
  0
LINE
  8
0
 10
-4
 20
249.333
 11
-4
 21
226.667
  0
LINE
  8
0
 10
-4
 20
226.667
 11
0
 21
226.667
  0
LINE
  8
0
 10
0
 20
226.667
 11
0
 21
204
  0
LINE
  8
0
 10
0
 20
204
 11
-4
 21
204
  0
LINE
  8
0
 10
-4
 20
204
 11
-4
 21
181.333
  0
LINE
  8
0
 10
-4
 20
181.333
 11
0
 21
181.333
  0
LINE
  8
0
 10
0
 20
181.333
 11
0
 21
158.667
  0
LINE
  8
0
 10
0
 20
158.667
 11
-4
 21
158.667
  0
LINE
  8
0
 10
-4
 20
158.667
 11
-4
 21
136
  0
LINE
  8
0
 10
-4
 20
136
 11
0
 21
136
  0
LINE
  8
0
 10
0
 20
136
 11
0
 21
113.333
  0
LINE
  8
0
 10
0
 20
113.333
 11
-4
 21
113.333
  0
LINE
  8
0
 10
-4
 20
113.333
 11
-4
 21
90.6667
  0
LINE
  8
0
 10
-4
 20
90.6667
 11
0
 21
90.6667
  0
LINE
  8
0
 10
0
 20
90.6667
 11
0
 21
68
  0
LINE
  8
0
 10
0
 20
68
 11
-4
 21
68
  0
LINE
  8
0
 10
-4
 20
68
 11
-4
 21
45.3333
  0
LINE
  8
0
 10
-4
 20
45.3333
 11
0
 21
45.3333
  0
LINE
  8
0
 10
0
 20
45.3333
 11
0
 21
22.6667
  0
LINE
  8
0
 10
0
 20
22.6667
 11
-4
 21
22.6667
  0
LINE
  8
0
 10
-4
 20
22.6667
 11
-4
 21
-4
  0
LINE
  8
0
 10
-4
 20
-4
 11
0
 21
-4
  0
LINE
  8
0
 10
0
 20
-4
 11
0
 21
0
  0
ENDSEC
  0
SECTION
  2
OBJECTS
  0
DICTIONARY
  0
ENDSEC
  0
EOF
