<?xml version="1.0" standalone="no"?>
<!DOCTYPE svg PUBLIC "-//W3C//DTD SVG 1.1//EN" "http://www.w3.org/Graphics/SVG/1.1/DTD/svg11.dtd">
<svg width="40mm" height="26mm" viewBox="71 34 40 26" xmlns="http://www.w3.org/2000/svg" version="1.1">
<title>OpenSCAD Model</title>
<path d="
M 72.65,34.25 L 71.85,34.25 L 71.85,40.55 L 72.65,40.55 z
M 109.756,59.2902 L 109.812,59.285 L 109.867,59.2762 L 109.922,59.264 L 109.976,59.2483 L 110.028,59.2294
 L 110.08,59.2071 L 110.13,59.1817 L 110.178,59.1531 L 110.224,59.1216 L 110.269,59.0873 L 110.311,59.0502
 L 110.35,59.0106 L 110.387,58.9686 L 110.422,58.9243 L 110.453,58.8779 L 110.482,58.8297 L 110.507,58.7798
 L 110.529,58.7284 L 110.548,58.6756 L 110.564,58.6218 L 110.576,58.5671 L 110.585,58.5118 L 110.59,58.456
 L 110.592,58.4 L 110.59,58.344 L 110.585,58.2882 L 110.576,58.2328 L 110.564,58.1782 L 110.548,58.1243
 L 110.529,58.0716 L 110.507,58.0202 L 110.482,57.9703 L 110.453,57.922 L 110.422,57.8757 L 110.387,57.8314
 L 110.35,57.7894 L 110.311,57.7498 L 110.269,57.7127 L 110.224,57.6783 L 110.178,57.6469 L 110.13,57.6183
 L 110.08,57.5929 L 110.028,57.5706 L 109.976,57.5517 L 109.922,57.536 L 109.867,57.5238 L 109.812,57.515
 L 109.756,57.5098 L 109.7,57.508 L 109.644,57.5098 L 109.588,57.515 L 109.533,57.5238 L 109.478,57.536
 L 109.424,57.5517 L 109.372,57.5706 L 109.32,57.5929 L 109.27,57.6183 L 109.222,57.6469 L 109.176,57.6783
 L 109.131,57.7127 L 109.089,57.7498 L 109.05,57.7894 L 109.013,57.8314 L 108.978,57.8757 L 108.947,57.922
 L 108.918,57.9703 L 108.893,58.0202 L 108.871,58.0716 L 108.852,58.1243 L 108.836,58.1782 L 108.824,58.2328
 L 108.815,58.2882 L 108.81,58.344 L 108.808,58.4 L 108.81,58.456 L 108.815,58.5118 L 108.824,58.5671
 L 108.836,58.6218 L 108.852,58.6756 L 108.871,58.7284 L 108.893,58.7798 L 108.918,58.8297 L 108.947,58.8779
 L 108.978,58.9243 L 109.013,58.9686 L 109.05,59.0106 L 109.089,59.0502 L 109.131,59.0873 L 109.176,59.1216
 L 109.222,59.1531 L 109.27,59.1817 L 109.32,59.2071 L 109.372,59.2294 L 109.424,59.2483 L 109.478,59.264
 L 109.533,59.2762 L 109.588,59.285 L 109.644,59.2902 L 109.7,59.292 z
" stroke="black" fill="lightgray" stroke-width="0.5"/>
</svg>
