<?xml version="1.0" standalone="no"?>
<!DOCTYPE svg PUBLIC "-//W3C//DTD SVG 1.1//EN" "http://www.w3.org/Graphics/SVG/1.1/DTD/svg11.dtd">
<svg width="7mm" height="26mm" viewBox="67 34 7 26" xmlns="http://www.w3.org/2000/svg" version="1.1">
<title>OpenSCAD Model</title>
<path d="
M 68.45,34.25 L 67.65,34.25 L 67.65,40.55 L 68.45,40.55 z
M 72.556,59.2902 L 72.6118,59.285 L 72.6671,59.2762 L 72.7218,59.264 L 72.7756,59.2483 L 72.8284,59.2294
 L 72.8798,59.2071 L 72.9297,59.1817 L 72.978,59.1531 L 73.0243,59.1216 L 73.0686,59.0873 L 73.1106,59.0502
 L 73.1502,59.0106 L 73.1873,58.9686 L 73.2216,58.9243 L 73.2531,58.8779 L 73.2817,58.8297 L 73.3071,58.7798
 L 73.3293,58.7284 L 73.3483,58.6756 L 73.364,58.6218 L 73.3762,58.5671 L 73.385,58.5118 L 73.3902,58.456
 L 73.392,58.4 L 73.3902,58.344 L 73.385,58.2882 L 73.3762,58.2328 L 73.364,58.1782 L 73.3483,58.1243
 L 73.3293,58.0716 L 73.3071,58.0202 L 73.2817,57.9703 L 73.2531,57.922 L 73.2216,57.8757 L 73.1873,57.8314
 L 73.1502,57.7894 L 73.1106,57.7498 L 73.0686,57.7127 L 73.0243,57.6783 L 72.978,57.6469 L 72.9297,57.6183
 L 72.8798,57.5929 L 72.8284,57.5706 L 72.7756,57.5517 L 72.7218,57.536 L 72.6671,57.5238 L 72.6118,57.515
 L 72.556,57.5098 L 72.5,57.508 L 72.444,57.5098 L 72.3882,57.515 L 72.3329,57.5238 L 72.2782,57.536
 L 72.2243,57.5517 L 72.1716,57.5706 L 72.1202,57.5929 L 72.0703,57.6183 L 72.022,57.6469 L 71.9757,57.6783
 L 71.9314,57.7127 L 71.8894,57.7498 L 71.8497,57.7894 L 71.8127,57.8314 L 71.7784,57.8757 L 71.7469,57.922
 L 71.7183,57.9703 L 71.6929,58.0202 L 71.6706,58.0716 L 71.6517,58.1243 L 71.636,58.1782 L 71.6238,58.2328
 L 71.615,58.2882 L 71.6098,58.344 L 71.608,58.4 L 71.6098,58.456 L 71.615,58.5118 L 71.6238,58.5671
 L 71.636,58.6218 L 71.6517,58.6756 L 71.6706,58.7284 L 71.6929,58.7798 L 71.7183,58.8297 L 71.7469,58.8779
 L 71.7784,58.9243 L 71.8127,58.9686 L 71.8497,59.0106 L 71.8894,59.0502 L 71.9314,59.0873 L 71.9757,59.1216
 L 72.022,59.1531 L 72.0703,59.1817 L 72.1202,59.2071 L 72.1716,59.2294 L 72.2243,59.2483 L 72.2782,59.264
 L 72.3329,59.2762 L 72.3882,59.285 L 72.444,59.2902 L 72.5,59.292 z
" stroke="black" fill="lightgray" stroke-width="0.5"/>
</svg>
